<svg width="150" height="150" viewBox="0 0 150 150" fill="none" xmlns="http://www.w3.org/2000/svg">
<rect width="150" height="150" fill="#151923"/>
<mask id="mask0" mask-type="alpha" maskUnits="userSpaceOnUse" x="23" y="59" width="105" height="32">
<path d="M7.11111 25.0159C6.6455 25.3968 6.51852 25.9048 6.68783 26.328C6.81481 26.7513 7.19576 27.0899 7.7037 27.0899H22.1799V29.5026H2.4127V26.2434L10.1587 18.709C11.2169 17.6508 12.5714 17.1005 14.0952 16.4656C16 15.6614 17.4391 14.8571 18.7513 13.291C18.8783 13.1217 19.2169 12.7831 19.6825 12.2328C20.1481 11.7249 20.6984 11.1323 21.2487 10.4974C22.3915 9.22751 23.5767 7.91535 24.2116 7.23809C24.4656 6.98413 24.5926 6.68783 24.5926 6.39154V1.39682C24.5926 0.592592 24.1693 0.169312 23.3227 0.169312H1.98942C1.14286 0.169312 0.719576 0.592592 0.719576 1.39682V6.22222C0.719576 7.02646 1.14286 7.40741 1.98942 7.40741H14.3492L12.5714 9.31217C12.0635 9.8201 12.2751 10.455 12.6984 10.8783C13.1217 11.3016 13.7989 11.4709 14.3069 10.963L17.9048 6.98413C18.2434 6.60317 18.2857 6.09524 18.1164 5.71428C17.9471 5.33333 17.5238 4.99471 17.0159 4.99471H3.04762V2.58201H22.1799V5.96826L19.2593 9.18518C18.6243 9.8201 18.0741 10.455 17.5661 11.0053C16.5503 12.1481 16.2116 12.5291 15.746 12.9101C15.2381 13.291 14.8148 13.545 14.2222 13.7989L13.0794 14.3069C11.2593 14.9841 9.77778 15.6614 8.38095 17.0582L0.338624 24.8889C0.126984 25.1005 0 25.3968 0 25.7778V30.7302C0 31.5344 0.42328 31.9153 1.26984 31.9153H23.3227C24.1693 31.9153 24.5926 31.5344 24.5926 30.7302V25.9048C24.5926 25.1005 24.1693 24.6772 23.3227 24.6772H10.9206L13.291 22.2645C13.8413 21.7566 13.7143 21.0794 13.3333 20.6138C12.9524 20.1481 12.2751 19.9365 11.7672 20.4444L7.11111 25.0159Z" transform="translate(23 59)" fill="#151923"/>
<path d="M36.9679 19.5556C36.9679 18.7513 36.3753 18.4127 35.7827 18.4127C35.1901 18.4127 34.5552 18.836 34.5552 19.5556V29.5026H32.1425V19.6825C32.1425 17.9471 33.3277 16.8889 34.4706 15.6614C35.6557 14.3492 36.9679 13.0794 36.9679 11.2593V1.3545C36.9679 0.550264 36.5446 0.169312 35.6981 0.169312H30.9997C30.1531 0.169312 29.7298 0.550264 29.7298 1.3545V10.7936C29.7298 11.5979 30.3647 11.9365 30.9573 11.9365C31.5499 11.9365 32.1425 11.5979 32.1425 10.7936V2.58201H34.5552V10.8783C34.5552 12.1905 33.6663 13.0794 32.6081 14.1376C31.1266 15.619 29.7298 17.0582 29.7298 19.3862V30.7302C29.7298 31.5344 30.1531 31.9153 30.9997 31.9153H35.6981C36.5446 31.9153 36.9679 31.5344 36.9679 30.7302V19.5556Z" transform="translate(23 59)" fill="#151923"/>
<path d="M66.1233 24C66.462 24.4656 66.9699 24.5926 67.4355 24.5079C67.9011 24.4233 68.2397 24.0847 68.2397 23.2804V2.58201H70.6524V29.5026H67.2239L51.1815 7.78836C50.8429 7.28042 50.2503 7.06878 49.7847 7.19577C49.3191 7.32275 48.9381 7.74603 48.9381 8.59259V10.5397C48.9381 11.0053 48.6419 11.5132 48.0493 12.0635C47.4567 12.6138 46.8217 13.2063 46.1868 13.8413C45.044 14.8995 44.1551 16.2963 44.1551 17.6931V30.7302C44.1551 31.5344 44.5784 31.9153 45.4249 31.9153H50.081C50.9276 31.9153 51.3508 31.5344 51.3508 30.7302V18.0317C51.3508 17.2275 50.7583 16.8466 50.1657 16.8466C49.5731 16.8466 48.9381 17.2275 48.9381 18.0317V29.5026H46.5678V18.0741C46.5254 16.5926 47.499 15.9577 48.8112 14.6455C49.7001 13.7989 50.208 13.291 50.5466 12.9101C50.8429 12.5291 50.9276 12.2328 51.0545 11.7249L65.6154 31.4074C65.8694 31.746 66.1657 31.9153 66.5466 31.9153H71.7953C72.6418 31.9153 73.0651 31.5344 73.0651 30.7302V1.3545C73.0651 0.550264 72.6418 0.169312 71.7953 0.169312H67.0969C66.2503 0.169312 65.827 0.550264 65.827 1.3545L65.8694 19.6402L51.9434 0.634919C51.6895 0.338624 51.3508 0.169312 50.9699 0.169312H45.4249C44.5784 0.169312 44.1551 0.550264 44.1551 1.3545V9.94709C44.1551 10.7513 44.8323 11.1323 45.4249 11.1323C46.0175 11.1323 46.5678 10.7513 46.5678 9.94709V2.58201H50.3773L66.1233 24Z" transform="translate(23 59)" fill="#151923"/>
<path d="M80.8763 21.0794C80.4107 20.0212 80.58 19.1323 80.961 18.2857C81.3419 17.4392 82.0615 16.7196 82.908 15.9153C83.5006 15.3651 83.9662 14.8995 84.2625 14.4762C84.8975 13.672 85.2361 12.9524 85.5747 12.2328C85.744 11.8519 85.9557 11.4709 86.2096 11.0476C87.9028 8.50794 90.6117 7.23809 93.617 7.23809C96.326 7.23809 98.4001 8.33862 99.5853 9.48148C99.7969 9.69312 100.093 9.8201 100.39 9.8201C100.686 9.8201 100.982 9.69312 101.194 9.48148L104.368 5.96826C104.665 5.5873 104.834 5.291 104.834 5.03704C104.834 4.78307 104.707 4.5291 104.411 4.2328C101.575 1.52381 98.0615 0 93.617 0C89.8922 0 86.5483 1.26984 83.9662 3.13227C81.3842 5.03704 79.4371 7.66137 78.4213 10.3704C78.2096 11.0899 78.6329 11.6825 79.1832 11.8942C79.7334 12.1058 80.453 11.9788 80.6647 11.2593C81.5536 8.84656 83.2467 6.60318 85.4477 4.99471C87.6488 3.38624 90.4001 2.4127 93.617 2.4127C95.6911 2.4127 97.4689 2.83598 98.8234 3.38624C100.178 3.93651 101.236 4.61376 101.913 5.12169L100.263 6.9418C98.1885 5.54497 95.9451 4.8254 93.617 4.8254C89.6805 4.8254 86.125 6.73016 83.9662 10.1587C83.7546 10.5397 83.543 10.9206 83.416 11.2593L82.8657 12.3175C82.4424 13.037 81.8075 13.8413 80.6647 14.8571C79.3525 16.0423 78.125 17.7354 78.125 19.7249C78.125 20.1058 78.2096 20.6138 78.3366 21.164C79.3948 24.3386 81.5959 27.0476 84.3472 28.9524C87.0562 30.8571 90.4001 32 93.6594 32C97.8922 32 101.448 30.2222 104.538 27.3016C104.834 27.0053 104.961 26.7513 104.961 26.455C104.961 26.1587 104.834 25.8624 104.538 25.5661L101.236 22.1376C100.728 21.5873 100.051 21.4603 99.5006 22.0952C97.8498 23.6614 96.2837 24.7619 93.617 24.7619C91.6276 24.7619 89.8922 24.127 88.4953 23.1111C87.0985 22.0952 85.998 20.6984 85.3207 19.1746C85.0244 18.455 84.3049 18.328 83.7546 18.582C83.2043 18.836 82.7811 19.4709 83.1197 20.1905C84.0086 22.1799 85.4054 23.9577 87.2255 25.1852C89.0456 26.4127 91.2467 27.1746 93.6594 27.1746C96.1567 27.1746 98.1885 26.2011 100.22 24.6772L101.998 26.4127C99.4583 28.4868 96.834 29.5873 93.6594 29.5873C90.8234 29.5873 88.1144 28.6138 85.871 27.0476C83.6276 25.5238 81.7652 23.4074 80.8763 21.0794Z" transform="translate(23 59)" fill="#151923"/>
</mask>
<g mask="url(#mask0)">
<rect width="105.6" height="32" fill="#00CE7C" transform="translate(23 59)"/>
</g>
</svg>
