<svg fill="none" height="84" viewBox="0 0 84 84" width="84" xmlns="http://www.w3.org/2000/svg"><circle cx="42" cy="42" fill="#151923" r="41" stroke="#303644" stroke-width="2"/><path d="m6 31-3.51192.5853c-1.43576.2393-2.48808 1.4815-2.48808 2.9371 0 1.6445 1.33312 2.9776 2.9776 2.9776h21.9073c1.7204 0 3.1151-1.3947 3.1151-3.1151 0-1.4074-.9437-2.6399-2.3023-3.0071l-13.3787-3.6159c-1.6636-.4496-2.819-1.4847-2.819-3.208 0-1.0115-.40184-2.4557-1.11713-3.171l-2.2113-2.2113c-.75014-.7502-1.17157-1.7676-1.17157-2.8285v-9.80816c0-.98816.36577-1.94136 1.02682-2.67585l2.28145-2.53495c.75857-.842854 1.83923-1.32414 2.97313-1.32414h6.7961c1.2151 0 2.3644.552359 3.1235 1.50122l1.9225 2.40312c.5674.70926.8765 1.5905.8765 2.49878v10.29618c0 .8453-.2678 1.669-.7651 2.3527l-3.2349 4.448" stroke="#00ce7c" stroke-linecap="round" stroke-width="4" transform="translate(28 22.5)"/></svg>