<?xml version="1.0" encoding="UTF-8"?>
<svg width="2000px" height="339px" viewBox="0 0 2000 339" version="1.1" xmlns="http://www.w3.org/2000/svg" xmlns:xlink="http://www.w3.org/1999/xlink">
    <!-- Generator: Sketch 52.3 (67297) - http://www.bohemiancoding.com/sketch -->
    <title>Group 28 (1)</title>
    <desc>Created with Sketch.</desc>
    <defs>
        <rect id="path-1" x="0" y="0" width="2000" height="339"></rect>
    </defs>
    <g id="Page-1" stroke="none" stroke-width="1" fill="none" fill-rule="evenodd">
        <g id="Group-28-(1)">
            <mask id="mask-2" fill="white">
                <use xlink:href="#path-1"></use>
            </mask>
            <g id="Rectangle"></g>
            <g id="Group" mask="url(#mask-2)">
                <g transform="translate(-21.000000, -23.000000)">
                    <rect id="Rectangle" fill="#151923" x="19.4550409" y="22.1147095" width="2001.08992" height="382.860908"></rect>
                    <path d="M21.3125526,49.8605151 L36.3113052,40.9097246 C37.5669891,40.1603124 38.3353243,38.8106241 38.3353243,37.354094 L38.3353243,26.8913347 C38.3353243,25.8169745 37.1569046,25.1533811 36.2307057,25.7061245 L21.3125526,34.6088569 C19.9923224,35.3967349 18.3429782,35.3967349 17.0227439,34.6088569 L2.10461853,25.7061383 C1.17841962,25.1533811 0,25.8169745 0,26.8913347 L0,37.354094 C0,38.8106241 0.76833515,40.1603124 2.02401907,40.9097246 L17.0227439,49.8605151 C18.3429782,50.6483516 19.9923224,50.6483516 21.3125526,49.8605151 Z" id="Path" fill="#3D4158"></path>
                    <path d="M1.98608174,17.1643594 L17.0227439,8.19087374 C18.3429782,7.40303722 19.9923238,7.40303722 21.3125526,8.19087374 L36.3492425,17.1643594 C37.2488992,17.7012078 37.2488992,18.9979314 36.3492425,19.534766 L21.3125526,28.5082655 C19.9923224,29.2961435 18.3429768,29.2961435 17.0227439,28.5082655 L1.98608174,19.534766 C1.08642507,18.9979314 1.08642507,17.7012078 1.98608174,17.1643594 Z" id="Path" fill="#656C8C"></path>
                    <path d="M65.7812452,49.8605151 L80.77997,40.9097246 C82.035654,40.1603124 82.8039891,38.8106241 82.8039891,37.354094 L82.8039891,26.8913347 C82.8039891,25.8169745 81.6255695,25.1533811 80.6993706,25.7061245 L65.7812452,34.6088569 C64.4609428,35.3967349 62.8117112,35.3967349 61.4914087,34.6088569 L46.5732834,25.7061383 C45.6470845,25.1533811 44.4686649,25.8169745 44.4686649,26.8913347 L44.4686649,37.354094 C44.4686649,38.8106241 45.237,40.1603124 46.4926839,40.9097246 L61.4914087,49.8605151 C62.8117112,50.6483516 64.4609428,50.6483516 65.7812452,49.8605151 Z" id="Path" fill="#3D4158"></path>
                    <path d="M43.5469128,88.5612567 L58.5456376,79.6104663 C59.8013215,78.861054 60.5696567,77.5113657 60.5696567,76.0548356 L60.5696567,65.5920901 C60.5696567,64.5177299 59.3912371,63.8541504 58.4650381,64.4068799 L43.5469128,73.3095709 C42.2266104,74.0974074 40.5773787,74.0974074 39.2570763,73.3095709 L24.338951,64.4068799 C23.4127104,63.8541504 22.2343324,64.5177299 22.2343324,65.5920901 L22.2343324,76.0548356 C22.2343324,77.5113657 23.0026676,78.861054 24.2583654,79.6104663 L39.2570763,88.5612567 C40.5773787,89.3490932 42.2266104,89.3490932 43.5469128,88.5612567 Z" id="Path" fill="#3D4158"></path>
                    <path d="M46.4547466,17.1643594 L61.4914087,8.19087374 C62.8117112,7.40303722 64.4609428,7.40303722 65.7812452,8.19087374 L80.8179074,17.1643594 C81.717564,17.7012078 81.717564,18.9979314 80.8179074,19.534766 L65.7812452,28.5082655 C64.4609428,29.2961435 62.8115722,29.2961435 61.4914087,28.5082655 L46.4547466,19.534766 C45.5550899,18.9979314 45.5550899,17.7012078 46.4547466,17.1643594 Z" id="Path" fill="#656C8C"></path>
                    <path d="M24.2203447,55.8650734 L39.2570763,46.8916153 C40.5773787,46.1037788 42.2266104,46.1037788 43.5469128,46.8916153 L58.5835749,55.8650734 C59.4832316,56.4019079 59.4832316,57.6986592 58.5835749,58.2354938 L43.5469128,67.2089518 C42.2266104,67.9969266 40.5772398,67.9969266 39.2570763,67.2089518 L24.2203447,58.2354938 C23.3207853,57.6986592 23.3207853,56.4019079 24.2203447,55.8650734 Z" id="Path" fill="#656C8C"></path>
                    <path d="M110.24991,49.8605151 L125.248635,40.9097246 C126.504319,40.1603124 127.272654,38.8106241 127.272654,37.354094 L127.272654,26.8913347 C127.272654,25.8169745 126.094234,25.1533811 125.168035,25.7061245 L110.24991,34.6088569 C108.929608,35.3967349 107.280376,35.3967349 105.960074,34.6088569 L91.0419482,25.7061383 C90.1157493,25.1533811 88.9373297,25.8169745 88.9373297,26.8913347 L88.9373297,37.354094 C88.9373297,38.8106241 89.7056649,40.1603124 90.9613488,40.9097246 L105.960074,49.8605151 C107.280376,50.6483516 108.929608,50.6483516 110.24991,49.8605151 Z" id="Path" fill="#3D4158"></path>
                    <path d="M90.9234114,17.1643594 L105.960074,8.19087374 C107.280376,7.40303722 108.929608,7.40303722 110.24991,8.19087374 L125.286572,17.1643594 C126.186229,17.7012078 126.186229,18.9979314 125.286572,19.534766 L110.24991,28.5082655 C108.929608,29.2961435 107.280237,29.2961435 105.960074,28.5082655 L90.9234114,19.534766 C90.0237548,18.9979314 90.0237548,17.7012078 90.9234114,17.1643594 Z" id="Path" fill="#656C8C"></path>
                    <path d="M154.718575,49.8605151 L169.717439,40.9097246 C170.972289,40.1603124 171.740763,38.8106241 171.740763,37.354094 L171.740763,26.8913347 C171.740763,25.8169745 170.562343,25.1533811 169.636839,25.7061245 L154.718575,34.6088569 C153.398272,35.3967349 151.749041,35.3967349 150.428738,34.6088569 L135.510613,25.7061383 C134.584414,25.1533811 133.405995,25.8169745 133.405995,26.8913347 L133.405995,37.354094 C133.405995,38.8106241 134.17433,40.1603124 135.430014,40.9097246 L150.428738,49.8605151 C151.749041,50.6483516 153.398272,50.6483516 154.718575,49.8605151 Z" id="Path" fill="#3D4158"></path>
                    <path d="M135.392076,17.1643594 L150.428738,8.19087374 C151.749041,7.40303722 153.398272,7.40303722 154.718575,8.19087374 L169.754959,17.1643594 C170.65545,17.7012078 170.65545,18.9979314 169.754959,19.534766 L154.718575,28.5082655 C153.398272,29.2961435 151.748902,29.2961435 150.428738,28.5082655 L135.392076,19.534766 C134.49242,18.9979314 134.49242,17.7012078 135.392076,17.1643594 Z" id="Path" fill="#656C8C"></path>
                    <path d="M132.484243,88.5612567 L147.482967,79.6104663 C148.738651,78.861054 149.506986,77.5113657 149.506986,76.0548356 L149.506986,65.5920901 C149.506986,64.5177299 148.328567,63.8541504 147.402368,64.4068799 L132.484243,73.3095709 C131.16394,74.0974074 129.514708,74.0974074 128.194406,73.3095709 L113.276281,64.4068799 C112.350082,63.8541504 111.171662,64.5177299 111.171662,65.5920901 L111.171662,76.0548356 C111.171662,77.5113657 111.939997,78.861054 113.195681,79.6104663 L128.194406,88.5612567 C129.514708,89.3490932 131.16394,89.3490932 132.484243,88.5612567 Z" id="Path" fill="#3D4158"></path>
                    <path d="M113.157744,55.8650734 L128.194406,46.8916153 C129.514708,46.1037788 131.16394,46.1037788 132.484243,46.8916153 L147.520905,55.8650734 C148.420561,56.4019079 148.420561,57.6986592 147.520905,58.2354938 L132.484243,67.2089518 C131.16394,67.9969266 129.514569,67.9969266 128.194406,67.2089518 L113.157744,58.2354938 C112.258087,57.6986592 112.258087,56.4019079 113.157744,55.8650734 Z" id="Path" fill="#656C8C"></path>
                    <path d="M88.0155777,88.5612567 L103.014302,79.6104663 C104.269986,78.861054 105.038322,77.5113657 105.038322,76.0548356 L105.038322,65.5920901 C105.038322,64.5177299 103.859902,63.8541504 102.933703,64.4068799 L88.0155777,73.3095709 C86.6952752,74.0974074 85.0460436,74.0974074 83.7257411,73.3095709 L68.8076158,64.4068799 C67.8814169,63.8541504 66.7029973,64.5177299 66.7029973,65.5920901 L66.7029973,76.0548356 C66.7029973,77.5113657 67.4713324,78.861054 68.7270163,79.6104663 L83.7257411,88.5612567 C85.0460436,89.3490932 86.6952752,89.3490932 88.0155777,88.5612567 Z" id="Path" fill="#3D4158"></path>
                    <path d="M68.689079,55.8650734 L83.7257411,46.8916153 C85.0460436,46.1037788 86.6952752,46.1037788 88.0155777,46.8916153 L103.05224,55.8650734 C103.951896,56.4019079 103.951896,57.6986592 103.05224,58.2354938 L88.0155777,67.2089518 C86.6952752,67.9969266 85.0459046,67.9969266 83.7257411,67.2089518 L68.689079,58.2354938 C67.7894223,57.6986592 67.7894223,56.4019079 68.689079,55.8650734 Z" id="Path" fill="#656C8C"></path>
                    <path d="M21.3125526,127.261998 L36.3113052,118.311208 C37.5669891,117.561796 38.3353243,116.212107 38.3353243,114.755577 L38.3353243,104.292832 C38.3353243,103.218472 37.1569046,102.554892 36.2307057,103.107622 L21.3125526,112.010312 C19.9923224,112.798149 18.3429782,112.798149 17.0227439,112.010312 L2.10461853,103.107622 C1.17841962,102.554892 0,103.218472 0,104.292832 L0,114.755577 C0,116.212107 0.76833515,117.561796 2.02401907,118.311208 L17.0227439,127.261998 C18.3429782,128.049835 19.9923224,128.049835 21.3125526,127.261998 Z" id="Path" fill="#3D4158"></path>
                    <path d="M1.98608174,94.565815 L17.0227439,85.592357 C18.3429782,84.8045204 19.9923238,84.8045204 21.3125526,85.592357 L36.3492425,94.565815 C37.2488992,95.1026496 37.2488992,96.3994008 36.3492425,96.9362354 L21.3125526,105.909693 C19.9923224,106.697668 18.3429768,106.697668 17.0227439,105.909693 L1.98608174,96.9362354 C1.08642507,96.3994008 1.08642507,95.1026496 1.98608174,94.565815 Z" id="Path" fill="#656C8C"></path>
                    <path d="M65.7812452,127.261998 L80.77997,118.311208 C82.035654,117.561796 82.8039891,116.212107 82.8039891,114.755577 L82.8039891,104.292832 C82.8039891,103.218472 81.6255695,102.554892 80.6993706,103.107622 L65.7812452,112.010312 C64.4609428,112.798149 62.8117112,112.798149 61.4914087,112.010312 L46.5732834,103.107622 C45.6470845,102.554892 44.4686649,103.218472 44.4686649,104.292832 L44.4686649,114.755577 C44.4686649,116.212107 45.237,117.561796 46.4926839,118.311208 L61.4914087,127.261998 C62.8117112,128.049835 64.4609428,128.049835 65.7812452,127.261998 Z" id="Path" fill="#3D4158"></path>
                    <path d="M46.4547466,94.565815 L61.4914087,85.592357 C62.8117112,84.8045204 64.4609428,84.8045204 65.7812452,85.592357 L80.8179074,94.565815 C81.717564,95.1026496 81.717564,96.3994008 80.8179074,96.9362354 L65.7812452,105.909693 C64.4609428,106.697668 62.8115722,106.697668 61.4914087,105.909693 L46.4547466,96.9362354 C45.5550899,96.3994008 45.5550899,95.1026496 46.4547466,94.565815 Z" id="Path" fill="#656C8C"></path>
                    <path d="M43.5469128,165.962602 L58.5456376,157.011949 C59.8013215,156.262537 60.5696567,154.912849 60.5696567,153.456319 L60.5696567,142.993573 C60.5696567,141.919213 59.3912371,141.255634 58.4650381,141.808363 L43.5469128,150.711054 C42.2266104,151.498891 40.5773787,151.498891 39.2570763,150.711054 L24.338951,141.808363 C23.4127104,141.255634 22.2343324,141.919213 22.2343324,142.993573 L22.2343324,153.456319 C22.2343324,154.912849 23.0026676,156.262537 24.2583654,157.011949 L39.2570763,165.962602 C40.5773787,166.750438 42.2266104,166.750438 43.5469128,165.962602 Z" id="Path" fill="#3D4158"></path>
                    <path d="M24.2203447,133.266557 L39.2570763,124.293099 C40.5773787,123.505262 42.2266104,123.505262 43.5469128,124.293099 L58.5835749,133.266557 C59.4832316,133.803391 59.4832316,135.100142 58.5835749,135.636977 L43.5469128,144.610435 C42.2266104,145.39841 40.5772398,145.39841 39.2570763,144.610435 L24.2203447,135.636977 C23.3207853,135.100142 23.3207853,133.803391 24.2203447,133.266557 Z" id="Path" fill="#656C8C"></path>
                    <path d="M110.24991,127.261998 L125.248635,118.311208 C126.504319,117.561796 127.272654,116.212107 127.272654,114.755577 L127.272654,104.292832 C127.272654,103.218472 126.094234,102.554892 125.168035,103.107622 L110.24991,112.010312 C108.929608,112.798149 107.280376,112.798149 105.960074,112.010312 L91.0419482,103.107622 C90.1157493,102.554892 88.9373297,103.218472 88.9373297,104.292832 L88.9373297,114.755577 C88.9373297,116.212107 89.7056649,117.561796 90.9613488,118.311208 L105.960074,127.261998 C107.280376,128.049835 108.929608,128.049835 110.24991,127.261998 Z" id="Path" fill="#3D4158"></path>
                    <path d="M90.9234114,94.565815 L105.960074,85.592357 C107.280376,84.8045204 108.929608,84.8045204 110.24991,85.592357 L125.286572,94.565815 C126.186229,95.1026496 126.186229,96.3994008 125.286572,96.9362354 L110.24991,105.909693 C108.929608,106.697668 107.280237,106.697668 105.960074,105.909693 L90.9234114,96.9362354 C90.0237548,96.3994008 90.0237548,95.1026496 90.9234114,94.565815 Z" id="Path" fill="#656C8C"></path>
                    <path d="M154.718575,127.261998 L169.717439,118.311208 C170.972289,117.561796 171.740763,116.212107 171.740763,114.755577 L171.740763,104.292832 C171.740763,103.218472 170.562343,102.554892 169.636839,103.107622 L154.718575,112.010312 C153.398272,112.798149 151.749041,112.798149 150.428738,112.010312 L135.510613,103.107622 C134.584414,102.554892 133.405995,103.218472 133.405995,104.292832 L133.405995,114.755577 C133.405995,116.212107 134.17433,117.561796 135.430014,118.311208 L150.428738,127.261998 C151.749041,128.049835 153.398272,128.049835 154.718575,127.261998 Z" id="Path" fill="#3D4158"></path>
                    <path d="M135.392076,94.565815 L150.428738,85.592357 C151.749041,84.8045204 153.398272,84.8045204 154.718575,85.592357 L169.754959,94.565815 C170.65545,95.1026496 170.65545,96.3994008 169.754959,96.9362354 L154.718575,105.909693 C153.398272,106.697668 151.748902,106.697668 150.428738,105.909693 L135.392076,96.9362354 C134.49242,96.3994008 134.49242,95.1026496 135.392076,94.565815 Z" id="Path" fill="#656C8C"></path>
                    <path d="M199.187657,127.261998 L214.186104,118.311208 C215.440954,117.561796 216.209428,116.212107 216.209428,114.755577 L216.209428,104.292832 C216.209428,103.218472 215.031008,102.554892 214.105504,103.107622 L199.187657,112.010312 C197.867493,112.798149 196.217984,112.798149 194.89782,112.010312 L179.978583,103.107622 C179.053079,102.554892 177.874659,103.218472 177.874659,104.292832 L177.874659,114.755577 C177.874659,116.212107 178.643134,117.561796 179.899373,118.311208 L194.89782,127.261998 C196.217984,128.049835 197.867493,128.049835 199.187657,127.261998 Z" id="Path" fill="#3D4158"></path>
                    <path d="M179.860463,94.565815 L194.89782,85.592357 C196.217984,84.8045204 197.867493,84.8045204 199.187657,85.592357 L214.223624,94.565815 C215.124114,95.1026496 215.124114,96.3994008 214.223624,96.9362354 L199.187657,105.909693 C197.867493,106.697668 196.217984,106.697668 194.89782,105.909693 L179.860463,96.9362354 C178.961362,96.3994008 178.961362,95.1026496 179.860463,94.565815 Z" id="Path" fill="#656C8C"></path>
                    <path d="M243.656322,127.261998 L258.654768,118.311208 C259.909619,117.561796 260.678093,116.212107 260.678093,114.755577 L260.678093,104.292832 C260.678093,103.218472 259.499673,102.554892 258.574169,103.107622 L243.656322,112.010312 C242.336158,112.798149 240.686649,112.798149 239.366485,112.010312 L224.447248,103.107622 C223.521744,102.554892 222.343324,103.218472 222.343324,104.292832 L222.343324,114.755577 C222.343324,116.212107 223.111798,117.561796 224.368038,118.311208 L239.366485,127.261998 C240.686649,128.049835 242.336158,128.049835 243.656322,127.261998 Z" id="Path" fill="#3D4158"></path>
                    <path d="M224.329128,94.565815 L239.366485,85.592357 C240.686649,84.8045204 242.336158,84.8045204 243.656322,85.592357 L258.692289,94.565815 C259.592779,95.1026496 259.592779,96.3994008 258.692289,96.9362354 L243.656322,105.909693 C242.336158,106.697668 240.686649,106.697668 239.366485,105.909693 L224.329128,96.9362354 C223.430027,96.3994008 223.430027,95.1026496 224.329128,94.565815 Z" id="Path" fill="#656C8C"></path>
                    <path d="M265.890654,88.5612567 L280.889101,79.6104663 C282.143951,78.861054 282.912425,77.5113657 282.912425,76.0548356 L282.912425,65.5920901 C282.912425,64.5177299 281.734005,63.8541504 280.808501,64.4068799 L265.890654,73.3095709 C264.57049,74.0974074 262.920981,74.0974074 261.600817,73.3095709 L246.68158,64.4068799 C245.756076,63.8541504 244.577657,64.5177299 244.577657,65.5920901 L244.577657,76.0548356 C244.577657,77.5113657 245.346131,78.861054 246.602371,79.6104663 L261.600817,88.5612567 C262.920981,89.3490932 264.57049,89.3490932 265.890654,88.5612567 Z" id="Path" fill="#3D4158"></path>
                    <path d="M246.56346,55.8650734 L261.600817,46.8916153 C262.920981,46.1037788 264.57049,46.1037788 265.890654,46.8916153 L280.926621,55.8650734 C281.827112,56.4019079 281.827112,57.6986592 280.926621,58.2354938 L265.890654,67.2089518 C264.57049,67.9969266 262.920981,67.9969266 261.600817,67.2089518 L246.56346,58.2354938 C245.66436,57.6986592 245.66436,56.4019079 246.56346,55.8650734 Z" id="Path" fill="#656C8C"></path>
                    <path d="M288.124986,127.261998 L303.123433,118.311208 C304.378283,117.561796 305.146757,116.212107 305.146757,114.755577 L305.146757,104.292832 C305.146757,103.218472 303.968338,102.554892 303.042834,103.107622 L288.124986,112.010312 C286.804823,112.798149 285.155313,112.798149 283.83515,112.010312 L268.915913,103.107622 C267.990409,102.554892 266.811989,103.218472 266.811989,104.292832 L266.811989,114.755577 C266.811989,116.212107 267.580463,117.561796 268.836703,118.311208 L283.83515,127.261998 C285.155313,128.049835 286.804823,128.049835 288.124986,127.261998 Z" id="Path" fill="#3D4158"></path>
                    <path d="M268.797793,94.565815 L283.83515,85.592357 C285.155313,84.8045204 286.804823,84.8045204 288.124986,85.592357 L303.160954,94.565815 C304.061444,95.1026496 304.061444,96.3994008 303.160954,96.9362354 L288.124986,105.909693 C286.804823,106.697668 285.155313,106.697668 283.83515,105.909693 L268.797793,96.9362354 C267.898692,96.3994008 267.898692,95.1026496 268.797793,94.565815 Z" id="Path" fill="#656C8C"></path>
                    <path d="M221.421989,165.962602 L236.420436,157.011949 C237.675286,156.262537 238.44376,154.912849 238.44376,153.456319 L238.44376,142.993573 C238.44376,141.919213 237.265341,141.255634 236.339837,141.808363 L221.421989,150.711054 C220.101826,151.498891 218.452316,151.498891 217.132153,150.711054 L202.212916,141.808363 C201.287411,141.255634 200.108992,141.919213 200.108992,142.993573 L200.108992,153.456319 C200.108992,154.912849 200.877466,156.262537 202.133706,157.011949 L217.132153,165.962602 C218.452316,166.750438 220.101826,166.750438 221.421989,165.962602 Z" id="Path" fill="#3D4158"></path>
                    <path d="M202.094796,133.266557 L217.132153,124.293099 C218.452316,123.505262 220.101826,123.505262 221.421989,124.293099 L236.457956,133.266557 C237.358447,133.803391 237.358447,135.100142 236.457956,135.636977 L221.421989,144.610435 C220.101826,145.39841 218.452316,145.39841 217.132153,144.610435 L202.094796,135.636977 C201.195695,135.100142 201.195695,133.803391 202.094796,133.266557 Z" id="Path" fill="#656C8C"></path>
                    <path d="M242.266676,204.663343 L257.265123,195.712415 C258.519973,194.963279 259.288447,193.612899 259.288447,192.157475 L259.288447,181.694453 C259.288447,180.620508 258.110027,179.955684 257.184523,180.508552 L242.266676,189.412487 C240.946512,190.200323 239.297003,190.200323 237.976839,189.412487 L223.057602,180.508552 C222.132098,179.955684 220.953678,180.620508 220.953678,181.694453 L220.953678,192.157475 C220.953678,193.612899 221.722153,194.963279 222.978392,195.712415 L237.976839,204.663343 C239.297003,205.45118 240.946512,205.45118 242.266676,204.663343 Z" id="Path" fill="#3D4158"></path>
                    <path d="M222.939482,171.966745 L237.976839,162.993702 C239.297003,162.205865 240.946512,162.205865 242.266676,162.993702 L257.302643,171.966745 C258.203134,172.504409 258.203134,173.800884 257.302643,174.337166 L242.266676,183.311591 C240.946512,184.099428 239.297003,184.099428 237.976839,183.311591 L222.939482,174.337166 C222.040381,173.800884 222.040381,172.504409 222.939482,171.966745 Z" id="Path" fill="#656C8C"></path>
                    <path d="M199.187657,282.064827 L214.186104,273.113898 C215.440954,272.364762 216.209428,271.014383 216.209428,269.558958 L216.209428,259.095936 C216.209428,258.021991 215.031008,257.357167 214.105504,257.910035 L199.187657,266.81397 C197.867493,267.601807 196.217984,267.601807 194.89782,266.81397 L179.978583,257.910035 C179.053079,257.357167 177.874659,258.021991 177.874659,259.095936 L177.874659,269.558958 C177.874659,271.014383 178.643134,272.364762 179.899373,273.113898 L194.89782,282.064827 C196.217984,282.852663 197.867493,282.852663 199.187657,282.064827 Z" id="Path" fill="#3D4158"></path>
                    <path d="M179.860463,249.368229 L194.89782,240.395185 C196.217984,239.607349 197.867493,239.607349 199.187657,240.395185 L214.223624,249.368229 C215.124114,249.905892 215.124114,251.202367 214.223624,251.738649 L199.187657,260.713075 C197.867493,261.500911 196.217984,261.500911 194.89782,260.713075 L179.860463,251.738649 C178.961362,251.202367 178.961362,249.905892 179.860463,249.368229 Z" id="Path" fill="#656C8C"></path>
                    <path d="M157.626409,365.470453 L172.663488,356.49741 C173.983651,355.709573 175.633161,355.709573 176.953324,356.49741 L191.989292,365.470453 C192.889782,366.008117 192.889782,367.304592 191.989292,367.840874 L176.953324,376.815299 C175.633161,377.603136 173.983651,377.603136 172.663488,376.815299 L157.626409,367.840874 C156.726752,367.304592 156.726752,366.008117 157.626409,365.470453 Z" id="Path" fill="#656C8C"></path>
                    <path d="M202.094796,365.470453 L217.132153,356.49741 C218.452316,355.709573 220.101826,355.709573 221.421989,356.49741 L236.457956,365.470453 C237.358447,366.008117 237.358447,367.304592 236.457956,367.840874 L221.421989,376.815299 C220.101826,377.603136 218.452316,377.603136 217.132153,376.815299 L202.094796,367.840874 C201.195695,367.304592 201.195695,366.008117 202.094796,365.470453 Z" id="Path" fill="#656C8C"></path>
                    <path d="M243.656322,359.46631 L258.654768,350.515381 C259.909619,349.766245 260.678093,348.415866 260.678093,346.960442 L260.678093,336.49742 C260.678093,335.423474 259.499673,334.758651 258.574169,335.311518 L243.656322,344.215453 C242.336158,345.00329 240.686649,345.00329 239.366485,344.215453 L224.447248,335.311518 C223.521744,334.758651 222.343324,335.423474 222.343324,336.49742 L222.343324,346.960442 C222.343324,348.415866 223.111798,349.766245 224.368038,350.515381 L239.366485,359.46631 C240.686649,360.254146 242.336158,360.254146 243.656322,359.46631 Z" id="Path" fill="#3D4158"></path>
                    <path d="M224.329128,326.769712 L239.366485,317.796668 C240.686649,317.008832 242.336158,317.008832 243.656322,317.796668 L258.692289,326.769712 C259.592779,327.307376 259.592779,328.60385 258.692289,329.140132 L243.656322,338.114558 C242.336158,338.902394 240.686649,338.902394 239.366485,338.114558 L224.329128,329.140132 C223.430027,328.60385 223.430027,327.307376 224.329128,326.769712 Z" id="Path" fill="#656C8C"></path>
                    <path d="M176.953324,165.962602 L191.951771,157.011949 C193.206621,156.262537 193.975095,154.912849 193.975095,153.456319 L193.975095,142.993573 C193.975095,141.919213 192.796676,141.255634 191.871172,141.808363 L176.953324,150.711054 C175.633161,151.498891 173.983651,151.498891 172.663488,150.711054 L157.744946,141.808363 C156.818747,141.255634 155.640327,141.919213 155.640327,142.993573 L155.640327,153.456319 C155.640327,154.912849 156.408662,156.262537 157.664346,157.011949 L172.663488,165.962602 C173.983651,166.750438 175.633161,166.750438 176.953324,165.962602 Z" id="Path" fill="#3D4158"></path>
                    <path d="M157.626409,133.266557 L172.663488,124.293099 C173.983651,123.505262 175.633161,123.505262 176.953324,124.293099 L191.989292,133.266557 C192.889782,133.803391 192.889782,135.100142 191.989292,135.636977 L176.953324,144.610435 C175.633161,145.39841 173.983651,145.39841 172.663488,144.610435 L157.626409,135.636977 C156.726752,135.100142 156.726752,133.803391 157.626409,133.266557 Z" id="Path" fill="#656C8C"></path>
                    <path d="M132.484243,165.962602 L147.482967,157.011949 C148.738651,156.262537 149.506986,154.912849 149.506986,153.456319 L149.506986,142.993573 C149.506986,141.919213 148.328567,141.255634 147.402368,141.808363 L132.484243,150.711054 C131.16394,151.498891 129.514708,151.498891 128.194406,150.711054 L113.276281,141.808363 C112.350082,141.255634 111.171662,141.919213 111.171662,142.993573 L111.171662,153.456319 C111.171662,154.912849 111.939997,156.262537 113.195681,157.011949 L128.194406,165.962602 C129.514708,166.750438 131.16394,166.750438 132.484243,165.962602 Z" id="Path" fill="#3D4158"></path>
                    <path d="M113.157744,133.266557 L128.194406,124.293099 C129.514708,123.505262 131.16394,123.505262 132.484243,124.293099 L147.520905,133.266557 C148.420561,133.803391 148.420561,135.100142 147.520905,135.636977 L132.484243,144.610435 C131.16394,145.39841 129.514569,145.39841 128.194406,144.610435 L113.157744,135.636977 C112.258087,135.100142 112.258087,133.803391 113.157744,133.266557 Z" id="Path" fill="#656C8C"></path>
                    <path d="M88.0155777,165.962602 L103.014302,157.011949 C104.269986,156.262537 105.038322,154.912849 105.038322,153.456319 L105.038322,142.993573 C105.038322,141.919213 103.859902,141.255634 102.933703,141.808363 L88.0155777,150.711054 C86.6952752,151.498891 85.0460436,151.498891 83.7257411,150.711054 L68.8076158,141.808363 C67.8814169,141.255634 66.7029973,141.919213 66.7029973,142.993573 L66.7029973,153.456319 C66.7029973,154.912849 67.4713324,156.262537 68.7270163,157.011949 L83.7257411,165.962602 C85.0460436,166.750438 86.6952752,166.750438 88.0155777,165.962602 Z" id="Path" fill="#3D4158"></path>
                    <path d="M68.689079,133.266557 L83.7257411,124.293099 C85.0460436,123.505262 86.6952752,123.505262 88.0155777,124.293099 L103.05224,133.266557 C103.951896,133.803391 103.951896,135.100142 103.05224,135.636977 L88.0155777,144.610435 C86.6952752,145.39841 85.0459046,145.39841 83.7257411,144.610435 L68.689079,135.636977 C67.7894223,135.100142 67.7894223,133.803391 68.689079,133.266557 Z" id="Path" fill="#656C8C"></path>
                    <path d="M21.3125526,204.663343 L36.3113052,195.712415 C37.5669891,194.963279 38.3353243,193.612899 38.3353243,192.157475 L38.3353243,181.694453 C38.3353243,180.620508 37.1569046,179.955684 36.2307057,180.508552 L21.3125526,189.412487 C19.9923224,190.200323 18.3429782,190.200323 17.0227439,189.412487 L2.10461853,180.508552 C1.17841962,179.955684 0,180.620508 0,181.694453 L0,192.157475 C0,193.612899 0.76833515,194.963279 2.02401907,195.712415 L17.0227439,204.663343 C18.3429782,205.45118 19.9923224,205.45118 21.3125526,204.663343 Z" id="Path" fill="#3D4158"></path>
                    <path d="M1.98608174,171.966745 L17.0227439,162.993702 C18.3429782,162.205865 19.9923238,162.205865 21.3125526,162.993702 L36.3492425,171.966745 C37.2488992,172.504409 37.2488992,173.800884 36.3492425,174.337166 L21.3125526,183.311591 C19.9923224,184.099428 18.3429768,184.099428 17.0227439,183.311591 L1.98608174,174.337166 C1.08642507,173.800884 1.08642507,172.504409 1.98608174,171.966745 Z" id="Path" fill="#656C8C"></path>
                    <path d="M65.7812452,204.663343 L80.77997,195.712415 C82.035654,194.963279 82.8039891,193.612899 82.8039891,192.157475 L82.8039891,181.694453 C82.8039891,180.620508 81.6255695,179.955684 80.6993706,180.508552 L65.7812452,189.412487 C64.4609428,190.200323 62.8117112,190.200323 61.4914087,189.412487 L46.5732834,180.508552 C45.6470845,179.955684 44.4686649,180.620508 44.4686649,181.694453 L44.4686649,192.157475 C44.4686649,193.612899 45.237,194.963279 46.4926839,195.712415 L61.4914087,204.663343 C62.8117112,205.45118 64.4609428,205.45118 65.7812452,204.663343 Z" id="Path" fill="#3D4158"></path>
                    <path d="M46.4547466,171.966745 L61.4914087,162.993702 C62.8117112,162.205865 64.4609428,162.205865 65.7812452,162.993702 L80.8179074,171.966745 C81.717564,172.504409 81.717564,173.800884 80.8179074,174.337166 L65.7812452,183.311591 C64.4609428,184.099428 62.8115722,184.099428 61.4914087,183.311591 L46.4547466,174.337166 C45.5550899,173.800884 45.5550899,172.504409 46.4547466,171.966745 Z" id="Path" fill="#656C8C"></path>
                    <path d="M43.5469128,243.364085 L58.5456376,234.413156 C59.8013215,233.66402 60.5696567,232.313641 60.5696567,230.858217 L60.5696567,220.395195 C60.5696567,219.321249 59.3912371,218.656426 58.4650381,219.209293 L43.5469128,228.113228 C42.2266104,228.901065 40.5773787,228.901065 39.2570763,228.113228 L24.338951,219.209293 C23.4127104,218.656426 22.2343324,219.321249 22.2343324,220.395195 L22.2343324,230.858217 C22.2343324,232.313641 23.0026676,233.66402 24.2583654,234.413156 L39.2570763,243.364085 C40.5773787,244.151921 42.2266104,244.151921 43.5469128,243.364085 Z" id="Path" fill="#3D4158"></path>
                    <path d="M24.2203447,210.667487 L39.2570763,201.694444 C40.5773787,200.906607 42.2266104,200.906607 43.5469128,201.694444 L58.5835749,210.667487 C59.4832316,211.205151 59.4832316,212.501626 58.5835749,213.037907 L43.5469128,222.012333 C42.2266104,222.800169 40.5772398,222.800169 39.2570763,222.012333 L24.2203447,213.037907 C23.3207853,212.501626 23.3207853,211.205151 24.2203447,210.667487 Z" id="Path" fill="#656C8C"></path>
                    <path d="M110.24991,204.663343 L125.248635,195.712415 C126.504319,194.963279 127.272654,193.612899 127.272654,192.157475 L127.272654,181.694453 C127.272654,180.620508 126.094234,179.955684 125.168035,180.508552 L110.24991,189.412487 C108.929608,190.200323 107.280376,190.200323 105.960074,189.412487 L91.0419482,180.508552 C90.1157493,179.955684 88.9373297,180.620508 88.9373297,181.694453 L88.9373297,192.157475 C88.9373297,193.612899 89.7056649,194.963279 90.9613488,195.712415 L105.960074,204.663343 C107.280376,205.45118 108.929608,205.45118 110.24991,204.663343 Z" id="Path" fill="#3D4158"></path>
                    <path d="M90.9234114,171.966745 L105.960074,162.993702 C107.280376,162.205865 108.929608,162.205865 110.24991,162.993702 L125.286572,171.966745 C126.186229,172.504409 126.186229,173.800884 125.286572,174.337166 L110.24991,183.311591 C108.929608,184.099428 107.280237,184.099428 105.960074,183.311591 L90.9234114,174.337166 C90.0237548,173.800884 90.0237548,172.504409 90.9234114,171.966745 Z" id="Path" fill="#656C8C"></path>
                    <path d="M154.718575,204.663343 L169.717439,195.712415 C170.972289,194.963279 171.740763,193.612899 171.740763,192.157475 L171.740763,181.694453 C171.740763,180.620508 170.562343,179.955684 169.636839,180.508552 L154.718575,189.412487 C153.398272,190.200323 151.749041,190.200323 150.428738,189.412487 L135.510613,180.508552 C134.584414,179.955684 133.405995,180.620508 133.405995,181.694453 L133.405995,192.157475 C133.405995,193.612899 134.17433,194.963279 135.430014,195.712415 L150.428738,204.663343 C151.749041,205.45118 153.398272,205.45118 154.718575,204.663343 Z" id="Path" fill="#3D4158"></path>
                    <path d="M135.392076,171.966745 L150.428738,162.993702 C151.749041,162.205865 153.398272,162.205865 154.718575,162.993702 L169.754959,171.966745 C170.65545,172.504409 170.65545,173.800884 169.754959,174.337166 L154.718575,183.311591 C153.398272,184.099428 151.748902,184.099428 150.428738,183.311591 L135.392076,174.337166 C134.49242,173.800884 134.49242,172.504409 135.392076,171.966745 Z" id="Path" fill="#656C8C"></path>
                    <path d="M132.484243,243.364085 L147.482967,234.413156 C148.738651,233.66402 149.506986,232.313641 149.506986,230.858217 L149.506986,220.395195 C149.506986,219.321249 148.328567,218.656426 147.402368,219.209293 L132.484243,228.113228 C131.16394,228.901065 129.514708,228.901065 128.194406,228.113228 L113.276281,219.209293 C112.350082,218.656426 111.171662,219.321249 111.171662,220.395195 L111.171662,230.858217 C111.171662,232.313641 111.939997,233.66402 113.195681,234.413156 L128.194406,243.364085 C129.514708,244.151921 131.16394,244.151921 132.484243,243.364085 Z" id="Path" fill="#3D4158"></path>
                    <path d="M113.157744,210.667487 L128.194406,201.694444 C129.514708,200.906607 131.16394,200.906607 132.484243,201.694444 L147.520905,210.667487 C148.420561,211.205151 148.420561,212.501626 147.520905,213.037907 L132.484243,222.012333 C131.16394,222.800169 129.514569,222.800169 128.194406,222.012333 L113.157744,213.037907 C112.258087,212.501626 112.258087,211.205151 113.157744,210.667487 Z" id="Path" fill="#656C8C"></path>
                    <path d="M88.0155777,243.364085 L103.014302,234.413156 C104.269986,233.66402 105.038322,232.313641 105.038322,230.858217 L105.038322,220.395195 C105.038322,219.321249 103.859902,218.656426 102.933703,219.209293 L88.0155777,228.113228 C86.6952752,228.901065 85.0460436,228.901065 83.7257411,228.113228 L68.8076158,219.209293 C67.8814169,218.656426 66.7029973,219.321249 66.7029973,220.395195 L66.7029973,230.858217 C66.7029973,232.313641 67.4713324,233.66402 68.7270163,234.413156 L83.7257411,243.364085 C85.0460436,244.151921 86.6952752,244.151921 88.0155777,243.364085 Z" id="Path" fill="#3D4158"></path>
                    <path d="M68.689079,210.667487 L83.7257411,201.694444 C85.0460436,200.906607 86.6952752,200.906607 88.0155777,201.694444 L103.05224,210.667487 C103.951896,211.205151 103.951896,212.501626 103.05224,213.037907 L88.0155777,222.012333 C86.6952752,222.800169 85.0459046,222.800169 83.7257411,222.012333 L68.689079,213.037907 C67.7894223,212.501626 67.7894223,211.205151 68.689079,210.667487 Z" id="Path" fill="#656C8C"></path>
                    <path d="M21.3125526,282.064827 L36.3113052,273.113898 C37.5669891,272.364762 38.3353243,271.014383 38.3353243,269.558958 L38.3353243,259.095936 C38.3353243,258.021991 37.1569046,257.357167 36.2307057,257.910035 L21.3125526,266.81397 C19.9923224,267.601807 18.3429782,267.601807 17.0227439,266.81397 L2.10461853,257.910035 C1.17841962,257.357167 0,258.021991 0,259.095936 L0,269.558958 C0,271.014383 0.76833515,272.364762 2.02401907,273.113898 L17.0227439,282.064827 C18.3429782,282.852663 19.9923224,282.852663 21.3125526,282.064827 Z" id="Path" fill="#3D4158"></path>
                    <path d="M1.98608174,249.368229 L17.0227439,240.395185 C18.3429782,239.607349 19.9923238,239.607349 21.3125526,240.395185 L36.3492425,249.368229 C37.2488992,249.905892 37.2488992,251.202367 36.3492425,251.738649 L21.3125526,260.713075 C19.9923224,261.500911 18.3429768,261.500911 17.0227439,260.713075 L1.98608174,251.738649 C1.08642507,251.202367 1.08642507,249.905892 1.98608174,249.368229 Z" id="Path" fill="#656C8C"></path>
                    <path d="M65.7812452,282.064827 L80.77997,273.113898 C82.035654,272.364762 82.8039891,271.014383 82.8039891,269.558958 L82.8039891,259.095936 C82.8039891,258.021991 81.6255695,257.357167 80.6993706,257.910035 L65.7812452,266.81397 C64.4609428,267.601807 62.8117112,267.601807 61.4914087,266.81397 L46.5732834,257.910035 C45.6470845,257.357167 44.4686649,258.021991 44.4686649,259.095936 L44.4686649,269.558958 C44.4686649,271.014383 45.237,272.364762 46.4926839,273.113898 L61.4914087,282.064827 C62.8117112,282.852663 64.4609428,282.852663 65.7812452,282.064827 Z" id="Path" fill="#3D4158"></path>
                    <path d="M46.4547466,249.368229 L61.4914087,240.395185 C62.8117112,239.607349 64.4609428,239.607349 65.7812452,240.395185 L80.8179074,249.368229 C81.717564,249.905892 81.717564,251.202367 80.8179074,251.738649 L65.7812452,260.713075 C64.4609428,261.500911 62.8115722,261.500911 61.4914087,260.713075 L46.4547466,251.738649 C45.5550899,251.202367 45.5550899,249.905892 46.4547466,249.368229 Z" id="Path" fill="#656C8C"></path>
                    <path d="M43.5469128,320.765568 L58.5456376,311.814639 C59.8013215,311.065504 60.5696567,309.715124 60.5696567,308.2597 L60.5696567,297.796678 C60.5696567,296.722732 59.3912371,296.057909 58.4650381,296.610777 L43.5469128,305.514712 C42.2266104,306.302548 40.5773787,306.302548 39.2570763,305.514712 L24.338951,296.610777 C23.4127104,296.057909 22.2343324,296.722732 22.2343324,297.796678 L22.2343324,308.2597 C22.2343324,309.715124 23.0026676,311.065504 24.2583654,311.814639 L39.2570763,320.765568 C40.5773787,321.553405 42.2266104,321.553405 43.5469128,320.765568 Z" id="Path" fill="#3D4158"></path>
                    <path d="M24.2203447,288.06897 L39.2570763,279.095927 C40.5773787,278.30809 42.2266104,278.30809 43.5469128,279.095927 L58.5835749,288.06897 C59.4832316,288.606634 59.4832316,289.903109 58.5835749,290.439391 L43.5469128,299.413816 C42.2266104,300.201653 40.5772398,300.201653 39.2570763,299.413816 L24.2203447,290.439391 C23.3207853,289.903109 23.3207853,288.606634 24.2203447,288.06897 Z" id="Path" fill="#656C8C"></path>
                    <path d="M110.24991,282.064827 L125.248635,273.113898 C126.504319,272.364762 127.272654,271.014383 127.272654,269.558958 L127.272654,259.095936 C127.272654,258.021991 126.094234,257.357167 125.168035,257.910035 L110.24991,266.81397 C108.929608,267.601807 107.280376,267.601807 105.960074,266.81397 L91.0419482,257.910035 C90.1157493,257.357167 88.9373297,258.021991 88.9373297,259.095936 L88.9373297,269.558958 C88.9373297,271.014383 89.7056649,272.364762 90.9613488,273.113898 L105.960074,282.064827 C107.280376,282.852663 108.929608,282.852663 110.24991,282.064827 Z" id="Path" fill="#3D4158"></path>
                    <path d="M90.9234114,249.368229 L105.960074,240.395185 C107.280376,239.607349 108.929608,239.607349 110.24991,240.395185 L125.286572,249.368229 C126.186229,249.905892 126.186229,251.202367 125.286572,251.738649 L110.24991,260.713075 C108.929608,261.500911 107.280237,261.500911 105.960074,260.713075 L90.9234114,251.738649 C90.0237548,251.202367 90.0237548,249.905892 90.9234114,249.368229 Z" id="Path" fill="#656C8C"></path>
                    <path d="M154.718575,282.064827 L169.717439,273.113898 C170.972289,272.364762 171.740763,271.014383 171.740763,269.558958 L171.740763,259.095936 C171.740763,258.021991 170.562343,257.357167 169.636839,257.910035 L154.718575,266.81397 C153.398272,267.601807 151.749041,267.601807 150.428738,266.81397 L135.510613,257.910035 C134.584414,257.357167 133.405995,258.021991 133.405995,259.095936 L133.405995,269.558958 C133.405995,271.014383 134.17433,272.364762 135.430014,273.113898 L150.428738,282.064827 C151.749041,282.852663 153.398272,282.852663 154.718575,282.064827 Z" id="Path" fill="#3D4158"></path>
                    <path d="M135.392076,249.368229 L150.428738,240.395185 C151.749041,239.607349 153.398272,239.607349 154.718575,240.395185 L169.754959,249.368229 C170.65545,249.905892 170.65545,251.202367 169.754959,251.738649 L154.718575,260.713075 C153.398272,261.500911 151.748902,261.500911 150.428738,260.713075 L135.392076,251.738649 C134.49242,251.202367 134.49242,249.905892 135.392076,249.368229 Z" id="Path" fill="#656C8C"></path>
                    <path d="M132.484243,320.765568 L147.482967,311.814639 C148.738651,311.065504 149.506986,309.715124 149.506986,308.2597 L149.506986,297.796678 C149.506986,296.722732 148.328567,296.057909 147.402368,296.610777 L132.484243,305.514712 C131.16394,306.302548 129.514708,306.302548 128.194406,305.514712 L113.276281,296.610777 C112.350082,296.057909 111.171662,296.722732 111.171662,297.796678 L111.171662,308.2597 C111.171662,309.715124 111.939997,311.065504 113.195681,311.814639 L128.194406,320.765568 C129.514708,321.553405 131.16394,321.553405 132.484243,320.765568 Z" id="Path" fill="#3D4158"></path>
                    <path d="M113.157744,288.06897 L128.194406,279.095927 C129.514708,278.30809 131.16394,278.30809 132.484243,279.095927 L147.520905,288.06897 C148.420561,288.606634 148.420561,289.903109 147.520905,290.439391 L132.484243,299.413816 C131.16394,300.201653 129.514569,300.201653 128.194406,299.413816 L113.157744,290.439391 C112.258087,289.903109 112.258087,288.606634 113.157744,288.06897 Z" id="Path" fill="#656C8C"></path>
                    <path d="M88.0155777,320.765568 L103.014302,311.814639 C104.269986,311.065504 105.038322,309.715124 105.038322,308.2597 L105.038322,297.796678 C105.038322,296.722732 103.859902,296.057909 102.933703,296.610777 L88.0155777,305.514712 C86.6952752,306.302548 85.0460436,306.302548 83.7257411,305.514712 L68.8076158,296.610777 C67.8814169,296.057909 66.7029973,296.722732 66.7029973,297.796678 L66.7029973,308.2597 C66.7029973,309.715124 67.4713324,311.065504 68.7270163,311.814639 L83.7257411,320.765568 C85.0460436,321.553405 86.6952752,321.553405 88.0155777,320.765568 Z" id="Path" fill="#3D4158"></path>
                    <path d="M68.689079,288.06897 L83.7257411,279.095927 C85.0460436,278.30809 86.6952752,278.30809 88.0155777,279.095927 L103.05224,288.06897 C103.951896,288.606634 103.951896,289.903109 103.05224,290.439391 L88.0155777,299.413816 C86.6952752,300.201653 85.0459046,300.201653 83.7257411,299.413816 L68.689079,290.439391 C67.7894223,289.903109 67.7894223,288.606634 68.689079,288.06897 Z" id="Path" fill="#656C8C"></path>
                    <path d="M21.3125526,359.46631 L36.3113052,350.515381 C37.5669891,349.766245 38.3353243,348.415866 38.3353243,346.960442 L38.3353243,336.49742 C38.3353243,335.423474 37.1569046,334.758651 36.2307057,335.311518 L21.3125526,344.215453 C19.9923224,345.00329 18.3429782,345.00329 17.0227439,344.215453 L2.10461853,335.311518 C1.17841962,334.758651 0,335.423474 0,336.49742 L0,346.960442 C0,348.415866 0.76833515,349.766245 2.02401907,350.515381 L17.0227439,359.46631 C18.3429782,360.254146 19.9923224,360.254146 21.3125526,359.46631 Z" id="Path" fill="#3D4158"></path>
                    <path d="M1.98608174,326.769712 L17.0227439,317.796668 C18.3429782,317.008832 19.9923238,317.008832 21.3125526,317.796668 L36.3492425,326.769712 C37.2488992,327.307376 37.2488992,328.60385 36.3492425,329.140132 L21.3125526,338.114558 C19.9923224,338.902394 18.3429768,338.902394 17.0227439,338.114558 L1.98608174,329.140132 C1.08642507,328.60385 1.08642507,327.307376 1.98608174,326.769712 Z" id="Path" fill="#656C8C"></path>
                    <path d="M65.7812452,359.46631 L80.77997,350.515381 C82.035654,349.766245 82.8039891,348.415866 82.8039891,346.960442 L82.8039891,336.49742 C82.8039891,335.423474 81.6255695,334.758651 80.6993706,335.311518 L65.7812452,344.215453 C64.4609428,345.00329 62.8117112,345.00329 61.4914087,344.215453 L46.5732834,335.311518 C45.6470845,334.758651 44.4686649,335.423474 44.4686649,336.49742 L44.4686649,346.960442 C44.4686649,348.415866 45.237,349.766245 46.4926839,350.515381 L61.4914087,359.46631 C62.8117112,360.254146 64.4609428,360.254146 65.7812452,359.46631 Z" id="Path" fill="#3D4158"></path>
                    <path d="M46.4547466,326.769712 L61.4914087,317.796668 C62.8117112,317.008832 64.4609428,317.008832 65.7812452,317.796668 L80.8179074,326.769712 C81.717564,327.307376 81.717564,328.60385 80.8179074,329.140132 L65.7812452,338.114558 C64.4609428,338.902394 62.8115722,338.902394 61.4914087,338.114558 L46.4547466,329.140132 C45.5550899,328.60385 45.5550899,327.307376 46.4547466,326.769712 Z" id="Path" fill="#656C8C"></path>
                    <path d="M24.2203447,365.470453 L39.2570763,356.49741 C40.5773787,355.709573 42.2266104,355.709573 43.5469128,356.49741 L58.5835749,365.470453 C59.4832316,366.008117 59.4832316,367.304592 58.5835749,367.840874 L43.5469128,376.815299 C42.2266104,377.603136 40.5772398,377.603136 39.2570763,376.815299 L24.2203447,367.840874 C23.3207853,367.304592 23.3207853,366.008117 24.2203447,365.470453 Z" id="Path" fill="#656C8C"></path>
                    <path d="M110.24991,359.46631 L125.248635,350.515381 C126.504319,349.766245 127.272654,348.415866 127.272654,346.960442 L127.272654,336.49742 C127.272654,335.423474 126.094234,334.758651 125.168035,335.311518 L110.24991,344.215453 C108.929608,345.00329 107.280376,345.00329 105.960074,344.215453 L91.0419482,335.311518 C90.1157493,334.758651 88.9373297,335.423474 88.9373297,336.49742 L88.9373297,346.960442 C88.9373297,348.415866 89.7056649,349.766245 90.9613488,350.515381 L105.960074,359.46631 C107.280376,360.254146 108.929608,360.254146 110.24991,359.46631 Z" id="Path" fill="#3D4158"></path>
                    <path d="M90.9234114,326.769712 L105.960074,317.796668 C107.280376,317.008832 108.929608,317.008832 110.24991,317.796668 L125.286572,326.769712 C126.186229,327.307376 126.186229,328.60385 125.286572,329.140132 L110.24991,338.114558 C108.929608,338.902394 107.280237,338.902394 105.960074,338.114558 L90.9234114,329.140132 C90.0237548,328.60385 90.0237548,327.307376 90.9234114,326.769712 Z" id="Path" fill="#656C8C"></path>
                    <path d="M154.718575,359.46631 L169.717439,350.515381 C170.972289,349.766245 171.740763,348.415866 171.740763,346.960442 L171.740763,336.49742 C171.740763,335.423474 170.562343,334.758651 169.636839,335.311518 L154.718575,344.215453 C153.398272,345.00329 151.749041,345.00329 150.428738,344.215453 L135.510613,335.311518 C134.584414,334.758651 133.405995,335.423474 133.405995,336.49742 L133.405995,346.960442 C133.405995,348.415866 134.17433,349.766245 135.430014,350.515381 L150.428738,359.46631 C151.749041,360.254146 153.398272,360.254146 154.718575,359.46631 Z" id="Path" fill="#3D4158"></path>
                    <path d="M135.392076,326.769712 L150.428738,317.796668 C151.749041,317.008832 153.398272,317.008832 154.718575,317.796668 L169.754959,326.769712 C170.65545,327.307376 170.65545,328.60385 169.754959,329.140132 L154.718575,338.114558 C153.398272,338.902394 151.748902,338.902394 150.428738,338.114558 L135.392076,329.140132 C134.49242,328.60385 134.49242,327.307376 135.392076,326.769712 Z" id="Path" fill="#656C8C"></path>
                    <path d="M113.157744,365.470453 L128.194406,356.49741 C129.514708,355.709573 131.16394,355.709573 132.484243,356.49741 L147.520905,365.470453 C148.420561,366.008117 148.420561,367.304592 147.520905,367.840874 L132.484243,376.815299 C131.16394,377.603136 129.514569,377.603136 128.194406,376.815299 L113.157744,367.840874 C112.258087,367.304592 112.258087,366.008117 113.157744,365.470453 Z" id="Path" fill="#656C8C"></path>
                    <path d="M68.689079,365.470453 L83.7257411,356.49741 C85.0460436,355.709573 86.6952752,355.709573 88.0155777,356.49741 L103.05224,365.470453 C103.951896,366.008117 103.951896,367.304592 103.05224,367.840874 L88.0155777,376.815299 C86.6952752,377.603136 85.0459046,377.603136 83.7257411,376.815299 L68.689079,367.840874 C67.7894223,367.304592 67.7894223,366.008117 68.689079,365.470453 Z" id="Path" fill="#656C8C"></path>
                    <path d="M1889.00109,24.9814393 L1903.99537,16.0306212 C1905.24605,15.2812504 1906.02425,13.9315344 1906.02425,12.4750182 L1906.02425,2.01230035 C1906.02425,0.937940116 1904.84305,0.274360615 1903.91199,0.827090135 L1889.00109,9.72980873 C1887.68093,10.5176867 1886.02725,10.5176867 1884.70708,9.72980873 L1869.78229,0.827090135 C1868.86512,0.274360615 1867.68392,0.937940116 1867.68392,2.01230035 L1867.68392,12.4750182 C1867.68392,13.9315344 1868.44823,15.2812504 1869.71281,16.0306212 L1884.70708,24.9814393 C1886.02725,25.7693173 1887.68093,25.7693034 1889.00109,24.9814393 Z" id="Path" fill="#3D4158"></path>
                    <path d="M1933.46975,24.9814393 L1948.46403,16.0306212 C1949.71471,15.2812504 1950.49292,13.9315344 1950.49292,12.4750182 L1950.49292,2.01230035 C1950.49292,0.937940116 1949.31172,0.274360615 1948.38065,0.827090135 L1933.46975,9.72980873 C1932.14959,10.5176867 1930.49591,10.5176867 1929.17575,9.72980873 L1914.25095,0.827090135 C1913.33379,0.274360615 1912.15259,0.937940116 1912.15259,2.01230035 L1912.15259,12.4750182 C1912.15259,13.9315344 1912.91689,15.2812504 1914.18147,16.0306212 L1929.17575,24.9814393 C1930.49591,25.7693173 1932.14959,25.7693034 1933.46975,24.9814393 Z" id="Path" fill="#3D4158"></path>
                    <path d="M1911.23542,63.6822085 L1926.2297,54.7314181 C1927.48038,53.9820059 1928.25858,52.6323175 1928.25858,51.1757874 L1928.25858,40.713042 C1928.25858,39.6386817 1927.07738,38.9751022 1926.14632,39.5278317 L1911.23542,48.4305227 C1909.91526,49.2183592 1908.26158,49.2183592 1906.94142,48.4305227 L1892.01662,39.5278317 C1891.09946,38.9751022 1889.91826,39.6386817 1889.91826,40.713042 L1889.91826,51.1757874 C1889.91826,52.6323175 1890.68256,53.9820059 1891.94714,54.7314181 L1906.94142,63.6822085 C1908.26158,64.4700451 1909.91526,64.4700451 1911.23542,63.6822085 Z" id="Path" fill="#3D4158"></path>
                    <path d="M1891.90545,30.9860528 L1906.94142,22.0125574 C1908.26158,21.2246809 1909.91526,21.2246823 1911.23542,22.0125585 L1926.27139,30.9860528 C1927.16076,31.5229012 1927.16076,32.8196249 1926.27139,33.3564594 L1911.23542,42.3299036 C1909.91526,43.1178784 1908.26158,43.1178784 1906.94142,42.3299036 L1891.90545,33.3564594 C1891.00218,32.8196249 1891.00218,31.5229012 1891.90545,30.9860528 Z" id="Path" fill="#656C8C"></path>
                    <path d="M1866.76676,63.6822085 L1881.76104,54.7314181 C1883.01172,53.9820059 1883.78992,52.6323175 1883.78992,51.1757874 L1883.78992,40.713042 C1883.78992,39.6386817 1882.60872,38.9751022 1881.67766,39.5278317 L1866.76676,48.4305227 C1865.44659,49.2183592 1863.79292,49.2183592 1862.47275,48.4305227 L1847.54796,39.5278317 C1846.63079,38.9751022 1845.44959,39.6386817 1845.44959,40.713042 L1845.44959,51.1757874 C1845.44959,52.6323175 1846.2139,53.9820059 1847.47847,54.7314181 L1862.47275,63.6822085 C1863.79292,64.4700451 1865.44659,64.4700451 1866.76676,63.6822085 Z" id="Path" fill="#3D4158"></path>
                    <path d="M1847.43678,30.9860528 L1862.47275,22.0125574 C1863.79292,21.2246809 1865.44659,21.2246823 1866.76676,22.0125585 L1881.80272,30.9860528 C1882.6921,31.5229012 1882.6921,32.8196249 1881.80272,33.3564594 L1866.76676,42.3299036 C1865.44659,43.1178784 1863.79292,43.1178784 1862.47275,42.3299036 L1847.43678,33.3564594 C1846.53351,32.8196249 1846.53351,31.5229012 1847.43678,30.9860528 Z" id="Path" fill="#656C8C"></path>
                    <path d="M1977.93842,24.9814393 L1992.9327,16.0306212 C1994.18338,15.2812504 1994.96158,13.9315344 1994.96158,12.4750182 L1994.96158,2.01230035 C1994.96158,0.937940116 1993.78038,0.274360615 1992.84932,0.827090135 L1977.93842,9.72980873 C1976.61826,10.5176867 1974.96458,10.5176867 1973.64441,9.72980873 L1958.71962,0.827090135 C1957.80245,0.274360615 1956.62125,0.937940116 1956.62125,2.01230035 L1956.62125,12.4750182 C1956.62125,13.9315344 1957.38556,15.2812504 1958.65014,16.0306212 L1973.64441,24.9814393 C1974.96458,25.7693173 1976.61826,25.7693034 1977.93842,24.9814393 Z" id="Path" fill="#3D4158"></path>
                    <path d="M2022.40708,24.9814393 L2037.40136,16.0306212 C2038.65204,15.2812504 2039.43025,13.9315344 2039.43025,12.4750182 L2039.43025,2.01230035 C2039.43025,0.937940116 2038.24905,0.274360615 2037.31798,0.827090135 L2022.40708,9.72980873 C2021.08692,10.5176867 2019.43324,10.5176867 2018.11308,9.72980873 L2003.18828,0.827090135 C2002.27112,0.274360615 2001.08992,0.937940116 2001.08992,2.01230035 L2001.08992,12.4750182 C2001.08992,13.9315344 2001.85422,15.2812504 2003.1188,16.0306212 L2018.11308,24.9814393 C2019.43324,25.7693173 2021.08692,25.7693034 2022.40708,24.9814393 Z" id="Path" fill="#3D4158"></path>
                    <path d="M2000.17275,63.6822085 L2015.16703,54.7314181 C2016.41771,53.9820059 2017.19591,52.6323175 2017.19591,51.1757874 L2017.19591,40.713042 C2017.19591,39.6386817 2016.01471,38.9751022 2015.08365,39.5278317 L2000.17275,48.4305227 C1998.85259,49.2183592 1997.19891,49.2183592 1995.87875,48.4305227 L1980.95395,39.5278317 C1980.03678,38.9751022 1978.85559,39.6386817 1978.85559,40.713042 L1978.85559,51.1757874 C1978.85559,52.6323175 1979.61989,53.9820059 1980.88447,54.7314181 L1995.87875,63.6822085 C1997.19891,64.4700451 1998.85259,64.4700451 2000.17275,63.6822085 Z" id="Path" fill="#3D4158"></path>
                    <path d="M1980.84278,30.9860528 L1995.87875,22.0125574 C1997.19891,21.2246809 1998.85259,21.2246823 2000.17275,22.0125585 L2015.20872,30.9860528 C2016.09809,31.5229012 2016.09809,32.8196249 2015.20872,33.3564594 L2000.17275,42.3299036 C1998.85259,43.1178784 1997.19891,43.1178784 1995.87875,42.3299036 L1980.84278,33.3564594 C1979.93951,32.8196249 1979.93951,31.5229012 1980.84278,30.9860528 Z" id="Path" fill="#656C8C"></path>
                    <path d="M1955.70409,63.6822085 L1970.69837,54.7314181 C1971.94905,53.9820059 1972.72725,52.6323175 1972.72725,51.1757874 L1972.72725,40.713042 C1972.72725,39.6386817 1971.54605,38.9751022 1970.61499,39.5278317 L1955.70409,48.4305227 C1954.38392,49.2183592 1952.73025,49.2183592 1951.41008,48.4305227 L1936.48529,39.5278317 C1935.56812,38.9751022 1934.38692,39.6386817 1934.38692,40.713042 L1934.38692,51.1757874 C1934.38692,52.6323175 1935.15123,53.9820059 1936.4158,54.7314181 L1951.41008,63.6822085 C1952.73025,64.4700451 1954.38392,64.4700451 1955.70409,63.6822085 Z" id="Path" fill="#3D4158"></path>
                    <path d="M1936.37411,30.9860528 L1951.41008,22.0125574 C1952.73025,21.2246809 1954.38392,21.2246823 1955.70409,22.0125585 L1970.74005,30.9860528 C1971.62943,31.5229012 1971.62943,32.8196249 1970.74005,33.3564594 L1955.70409,42.3299036 C1954.38392,43.1178784 1952.73025,43.1178784 1951.41008,42.3299036 L1936.37411,33.3564594 C1935.47084,32.8196249 1935.47084,31.5229012 1936.37411,30.9860528 Z" id="Path" fill="#656C8C"></path>
                    <path d="M1889.00109,102.38295 L1903.99537,93.4321597 C1905.24605,92.6827475 1906.02425,91.3330591 1906.02425,89.8765291 L1906.02425,79.4137836 C1906.02425,78.3394233 1904.84305,77.6758438 1903.91199,78.2285733 L1889.00109,87.1312643 C1887.68093,87.9191008 1886.02725,87.9191008 1884.70708,87.1312643 L1869.78229,78.2285733 C1868.86512,77.6758438 1867.68392,78.3394233 1867.68392,79.4137836 L1867.68392,89.8765291 C1867.68392,91.3330591 1868.44823,92.6827475 1869.71281,93.4321597 L1884.70708,102.38295 C1886.02725,103.170787 1887.68093,103.170787 1889.00109,102.38295 Z" id="Path" fill="#3D4158"></path>
                    <path d="M1869.67112,69.6867668 L1884.70708,60.7133088 C1886.02725,59.9254723 1887.68093,59.9254723 1889.00109,60.7133088 L1904.03706,69.6867668 C1904.92643,70.2236014 1904.92643,71.5203527 1904.03706,72.0571872 L1889.00109,81.0306453 C1887.68093,81.81862 1886.02725,81.81862 1884.70708,81.0306453 L1869.67112,72.0571872 C1868.76785,71.5203527 1868.76785,70.2236014 1869.67112,69.6867668 Z" id="Path" fill="#656C8C"></path>
                    <path d="M1933.46975,102.38295 L1948.46403,93.4321597 C1949.71471,92.6827475 1950.49292,91.3330591 1950.49292,89.8765291 L1950.49292,79.4137836 C1950.49292,78.3394233 1949.31172,77.6758438 1948.38065,78.2285733 L1933.46975,87.1312643 C1932.14959,87.9191008 1930.49591,87.9191008 1929.17575,87.1312643 L1914.25095,78.2285733 C1913.33379,77.6758438 1912.15259,78.3394233 1912.15259,79.4137836 L1912.15259,89.8765291 C1912.15259,91.3330591 1912.91689,92.6827475 1914.18147,93.4321597 L1929.17575,102.38295 C1930.49591,103.170787 1932.14959,103.170787 1933.46975,102.38295 Z" id="Path" fill="#3D4158"></path>
                    <path d="M1914.13978,69.6867668 L1929.17575,60.7133088 C1930.49591,59.9254723 1932.14959,59.9254723 1933.46975,60.7133088 L1948.50572,69.6867668 C1949.3951,70.2236014 1949.3951,71.5203527 1948.50572,72.0571872 L1933.46975,81.0306453 C1932.14959,81.81862 1930.49591,81.81862 1929.17575,81.0306453 L1914.13978,72.0571872 C1913.23651,71.5203527 1913.23651,70.2236014 1914.13978,69.6867668 Z" id="Path" fill="#656C8C"></path>
                    <path d="M1911.23542,141.083692 L1926.2297,132.132901 C1927.48038,131.383489 1928.25858,130.033801 1928.25858,128.577271 L1928.25858,118.114525 C1928.25858,117.040165 1927.07738,116.376585 1926.14632,116.929315 L1911.23542,125.832006 C1909.91526,126.619842 1908.26158,126.619842 1906.94142,125.832006 L1892.01662,116.929315 C1891.09946,116.376585 1889.91826,117.040165 1889.91826,118.114525 L1889.91826,128.577271 C1889.91826,130.033801 1890.68256,131.383489 1891.94714,132.132901 L1906.94142,141.083692 C1908.26158,141.871528 1909.91526,141.871528 1911.23542,141.083692 Z" id="Path" fill="#3D4158"></path>
                    <path d="M1891.90545,108.387508 L1906.94142,99.4140504 C1908.26158,98.6262139 1909.91526,98.6262139 1911.23542,99.4140504 L1926.27139,108.387508 C1927.16076,108.924343 1927.16076,110.221094 1926.27139,110.757929 L1911.23542,119.731387 C1909.91526,120.519362 1908.26158,120.519362 1906.94142,119.731387 L1891.90545,110.757929 C1891.00218,110.221094 1891.00218,108.924343 1891.90545,108.387508 Z" id="Path" fill="#656C8C"></path>
                    <path d="M1866.76676,141.083692 L1881.76104,132.132901 C1883.01172,131.383489 1883.78992,130.033801 1883.78992,128.577271 L1883.78992,118.114525 C1883.78992,117.040165 1882.60872,116.376585 1881.67766,116.929315 L1866.76676,125.832006 C1865.44659,126.619842 1863.79292,126.619842 1862.47275,125.832006 L1847.54796,116.929315 C1846.63079,116.376585 1845.44959,117.040165 1845.44959,118.114525 L1845.44959,128.577271 C1845.44959,130.033801 1846.2139,131.383489 1847.47847,132.132901 L1862.47275,141.083692 C1863.79292,141.871528 1865.44659,141.871528 1866.76676,141.083692 Z" id="Path" fill="#3D4158"></path>
                    <path d="M1847.43678,108.387508 L1862.47275,99.4140504 C1863.79292,98.6262139 1865.44659,98.6262139 1866.76676,99.4140504 L1881.80272,108.387508 C1882.6921,108.924343 1882.6921,110.221094 1881.80272,110.757929 L1866.76676,119.731387 C1865.44659,120.519362 1863.79292,120.519362 1862.47275,119.731387 L1847.43678,110.757929 C1846.53351,110.221094 1846.53351,108.924343 1847.43678,108.387508 Z" id="Path" fill="#656C8C"></path>
                    <path d="M1977.93842,102.38295 L1992.9327,93.4321597 C1994.18338,92.6827475 1994.96158,91.3330591 1994.96158,89.8765291 L1994.96158,79.4137836 C1994.96158,78.3394233 1993.78038,77.6758438 1992.84932,78.2285733 L1977.93842,87.1312643 C1976.61826,87.9191008 1974.96458,87.9191008 1973.64441,87.1312643 L1958.71962,78.2285733 C1957.80245,77.6758438 1956.62125,78.3394233 1956.62125,79.4137836 L1956.62125,89.8765291 C1956.62125,91.3330591 1957.38556,92.6827475 1958.65014,93.4321597 L1973.64441,102.38295 C1974.96458,103.170787 1976.61826,103.170787 1977.93842,102.38295 Z" id="Path" fill="#3D4158"></path>
                    <path d="M1958.60845,69.6867668 L1973.64441,60.7133088 C1974.96458,59.9254723 1976.61826,59.9254723 1977.93842,60.7133088 L1992.97439,69.6867668 C1993.86376,70.2236014 1993.86376,71.5203527 1992.97439,72.0571872 L1977.93842,81.0306453 C1976.61826,81.81862 1974.96458,81.81862 1973.64441,81.0306453 L1958.60845,72.0571872 C1957.70518,71.5203527 1957.70518,70.2236014 1958.60845,69.6867668 Z" id="Path" fill="#656C8C"></path>
                    <path d="M2022.40708,102.38295 L2037.40136,93.4321597 C2038.65204,92.6827475 2039.43025,91.3330591 2039.43025,89.8765291 L2039.43025,79.4137836 C2039.43025,78.3394233 2038.24905,77.6758438 2037.31798,78.2285733 L2022.40708,87.1312643 C2021.08692,87.9191008 2019.43324,87.9191008 2018.11308,87.1312643 L2003.18828,78.2285733 C2002.27112,77.6758438 2001.08992,78.3394233 2001.08992,79.4137836 L2001.08992,89.8765291 C2001.08992,91.3330591 2001.85422,92.6827475 2003.1188,93.4321597 L2018.11308,102.38295 C2019.43324,103.170787 2021.08692,103.170787 2022.40708,102.38295 Z" id="Path" fill="#3D4158"></path>
                    <path d="M2003.07711,69.6867668 L2018.11308,60.7133088 C2019.43324,59.9254723 2021.08692,59.9254723 2022.40708,60.7133088 L2037.44305,69.6867668 C2038.33243,70.2236014 2038.33243,71.5203527 2037.44305,72.0571872 L2022.40708,81.0306453 C2021.08692,81.81862 2019.43324,81.81862 2018.11308,81.0306453 L2003.07711,72.0571872 C2002.17384,71.5203527 2002.17384,70.2236014 2003.07711,69.6867668 Z" id="Path" fill="#656C8C"></path>
                    <path d="M2000.17275,141.083692 L2015.16703,132.132901 C2016.41771,131.383489 2017.19591,130.033801 2017.19591,128.577271 L2017.19591,118.114525 C2017.19591,117.040165 2016.01471,116.376585 2015.08365,116.929315 L2000.17275,125.832006 C1998.85259,126.619842 1997.19891,126.619842 1995.87875,125.832006 L1980.95395,116.929315 C1980.03678,116.376585 1978.85559,117.040165 1978.85559,118.114525 L1978.85559,128.577271 C1978.85559,130.033801 1979.61989,131.383489 1980.88447,132.132901 L1995.87875,141.083692 C1997.19891,141.871528 1998.85259,141.871528 2000.17275,141.083692 Z" id="Path" fill="#3D4158"></path>
                    <path d="M1980.84278,108.387508 L1995.87875,99.4140504 C1997.19891,98.6262139 1998.85259,98.6262139 2000.17275,99.4140504 L2015.20872,108.387508 C2016.09809,108.924343 2016.09809,110.221094 2015.20872,110.757929 L2000.17275,119.731387 C1998.85259,120.519362 1997.19891,120.519362 1995.87875,119.731387 L1980.84278,110.757929 C1979.93951,110.221094 1979.93951,108.924343 1980.84278,108.387508 Z" id="Path" fill="#656C8C"></path>
                    <path d="M1955.70409,141.083692 L1970.69837,132.132901 C1971.94905,131.383489 1972.72725,130.033801 1972.72725,128.577271 L1972.72725,118.114525 C1972.72725,117.040165 1971.54605,116.376585 1970.61499,116.929315 L1955.70409,125.832006 C1954.38392,126.619842 1952.73025,126.619842 1951.41008,125.832006 L1936.48529,116.929315 C1935.56812,116.376585 1934.38692,117.040165 1934.38692,118.114525 L1934.38692,128.577271 C1934.38692,130.033801 1935.15123,131.383489 1936.4158,132.132901 L1951.41008,141.083692 C1952.73025,141.871528 1954.38392,141.871528 1955.70409,141.083692 Z" id="Path" fill="#3D4158"></path>
                    <path d="M1936.37411,108.387508 L1951.41008,99.4140504 C1952.73025,98.6262139 1954.38392,98.6262139 1955.70409,99.4140504 L1970.74005,108.387508 C1971.62943,108.924343 1971.62943,110.221094 1970.74005,110.757929 L1955.70409,119.731387 C1954.38392,120.519362 1952.73025,120.519362 1951.41008,119.731387 L1936.37411,110.757929 C1935.47084,110.221094 1935.47084,108.924343 1936.37411,108.387508 Z" id="Path" fill="#656C8C"></path>
                    <path d="M1889.00109,179.784295 L1903.99537,170.833366 C1905.24605,170.084231 1906.02425,168.733851 1906.02425,167.278427 L1906.02425,156.815267 C1906.02425,155.740907 1904.84305,155.077327 1903.91199,155.630057 L1889.00109,164.533439 C1887.68093,165.321275 1886.02725,165.321275 1884.70708,164.533439 L1869.78229,155.630057 C1868.86512,155.077327 1867.68392,155.740907 1867.68392,156.815267 L1867.68392,167.278427 C1867.68392,168.733851 1868.44823,170.084231 1869.71281,170.833366 L1884.70708,179.784295 C1886.02725,180.572132 1887.68093,180.572132 1889.00109,179.784295 Z" id="Path" fill="#3D4158"></path>
                    <path d="M1869.67112,147.08825 L1884.70708,138.114792 C1886.02725,137.326955 1887.68093,137.326955 1889.00109,138.114792 L1904.03706,147.08825 C1904.92643,147.625085 1904.92643,148.921836 1904.03706,149.45867 L1889.00109,158.432128 C1887.68093,159.220103 1886.02725,159.220103 1884.70708,158.432128 L1869.67112,149.45867 C1868.76785,148.921836 1868.76785,147.625085 1869.67112,147.08825 Z" id="Path" fill="#656C8C"></path>
                    <path d="M1933.46975,179.784295 L1948.46403,170.833366 C1949.71471,170.084231 1950.49292,168.733851 1950.49292,167.278427 L1950.49292,156.815267 C1950.49292,155.740907 1949.31172,155.077327 1948.38065,155.630057 L1933.46975,164.533439 C1932.14959,165.321275 1930.49591,165.321275 1929.17575,164.533439 L1914.25095,155.630057 C1913.33379,155.077327 1912.15259,155.740907 1912.15259,156.815267 L1912.15259,167.278427 C1912.15259,168.733851 1912.91689,170.084231 1914.18147,170.833366 L1929.17575,179.784295 C1930.49591,180.572132 1932.14959,180.572132 1933.46975,179.784295 Z" id="Path" fill="#3D4158"></path>
                    <path d="M1914.13978,147.08825 L1929.17575,138.114792 C1930.49591,137.326955 1932.14959,137.326955 1933.46975,138.114792 L1948.50572,147.08825 C1949.3951,147.625085 1949.3951,148.921836 1948.50572,149.45867 L1933.46975,158.432128 C1932.14959,159.220103 1930.49591,159.220103 1929.17575,158.432128 L1914.13978,149.45867 C1913.23651,148.921836 1913.23651,147.625085 1914.13978,147.08825 Z" id="Path" fill="#656C8C"></path>
                    <path d="M1911.23542,218.485037 L1926.2297,209.534108 C1927.48038,208.784972 1928.25858,207.434593 1928.25858,205.979169 L1928.25858,195.516147 C1928.25858,194.442201 1927.07738,193.777378 1926.14632,194.330245 L1911.23542,203.23418 C1909.91526,204.022017 1908.26158,204.022017 1906.94142,203.23418 L1892.01662,194.330245 C1891.09946,193.777378 1889.91826,194.442201 1889.91826,195.516147 L1889.91826,205.979169 C1889.91826,207.434593 1890.68256,208.784972 1891.94714,209.534108 L1906.94142,218.485037 C1908.26158,219.272873 1909.91526,219.272873 1911.23542,218.485037 Z" id="Path" fill="#3D4158"></path>
                    <path d="M1891.90545,185.788439 L1906.94142,176.815395 C1908.26158,176.027559 1909.91526,176.027559 1911.23542,176.815395 L1926.27139,185.788439 C1927.16076,186.326103 1927.16076,187.622577 1926.27139,188.158859 L1911.23542,197.133285 C1909.91526,197.921121 1908.26158,197.921121 1906.94142,197.133285 L1891.90545,188.158859 C1891.00218,187.622577 1891.00218,186.326103 1891.90545,185.788439 Z" id="Path" fill="#656C8C"></path>
                    <path d="M1866.76676,218.485037 L1881.76104,209.534108 C1883.01172,208.784972 1883.78992,207.434593 1883.78992,205.979169 L1883.78992,195.516147 C1883.78992,194.442201 1882.60872,193.777378 1881.67766,194.330245 L1866.76676,203.23418 C1865.44659,204.022017 1863.79292,204.022017 1862.47275,203.23418 L1847.54796,194.330245 C1846.63079,193.777378 1845.44959,194.442201 1845.44959,195.516147 L1845.44959,205.979169 C1845.44959,207.434593 1846.2139,208.784972 1847.47847,209.534108 L1862.47275,218.485037 C1863.79292,219.272873 1865.44659,219.272873 1866.76676,218.485037 Z" id="Path" fill="#3D4158"></path>
                    <path d="M1847.43678,185.788439 L1862.47275,176.815395 C1863.79292,176.027559 1865.44659,176.027559 1866.76676,176.815395 L1881.80272,185.788439 C1882.6921,186.326103 1882.6921,187.622577 1881.80272,188.158859 L1866.76676,197.133285 C1865.44659,197.921121 1863.79292,197.921121 1862.47275,197.133285 L1847.43678,188.158859 C1846.53351,187.622577 1846.53351,186.326103 1847.43678,185.788439 Z" id="Path" fill="#656C8C"></path>
                    <path d="M1977.93842,179.784295 L1992.9327,170.833366 C1994.18338,170.084231 1994.96158,168.733851 1994.96158,167.278427 L1994.96158,156.815267 C1994.96158,155.740907 1993.78038,155.077327 1992.84932,155.630057 L1977.93842,164.533439 C1976.61826,165.321275 1974.96458,165.321275 1973.64441,164.533439 L1958.71962,155.630057 C1957.80245,155.077327 1956.62125,155.740907 1956.62125,156.815267 L1956.62125,167.278427 C1956.62125,168.733851 1957.38556,170.084231 1958.65014,170.833366 L1973.64441,179.784295 C1974.96458,180.572132 1976.61826,180.572132 1977.93842,179.784295 Z" id="Path" fill="#3D4158"></path>
                    <path d="M1958.60845,147.08825 L1973.64441,138.114792 C1974.96458,137.326955 1976.61826,137.326955 1977.93842,138.114792 L1992.97439,147.08825 C1993.86376,147.625085 1993.86376,148.921836 1992.97439,149.45867 L1977.93842,158.432128 C1976.61826,159.220103 1974.96458,159.220103 1973.64441,158.432128 L1958.60845,149.45867 C1957.70518,148.921836 1957.70518,147.625085 1958.60845,147.08825 Z" id="Path" fill="#656C8C"></path>
                    <path d="M2022.40708,179.784295 L2037.40136,170.833366 C2038.65204,170.084231 2039.43025,168.733851 2039.43025,167.278427 L2039.43025,156.815267 C2039.43025,155.740907 2038.24905,155.077327 2037.31798,155.630057 L2022.40708,164.533439 C2021.08692,165.321275 2019.43324,165.321275 2018.11308,164.533439 L2003.18828,155.630057 C2002.27112,155.077327 2001.08992,155.740907 2001.08992,156.815267 L2001.08992,167.278427 C2001.08992,168.733851 2001.85422,170.084231 2003.1188,170.833366 L2018.11308,179.784295 C2019.43324,180.572132 2021.08692,180.572132 2022.40708,179.784295 Z" id="Path" fill="#3D4158"></path>
                    <path d="M2003.07711,147.08825 L2018.11308,138.114792 C2019.43324,137.326955 2021.08692,137.326955 2022.40708,138.114792 L2037.44305,147.08825 C2038.33243,147.625085 2038.33243,148.921836 2037.44305,149.45867 L2022.40708,158.432128 C2021.08692,159.220103 2019.43324,159.220103 2018.11308,158.432128 L2003.07711,149.45867 C2002.17384,148.921836 2002.17384,147.625085 2003.07711,147.08825 Z" id="Path" fill="#656C8C"></path>
                    <path d="M2000.17275,218.485037 L2015.16703,209.534108 C2016.41771,208.784972 2017.19591,207.434593 2017.19591,205.979169 L2017.19591,195.516147 C2017.19591,194.442201 2016.01471,193.777378 2015.08365,194.330245 L2000.17275,203.23418 C1998.85259,204.022017 1997.19891,204.022017 1995.87875,203.23418 L1980.95395,194.330245 C1980.03678,193.777378 1978.85559,194.442201 1978.85559,195.516147 L1978.85559,205.979169 C1978.85559,207.434593 1979.61989,208.784972 1980.88447,209.534108 L1995.87875,218.485037 C1997.19891,219.272873 1998.85259,219.272873 2000.17275,218.485037 Z" id="Path" fill="#3D4158"></path>
                    <path d="M1980.84278,185.788439 L1995.87875,176.815395 C1997.19891,176.027559 1998.85259,176.027559 2000.17275,176.815395 L2015.20872,185.788439 C2016.09809,186.326103 2016.09809,187.622577 2015.20872,188.158859 L2000.17275,197.133285 C1998.85259,197.921121 1997.19891,197.921121 1995.87875,197.133285 L1980.84278,188.158859 C1979.93951,187.622577 1979.93951,186.326103 1980.84278,185.788439 Z" id="Path" fill="#656C8C"></path>
                    <path d="M1955.70409,218.485037 L1970.69837,209.534108 C1971.94905,208.784972 1972.72725,207.434593 1972.72725,205.979169 L1972.72725,195.516147 C1972.72725,194.442201 1971.54605,193.777378 1970.61499,194.330245 L1955.70409,203.23418 C1954.38392,204.022017 1952.73025,204.022017 1951.41008,203.23418 L1936.48529,194.330245 C1935.56812,193.777378 1934.38692,194.442201 1934.38692,195.516147 L1934.38692,205.979169 C1934.38692,207.434593 1935.15123,208.784972 1936.4158,209.534108 L1951.41008,218.485037 C1952.73025,219.272873 1954.38392,219.272873 1955.70409,218.485037 Z" id="Path" fill="#3D4158"></path>
                    <path d="M1936.37411,185.788439 L1951.41008,176.815395 C1952.73025,176.027559 1954.38392,176.027559 1955.70409,176.815395 L1970.74005,185.788439 C1971.62943,186.326103 1971.62943,187.622577 1970.74005,188.158859 L1955.70409,197.133285 C1954.38392,197.921121 1952.73025,197.921121 1951.41008,197.133285 L1936.37411,188.158859 C1935.47084,187.622577 1935.47084,186.326103 1936.37411,185.788439 Z" id="Path" fill="#656C8C"></path>
                    <path d="M1889.00109,257.185778 L1903.99537,248.23485 C1905.24605,247.485714 1906.02425,246.135334 1906.02425,244.67991 L1906.02425,234.216888 C1906.02425,233.142943 1904.84305,232.478119 1903.91199,233.030987 L1889.00109,241.934922 C1887.68093,242.722758 1886.02725,242.722758 1884.70708,241.934922 L1869.78229,233.030987 C1868.86512,232.478119 1867.68392,233.142943 1867.68392,234.216888 L1867.68392,244.67991 C1867.68392,246.135334 1868.44823,247.485714 1869.71281,248.23485 L1884.70708,257.185778 C1886.02725,257.973615 1887.68093,257.973615 1889.00109,257.185778 Z" id="Path" fill="#3D4158"></path>
                    <path d="M1869.67112,224.48918 L1884.70708,215.516137 C1886.02725,214.7283 1887.68093,214.7283 1889.00109,215.516137 L1904.03706,224.48918 C1904.92643,225.026844 1904.92643,226.323319 1904.03706,226.859601 L1889.00109,235.834026 C1887.68093,236.621863 1886.02725,236.621863 1884.70708,235.834026 L1869.67112,226.859601 C1868.76785,226.323319 1868.76785,225.026844 1869.67112,224.48918 Z" id="Path" fill="#656C8C"></path>
                    <path d="M1933.46975,257.185778 L1948.46403,248.23485 C1949.71471,247.485714 1950.49292,246.135334 1950.49292,244.67991 L1950.49292,234.216888 C1950.49292,233.142943 1949.31172,232.478119 1948.38065,233.030987 L1933.46975,241.934922 C1932.14959,242.722758 1930.49591,242.722758 1929.17575,241.934922 L1914.25095,233.030987 C1913.33379,232.478119 1912.15259,233.142943 1912.15259,234.216888 L1912.15259,244.67991 C1912.15259,246.135334 1912.91689,247.485714 1914.18147,248.23485 L1929.17575,257.185778 C1930.49591,257.973615 1932.14959,257.973615 1933.46975,257.185778 Z" id="Path" fill="#3D4158"></path>
                    <path d="M1914.13978,224.48918 L1929.17575,215.516137 C1930.49591,214.7283 1932.14959,214.7283 1933.46975,215.516137 L1948.50572,224.48918 C1949.3951,225.026844 1949.3951,226.323319 1948.50572,226.859601 L1933.46975,235.834026 C1932.14959,236.621863 1930.49591,236.621863 1929.17575,235.834026 L1914.13978,226.859601 C1913.23651,226.323319 1913.23651,225.026844 1914.13978,224.48918 Z" id="Path" fill="#656C8C"></path>
                    <path d="M1911.23542,295.88652 L1926.2297,286.935591 C1927.48038,286.186455 1928.25858,284.836076 1928.25858,283.380652 L1928.25858,272.91763 C1928.25858,271.843684 1927.07738,271.178861 1926.14632,271.731729 L1911.23542,280.635663 C1909.91526,281.4235 1908.26158,281.4235 1906.94142,280.635663 L1892.01662,271.731729 C1891.09946,271.178861 1889.91826,271.843684 1889.91826,272.91763 L1889.91826,283.380652 C1889.91826,284.836076 1890.68256,286.186455 1891.94714,286.935591 L1906.94142,295.88652 C1908.26158,296.674356 1909.91526,296.674356 1911.23542,295.88652 Z" id="Path" fill="#3D4158"></path>
                    <path d="M1891.90545,263.189922 L1906.94142,254.216879 C1908.26158,253.429042 1909.91526,253.429042 1911.23542,254.216879 L1926.27139,263.189922 C1927.16076,263.727586 1927.16076,265.024061 1926.27139,265.560342 L1911.23542,274.534768 C1909.91526,275.322604 1908.26158,275.322604 1906.94142,274.534768 L1891.90545,265.560342 C1891.00218,265.024061 1891.00218,263.727586 1891.90545,263.189922 Z" id="Path" fill="#656C8C"></path>
                    <path d="M1866.76676,295.88652 L1881.76104,286.935591 C1883.01172,286.186455 1883.78992,284.836076 1883.78992,283.380652 L1883.78992,272.91763 C1883.78992,271.843684 1882.60872,271.178861 1881.67766,271.731729 L1866.76676,280.635663 C1865.44659,281.4235 1863.79292,281.4235 1862.47275,280.635663 L1847.54796,271.731729 C1846.63079,271.178861 1845.44959,271.843684 1845.44959,272.91763 L1845.44959,283.380652 C1845.44959,284.836076 1846.2139,286.186455 1847.47847,286.935591 L1862.47275,295.88652 C1863.79292,296.674356 1865.44659,296.674356 1866.76676,295.88652 Z" id="Path" fill="#3D4158"></path>
                    <path d="M1847.43678,263.189922 L1862.47275,254.216879 C1863.79292,253.429042 1865.44659,253.429042 1866.76676,254.216879 L1881.80272,263.189922 C1882.6921,263.727586 1882.6921,265.024061 1881.80272,265.560342 L1866.76676,274.534768 C1865.44659,275.322604 1863.79292,275.322604 1862.47275,274.534768 L1847.43678,265.560342 C1846.53351,265.024061 1846.53351,263.727586 1847.43678,263.189922 Z" id="Path" fill="#656C8C"></path>
                    <path d="M1977.93842,257.185778 L1992.9327,248.23485 C1994.18338,247.485714 1994.96158,246.135334 1994.96158,244.67991 L1994.96158,234.216888 C1994.96158,233.142943 1993.78038,232.478119 1992.84932,233.030987 L1977.93842,241.934922 C1976.61826,242.722758 1974.96458,242.722758 1973.64441,241.934922 L1958.71962,233.030987 C1957.80245,232.478119 1956.62125,233.142943 1956.62125,234.216888 L1956.62125,244.67991 C1956.62125,246.135334 1957.38556,247.485714 1958.65014,248.23485 L1973.64441,257.185778 C1974.96458,257.973615 1976.61826,257.973615 1977.93842,257.185778 Z" id="Path" fill="#3D4158"></path>
                    <path d="M1958.60845,224.48918 L1973.64441,215.516137 C1974.96458,214.7283 1976.61826,214.7283 1977.93842,215.516137 L1992.97439,224.48918 C1993.86376,225.026844 1993.86376,226.323319 1992.97439,226.859601 L1977.93842,235.834026 C1976.61826,236.621863 1974.96458,236.621863 1973.64441,235.834026 L1958.60845,226.859601 C1957.70518,226.323319 1957.70518,225.026844 1958.60845,224.48918 Z" id="Path" fill="#656C8C"></path>
                    <path d="M2022.40708,257.185778 L2037.40136,248.23485 C2038.65204,247.485714 2039.43025,246.135334 2039.43025,244.67991 L2039.43025,234.216888 C2039.43025,233.142943 2038.24905,232.478119 2037.31798,233.030987 L2022.40708,241.934922 C2021.08692,242.722758 2019.43324,242.722758 2018.11308,241.934922 L2003.18828,233.030987 C2002.27112,232.478119 2001.08992,233.142943 2001.08992,234.216888 L2001.08992,244.67991 C2001.08992,246.135334 2001.85422,247.485714 2003.1188,248.23485 L2018.11308,257.185778 C2019.43324,257.973615 2021.08692,257.973615 2022.40708,257.185778 Z" id="Path" fill="#3D4158"></path>
                    <path d="M2003.07711,224.48918 L2018.11308,215.516137 C2019.43324,214.7283 2021.08692,214.7283 2022.40708,215.516137 L2037.44305,224.48918 C2038.33243,225.026844 2038.33243,226.323319 2037.44305,226.859601 L2022.40708,235.834026 C2021.08692,236.621863 2019.43324,236.621863 2018.11308,235.834026 L2003.07711,226.859601 C2002.17384,226.323319 2002.17384,225.026844 2003.07711,224.48918 Z" id="Path" fill="#656C8C"></path>
                    <path d="M2000.17275,295.88652 L2015.16703,286.935591 C2016.41771,286.186455 2017.19591,284.836076 2017.19591,283.380652 L2017.19591,272.91763 C2017.19591,271.843684 2016.01471,271.178861 2015.08365,271.731729 L2000.17275,280.635663 C1998.85259,281.4235 1997.19891,281.4235 1995.87875,280.635663 L1980.95395,271.731729 C1980.03678,271.178861 1978.85559,271.843684 1978.85559,272.91763 L1978.85559,283.380652 C1978.85559,284.836076 1979.61989,286.186455 1980.88447,286.935591 L1995.87875,295.88652 C1997.19891,296.674356 1998.85259,296.674356 2000.17275,295.88652 Z" id="Path" fill="#3D4158"></path>
                    <path d="M1980.84278,263.189922 L1995.87875,254.216879 C1997.19891,253.429042 1998.85259,253.429042 2000.17275,254.216879 L2015.20872,263.189922 C2016.09809,263.727586 2016.09809,265.024061 2015.20872,265.560342 L2000.17275,274.534768 C1998.85259,275.322604 1997.19891,275.322604 1995.87875,274.534768 L1980.84278,265.560342 C1979.93951,265.024061 1979.93951,263.727586 1980.84278,263.189922 Z" id="Path" fill="#656C8C"></path>
                    <path d="M1955.70409,295.88652 L1970.69837,286.935591 C1971.94905,286.186455 1972.72725,284.836076 1972.72725,283.380652 L1972.72725,272.91763 C1972.72725,271.843684 1971.54605,271.178861 1970.61499,271.731729 L1955.70409,280.635663 C1954.38392,281.4235 1952.73025,281.4235 1951.41008,280.635663 L1936.48529,271.731729 C1935.56812,271.178861 1934.38692,271.843684 1934.38692,272.91763 L1934.38692,283.380652 C1934.38692,284.836076 1935.15123,286.186455 1936.4158,286.935591 L1951.41008,295.88652 C1952.73025,296.674356 1954.38392,296.674356 1955.70409,295.88652 Z" id="Path" fill="#3D4158"></path>
                    <path d="M1936.37411,263.189922 L1951.41008,254.216879 C1952.73025,253.429042 1954.38392,253.429042 1955.70409,254.216879 L1970.74005,263.189922 C1971.62943,263.727586 1971.62943,265.024061 1970.74005,265.560342 L1955.70409,274.534768 C1954.38392,275.322604 1952.73025,275.322604 1951.41008,274.534768 L1936.37411,265.560342 C1935.47084,265.024061 1935.47084,263.727586 1936.37411,263.189922 Z" id="Path" fill="#656C8C"></path>
                    <path d="M1889.00109,334.587262 L1903.99537,325.636333 C1905.24605,324.887197 1906.02425,323.536818 1906.02425,322.081393 L1906.02425,311.618371 C1906.02425,310.544426 1904.84305,309.879602 1903.91199,310.43247 L1889.00109,319.336405 C1887.68093,320.124242 1886.02725,320.124242 1884.70708,319.336405 L1869.78229,310.43247 C1868.86512,309.879602 1867.68392,310.544426 1867.68392,311.618371 L1867.68392,322.081393 C1867.68392,323.536818 1868.44823,324.887197 1869.71281,325.636333 L1884.70708,334.587262 C1886.02725,335.375098 1887.68093,335.375098 1889.00109,334.587262 Z" id="Path" fill="#3D4158"></path>
                    <path d="M1869.67112,301.890664 L1884.70708,292.91762 C1886.02725,292.129784 1887.68093,292.129784 1889.00109,292.91762 L1904.03706,301.890664 C1904.92643,302.428327 1904.92643,303.724802 1904.03706,304.261084 L1889.00109,313.23551 C1887.68093,314.023346 1886.02725,314.023346 1884.70708,313.23551 L1869.67112,304.261084 C1868.76785,303.724802 1868.76785,302.428327 1869.67112,301.890664 Z" id="Path" fill="#656C8C"></path>
                    <path d="M1933.46975,334.587262 L1948.46403,325.636333 C1949.71471,324.887197 1950.49292,323.536818 1950.49292,322.081393 L1950.49292,311.618371 C1950.49292,310.544426 1949.31172,309.879602 1948.38065,310.43247 L1933.46975,319.336405 C1932.14959,320.124242 1930.49591,320.124242 1929.17575,319.336405 L1914.25095,310.43247 C1913.33379,309.879602 1912.15259,310.544426 1912.15259,311.618371 L1912.15259,322.081393 C1912.15259,323.536818 1912.91689,324.887197 1914.18147,325.636333 L1929.17575,334.587262 C1930.49591,335.375098 1932.14959,335.375098 1933.46975,334.587262 Z" id="Path" fill="#3D4158"></path>
                    <path d="M1914.13978,301.890664 L1929.17575,292.91762 C1930.49591,292.129784 1932.14959,292.129784 1933.46975,292.91762 L1948.50572,301.890664 C1949.3951,302.428327 1949.3951,303.724802 1948.50572,304.261084 L1933.46975,313.23551 C1932.14959,314.023346 1930.49591,314.023346 1929.17575,313.23551 L1914.13978,304.261084 C1913.23651,303.724802 1913.23651,302.428327 1914.13978,301.890664 Z" id="Path" fill="#656C8C"></path>
                    <path d="M1911.23542,373.288003 L1926.2297,364.337074 C1927.48038,363.587939 1928.25858,362.237559 1928.25858,360.782135 L1928.25858,350.319113 C1928.25858,349.245167 1927.07738,348.580344 1926.14632,349.133212 L1911.23542,358.037147 C1909.91526,358.824983 1908.26158,358.824983 1906.94142,358.037147 L1892.01662,349.133212 C1891.09946,348.580344 1889.91826,349.245167 1889.91826,350.319113 L1889.91826,360.782135 C1889.91826,362.237559 1890.68256,363.587939 1891.94714,364.337074 L1906.94142,373.288003 C1908.26158,374.07584 1909.91526,374.07584 1911.23542,373.288003 Z" id="Path" fill="#3D4158"></path>
                    <path d="M1891.90545,340.591405 L1906.94142,331.618362 C1908.26158,330.830525 1909.91526,330.830525 1911.23542,331.618362 L1926.27139,340.591405 C1927.16076,341.129069 1927.16076,342.425544 1926.27139,342.961826 L1911.23542,351.936251 C1909.91526,352.724088 1908.26158,352.724088 1906.94142,351.936251 L1891.90545,342.961826 C1891.00218,342.425544 1891.00218,341.129069 1891.90545,340.591405 Z" id="Path" fill="#656C8C"></path>
                    <path d="M1866.76676,373.288003 L1881.76104,364.337074 C1883.01172,363.587939 1883.78992,362.237559 1883.78992,360.782135 L1883.78992,350.319113 C1883.78992,349.245167 1882.60872,348.580344 1881.67766,349.133212 L1866.76676,358.037147 C1865.44659,358.824983 1863.79292,358.824983 1862.47275,358.037147 L1847.54796,349.133212 C1846.63079,348.580344 1845.44959,349.245167 1845.44959,350.319113 L1845.44959,360.782135 C1845.44959,362.237559 1846.2139,363.587939 1847.47847,364.337074 L1862.47275,373.288003 C1863.79292,374.07584 1865.44659,374.07584 1866.76676,373.288003 Z" id="Path" fill="#3D4158"></path>
                    <path d="M1847.43678,340.591405 L1862.47275,331.618362 C1863.79292,330.830525 1865.44659,330.830525 1866.76676,331.618362 L1881.80272,340.591405 C1882.6921,341.129069 1882.6921,342.425544 1881.80272,342.961826 L1866.76676,351.936251 C1865.44659,352.724088 1863.79292,352.724088 1862.47275,351.936251 L1847.43678,342.961826 C1846.53351,342.425544 1846.53351,341.129069 1847.43678,340.591405 Z" id="Path" fill="#656C8C"></path>
                    <path d="M1977.93842,334.587262 L1992.9327,325.636333 C1994.18338,324.887197 1994.96158,323.536818 1994.96158,322.081393 L1994.96158,311.618371 C1994.96158,310.544426 1993.78038,309.879602 1992.84932,310.43247 L1977.93842,319.336405 C1976.61826,320.124242 1974.96458,320.124242 1973.64441,319.336405 L1958.71962,310.43247 C1957.80245,309.879602 1956.62125,310.544426 1956.62125,311.618371 L1956.62125,322.081393 C1956.62125,323.536818 1957.38556,324.887197 1958.65014,325.636333 L1973.64441,334.587262 C1974.96458,335.375098 1976.61826,335.375098 1977.93842,334.587262 Z" id="Path" fill="#3D4158"></path>
                    <path d="M1958.60845,301.890664 L1973.64441,292.91762 C1974.96458,292.129784 1976.61826,292.129784 1977.93842,292.91762 L1992.97439,301.890664 C1993.86376,302.428327 1993.86376,303.724802 1992.97439,304.261084 L1977.93842,313.23551 C1976.61826,314.023346 1974.96458,314.023346 1973.64441,313.23551 L1958.60845,304.261084 C1957.70518,303.724802 1957.70518,302.428327 1958.60845,301.890664 Z" id="Path" fill="#656C8C"></path>
                    <path d="M2022.40708,334.587262 L2037.40136,325.636333 C2038.65204,324.887197 2039.43025,323.536818 2039.43025,322.081393 L2039.43025,311.618371 C2039.43025,310.544426 2038.24905,309.879602 2037.31798,310.43247 L2022.40708,319.336405 C2021.08692,320.124242 2019.43324,320.124242 2018.11308,319.336405 L2003.18828,310.43247 C2002.27112,309.879602 2001.08992,310.544426 2001.08992,311.618371 L2001.08992,322.081393 C2001.08992,323.536818 2001.85422,324.887197 2003.1188,325.636333 L2018.11308,334.587262 C2019.43324,335.375098 2021.08692,335.375098 2022.40708,334.587262 Z" id="Path" fill="#3D4158"></path>
                    <path d="M2003.07711,301.890664 L2018.11308,292.91762 C2019.43324,292.129784 2021.08692,292.129784 2022.40708,292.91762 L2037.44305,301.890664 C2038.33243,302.428327 2038.33243,303.724802 2037.44305,304.261084 L2022.40708,313.23551 C2021.08692,314.023346 2019.43324,314.023346 2018.11308,313.23551 L2003.07711,304.261084 C2002.17384,303.724802 2002.17384,302.428327 2003.07711,301.890664 Z" id="Path" fill="#656C8C"></path>
                    <path d="M2000.17275,373.288003 L2015.16703,364.337074 C2016.41771,363.587939 2017.19591,362.237559 2017.19591,360.782135 L2017.19591,350.319113 C2017.19591,349.245167 2016.01471,348.580344 2015.08365,349.133212 L2000.17275,358.037147 C1998.85259,358.824983 1997.19891,358.824983 1995.87875,358.037147 L1980.95395,349.133212 C1980.03678,348.580344 1978.85559,349.245167 1978.85559,350.319113 L1978.85559,360.782135 C1978.85559,362.237559 1979.61989,363.587939 1980.88447,364.337074 L1995.87875,373.288003 C1997.19891,374.07584 1998.85259,374.07584 2000.17275,373.288003 Z" id="Path" fill="#3D4158"></path>
                    <path d="M1980.84278,340.591405 L1995.87875,331.618362 C1997.19891,330.830525 1998.85259,330.830525 2000.17275,331.618362 L2015.20872,340.591405 C2016.09809,341.129069 2016.09809,342.425544 2015.20872,342.961826 L2000.17275,351.936251 C1998.85259,352.724088 1997.19891,352.724088 1995.87875,351.936251 L1980.84278,342.961826 C1979.93951,342.425544 1979.93951,341.129069 1980.84278,340.591405 Z" id="Path" fill="#656C8C"></path>
                    <path d="M1955.70409,373.288003 L1970.69837,364.337074 C1971.94905,363.587939 1972.72725,362.237559 1972.72725,360.782135 L1972.72725,350.319113 C1972.72725,349.245167 1971.54605,348.580344 1970.61499,349.133212 L1955.70409,358.037147 C1954.38392,358.824983 1952.73025,358.824983 1951.41008,358.037147 L1936.48529,349.133212 C1935.56812,348.580344 1934.38692,349.245167 1934.38692,350.319113 L1934.38692,360.782135 C1934.38692,362.237559 1935.15123,363.587939 1936.4158,364.337074 L1951.41008,373.288003 C1952.73025,374.07584 1954.38392,374.07584 1955.70409,373.288003 Z" id="Path" fill="#3D4158"></path>
                    <path d="M1936.37411,340.591405 L1951.41008,331.618362 C1952.73025,330.830525 1954.38392,330.830525 1955.70409,331.618362 L1970.74005,340.591405 C1971.62943,341.129069 1971.62943,342.425544 1970.74005,342.961826 L1955.70409,351.936251 C1954.38392,352.724088 1952.73025,352.724088 1951.41008,351.936251 L1936.37411,342.961826 C1935.47084,342.425544 1935.47084,341.129069 1936.37411,340.591405 Z" id="Path" fill="#656C8C"></path>
                </g>
            </g>
        </g>
    </g>
</svg>