<?xml version="1.0" encoding="UTF-8"?>
<svg width="1599px" height="273px" viewBox="0 0 1599 273" version="1.1" xmlns="http://www.w3.org/2000/svg" xmlns:xlink="http://www.w3.org/1999/xlink">
    <!-- Generator: Sketch 52.3 (67297) - http://www.bohemiancoding.com/sketch -->
    <title>Group 28 (1)</title>
    <desc>Created with Sketch.</desc>
    <defs>
        <rect id="path-1" x="0" y="0" width="1599" height="273"></rect>
    </defs>
    <g id="Page-1" stroke="none" stroke-width="1" fill="none" fill-rule="evenodd">
        <g id="Group-28-(1)">
            <mask id="mask-2" fill="white">
                <use xlink:href="#path-1"></use>
            </mask>
            <g id="Rectangle"></g>
            <g id="Group" mask="url(#mask-2)">
                <g transform="translate(-16.000000, -18.000000)">
                    <rect id="Rectangle" fill="#151923" x="15.5449591" y="17.8020478" width="1598.91008" height="308.197952"></rect>
                    <path d="M17.0291474,40.1370532 L29.0134448,32.9317857 C30.0167609,32.3285188 30.6306757,31.2420375 30.6306757,30.0695502 L30.6306757,21.6471677 C30.6306757,20.782322 29.6890954,20.2481382 28.9490443,20.6930892 L17.0291474,27.8596707 C15.9742576,28.493902 14.6563993,28.493902 13.6015061,27.8596707 L1.68163147,20.6931003 C0.941580381,20.2481382 0,20.782322 0,21.6471677 L0,30.0695502 C0,31.2420375 0.61391485,32.3285188 1.61723093,32.9317857 L13.6015061,40.1370532 C14.6563993,40.7712512 15.9742576,40.7712512 17.0291474,40.1370532 Z" id="Path" fill="#3D4158"></path>
                    <path d="M1.58691826,13.8170816 L13.6015061,6.59354471 C14.6563993,5.95934676 15.9742587,5.95934676 17.0291474,6.59354471 L29.0437575,13.8170816 C29.7626008,14.2492375 29.7626008,15.2930828 29.0437575,15.7252275 L17.0291474,22.9487756 C15.9742576,23.5830069 14.6563982,23.5830069 13.6015061,22.9487756 L1.58691826,15.7252275 C0.868074932,15.2930828 0.868074932,14.2492375 1.58691826,13.8170816 Z" id="Path" fill="#656C8C"></path>
                    <path d="M52.5605048,40.1370532 L64.54478,32.9317857 C65.548096,32.3285188 66.1620109,31.2420375 66.1620109,30.0695502 L66.1620109,21.6471677 C66.1620109,20.782322 65.2204305,20.2481382 64.4803794,20.6930892 L52.5605048,27.8596707 C51.5055572,28.493902 50.1877888,28.493902 49.1328413,27.8596707 L37.2129666,20.6931003 C36.4729155,20.2481382 35.5313351,20.782322 35.5313351,21.6471677 L35.5313351,30.0695502 C35.5313351,31.2420375 36.14525,32.3285188 37.1485661,32.9317857 L49.1328413,40.1370532 C50.1877888,40.7712512 51.5055572,40.7712512 52.5605048,40.1370532 Z" id="Path" fill="#3D4158"></path>
                    <path d="M34.7948372,71.2906369 L46.7791124,64.0853693 C47.7824285,63.4821024 48.3963433,62.3956212 48.3963433,61.2231338 L48.3963433,52.8007625 C48.3963433,51.9359167 47.4547629,51.401744 46.7147119,51.846684 L34.7948372,59.0132321 C33.7398896,59.64743 32.4221213,59.64743 31.3671737,59.0132321 L19.447299,51.846684 C18.7072146,51.401744 17.7656676,51.9359167 17.7656676,52.8007625 L17.7656676,61.2231338 C17.7656676,62.3956212 18.3795824,63.4821024 19.3829096,64.0853693 L31.3671737,71.2906369 C32.4221213,71.9248348 33.7398896,71.9248348 34.7948372,71.2906369 Z" id="Path" fill="#3D4158"></path>
                    <path d="M37.1182534,13.8170816 L49.1328413,6.59354471 C50.1877888,5.95934676 51.5055572,5.95934676 52.5605048,6.59354471 L64.5750926,13.8170816 C65.293936,14.2492375 65.293936,15.2930828 64.5750926,15.7252275 L52.5605048,22.9487756 C51.5055572,23.5830069 50.1876778,23.5830069 49.1328413,22.9487756 L37.1182534,15.7252275 C36.3994101,15.2930828 36.3994101,14.2492375 37.1182534,13.8170816 Z" id="Path" fill="#656C8C"></path>
                    <path d="M19.3525303,44.970643 L31.3671737,37.7471283 C32.4221213,37.1129304 33.7398896,37.1129304 34.7948372,37.7471283 L46.8094251,44.970643 C47.5282684,45.4027877 47.5282684,46.4466553 46.8094251,46.8788 L34.7948372,54.1023147 C33.7398896,54.7366239 32.4220102,54.7366239 31.3671737,54.1023147 L19.3525303,46.8788 C18.6337647,46.4466553 18.6337647,45.4027877 19.3525303,44.970643 Z" id="Path" fill="#656C8C"></path>
                    <path d="M88.0918399,40.1370532 L100.076115,32.9317857 C101.079431,32.3285188 101.693346,31.2420375 101.693346,30.0695502 L101.693346,21.6471677 C101.693346,20.782322 100.751766,20.2481382 100.011715,20.6930892 L88.0918399,27.8596707 C87.0368924,28.493902 85.719124,28.493902 84.6641764,27.8596707 L72.7443018,20.6931003 C72.0042507,20.2481382 71.0626703,20.782322 71.0626703,21.6471677 L71.0626703,30.0695502 C71.0626703,31.2420375 71.6765851,32.3285188 72.6799012,32.9317857 L84.6641764,40.1370532 C85.719124,40.7712512 87.0368924,40.7712512 88.0918399,40.1370532 Z" id="Path" fill="#3D4158"></path>
                    <path d="M72.6495886,13.8170816 L84.6641764,6.59354471 C85.719124,5.95934676 87.0368924,5.95934676 88.0918399,6.59354471 L100.106428,13.8170816 C100.825271,14.2492375 100.825271,15.2930828 100.106428,15.7252275 L88.0918399,22.9487756 C87.0368924,23.5830069 85.7190129,23.5830069 84.6641764,22.9487756 L72.6495886,15.7252275 C71.9307452,15.2930828 71.9307452,14.2492375 72.6495886,13.8170816 Z" id="Path" fill="#656C8C"></path>
                    <path d="M123.623175,40.1370532 L135.607561,32.9317857 C136.610211,32.3285188 137.224237,31.2420375 137.224237,30.0695502 L137.224237,21.6471677 C137.224237,20.782322 136.282657,20.2481382 135.543161,20.6930892 L123.623175,27.8596707 C122.568228,28.493902 121.250459,28.493902 120.195512,27.8596707 L108.275637,20.6931003 C107.535586,20.2481382 106.594005,20.782322 106.594005,21.6471677 L106.594005,30.0695502 C106.594005,31.2420375 107.20792,32.3285188 108.211236,32.9317857 L120.195512,40.1370532 C121.250459,40.7712512 122.568228,40.7712512 123.623175,40.1370532 Z" id="Path" fill="#3D4158"></path>
                    <path d="M108.180924,13.8170816 L120.195512,6.59354471 C121.250459,5.95934676 122.568228,5.95934676 123.623175,6.59354471 L135.637541,13.8170816 C136.35705,14.2492375 136.35705,15.2930828 135.637541,15.7252275 L123.623175,22.9487756 C122.568228,23.5830069 121.250348,23.5830069 120.195512,22.9487756 L108.180924,15.7252275 C107.46208,15.2930828 107.46208,14.2492375 108.180924,13.8170816 Z" id="Path" fill="#656C8C"></path>
                    <path d="M105.857507,71.2906369 L117.841783,64.0853693 C118.845099,63.4821024 119.459014,62.3956212 119.459014,61.2231338 L119.459014,52.8007625 C119.459014,51.9359167 118.517433,51.401744 117.777382,51.846684 L105.857507,59.0132321 C104.80256,59.64743 103.484792,59.64743 102.429844,59.0132321 L90.5099693,51.846684 C89.7699183,51.401744 88.8283379,51.9359167 88.8283379,52.8007625 L88.8283379,61.2231338 C88.8283379,62.3956212 89.4422527,63.4821024 90.4455688,64.0853693 L102.429844,71.2906369 C103.484792,71.9248348 104.80256,71.9248348 105.857507,71.2906369 Z" id="Path" fill="#3D4158"></path>
                    <path d="M90.4152561,44.970643 L102.429844,37.7471283 C103.484792,37.1129304 104.80256,37.1129304 105.857507,37.7471283 L117.872095,44.970643 C118.590939,45.4027877 118.590939,46.4466553 117.872095,46.8788 L105.857507,54.1023147 C104.80256,54.7366239 103.484681,54.7366239 102.429844,54.1023147 L90.4152561,46.8788 C89.6964128,46.4466553 89.6964128,45.4027877 90.4152561,44.970643 Z" id="Path" fill="#656C8C"></path>
                    <path d="M70.3261723,71.2906369 L82.3104475,64.0853693 C83.3137636,63.4821024 83.9276785,62.3956212 83.9276785,61.2231338 L83.9276785,52.8007625 C83.9276785,51.9359167 82.9860981,51.401744 82.246047,51.846684 L70.3261723,59.0132321 C69.2712248,59.64743 67.9534564,59.64743 66.8985089,59.0132321 L54.9786342,51.846684 C54.2385831,51.401744 53.2970027,51.9359167 53.2970027,52.8007625 L53.2970027,61.2231338 C53.2970027,62.3956212 53.9109176,63.4821024 54.9142337,64.0853693 L66.8985089,71.2906369 C67.9534564,71.9248348 69.2712248,71.9248348 70.3261723,71.2906369 Z" id="Path" fill="#3D4158"></path>
                    <path d="M54.883921,44.970643 L66.8985089,37.7471283 C67.9534564,37.1129304 69.2712248,37.1129304 70.3261723,37.7471283 L82.3407602,44.970643 C83.0596035,45.4027877 83.0596035,46.4466553 82.3407602,46.8788 L70.3261723,54.1023147 C69.2712248,54.7366239 67.9533454,54.7366239 66.8985089,54.1023147 L54.883921,46.8788 C54.1650777,46.4466553 54.1650777,45.4027877 54.883921,44.970643 Z" id="Path" fill="#656C8C"></path>
                    <path d="M17.0291474,102.44422 L29.0134448,95.2389529 C30.0167609,94.635686 30.6306757,93.5492048 30.6306757,92.3767174 L30.6306757,83.9543461 C30.6306757,83.0895003 29.6890954,82.5553276 28.9490443,83.0002676 L17.0291474,90.1668157 C15.9742576,90.8010137 14.6563993,90.8010137 13.6015061,90.1668157 L1.68163147,83.0002676 C0.941580381,82.5553276 0,83.0895003 0,83.9543461 L0,92.3767174 C0,93.5492048 0.61391485,94.635686 1.61723093,95.2389529 L13.6015061,102.44422 C14.6563993,103.078418 15.9742576,103.078418 17.0291474,102.44422 Z" id="Path" fill="#3D4158"></path>
                    <path d="M1.58691826,76.1242266 L13.6015061,68.9007119 C14.6563993,68.266514 15.9742587,68.266514 17.0291474,68.9007119 L29.0437575,76.1242266 C29.7626008,76.5563713 29.7626008,77.6002389 29.0437575,78.0323836 L17.0291474,85.2558983 C15.9742576,85.8902075 14.6563982,85.8902075 13.6015061,85.2558983 L1.58691826,78.0323836 C0.868074932,77.6002389 0.868074932,76.5563713 1.58691826,76.1242266 Z" id="Path" fill="#656C8C"></path>
                    <path d="M52.5605048,102.44422 L64.54478,95.2389529 C65.548096,94.635686 66.1620109,93.5492048 66.1620109,92.3767174 L66.1620109,83.9543461 C66.1620109,83.0895003 65.2204305,82.5553276 64.4803794,83.0002676 L52.5605048,90.1668157 C51.5055572,90.8010137 50.1877888,90.8010137 49.1328413,90.1668157 L37.2129666,83.0002676 C36.4729155,82.5553276 35.5313351,83.0895003 35.5313351,83.9543461 L35.5313351,92.3767174 C35.5313351,93.5492048 36.14525,94.635686 37.1485661,95.2389529 L49.1328413,102.44422 C50.1877888,103.078418 51.5055572,103.078418 52.5605048,102.44422 Z" id="Path" fill="#3D4158"></path>
                    <path d="M37.1182534,76.1242266 L49.1328413,68.9007119 C50.1877888,68.266514 51.5055572,68.266514 52.5605048,68.9007119 L64.5750926,76.1242266 C65.293936,76.5563713 65.293936,77.6002389 64.5750926,78.0323836 L52.5605048,85.2558983 C51.5055572,85.8902075 50.1876778,85.8902075 49.1328413,85.2558983 L37.1182534,78.0323836 C36.3994101,77.6002389 36.3994101,76.5563713 37.1182534,76.1242266 Z" id="Path" fill="#656C8C"></path>
                    <path d="M34.7948372,133.597693 L46.7791124,126.392537 C47.7824285,125.78927 48.3963433,124.702788 48.3963433,123.530301 L48.3963433,115.10793 C48.3963433,114.243084 47.4547629,113.708911 46.7147119,114.153851 L34.7948372,121.320399 C33.7398896,121.954597 32.4221213,121.954597 31.3671737,121.320399 L19.447299,114.153851 C18.7072146,113.708911 17.7656676,114.243084 17.7656676,115.10793 L17.7656676,123.530301 C17.7656676,124.702788 18.3795824,125.78927 19.3829096,126.392537 L31.3671737,133.597693 C32.4221213,134.231891 33.7398896,134.231891 34.7948372,133.597693 Z" id="Path" fill="#3D4158"></path>
                    <path d="M19.3525303,107.27781 L31.3671737,100.054296 C32.4221213,99.4200976 33.7398896,99.4200976 34.7948372,100.054296 L46.8094251,107.27781 C47.5282684,107.709955 47.5282684,108.753823 46.8094251,109.185967 L34.7948372,116.409482 C33.7398896,117.043791 32.4220102,117.043791 31.3671737,116.409482 L19.3525303,109.185967 C18.6337647,108.753823 18.6337647,107.709955 19.3525303,107.27781 Z" id="Path" fill="#656C8C"></path>
                    <path d="M88.0918399,102.44422 L100.076115,95.2389529 C101.079431,94.635686 101.693346,93.5492048 101.693346,92.3767174 L101.693346,83.9543461 C101.693346,83.0895003 100.751766,82.5553276 100.011715,83.0002676 L88.0918399,90.1668157 C87.0368924,90.8010137 85.719124,90.8010137 84.6641764,90.1668157 L72.7443018,83.0002676 C72.0042507,82.5553276 71.0626703,83.0895003 71.0626703,83.9543461 L71.0626703,92.3767174 C71.0626703,93.5492048 71.6765851,94.635686 72.6799012,95.2389529 L84.6641764,102.44422 C85.719124,103.078418 87.0368924,103.078418 88.0918399,102.44422 Z" id="Path" fill="#3D4158"></path>
                    <path d="M72.6495886,76.1242266 L84.6641764,68.9007119 C85.719124,68.266514 87.0368924,68.266514 88.0918399,68.9007119 L100.106428,76.1242266 C100.825271,76.5563713 100.825271,77.6002389 100.106428,78.0323836 L88.0918399,85.2558983 C87.0368924,85.8902075 85.7190129,85.8902075 84.6641764,85.2558983 L72.6495886,78.0323836 C71.9307452,77.6002389 71.9307452,76.5563713 72.6495886,76.1242266 Z" id="Path" fill="#656C8C"></path>
                    <path d="M123.623175,102.44422 L135.607561,95.2389529 C136.610211,94.635686 137.224237,93.5492048 137.224237,92.3767174 L137.224237,83.9543461 C137.224237,83.0895003 136.282657,82.5553276 135.543161,83.0002676 L123.623175,90.1668157 C122.568228,90.8010137 121.250459,90.8010137 120.195512,90.1668157 L108.275637,83.0002676 C107.535586,82.5553276 106.594005,83.0895003 106.594005,83.9543461 L106.594005,92.3767174 C106.594005,93.5492048 107.20792,94.635686 108.211236,95.2389529 L120.195512,102.44422 C121.250459,103.078418 122.568228,103.078418 123.623175,102.44422 Z" id="Path" fill="#3D4158"></path>
                    <path d="M108.180924,76.1242266 L120.195512,68.9007119 C121.250459,68.266514 122.568228,68.266514 123.623175,68.9007119 L135.637541,76.1242266 C136.35705,76.5563713 136.35705,77.6002389 135.637541,78.0323836 L123.623175,85.2558983 C122.568228,85.8902075 121.250348,85.8902075 120.195512,85.2558983 L108.180924,78.0323836 C107.46208,77.6002389 107.46208,76.5563713 108.180924,76.1242266 Z" id="Path" fill="#656C8C"></path>
                    <path d="M159.154843,102.44422 L171.138896,95.2389529 C172.141546,94.635686 172.755572,93.5492048 172.755572,92.3767174 L172.755572,83.9543461 C172.755572,83.0895003 171.813992,82.5553276 171.074496,83.0002676 L159.154843,90.1668157 C158.100007,90.8010137 156.782016,90.8010137 155.72718,90.1668157 L143.806417,83.0002676 C143.066921,82.5553276 142.125341,83.0895003 142.125341,83.9543461 L142.125341,92.3767174 C142.125341,93.5492048 142.739366,94.635686 143.743127,95.2389529 L155.72718,102.44422 C156.782016,103.078418 158.100007,103.078418 159.154843,102.44422 Z" id="Path" fill="#3D4158"></path>
                    <path d="M143.712037,76.1242266 L155.72718,68.9007119 C156.782016,68.266514 158.100007,68.266514 159.154843,68.9007119 L171.168876,76.1242266 C171.888386,76.5563713 171.888386,77.6002389 171.168876,78.0323836 L159.154843,85.2558983 C158.100007,85.8902075 156.782016,85.8902075 155.72718,85.2558983 L143.712037,78.0323836 C142.993638,77.6002389 142.993638,76.5563713 143.712037,76.1242266 Z" id="Path" fill="#656C8C"></path>
                    <path d="M194.686178,102.44422 L206.670232,95.2389529 C207.672881,94.635686 208.286907,93.5492048 208.286907,92.3767174 L208.286907,83.9543461 C208.286907,83.0895003 207.345327,82.5553276 206.605831,83.0002676 L194.686178,90.1668157 C193.631342,90.8010137 192.313351,90.8010137 191.258515,90.1668157 L179.337752,83.0002676 C178.598256,82.5553276 177.656676,83.0895003 177.656676,83.9543461 L177.656676,92.3767174 C177.656676,93.5492048 178.270702,94.635686 179.274462,95.2389529 L191.258515,102.44422 C192.313351,103.078418 193.631342,103.078418 194.686178,102.44422 Z" id="Path" fill="#3D4158"></path>
                    <path d="M179.243372,76.1242266 L191.258515,68.9007119 C192.313351,68.266514 193.631342,68.266514 194.686178,68.9007119 L206.700211,76.1242266 C207.419721,76.5563713 207.419721,77.6002389 206.700211,78.0323836 L194.686178,85.2558983 C193.631342,85.8902075 192.313351,85.8902075 191.258515,85.2558983 L179.243372,78.0323836 C178.524973,77.6002389 178.524973,76.5563713 179.243372,76.1242266 Z" id="Path" fill="#656C8C"></path>
                    <path d="M212.451846,71.2906369 L224.435899,64.0853693 C225.438549,63.4821024 226.052575,62.3956212 226.052575,61.2231338 L226.052575,52.8007625 C226.052575,51.9359167 225.110995,51.401744 224.371499,51.846684 L212.451846,59.0132321 C211.39701,59.64743 210.079019,59.64743 209.024183,59.0132321 L197.10342,51.846684 C196.363924,51.401744 195.422343,51.9359167 195.422343,52.8007625 L195.422343,61.2231338 C195.422343,62.3956212 196.036369,63.4821024 197.040129,64.0853693 L209.024183,71.2906369 C210.079019,71.9248348 211.39701,71.9248348 212.451846,71.2906369 Z" id="Path" fill="#3D4158"></path>
                    <path d="M197.00904,44.970643 L209.024183,37.7471283 C210.079019,37.1129304 211.39701,37.1129304 212.451846,37.7471283 L224.465879,44.970643 C225.185388,45.4027877 225.185388,46.4466553 224.465879,46.8788 L212.451846,54.1023147 C211.39701,54.7366239 210.079019,54.7366239 209.024183,54.1023147 L197.00904,46.8788 C196.29064,46.4466553 196.29064,45.4027877 197.00904,44.970643 Z" id="Path" fill="#656C8C"></path>
                    <path d="M230.217514,102.44422 L242.201567,95.2389529 C243.204217,94.635686 243.818243,93.5492048 243.818243,92.3767174 L243.818243,83.9543461 C243.818243,83.0895003 242.876662,82.5553276 242.137166,83.0002676 L230.217514,90.1668157 C229.162677,90.8010137 227.844687,90.8010137 226.78985,90.1668157 L214.869087,83.0002676 C214.129591,82.5553276 213.188011,83.0895003 213.188011,83.9543461 L213.188011,92.3767174 C213.188011,93.5492048 213.802037,94.635686 214.805797,95.2389529 L226.78985,102.44422 C227.844687,103.078418 229.162677,103.078418 230.217514,102.44422 Z" id="Path" fill="#3D4158"></path>
                    <path d="M214.774707,76.1242266 L226.78985,68.9007119 C227.844687,68.266514 229.162677,68.266514 230.217514,68.9007119 L242.231546,76.1242266 C242.951056,76.5563713 242.951056,77.6002389 242.231546,78.0323836 L230.217514,85.2558983 C229.162677,85.8902075 227.844687,85.8902075 226.78985,85.2558983 L214.774707,78.0323836 C214.056308,77.6002389 214.056308,76.5563713 214.774707,76.1242266 Z" id="Path" fill="#656C8C"></path>
                    <path d="M176.920511,133.597693 L188.904564,126.392537 C189.907214,125.78927 190.52124,124.702788 190.52124,123.530301 L190.52124,115.10793 C190.52124,114.243084 189.579659,113.708911 188.840163,114.153851 L176.920511,121.320399 C175.865674,121.954597 174.547684,121.954597 173.492847,121.320399 L161.572084,114.153851 C160.832589,113.708911 159.891008,114.243084 159.891008,115.10793 L159.891008,123.530301 C159.891008,124.702788 160.505034,125.78927 161.508794,126.392537 L173.492847,133.597693 C174.547684,134.231891 175.865674,134.231891 176.920511,133.597693 Z" id="Path" fill="#3D4158"></path>
                    <path d="M161.477704,107.27781 L173.492847,100.054296 C174.547684,99.4200976 175.865674,99.4200976 176.920511,100.054296 L188.934544,107.27781 C189.654053,107.709955 189.654053,108.753823 188.934544,109.185967 L176.920511,116.409482 C175.865674,117.043791 174.547684,117.043791 173.492847,116.409482 L161.477704,109.185967 C160.759305,108.753823 160.759305,107.709955 161.477704,107.27781 Z" id="Path" fill="#656C8C"></path>
                    <path d="M193.575824,164.751276 L205.559877,157.545898 C206.562527,156.942853 207.176553,155.855816 207.176553,154.684218 L207.176553,146.261625 C207.176553,145.397113 206.234973,144.861939 205.495477,145.30699 L193.575824,152.474539 C192.520988,153.108737 191.202997,153.108737 190.148161,152.474539 L178.227398,145.30699 C177.487902,144.861939 176.546322,145.397113 176.546322,146.261625 L176.546322,154.684218 C176.546322,155.855816 177.160347,156.942853 178.164108,157.545898 L190.148161,164.751276 C191.202997,165.385474 192.520988,165.385474 193.575824,164.751276 Z" id="Path" fill="#3D4158"></path>
                    <path d="M178.133018,138.430949 L190.148161,131.207768 C191.202997,130.57357 192.520988,130.57357 193.575824,131.207768 L205.589857,138.430949 C206.309366,138.863761 206.309366,139.907406 205.589857,140.339106 L193.575824,147.563399 C192.520988,148.197597 191.202997,148.197597 190.148161,147.563399 L178.133018,140.339106 C177.414619,139.907406 177.414619,138.863761 178.133018,138.430949 Z" id="Path" fill="#656C8C"></path>
                    <path d="M159.154843,227.058444 L171.138896,219.853065 C172.141546,219.25002 172.755572,218.162983 172.755572,216.991386 L172.755572,208.568792 C172.755572,207.70428 171.813992,207.169106 171.074496,207.614157 L159.154843,214.781706 C158.100007,215.415904 156.782016,215.415904 155.72718,214.781706 L143.806417,207.614157 C143.066921,207.169106 142.125341,207.70428 142.125341,208.568792 L142.125341,216.991386 C142.125341,218.162983 142.739366,219.25002 143.743127,219.853065 L155.72718,227.058444 C156.782016,227.692642 158.100007,227.692642 159.154843,227.058444 Z" id="Path" fill="#3D4158"></path>
                    <path d="M143.712037,200.738116 L155.72718,193.514935 C156.782016,192.880737 158.100007,192.880737 159.154843,193.514935 L171.168876,200.738116 C171.888386,201.170928 171.888386,202.214573 171.168876,202.646273 L159.154843,209.870567 C158.100007,210.504765 156.782016,210.504765 155.72718,209.870567 L143.712037,202.646273 C142.993638,202.214573 142.993638,201.170928 143.712037,200.738116 Z" id="Path" fill="#656C8C"></path>
                    <path d="M125.946591,294.198867 L137.961512,286.975686 C139.016349,286.341488 140.334339,286.341488 141.389176,286.975686 L153.403208,294.198867 C154.122718,294.631679 154.122718,295.675324 153.403208,296.107024 L141.389176,303.331317 C140.334339,303.965515 139.016349,303.965515 137.961512,303.331317 L125.946591,296.107024 C125.227748,295.675324 125.227748,294.631679 125.946591,294.198867 Z" id="Path" fill="#656C8C"></path>
                    <path d="M161.477704,294.198867 L173.492847,286.975686 C174.547684,286.341488 175.865674,286.341488 176.920511,286.975686 L188.934544,294.198867 C189.654053,294.631679 189.654053,295.675324 188.934544,296.107024 L176.920511,303.331317 C175.865674,303.965515 174.547684,303.965515 173.492847,303.331317 L161.477704,296.107024 C160.759305,295.675324 160.759305,294.631679 161.477704,294.198867 Z" id="Path" fill="#656C8C"></path>
                    <path d="M194.686178,289.365611 L206.670232,282.160232 C207.672881,281.557188 208.286907,280.47015 208.286907,279.298553 L208.286907,270.875959 C208.286907,270.011447 207.345327,269.476273 206.605831,269.921324 L194.686178,277.088874 C193.631342,277.723072 192.313351,277.723072 191.258515,277.088874 L179.337752,269.921324 C178.598256,269.476273 177.656676,270.011447 177.656676,270.875959 L177.656676,279.298553 C177.656676,280.47015 178.270702,281.557188 179.274462,282.160232 L191.258515,289.365611 C192.313351,289.999809 193.631342,289.999809 194.686178,289.365611 Z" id="Path" fill="#3D4158"></path>
                    <path d="M179.243372,263.045283 L191.258515,255.822102 C192.313351,255.187904 193.631342,255.187904 194.686178,255.822102 L206.700211,263.045283 C207.419721,263.478096 207.419721,264.521741 206.700211,264.95344 L194.686178,272.177734 C193.631342,272.811932 192.313351,272.811932 191.258515,272.177734 L179.243372,264.95344 C178.524973,264.521741 178.524973,263.478096 179.243372,263.045283 Z" id="Path" fill="#656C8C"></path>
                    <path d="M141.389176,133.597693 L153.373229,126.392537 C154.375879,125.78927 154.989905,124.702788 154.989905,123.530301 L154.989905,115.10793 C154.989905,114.243084 154.048324,113.708911 153.308828,114.153851 L141.389176,121.320399 C140.334339,121.954597 139.016349,121.954597 137.961512,121.320399 L126.041304,114.153851 C125.301253,113.708911 124.359673,114.243084 124.359673,115.10793 L124.359673,123.530301 C124.359673,124.702788 124.973588,125.78927 125.976904,126.392537 L137.961512,133.597693 C139.016349,134.231891 140.334339,134.231891 141.389176,133.597693 Z" id="Path" fill="#3D4158"></path>
                    <path d="M125.946591,107.27781 L137.961512,100.054296 C139.016349,99.4200976 140.334339,99.4200976 141.389176,100.054296 L153.403208,107.27781 C154.122718,107.709955 154.122718,108.753823 153.403208,109.185967 L141.389176,116.409482 C140.334339,117.043791 139.016349,117.043791 137.961512,116.409482 L125.946591,109.185967 C125.227748,108.753823 125.227748,107.709955 125.946591,107.27781 Z" id="Path" fill="#656C8C"></path>
                    <path d="M105.857507,133.597693 L117.841783,126.392537 C118.845099,125.78927 119.459014,124.702788 119.459014,123.530301 L119.459014,115.10793 C119.459014,114.243084 118.517433,113.708911 117.777382,114.153851 L105.857507,121.320399 C104.80256,121.954597 103.484792,121.954597 102.429844,121.320399 L90.5099693,114.153851 C89.7699183,113.708911 88.8283379,114.243084 88.8283379,115.10793 L88.8283379,123.530301 C88.8283379,124.702788 89.4422527,125.78927 90.4455688,126.392537 L102.429844,133.597693 C103.484792,134.231891 104.80256,134.231891 105.857507,133.597693 Z" id="Path" fill="#3D4158"></path>
                    <path d="M90.4152561,107.27781 L102.429844,100.054296 C103.484792,99.4200976 104.80256,99.4200976 105.857507,100.054296 L117.872095,107.27781 C118.590939,107.709955 118.590939,108.753823 117.872095,109.185967 L105.857507,116.409482 C104.80256,117.043791 103.484681,117.043791 102.429844,116.409482 L90.4152561,109.185967 C89.6964128,108.753823 89.6964128,107.709955 90.4152561,107.27781 Z" id="Path" fill="#656C8C"></path>
                    <path d="M70.3261723,133.597693 L82.3104475,126.392537 C83.3137636,125.78927 83.9276785,124.702788 83.9276785,123.530301 L83.9276785,115.10793 C83.9276785,114.243084 82.9860981,113.708911 82.246047,114.153851 L70.3261723,121.320399 C69.2712248,121.954597 67.9534564,121.954597 66.8985089,121.320399 L54.9786342,114.153851 C54.2385831,113.708911 53.2970027,114.243084 53.2970027,115.10793 L53.2970027,123.530301 C53.2970027,124.702788 53.9109176,125.78927 54.9142337,126.392537 L66.8985089,133.597693 C67.9534564,134.231891 69.2712248,134.231891 70.3261723,133.597693 Z" id="Path" fill="#3D4158"></path>
                    <path d="M54.883921,107.27781 L66.8985089,100.054296 C67.9534564,99.4200976 69.2712248,99.4200976 70.3261723,100.054296 L82.3407602,107.27781 C83.0596035,107.709955 83.0596035,108.753823 82.3407602,109.185967 L70.3261723,116.409482 C69.2712248,117.043791 67.9533454,117.043791 66.8985089,116.409482 L54.883921,109.185967 C54.1650777,108.753823 54.1650777,107.709955 54.883921,107.27781 Z" id="Path" fill="#656C8C"></path>
                    <path d="M17.0291474,164.751276 L29.0134448,157.545898 C30.0167609,156.942853 30.6306757,155.855816 30.6306757,154.684218 L30.6306757,146.261625 C30.6306757,145.397113 29.6890954,144.861939 28.9490443,145.30699 L17.0291474,152.474539 C15.9742576,153.108737 14.6563993,153.108737 13.6015061,152.474539 L1.68163147,145.30699 C0.941580381,144.861939 0,145.397113 0,146.261625 L0,154.684218 C0,155.855816 0.61391485,156.942853 1.61723093,157.545898 L13.6015061,164.751276 C14.6563993,165.385474 15.9742576,165.385474 17.0291474,164.751276 Z" id="Path" fill="#3D4158"></path>
                    <path d="M1.58691826,138.430949 L13.6015061,131.207768 C14.6563993,130.57357 15.9742587,130.57357 17.0291474,131.207768 L29.0437575,138.430949 C29.7626008,138.863761 29.7626008,139.907406 29.0437575,140.339106 L17.0291474,147.563399 C15.9742576,148.197597 14.6563982,148.197597 13.6015061,147.563399 L1.58691826,140.339106 C0.868074932,139.907406 0.868074932,138.863761 1.58691826,138.430949 Z" id="Path" fill="#656C8C"></path>
                    <path d="M52.5605048,164.751276 L64.54478,157.545898 C65.548096,156.942853 66.1620109,155.855816 66.1620109,154.684218 L66.1620109,146.261625 C66.1620109,145.397113 65.2204305,144.861939 64.4803794,145.30699 L52.5605048,152.474539 C51.5055572,153.108737 50.1877888,153.108737 49.1328413,152.474539 L37.2129666,145.30699 C36.4729155,144.861939 35.5313351,145.397113 35.5313351,146.261625 L35.5313351,154.684218 C35.5313351,155.855816 36.14525,156.942853 37.1485661,157.545898 L49.1328413,164.751276 C50.1877888,165.385474 51.5055572,165.385474 52.5605048,164.751276 Z" id="Path" fill="#3D4158"></path>
                    <path d="M37.1182534,138.430949 L49.1328413,131.207768 C50.1877888,130.57357 51.5055572,130.57357 52.5605048,131.207768 L64.5750926,138.430949 C65.293936,138.863761 65.293936,139.907406 64.5750926,140.339106 L52.5605048,147.563399 C51.5055572,148.197597 50.1876778,148.197597 49.1328413,147.563399 L37.1182534,140.339106 C36.3994101,139.907406 36.3994101,138.863761 37.1182534,138.430949 Z" id="Path" fill="#656C8C"></path>
                    <path d="M34.7948372,195.90486 L46.7791124,188.699481 C47.7824285,188.096437 48.3963433,187.009399 48.3963433,185.837802 L48.3963433,177.415208 C48.3963433,176.550696 47.4547629,176.015522 46.7147119,176.460573 L34.7948372,183.628123 C33.7398896,184.262321 32.4221213,184.262321 31.3671737,183.628123 L19.447299,176.460573 C18.7072146,176.015522 17.7656676,176.550696 17.7656676,177.415208 L17.7656676,185.837802 C17.7656676,187.009399 18.3795824,188.096437 19.3829096,188.699481 L31.3671737,195.90486 C32.4221213,196.539058 33.7398896,196.539058 34.7948372,195.90486 Z" id="Path" fill="#3D4158"></path>
                    <path d="M19.3525303,169.584532 L31.3671737,162.361352 C32.4221213,161.727154 33.7398896,161.727154 34.7948372,162.361352 L46.8094251,169.584532 C47.5282684,170.017345 47.5282684,171.06099 46.8094251,171.492689 L34.7948372,178.716983 C33.7398896,179.351181 32.4220102,179.351181 31.3671737,178.716983 L19.3525303,171.492689 C18.6337647,171.06099 18.6337647,170.017345 19.3525303,169.584532 Z" id="Path" fill="#656C8C"></path>
                    <path d="M88.0918399,164.751276 L100.076115,157.545898 C101.079431,156.942853 101.693346,155.855816 101.693346,154.684218 L101.693346,146.261625 C101.693346,145.397113 100.751766,144.861939 100.011715,145.30699 L88.0918399,152.474539 C87.0368924,153.108737 85.719124,153.108737 84.6641764,152.474539 L72.7443018,145.30699 C72.0042507,144.861939 71.0626703,145.397113 71.0626703,146.261625 L71.0626703,154.684218 C71.0626703,155.855816 71.6765851,156.942853 72.6799012,157.545898 L84.6641764,164.751276 C85.719124,165.385474 87.0368924,165.385474 88.0918399,164.751276 Z" id="Path" fill="#3D4158"></path>
                    <path d="M72.6495886,138.430949 L84.6641764,131.207768 C85.719124,130.57357 87.0368924,130.57357 88.0918399,131.207768 L100.106428,138.430949 C100.825271,138.863761 100.825271,139.907406 100.106428,140.339106 L88.0918399,147.563399 C87.0368924,148.197597 85.7190129,148.197597 84.6641764,147.563399 L72.6495886,140.339106 C71.9307452,139.907406 71.9307452,138.863761 72.6495886,138.430949 Z" id="Path" fill="#656C8C"></path>
                    <path d="M123.623175,164.751276 L135.607561,157.545898 C136.610211,156.942853 137.224237,155.855816 137.224237,154.684218 L137.224237,146.261625 C137.224237,145.397113 136.282657,144.861939 135.543161,145.30699 L123.623175,152.474539 C122.568228,153.108737 121.250459,153.108737 120.195512,152.474539 L108.275637,145.30699 C107.535586,144.861939 106.594005,145.397113 106.594005,146.261625 L106.594005,154.684218 C106.594005,155.855816 107.20792,156.942853 108.211236,157.545898 L120.195512,164.751276 C121.250459,165.385474 122.568228,165.385474 123.623175,164.751276 Z" id="Path" fill="#3D4158"></path>
                    <path d="M108.180924,138.430949 L120.195512,131.207768 C121.250459,130.57357 122.568228,130.57357 123.623175,131.207768 L135.637541,138.430949 C136.35705,138.863761 136.35705,139.907406 135.637541,140.339106 L123.623175,147.563399 C122.568228,148.197597 121.250348,148.197597 120.195512,147.563399 L108.180924,140.339106 C107.46208,139.907406 107.46208,138.863761 108.180924,138.430949 Z" id="Path" fill="#656C8C"></path>
                    <path d="M105.857507,195.90486 L117.841783,188.699481 C118.845099,188.096437 119.459014,187.009399 119.459014,185.837802 L119.459014,177.415208 C119.459014,176.550696 118.517433,176.015522 117.777382,176.460573 L105.857507,183.628123 C104.80256,184.262321 103.484792,184.262321 102.429844,183.628123 L90.5099693,176.460573 C89.7699183,176.015522 88.8283379,176.550696 88.8283379,177.415208 L88.8283379,185.837802 C88.8283379,187.009399 89.4422527,188.096437 90.4455688,188.699481 L102.429844,195.90486 C103.484792,196.539058 104.80256,196.539058 105.857507,195.90486 Z" id="Path" fill="#3D4158"></path>
                    <path d="M90.4152561,169.584532 L102.429844,162.361352 C103.484792,161.727154 104.80256,161.727154 105.857507,162.361352 L117.872095,169.584532 C118.590939,170.017345 118.590939,171.06099 117.872095,171.492689 L105.857507,178.716983 C104.80256,179.351181 103.484681,179.351181 102.429844,178.716983 L90.4152561,171.492689 C89.6964128,171.06099 89.6964128,170.017345 90.4152561,169.584532 Z" id="Path" fill="#656C8C"></path>
                    <path d="M70.3261723,195.90486 L82.3104475,188.699481 C83.3137636,188.096437 83.9276785,187.009399 83.9276785,185.837802 L83.9276785,177.415208 C83.9276785,176.550696 82.9860981,176.015522 82.246047,176.460573 L70.3261723,183.628123 C69.2712248,184.262321 67.9534564,184.262321 66.8985089,183.628123 L54.9786342,176.460573 C54.2385831,176.015522 53.2970027,176.550696 53.2970027,177.415208 L53.2970027,185.837802 C53.2970027,187.009399 53.9109176,188.096437 54.9142337,188.699481 L66.8985089,195.90486 C67.9534564,196.539058 69.2712248,196.539058 70.3261723,195.90486 Z" id="Path" fill="#3D4158"></path>
                    <path d="M54.883921,169.584532 L66.8985089,162.361352 C67.9534564,161.727154 69.2712248,161.727154 70.3261723,162.361352 L82.3407602,169.584532 C83.0596035,170.017345 83.0596035,171.06099 82.3407602,171.492689 L70.3261723,178.716983 C69.2712248,179.351181 67.9533454,179.351181 66.8985089,178.716983 L54.883921,171.492689 C54.1650777,171.06099 54.1650777,170.017345 54.883921,169.584532 Z" id="Path" fill="#656C8C"></path>
                    <path d="M17.0291474,227.058444 L29.0134448,219.853065 C30.0167609,219.25002 30.6306757,218.162983 30.6306757,216.991386 L30.6306757,208.568792 C30.6306757,207.70428 29.6890954,207.169106 28.9490443,207.614157 L17.0291474,214.781706 C15.9742576,215.415904 14.6563993,215.415904 13.6015061,214.781706 L1.68163147,207.614157 C0.941580381,207.169106 0,207.70428 0,208.568792 L0,216.991386 C0,218.162983 0.61391485,219.25002 1.61723093,219.853065 L13.6015061,227.058444 C14.6563993,227.692642 15.9742576,227.692642 17.0291474,227.058444 Z" id="Path" fill="#3D4158"></path>
                    <path d="M1.58691826,200.738116 L13.6015061,193.514935 C14.6563993,192.880737 15.9742587,192.880737 17.0291474,193.514935 L29.0437575,200.738116 C29.7626008,201.170928 29.7626008,202.214573 29.0437575,202.646273 L17.0291474,209.870567 C15.9742576,210.504765 14.6563982,210.504765 13.6015061,209.870567 L1.58691826,202.646273 C0.868074932,202.214573 0.868074932,201.170928 1.58691826,200.738116 Z" id="Path" fill="#656C8C"></path>
                    <path d="M52.5605048,227.058444 L64.54478,219.853065 C65.548096,219.25002 66.1620109,218.162983 66.1620109,216.991386 L66.1620109,208.568792 C66.1620109,207.70428 65.2204305,207.169106 64.4803794,207.614157 L52.5605048,214.781706 C51.5055572,215.415904 50.1877888,215.415904 49.1328413,214.781706 L37.2129666,207.614157 C36.4729155,207.169106 35.5313351,207.70428 35.5313351,208.568792 L35.5313351,216.991386 C35.5313351,218.162983 36.14525,219.25002 37.1485661,219.853065 L49.1328413,227.058444 C50.1877888,227.692642 51.5055572,227.692642 52.5605048,227.058444 Z" id="Path" fill="#3D4158"></path>
                    <path d="M37.1182534,200.738116 L49.1328413,193.514935 C50.1877888,192.880737 51.5055572,192.880737 52.5605048,193.514935 L64.5750926,200.738116 C65.293936,201.170928 65.293936,202.214573 64.5750926,202.646273 L52.5605048,209.870567 C51.5055572,210.504765 50.1876778,210.504765 49.1328413,209.870567 L37.1182534,202.646273 C36.3994101,202.214573 36.3994101,201.170928 37.1182534,200.738116 Z" id="Path" fill="#656C8C"></path>
                    <path d="M34.7948372,258.212027 L46.7791124,251.006648 C47.7824285,250.403604 48.3963433,249.316567 48.3963433,248.144969 L48.3963433,239.722375 C48.3963433,238.857863 47.4547629,238.322689 46.7147119,238.767741 L34.7948372,245.93529 C33.7398896,246.569488 32.4221213,246.569488 31.3671737,245.93529 L19.447299,238.767741 C18.7072146,238.322689 17.7656676,238.857863 17.7656676,239.722375 L17.7656676,248.144969 C17.7656676,249.316567 18.3795824,250.403604 19.3829096,251.006648 L31.3671737,258.212027 C32.4221213,258.846225 33.7398896,258.846225 34.7948372,258.212027 Z" id="Path" fill="#3D4158"></path>
                    <path d="M19.3525303,231.8917 L31.3671737,224.668519 C32.4221213,224.034321 33.7398896,224.034321 34.7948372,224.668519 L46.8094251,231.8917 C47.5282684,232.324512 47.5282684,233.368157 46.8094251,233.799857 L34.7948372,241.02415 C33.7398896,241.658348 32.4220102,241.658348 31.3671737,241.02415 L19.3525303,233.799857 C18.6337647,233.368157 18.6337647,232.324512 19.3525303,231.8917 Z" id="Path" fill="#656C8C"></path>
                    <path d="M88.0918399,227.058444 L100.076115,219.853065 C101.079431,219.25002 101.693346,218.162983 101.693346,216.991386 L101.693346,208.568792 C101.693346,207.70428 100.751766,207.169106 100.011715,207.614157 L88.0918399,214.781706 C87.0368924,215.415904 85.719124,215.415904 84.6641764,214.781706 L72.7443018,207.614157 C72.0042507,207.169106 71.0626703,207.70428 71.0626703,208.568792 L71.0626703,216.991386 C71.0626703,218.162983 71.6765851,219.25002 72.6799012,219.853065 L84.6641764,227.058444 C85.719124,227.692642 87.0368924,227.692642 88.0918399,227.058444 Z" id="Path" fill="#3D4158"></path>
                    <path d="M72.6495886,200.738116 L84.6641764,193.514935 C85.719124,192.880737 87.0368924,192.880737 88.0918399,193.514935 L100.106428,200.738116 C100.825271,201.170928 100.825271,202.214573 100.106428,202.646273 L88.0918399,209.870567 C87.0368924,210.504765 85.7190129,210.504765 84.6641764,209.870567 L72.6495886,202.646273 C71.9307452,202.214573 71.9307452,201.170928 72.6495886,200.738116 Z" id="Path" fill="#656C8C"></path>
                    <path d="M123.623175,227.058444 L135.607561,219.853065 C136.610211,219.25002 137.224237,218.162983 137.224237,216.991386 L137.224237,208.568792 C137.224237,207.70428 136.282657,207.169106 135.543161,207.614157 L123.623175,214.781706 C122.568228,215.415904 121.250459,215.415904 120.195512,214.781706 L108.275637,207.614157 C107.535586,207.169106 106.594005,207.70428 106.594005,208.568792 L106.594005,216.991386 C106.594005,218.162983 107.20792,219.25002 108.211236,219.853065 L120.195512,227.058444 C121.250459,227.692642 122.568228,227.692642 123.623175,227.058444 Z" id="Path" fill="#3D4158"></path>
                    <path d="M108.180924,200.738116 L120.195512,193.514935 C121.250459,192.880737 122.568228,192.880737 123.623175,193.514935 L135.637541,200.738116 C136.35705,201.170928 136.35705,202.214573 135.637541,202.646273 L123.623175,209.870567 C122.568228,210.504765 121.250348,210.504765 120.195512,209.870567 L108.180924,202.646273 C107.46208,202.214573 107.46208,201.170928 108.180924,200.738116 Z" id="Path" fill="#656C8C"></path>
                    <path d="M105.857507,258.212027 L117.841783,251.006648 C118.845099,250.403604 119.459014,249.316567 119.459014,248.144969 L119.459014,239.722375 C119.459014,238.857863 118.517433,238.322689 117.777382,238.767741 L105.857507,245.93529 C104.80256,246.569488 103.484792,246.569488 102.429844,245.93529 L90.5099693,238.767741 C89.7699183,238.322689 88.8283379,238.857863 88.8283379,239.722375 L88.8283379,248.144969 C88.8283379,249.316567 89.4422527,250.403604 90.4455688,251.006648 L102.429844,258.212027 C103.484792,258.846225 104.80256,258.846225 105.857507,258.212027 Z" id="Path" fill="#3D4158"></path>
                    <path d="M90.4152561,231.8917 L102.429844,224.668519 C103.484792,224.034321 104.80256,224.034321 105.857507,224.668519 L117.872095,231.8917 C118.590939,232.324512 118.590939,233.368157 117.872095,233.799857 L105.857507,241.02415 C104.80256,241.658348 103.484681,241.658348 102.429844,241.02415 L90.4152561,233.799857 C89.6964128,233.368157 89.6964128,232.324512 90.4152561,231.8917 Z" id="Path" fill="#656C8C"></path>
                    <path d="M70.3261723,258.212027 L82.3104475,251.006648 C83.3137636,250.403604 83.9276785,249.316567 83.9276785,248.144969 L83.9276785,239.722375 C83.9276785,238.857863 82.9860981,238.322689 82.246047,238.767741 L70.3261723,245.93529 C69.2712248,246.569488 67.9534564,246.569488 66.8985089,245.93529 L54.9786342,238.767741 C54.2385831,238.322689 53.2970027,238.857863 53.2970027,239.722375 L53.2970027,248.144969 C53.2970027,249.316567 53.9109176,250.403604 54.9142337,251.006648 L66.8985089,258.212027 C67.9534564,258.846225 69.2712248,258.846225 70.3261723,258.212027 Z" id="Path" fill="#3D4158"></path>
                    <path d="M54.883921,231.8917 L66.8985089,224.668519 C67.9534564,224.034321 69.2712248,224.034321 70.3261723,224.668519 L82.3407602,231.8917 C83.0596035,232.324512 83.0596035,233.368157 82.3407602,233.799857 L70.3261723,241.02415 C69.2712248,241.658348 67.9533454,241.658348 66.8985089,241.02415 L54.883921,233.799857 C54.1650777,233.368157 54.1650777,232.324512 54.883921,231.8917 Z" id="Path" fill="#656C8C"></path>
                    <path d="M17.0291474,289.365611 L29.0134448,282.160232 C30.0167609,281.557188 30.6306757,280.47015 30.6306757,279.298553 L30.6306757,270.875959 C30.6306757,270.011447 29.6890954,269.476273 28.9490443,269.921324 L17.0291474,277.088874 C15.9742576,277.723072 14.6563993,277.723072 13.6015061,277.088874 L1.68163147,269.921324 C0.941580381,269.476273 0,270.011447 0,270.875959 L0,279.298553 C0,280.47015 0.61391485,281.557188 1.61723093,282.160232 L13.6015061,289.365611 C14.6563993,289.999809 15.9742576,289.999809 17.0291474,289.365611 Z" id="Path" fill="#3D4158"></path>
                    <path d="M1.58691826,263.045283 L13.6015061,255.822102 C14.6563993,255.187904 15.9742587,255.187904 17.0291474,255.822102 L29.0437575,263.045283 C29.7626008,263.478096 29.7626008,264.521741 29.0437575,264.95344 L17.0291474,272.177734 C15.9742576,272.811932 14.6563982,272.811932 13.6015061,272.177734 L1.58691826,264.95344 C0.868074932,264.521741 0.868074932,263.478096 1.58691826,263.045283 Z" id="Path" fill="#656C8C"></path>
                    <path d="M52.5605048,289.365611 L64.54478,282.160232 C65.548096,281.557188 66.1620109,280.47015 66.1620109,279.298553 L66.1620109,270.875959 C66.1620109,270.011447 65.2204305,269.476273 64.4803794,269.921324 L52.5605048,277.088874 C51.5055572,277.723072 50.1877888,277.723072 49.1328413,277.088874 L37.2129666,269.921324 C36.4729155,269.476273 35.5313351,270.011447 35.5313351,270.875959 L35.5313351,279.298553 C35.5313351,280.47015 36.14525,281.557188 37.1485661,282.160232 L49.1328413,289.365611 C50.1877888,289.999809 51.5055572,289.999809 52.5605048,289.365611 Z" id="Path" fill="#3D4158"></path>
                    <path d="M37.1182534,263.045283 L49.1328413,255.822102 C50.1877888,255.187904 51.5055572,255.187904 52.5605048,255.822102 L64.5750926,263.045283 C65.293936,263.478096 65.293936,264.521741 64.5750926,264.95344 L52.5605048,272.177734 C51.5055572,272.811932 50.1876778,272.811932 49.1328413,272.177734 L37.1182534,264.95344 C36.3994101,264.521741 36.3994101,263.478096 37.1182534,263.045283 Z" id="Path" fill="#656C8C"></path>
                    <path d="M19.3525303,294.198867 L31.3671737,286.975686 C32.4221213,286.341488 33.7398896,286.341488 34.7948372,286.975686 L46.8094251,294.198867 C47.5282684,294.631679 47.5282684,295.675324 46.8094251,296.107024 L34.7948372,303.331317 C33.7398896,303.965515 32.4220102,303.965515 31.3671737,303.331317 L19.3525303,296.107024 C18.6337647,295.675324 18.6337647,294.631679 19.3525303,294.198867 Z" id="Path" fill="#656C8C"></path>
                    <path d="M88.0918399,289.365611 L100.076115,282.160232 C101.079431,281.557188 101.693346,280.47015 101.693346,279.298553 L101.693346,270.875959 C101.693346,270.011447 100.751766,269.476273 100.011715,269.921324 L88.0918399,277.088874 C87.0368924,277.723072 85.719124,277.723072 84.6641764,277.088874 L72.7443018,269.921324 C72.0042507,269.476273 71.0626703,270.011447 71.0626703,270.875959 L71.0626703,279.298553 C71.0626703,280.47015 71.6765851,281.557188 72.6799012,282.160232 L84.6641764,289.365611 C85.719124,289.999809 87.0368924,289.999809 88.0918399,289.365611 Z" id="Path" fill="#3D4158"></path>
                    <path d="M72.6495886,263.045283 L84.6641764,255.822102 C85.719124,255.187904 87.0368924,255.187904 88.0918399,255.822102 L100.106428,263.045283 C100.825271,263.478096 100.825271,264.521741 100.106428,264.95344 L88.0918399,272.177734 C87.0368924,272.811932 85.7190129,272.811932 84.6641764,272.177734 L72.6495886,264.95344 C71.9307452,264.521741 71.9307452,263.478096 72.6495886,263.045283 Z" id="Path" fill="#656C8C"></path>
                    <path d="M123.623175,289.365611 L135.607561,282.160232 C136.610211,281.557188 137.224237,280.47015 137.224237,279.298553 L137.224237,270.875959 C137.224237,270.011447 136.282657,269.476273 135.543161,269.921324 L123.623175,277.088874 C122.568228,277.723072 121.250459,277.723072 120.195512,277.088874 L108.275637,269.921324 C107.535586,269.476273 106.594005,270.011447 106.594005,270.875959 L106.594005,279.298553 C106.594005,280.47015 107.20792,281.557188 108.211236,282.160232 L120.195512,289.365611 C121.250459,289.999809 122.568228,289.999809 123.623175,289.365611 Z" id="Path" fill="#3D4158"></path>
                    <path d="M108.180924,263.045283 L120.195512,255.822102 C121.250459,255.187904 122.568228,255.187904 123.623175,255.822102 L135.637541,263.045283 C136.35705,263.478096 136.35705,264.521741 135.637541,264.95344 L123.623175,272.177734 C122.568228,272.811932 121.250348,272.811932 120.195512,272.177734 L108.180924,264.95344 C107.46208,264.521741 107.46208,263.478096 108.180924,263.045283 Z" id="Path" fill="#656C8C"></path>
                    <path d="M90.4152561,294.198867 L102.429844,286.975686 C103.484792,286.341488 104.80256,286.341488 105.857507,286.975686 L117.872095,294.198867 C118.590939,294.631679 118.590939,295.675324 117.872095,296.107024 L105.857507,303.331317 C104.80256,303.965515 103.484681,303.965515 102.429844,303.331317 L90.4152561,296.107024 C89.6964128,295.675324 89.6964128,294.631679 90.4152561,294.198867 Z" id="Path" fill="#656C8C"></path>
                    <path d="M54.883921,294.198867 L66.8985089,286.975686 C67.9534564,286.341488 69.2712248,286.341488 70.3261723,286.975686 L82.3407602,294.198867 C83.0596035,294.631679 83.0596035,295.675324 82.3407602,296.107024 L70.3261723,303.331317 C69.2712248,303.965515 67.9533454,303.965515 66.8985089,303.331317 L54.883921,296.107024 C54.1650777,295.675324 54.1650777,294.631679 54.883921,294.198867 Z" id="Path" fill="#656C8C"></path>
                    <path d="M1509.34891,20.1097272 L1521.32963,12.9044374 C1522.32895,12.3012039 1522.95075,11.2147004 1522.95075,10.0422242 L1522.95075,1.61987509 C1522.95075,0.755029352 1522.00695,0.220856655 1521.26301,0.665796587 L1509.34891,7.83236696 C1508.29407,8.46659829 1506.97275,8.46659829 1505.91792,7.83236696 L1493.99271,0.665796587 C1493.25988,0.220856655 1492.31608,0.755029352 1492.31608,1.61987509 L1492.31608,10.0422242 C1492.31608,11.2147004 1492.92677,12.3012039 1493.93719,12.9044374 L1505.91792,20.1097272 C1506.97275,20.7439586 1508.29407,20.7439474 1509.34891,20.1097272 Z" id="Path" fill="#3D4158"></path>
                    <path d="M1544.88025,20.1097272 L1556.86097,12.9044374 C1557.86029,12.3012039 1558.48208,11.2147004 1558.48208,10.0422242 L1558.48208,1.61987509 C1558.48208,0.755029352 1557.53828,0.220856655 1556.79435,0.665796587 L1544.88025,7.83236696 C1543.82541,8.46659829 1542.50409,8.46659829 1541.44925,7.83236696 L1529.52405,0.665796587 C1528.79121,0.220856655 1527.84741,0.755029352 1527.84741,1.61987509 L1527.84741,10.0422242 C1527.84741,11.2147004 1528.45811,12.3012039 1529.46853,12.9044374 L1541.44925,20.1097272 C1542.50409,20.7439586 1543.82541,20.7439474 1544.88025,20.1097272 Z" id="Path" fill="#3D4158"></path>
                    <path d="M1527.11458,51.2633331 L1539.0953,44.0580655 C1540.09462,43.4547986 1540.71642,42.3683174 1540.71642,41.19583 L1540.71642,32.7734587 C1540.71642,31.908613 1539.77262,31.3744403 1539.02868,31.8193802 L1527.11458,38.9859283 C1526.05974,39.6201263 1524.73842,39.6201263 1523.68358,38.9859283 L1511.75838,31.8193802 C1511.02554,31.3744403 1510.08174,31.908613 1510.08174,32.7734587 L1510.08174,41.19583 C1510.08174,42.3683174 1510.69244,43.4547986 1511.70286,44.0580655 L1523.68358,51.2633331 C1524.73842,51.8975311 1526.05974,51.8975311 1527.11458,51.2633331 Z" id="Path" fill="#3D4158"></path>
                    <path d="M1511.66955,24.9433615 L1523.68358,17.7198167 C1524.73842,17.0855866 1526.05974,17.0855877 1527.11458,17.7198176 L1539.12861,24.9433615 C1539.83924,25.3755173 1539.83924,26.4193627 1539.12861,26.8515074 L1527.11458,34.0750109 C1526.05974,34.7093201 1524.73842,34.7093201 1523.68358,34.0750109 L1511.66955,26.8515074 C1510.94782,26.4193627 1510.94782,25.3755173 1511.66955,24.9433615 Z" id="Path" fill="#656C8C"></path>
                    <path d="M1491.58324,51.2633331 L1503.56396,44.0580655 C1504.56328,43.4547986 1505.18508,42.3683174 1505.18508,41.19583 L1505.18508,32.7734587 C1505.18508,31.908613 1504.24128,31.3744403 1503.49734,31.8193802 L1491.58324,38.9859283 C1490.52841,39.6201263 1489.20708,39.6201263 1488.15225,38.9859283 L1476.22704,31.8193802 C1475.49421,31.3744403 1474.55041,31.908613 1474.55041,32.7734587 L1474.55041,41.19583 C1474.55041,42.3683174 1475.1611,43.4547986 1476.17153,44.0580655 L1488.15225,51.2633331 C1489.20708,51.8975311 1490.52841,51.8975311 1491.58324,51.2633331 Z" id="Path" fill="#3D4158"></path>
                    <path d="M1476.13822,24.9433615 L1488.15225,17.7198167 C1489.20708,17.0855866 1490.52841,17.0855877 1491.58324,17.7198176 L1503.59728,24.9433615 C1504.3079,25.3755173 1504.3079,26.4193627 1503.59728,26.8515074 L1491.58324,34.0750109 C1490.52841,34.7093201 1489.20708,34.7093201 1488.15225,34.0750109 L1476.13822,26.8515074 C1475.41649,26.4193627 1475.41649,25.3755173 1476.13822,24.9433615 Z" id="Path" fill="#656C8C"></path>
                    <path d="M1580.41158,20.1097272 L1592.3923,12.9044374 C1593.39162,12.3012039 1594.01342,11.2147004 1594.01342,10.0422242 L1594.01342,1.61987509 C1594.01342,0.755029352 1593.06962,0.220856655 1592.32568,0.665796587 L1580.41158,7.83236696 C1579.35674,8.46659829 1578.03542,8.46659829 1576.98059,7.83236696 L1565.05538,0.665796587 C1564.32255,0.220856655 1563.37875,0.755029352 1563.37875,1.61987509 L1563.37875,10.0422242 C1563.37875,11.2147004 1563.98944,12.3012039 1564.99986,12.9044374 L1576.98059,20.1097272 C1578.03542,20.7439586 1579.35674,20.7439474 1580.41158,20.1097272 Z" id="Path" fill="#3D4158"></path>
                    <path d="M1615.94292,20.1097272 L1627.92364,12.9044374 C1628.92296,12.3012039 1629.54475,11.2147004 1629.54475,10.0422242 L1629.54475,1.61987509 C1629.54475,0.755029352 1628.60095,0.220856655 1627.85702,0.665796587 L1615.94292,7.83236696 C1614.88808,8.46659829 1613.56676,8.46659829 1612.51192,7.83236696 L1600.58672,0.665796587 C1599.85388,0.220856655 1598.91008,0.755029352 1598.91008,1.61987509 L1598.91008,10.0422242 C1598.91008,11.2147004 1599.52078,12.3012039 1600.5312,12.9044374 L1612.51192,20.1097272 C1613.56676,20.7439586 1614.88808,20.7439474 1615.94292,20.1097272 Z" id="Path" fill="#3D4158"></path>
                    <path d="M1598.17725,51.2633331 L1610.15797,44.0580655 C1611.15729,43.4547986 1611.77909,42.3683174 1611.77909,41.19583 L1611.77909,32.7734587 C1611.77909,31.908613 1610.83529,31.3744403 1610.09135,31.8193802 L1598.17725,38.9859283 C1597.12241,39.6201263 1595.80109,39.6201263 1594.74625,38.9859283 L1582.82105,31.8193802 C1582.08822,31.3744403 1581.14441,31.908613 1581.14441,32.7734587 L1581.14441,41.19583 C1581.14441,42.3683174 1581.75511,43.4547986 1582.76553,44.0580655 L1594.74625,51.2633331 C1595.80109,51.8975311 1597.12241,51.8975311 1598.17725,51.2633331 Z" id="Path" fill="#3D4158"></path>
                    <path d="M1582.73222,24.9433615 L1594.74625,17.7198167 C1595.80109,17.0855866 1597.12241,17.0855877 1598.17725,17.7198176 L1610.19128,24.9433615 C1610.90191,25.3755173 1610.90191,26.4193627 1610.19128,26.8515074 L1598.17725,34.0750109 C1597.12241,34.7093201 1595.80109,34.7093201 1594.74625,34.0750109 L1582.73222,26.8515074 C1582.01049,26.4193627 1582.01049,25.3755173 1582.73222,24.9433615 Z" id="Path" fill="#656C8C"></path>
                    <path d="M1562.64591,51.2633331 L1574.62663,44.0580655 C1575.62595,43.4547986 1576.24775,42.3683174 1576.24775,41.19583 L1576.24775,32.7734587 C1576.24775,31.908613 1575.30395,31.3744403 1574.56001,31.8193802 L1562.64591,38.9859283 C1561.59108,39.6201263 1560.26975,39.6201263 1559.21492,38.9859283 L1547.28971,31.8193802 C1546.55688,31.3744403 1545.61308,31.908613 1545.61308,32.7734587 L1545.61308,41.19583 C1545.61308,42.3683174 1546.22377,43.4547986 1547.2342,44.0580655 L1559.21492,51.2633331 C1560.26975,51.8975311 1561.59108,51.8975311 1562.64591,51.2633331 Z" id="Path" fill="#3D4158"></path>
                    <path d="M1547.20089,24.9433615 L1559.21492,17.7198167 C1560.26975,17.0855866 1561.59108,17.0855877 1562.64591,17.7198176 L1574.65995,24.9433615 C1575.37057,25.3755173 1575.37057,26.4193627 1574.65995,26.8515074 L1562.64591,34.0750109 C1561.59108,34.7093201 1560.26975,34.7093201 1559.21492,34.0750109 L1547.20089,26.8515074 C1546.47916,26.4193627 1546.47916,25.3755173 1547.20089,24.9433615 Z" id="Path" fill="#656C8C"></path>
                    <path d="M1509.34891,82.4169167 L1521.32963,75.2116491 C1522.32895,74.6083823 1522.95075,73.521901 1522.95075,72.3494137 L1522.95075,63.9270423 C1522.95075,63.0621966 1522.00695,62.5280239 1521.26301,62.9729638 L1509.34891,70.1395119 C1508.29407,70.7737099 1506.97275,70.7737099 1505.91792,70.1395119 L1493.99271,62.9729638 C1493.25988,62.5280239 1492.31608,63.0621966 1492.31608,63.9270423 L1492.31608,72.3494137 C1492.31608,73.521901 1492.92677,74.6083823 1493.93719,75.2116491 L1505.91792,82.4169167 C1506.97275,83.0511147 1508.29407,83.0511147 1509.34891,82.4169167 Z" id="Path" fill="#3D4158"></path>
                    <path d="M1493.90388,56.0969229 L1505.91792,48.8734082 C1506.97275,48.2392102 1508.29407,48.2392102 1509.34891,48.8734082 L1521.36294,56.0969229 C1522.07357,56.5290676 1522.07357,57.5729352 1521.36294,58.0050799 L1509.34891,65.2285945 C1508.29407,65.8629038 1506.97275,65.8629038 1505.91792,65.2285945 L1493.90388,58.0050799 C1493.18215,57.5729352 1493.18215,56.5290676 1493.90388,56.0969229 Z" id="Path" fill="#656C8C"></path>
                    <path d="M1544.88025,82.4169167 L1556.86097,75.2116491 C1557.86029,74.6083823 1558.48208,73.521901 1558.48208,72.3494137 L1558.48208,63.9270423 C1558.48208,63.0621966 1557.53828,62.5280239 1556.79435,62.9729638 L1544.88025,70.1395119 C1543.82541,70.7737099 1542.50409,70.7737099 1541.44925,70.1395119 L1529.52405,62.9729638 C1528.79121,62.5280239 1527.84741,63.0621966 1527.84741,63.9270423 L1527.84741,72.3494137 C1527.84741,73.521901 1528.45811,74.6083823 1529.46853,75.2116491 L1541.44925,82.4169167 C1542.50409,83.0511147 1543.82541,83.0511147 1544.88025,82.4169167 Z" id="Path" fill="#3D4158"></path>
                    <path d="M1529.43522,56.0969229 L1541.44925,48.8734082 C1542.50409,48.2392102 1543.82541,48.2392102 1544.88025,48.8734082 L1556.89428,56.0969229 C1557.6049,56.5290676 1557.6049,57.5729352 1556.89428,58.0050799 L1544.88025,65.2285945 C1543.82541,65.8629038 1542.50409,65.8629038 1541.44925,65.2285945 L1529.43522,58.0050799 C1528.71349,57.5729352 1528.71349,56.5290676 1529.43522,56.0969229 Z" id="Path" fill="#656C8C"></path>
                    <path d="M1527.11458,113.5705 L1539.0953,106.365233 C1540.09462,105.761966 1540.71642,104.675485 1540.71642,103.502997 L1540.71642,95.0806259 C1540.71642,94.2157802 1539.77262,93.6816075 1539.02868,94.1265474 L1527.11458,101.293096 C1526.05974,101.927294 1524.73842,101.927294 1523.68358,101.293096 L1511.75838,94.1265474 C1511.02554,93.6816075 1510.08174,94.2157802 1510.08174,95.0806259 L1510.08174,103.502997 C1510.08174,104.675485 1510.69244,105.761966 1511.70286,106.365233 L1523.68358,113.5705 C1524.73842,114.204698 1526.05974,114.204698 1527.11458,113.5705 Z" id="Path" fill="#3D4158"></path>
                    <path d="M1511.66955,87.2505065 L1523.68358,80.0269918 C1524.73842,79.3927939 1526.05974,79.3927939 1527.11458,80.0269918 L1539.12861,87.2505065 C1539.83924,87.6826512 1539.83924,88.7265188 1539.12861,89.1586635 L1527.11458,96.3821782 C1526.05974,97.0164874 1524.73842,97.0164874 1523.68358,96.3821782 L1511.66955,89.1586635 C1510.94782,88.7265188 1510.94782,87.6826512 1511.66955,87.2505065 Z" id="Path" fill="#656C8C"></path>
                    <path d="M1491.58324,113.5705 L1503.56396,106.365233 C1504.56328,105.761966 1505.18508,104.675485 1505.18508,103.502997 L1505.18508,95.0806259 C1505.18508,94.2157802 1504.24128,93.6816075 1503.49734,94.1265474 L1491.58324,101.293096 C1490.52841,101.927294 1489.20708,101.927294 1488.15225,101.293096 L1476.22704,94.1265474 C1475.49421,93.6816075 1474.55041,94.2157802 1474.55041,95.0806259 L1474.55041,103.502997 C1474.55041,104.675485 1475.1611,105.761966 1476.17153,106.365233 L1488.15225,113.5705 C1489.20708,114.204698 1490.52841,114.204698 1491.58324,113.5705 Z" id="Path" fill="#3D4158"></path>
                    <path d="M1476.13822,87.2505065 L1488.15225,80.0269918 C1489.20708,79.3927939 1490.52841,79.3927939 1491.58324,80.0269918 L1503.59728,87.2505065 C1504.3079,87.6826512 1504.3079,88.7265188 1503.59728,89.1586635 L1491.58324,96.3821782 C1490.52841,97.0164874 1489.20708,97.0164874 1488.15225,96.3821782 L1476.13822,89.1586635 C1475.41649,88.7265188 1475.41649,87.6826512 1476.13822,87.2505065 Z" id="Path" fill="#656C8C"></path>
                    <path d="M1580.41158,82.4169167 L1592.3923,75.2116491 C1593.39162,74.6083823 1594.01342,73.521901 1594.01342,72.3494137 L1594.01342,63.9270423 C1594.01342,63.0621966 1593.06962,62.5280239 1592.32568,62.9729638 L1580.41158,70.1395119 C1579.35674,70.7737099 1578.03542,70.7737099 1576.98059,70.1395119 L1565.05538,62.9729638 C1564.32255,62.5280239 1563.37875,63.0621966 1563.37875,63.9270423 L1563.37875,72.3494137 C1563.37875,73.521901 1563.98944,74.6083823 1564.99986,75.2116491 L1576.98059,82.4169167 C1578.03542,83.0511147 1579.35674,83.0511147 1580.41158,82.4169167 Z" id="Path" fill="#3D4158"></path>
                    <path d="M1564.96655,56.0969229 L1576.98059,48.8734082 C1578.03542,48.2392102 1579.35674,48.2392102 1580.41158,48.8734082 L1592.42561,56.0969229 C1593.13624,56.5290676 1593.13624,57.5729352 1592.42561,58.0050799 L1580.41158,65.2285945 C1579.35674,65.8629038 1578.03542,65.8629038 1576.98059,65.2285945 L1564.96655,58.0050799 C1564.24482,57.5729352 1564.24482,56.5290676 1564.96655,56.0969229 Z" id="Path" fill="#656C8C"></path>
                    <path d="M1615.94292,82.4169167 L1627.92364,75.2116491 C1628.92296,74.6083823 1629.54475,73.521901 1629.54475,72.3494137 L1629.54475,63.9270423 C1629.54475,63.0621966 1628.60095,62.5280239 1627.85702,62.9729638 L1615.94292,70.1395119 C1614.88808,70.7737099 1613.56676,70.7737099 1612.51192,70.1395119 L1600.58672,62.9729638 C1599.85388,62.5280239 1598.91008,63.0621966 1598.91008,63.9270423 L1598.91008,72.3494137 C1598.91008,73.521901 1599.52078,74.6083823 1600.5312,75.2116491 L1612.51192,82.4169167 C1613.56676,83.0511147 1614.88808,83.0511147 1615.94292,82.4169167 Z" id="Path" fill="#3D4158"></path>
                    <path d="M1600.49789,56.0969229 L1612.51192,48.8734082 C1613.56676,48.2392102 1614.88808,48.2392102 1615.94292,48.8734082 L1627.95695,56.0969229 C1628.66757,56.5290676 1628.66757,57.5729352 1627.95695,58.0050799 L1615.94292,65.2285945 C1614.88808,65.8629038 1613.56676,65.8629038 1612.51192,65.2285945 L1600.49789,58.0050799 C1599.77616,57.5729352 1599.77616,56.5290676 1600.49789,56.0969229 Z" id="Path" fill="#656C8C"></path>
                    <path d="M1598.17725,113.5705 L1610.15797,106.365233 C1611.15729,105.761966 1611.77909,104.675485 1611.77909,103.502997 L1611.77909,95.0806259 C1611.77909,94.2157802 1610.83529,93.6816075 1610.09135,94.1265474 L1598.17725,101.293096 C1597.12241,101.927294 1595.80109,101.927294 1594.74625,101.293096 L1582.82105,94.1265474 C1582.08822,93.6816075 1581.14441,94.2157802 1581.14441,95.0806259 L1581.14441,103.502997 C1581.14441,104.675485 1581.75511,105.761966 1582.76553,106.365233 L1594.74625,113.5705 C1595.80109,114.204698 1597.12241,114.204698 1598.17725,113.5705 Z" id="Path" fill="#3D4158"></path>
                    <path d="M1582.73222,87.2505065 L1594.74625,80.0269918 C1595.80109,79.3927939 1597.12241,79.3927939 1598.17725,80.0269918 L1610.19128,87.2505065 C1610.90191,87.6826512 1610.90191,88.7265188 1610.19128,89.1586635 L1598.17725,96.3821782 C1597.12241,97.0164874 1595.80109,97.0164874 1594.74625,96.3821782 L1582.73222,89.1586635 C1582.01049,88.7265188 1582.01049,87.6826512 1582.73222,87.2505065 Z" id="Path" fill="#656C8C"></path>
                    <path d="M1562.64591,113.5705 L1574.62663,106.365233 C1575.62595,105.761966 1576.24775,104.675485 1576.24775,103.502997 L1576.24775,95.0806259 C1576.24775,94.2157802 1575.30395,93.6816075 1574.56001,94.1265474 L1562.64591,101.293096 C1561.59108,101.927294 1560.26975,101.927294 1559.21492,101.293096 L1547.28971,94.1265474 C1546.55688,93.6816075 1545.61308,94.2157802 1545.61308,95.0806259 L1545.61308,103.502997 C1545.61308,104.675485 1546.22377,105.761966 1547.2342,106.365233 L1559.21492,113.5705 C1560.26975,114.204698 1561.59108,114.204698 1562.64591,113.5705 Z" id="Path" fill="#3D4158"></path>
                    <path d="M1547.20089,87.2505065 L1559.21492,80.0269918 C1560.26975,79.3927939 1561.59108,79.3927939 1562.64591,80.0269918 L1574.65995,87.2505065 C1575.37057,87.6826512 1575.37057,88.7265188 1574.65995,89.1586635 L1562.64591,96.3821782 C1561.59108,97.0164874 1560.26975,97.0164874 1559.21492,96.3821782 L1547.20089,89.1586635 C1546.47916,88.7265188 1546.47916,87.6826512 1547.20089,87.2505065 Z" id="Path" fill="#656C8C"></path>
                    <path d="M1509.34891,144.723973 L1521.32963,137.518594 C1522.32895,136.915549 1522.95075,135.828512 1522.95075,134.656915 L1522.95075,126.23421 C1522.95075,125.369364 1522.00695,124.835191 1521.26301,125.280131 L1509.34891,132.447235 C1508.29407,133.081433 1506.97275,133.081433 1505.91792,132.447235 L1493.99271,125.280131 C1493.25988,124.835191 1492.31608,125.369364 1492.31608,126.23421 L1492.31608,134.656915 C1492.31608,135.828512 1492.92677,136.915549 1493.93719,137.518594 L1505.91792,144.723973 C1506.97275,145.358171 1508.29407,145.358171 1509.34891,144.723973 Z" id="Path" fill="#3D4158"></path>
                    <path d="M1493.90388,118.40409 L1505.91792,111.180575 C1506.97275,110.546377 1508.29407,110.546377 1509.34891,111.180575 L1521.36294,118.40409 C1522.07357,118.836235 1522.07357,119.880102 1521.36294,120.312247 L1509.34891,127.535762 C1508.29407,128.170071 1506.97275,128.170071 1505.91792,127.535762 L1493.90388,120.312247 C1493.18215,119.880102 1493.18215,118.836235 1493.90388,118.40409 Z" id="Path" fill="#656C8C"></path>
                    <path d="M1544.88025,144.723973 L1556.86097,137.518594 C1557.86029,136.915549 1558.48208,135.828512 1558.48208,134.656915 L1558.48208,126.23421 C1558.48208,125.369364 1557.53828,124.835191 1556.79435,125.280131 L1544.88025,132.447235 C1543.82541,133.081433 1542.50409,133.081433 1541.44925,132.447235 L1529.52405,125.280131 C1528.79121,124.835191 1527.84741,125.369364 1527.84741,126.23421 L1527.84741,134.656915 C1527.84741,135.828512 1528.45811,136.915549 1529.46853,137.518594 L1541.44925,144.723973 C1542.50409,145.358171 1543.82541,145.358171 1544.88025,144.723973 Z" id="Path" fill="#3D4158"></path>
                    <path d="M1529.43522,118.40409 L1541.44925,111.180575 C1542.50409,110.546377 1543.82541,110.546377 1544.88025,111.180575 L1556.89428,118.40409 C1557.6049,118.836235 1557.6049,119.880102 1556.89428,120.312247 L1544.88025,127.535762 C1543.82541,128.170071 1542.50409,128.170071 1541.44925,127.535762 L1529.43522,120.312247 C1528.71349,119.880102 1528.71349,118.836235 1529.43522,118.40409 Z" id="Path" fill="#656C8C"></path>
                    <path d="M1527.11458,175.877556 L1539.0953,168.672177 C1540.09462,168.069133 1540.71642,166.982096 1540.71642,165.810498 L1540.71642,157.387904 C1540.71642,156.523392 1539.77262,155.988218 1539.02868,156.43327 L1527.11458,163.600819 C1526.05974,164.235017 1524.73842,164.235017 1523.68358,163.600819 L1511.75838,156.43327 C1511.02554,155.988218 1510.08174,156.523392 1510.08174,157.387904 L1510.08174,165.810498 C1510.08174,166.982096 1510.69244,168.069133 1511.70286,168.672177 L1523.68358,175.877556 C1524.73842,176.511754 1526.05974,176.511754 1527.11458,175.877556 Z" id="Path" fill="#3D4158"></path>
                    <path d="M1511.66955,149.557229 L1523.68358,142.334048 C1524.73842,141.69985 1526.05974,141.69985 1527.11458,142.334048 L1539.12861,149.557229 C1539.83924,149.990041 1539.83924,151.033686 1539.12861,151.465386 L1527.11458,158.689679 C1526.05974,159.323877 1524.73842,159.323877 1523.68358,158.689679 L1511.66955,151.465386 C1510.94782,151.033686 1510.94782,149.990041 1511.66955,149.557229 Z" id="Path" fill="#656C8C"></path>
                    <path d="M1491.58324,175.877556 L1503.56396,168.672177 C1504.56328,168.069133 1505.18508,166.982096 1505.18508,165.810498 L1505.18508,157.387904 C1505.18508,156.523392 1504.24128,155.988218 1503.49734,156.43327 L1491.58324,163.600819 C1490.52841,164.235017 1489.20708,164.235017 1488.15225,163.600819 L1476.22704,156.43327 C1475.49421,155.988218 1474.55041,156.523392 1474.55041,157.387904 L1474.55041,165.810498 C1474.55041,166.982096 1475.1611,168.069133 1476.17153,168.672177 L1488.15225,175.877556 C1489.20708,176.511754 1490.52841,176.511754 1491.58324,175.877556 Z" id="Path" fill="#3D4158"></path>
                    <path d="M1476.13822,149.557229 L1488.15225,142.334048 C1489.20708,141.69985 1490.52841,141.69985 1491.58324,142.334048 L1503.59728,149.557229 C1504.3079,149.990041 1504.3079,151.033686 1503.59728,151.465386 L1491.58324,158.689679 C1490.52841,159.323877 1489.20708,159.323877 1488.15225,158.689679 L1476.13822,151.465386 C1475.41649,151.033686 1475.41649,149.990041 1476.13822,149.557229 Z" id="Path" fill="#656C8C"></path>
                    <path d="M1580.41158,144.723973 L1592.3923,137.518594 C1593.39162,136.915549 1594.01342,135.828512 1594.01342,134.656915 L1594.01342,126.23421 C1594.01342,125.369364 1593.06962,124.835191 1592.32568,125.280131 L1580.41158,132.447235 C1579.35674,133.081433 1578.03542,133.081433 1576.98059,132.447235 L1565.05538,125.280131 C1564.32255,124.835191 1563.37875,125.369364 1563.37875,126.23421 L1563.37875,134.656915 C1563.37875,135.828512 1563.98944,136.915549 1564.99986,137.518594 L1576.98059,144.723973 C1578.03542,145.358171 1579.35674,145.358171 1580.41158,144.723973 Z" id="Path" fill="#3D4158"></path>
                    <path d="M1564.96655,118.40409 L1576.98059,111.180575 C1578.03542,110.546377 1579.35674,110.546377 1580.41158,111.180575 L1592.42561,118.40409 C1593.13624,118.836235 1593.13624,119.880102 1592.42561,120.312247 L1580.41158,127.535762 C1579.35674,128.170071 1578.03542,128.170071 1576.98059,127.535762 L1564.96655,120.312247 C1564.24482,119.880102 1564.24482,118.836235 1564.96655,118.40409 Z" id="Path" fill="#656C8C"></path>
                    <path d="M1615.94292,144.723973 L1627.92364,137.518594 C1628.92296,136.915549 1629.54475,135.828512 1629.54475,134.656915 L1629.54475,126.23421 C1629.54475,125.369364 1628.60095,124.835191 1627.85702,125.280131 L1615.94292,132.447235 C1614.88808,133.081433 1613.56676,133.081433 1612.51192,132.447235 L1600.58672,125.280131 C1599.85388,124.835191 1598.91008,125.369364 1598.91008,126.23421 L1598.91008,134.656915 C1598.91008,135.828512 1599.52078,136.915549 1600.5312,137.518594 L1612.51192,144.723973 C1613.56676,145.358171 1614.88808,145.358171 1615.94292,144.723973 Z" id="Path" fill="#3D4158"></path>
                    <path d="M1600.49789,118.40409 L1612.51192,111.180575 C1613.56676,110.546377 1614.88808,110.546377 1615.94292,111.180575 L1627.95695,118.40409 C1628.66757,118.836235 1628.66757,119.880102 1627.95695,120.312247 L1615.94292,127.535762 C1614.88808,128.170071 1613.56676,128.170071 1612.51192,127.535762 L1600.49789,120.312247 C1599.77616,119.880102 1599.77616,118.836235 1600.49789,118.40409 Z" id="Path" fill="#656C8C"></path>
                    <path d="M1598.17725,175.877556 L1610.15797,168.672177 C1611.15729,168.069133 1611.77909,166.982096 1611.77909,165.810498 L1611.77909,157.387904 C1611.77909,156.523392 1610.83529,155.988218 1610.09135,156.43327 L1598.17725,163.600819 C1597.12241,164.235017 1595.80109,164.235017 1594.74625,163.600819 L1582.82105,156.43327 C1582.08822,155.988218 1581.14441,156.523392 1581.14441,157.387904 L1581.14441,165.810498 C1581.14441,166.982096 1581.75511,168.069133 1582.76553,168.672177 L1594.74625,175.877556 C1595.80109,176.511754 1597.12241,176.511754 1598.17725,175.877556 Z" id="Path" fill="#3D4158"></path>
                    <path d="M1582.73222,149.557229 L1594.74625,142.334048 C1595.80109,141.69985 1597.12241,141.69985 1598.17725,142.334048 L1610.19128,149.557229 C1610.90191,149.990041 1610.90191,151.033686 1610.19128,151.465386 L1598.17725,158.689679 C1597.12241,159.323877 1595.80109,159.323877 1594.74625,158.689679 L1582.73222,151.465386 C1582.01049,151.033686 1582.01049,149.990041 1582.73222,149.557229 Z" id="Path" fill="#656C8C"></path>
                    <path d="M1562.64591,175.877556 L1574.62663,168.672177 C1575.62595,168.069133 1576.24775,166.982096 1576.24775,165.810498 L1576.24775,157.387904 C1576.24775,156.523392 1575.30395,155.988218 1574.56001,156.43327 L1562.64591,163.600819 C1561.59108,164.235017 1560.26975,164.235017 1559.21492,163.600819 L1547.28971,156.43327 C1546.55688,155.988218 1545.61308,156.523392 1545.61308,157.387904 L1545.61308,165.810498 C1545.61308,166.982096 1546.22377,168.069133 1547.2342,168.672177 L1559.21492,175.877556 C1560.26975,176.511754 1561.59108,176.511754 1562.64591,175.877556 Z" id="Path" fill="#3D4158"></path>
                    <path d="M1547.20089,149.557229 L1559.21492,142.334048 C1560.26975,141.69985 1561.59108,141.69985 1562.64591,142.334048 L1574.65995,149.557229 C1575.37057,149.990041 1575.37057,151.033686 1574.65995,151.465386 L1562.64591,158.689679 C1561.59108,159.323877 1560.26975,159.323877 1559.21492,158.689679 L1547.20089,151.465386 C1546.47916,151.033686 1546.47916,149.990041 1547.20089,149.557229 Z" id="Path" fill="#656C8C"></path>
                    <path d="M1509.34891,207.03114 L1521.32963,199.825761 C1522.32895,199.222717 1522.95075,198.135679 1522.95075,196.964082 L1522.95075,188.541488 C1522.95075,187.676976 1522.00695,187.141802 1521.26301,187.586853 L1509.34891,194.754403 C1508.29407,195.388601 1506.97275,195.388601 1505.91792,194.754403 L1493.99271,187.586853 C1493.25988,187.141802 1492.31608,187.676976 1492.31608,188.541488 L1492.31608,196.964082 C1492.31608,198.135679 1492.92677,199.222717 1493.93719,199.825761 L1505.91792,207.03114 C1506.97275,207.665338 1508.29407,207.665338 1509.34891,207.03114 Z" id="Path" fill="#3D4158"></path>
                    <path d="M1493.90388,180.710812 L1505.91792,173.487631 C1506.97275,172.853433 1508.29407,172.853433 1509.34891,173.487631 L1521.36294,180.710812 C1522.07357,181.143625 1522.07357,182.18727 1521.36294,182.618969 L1509.34891,189.843263 C1508.29407,190.477461 1506.97275,190.477461 1505.91792,189.843263 L1493.90388,182.618969 C1493.18215,182.18727 1493.18215,181.143625 1493.90388,180.710812 Z" id="Path" fill="#656C8C"></path>
                    <path d="M1544.88025,207.03114 L1556.86097,199.825761 C1557.86029,199.222717 1558.48208,198.135679 1558.48208,196.964082 L1558.48208,188.541488 C1558.48208,187.676976 1557.53828,187.141802 1556.79435,187.586853 L1544.88025,194.754403 C1543.82541,195.388601 1542.50409,195.388601 1541.44925,194.754403 L1529.52405,187.586853 C1528.79121,187.141802 1527.84741,187.676976 1527.84741,188.541488 L1527.84741,196.964082 C1527.84741,198.135679 1528.45811,199.222717 1529.46853,199.825761 L1541.44925,207.03114 C1542.50409,207.665338 1543.82541,207.665338 1544.88025,207.03114 Z" id="Path" fill="#3D4158"></path>
                    <path d="M1529.43522,180.710812 L1541.44925,173.487631 C1542.50409,172.853433 1543.82541,172.853433 1544.88025,173.487631 L1556.89428,180.710812 C1557.6049,181.143625 1557.6049,182.18727 1556.89428,182.618969 L1544.88025,189.843263 C1543.82541,190.477461 1542.50409,190.477461 1541.44925,189.843263 L1529.43522,182.618969 C1528.71349,182.18727 1528.71349,181.143625 1529.43522,180.710812 Z" id="Path" fill="#656C8C"></path>
                    <path d="M1527.11458,238.184724 L1539.0953,230.979345 C1540.09462,230.3763 1540.71642,229.289263 1540.71642,228.117666 L1540.71642,219.695072 C1540.71642,218.83056 1539.77262,218.295386 1539.02868,218.740437 L1527.11458,225.907986 C1526.05974,226.542184 1524.73842,226.542184 1523.68358,225.907986 L1511.75838,218.740437 C1511.02554,218.295386 1510.08174,218.83056 1510.08174,219.695072 L1510.08174,228.117666 C1510.08174,229.289263 1510.69244,230.3763 1511.70286,230.979345 L1523.68358,238.184724 C1524.73842,238.818922 1526.05974,238.818922 1527.11458,238.184724 Z" id="Path" fill="#3D4158"></path>
                    <path d="M1511.66955,211.864396 L1523.68358,204.641215 C1524.73842,204.007017 1526.05974,204.007017 1527.11458,204.641215 L1539.12861,211.864396 C1539.83924,212.297208 1539.83924,213.340853 1539.12861,213.772553 L1527.11458,220.996846 C1526.05974,221.631044 1524.73842,221.631044 1523.68358,220.996846 L1511.66955,213.772553 C1510.94782,213.340853 1510.94782,212.297208 1511.66955,211.864396 Z" id="Path" fill="#656C8C"></path>
                    <path d="M1491.58324,238.184724 L1503.56396,230.979345 C1504.56328,230.3763 1505.18508,229.289263 1505.18508,228.117666 L1505.18508,219.695072 C1505.18508,218.83056 1504.24128,218.295386 1503.49734,218.740437 L1491.58324,225.907986 C1490.52841,226.542184 1489.20708,226.542184 1488.15225,225.907986 L1476.22704,218.740437 C1475.49421,218.295386 1474.55041,218.83056 1474.55041,219.695072 L1474.55041,228.117666 C1474.55041,229.289263 1475.1611,230.3763 1476.17153,230.979345 L1488.15225,238.184724 C1489.20708,238.818922 1490.52841,238.818922 1491.58324,238.184724 Z" id="Path" fill="#3D4158"></path>
                    <path d="M1476.13822,211.864396 L1488.15225,204.641215 C1489.20708,204.007017 1490.52841,204.007017 1491.58324,204.641215 L1503.59728,211.864396 C1504.3079,212.297208 1504.3079,213.340853 1503.59728,213.772553 L1491.58324,220.996846 C1490.52841,221.631044 1489.20708,221.631044 1488.15225,220.996846 L1476.13822,213.772553 C1475.41649,213.340853 1475.41649,212.297208 1476.13822,211.864396 Z" id="Path" fill="#656C8C"></path>
                    <path d="M1580.41158,207.03114 L1592.3923,199.825761 C1593.39162,199.222717 1594.01342,198.135679 1594.01342,196.964082 L1594.01342,188.541488 C1594.01342,187.676976 1593.06962,187.141802 1592.32568,187.586853 L1580.41158,194.754403 C1579.35674,195.388601 1578.03542,195.388601 1576.98059,194.754403 L1565.05538,187.586853 C1564.32255,187.141802 1563.37875,187.676976 1563.37875,188.541488 L1563.37875,196.964082 C1563.37875,198.135679 1563.98944,199.222717 1564.99986,199.825761 L1576.98059,207.03114 C1578.03542,207.665338 1579.35674,207.665338 1580.41158,207.03114 Z" id="Path" fill="#3D4158"></path>
                    <path d="M1564.96655,180.710812 L1576.98059,173.487631 C1578.03542,172.853433 1579.35674,172.853433 1580.41158,173.487631 L1592.42561,180.710812 C1593.13624,181.143625 1593.13624,182.18727 1592.42561,182.618969 L1580.41158,189.843263 C1579.35674,190.477461 1578.03542,190.477461 1576.98059,189.843263 L1564.96655,182.618969 C1564.24482,182.18727 1564.24482,181.143625 1564.96655,180.710812 Z" id="Path" fill="#656C8C"></path>
                    <path d="M1615.94292,207.03114 L1627.92364,199.825761 C1628.92296,199.222717 1629.54475,198.135679 1629.54475,196.964082 L1629.54475,188.541488 C1629.54475,187.676976 1628.60095,187.141802 1627.85702,187.586853 L1615.94292,194.754403 C1614.88808,195.388601 1613.56676,195.388601 1612.51192,194.754403 L1600.58672,187.586853 C1599.85388,187.141802 1598.91008,187.676976 1598.91008,188.541488 L1598.91008,196.964082 C1598.91008,198.135679 1599.52078,199.222717 1600.5312,199.825761 L1612.51192,207.03114 C1613.56676,207.665338 1614.88808,207.665338 1615.94292,207.03114 Z" id="Path" fill="#3D4158"></path>
                    <path d="M1600.49789,180.710812 L1612.51192,173.487631 C1613.56676,172.853433 1614.88808,172.853433 1615.94292,173.487631 L1627.95695,180.710812 C1628.66757,181.143625 1628.66757,182.18727 1627.95695,182.618969 L1615.94292,189.843263 C1614.88808,190.477461 1613.56676,190.477461 1612.51192,189.843263 L1600.49789,182.618969 C1599.77616,182.18727 1599.77616,181.143625 1600.49789,180.710812 Z" id="Path" fill="#656C8C"></path>
                    <path d="M1598.17725,238.184724 L1610.15797,230.979345 C1611.15729,230.3763 1611.77909,229.289263 1611.77909,228.117666 L1611.77909,219.695072 C1611.77909,218.83056 1610.83529,218.295386 1610.09135,218.740437 L1598.17725,225.907986 C1597.12241,226.542184 1595.80109,226.542184 1594.74625,225.907986 L1582.82105,218.740437 C1582.08822,218.295386 1581.14441,218.83056 1581.14441,219.695072 L1581.14441,228.117666 C1581.14441,229.289263 1581.75511,230.3763 1582.76553,230.979345 L1594.74625,238.184724 C1595.80109,238.818922 1597.12241,238.818922 1598.17725,238.184724 Z" id="Path" fill="#3D4158"></path>
                    <path d="M1582.73222,211.864396 L1594.74625,204.641215 C1595.80109,204.007017 1597.12241,204.007017 1598.17725,204.641215 L1610.19128,211.864396 C1610.90191,212.297208 1610.90191,213.340853 1610.19128,213.772553 L1598.17725,220.996846 C1597.12241,221.631044 1595.80109,221.631044 1594.74625,220.996846 L1582.73222,213.772553 C1582.01049,213.340853 1582.01049,212.297208 1582.73222,211.864396 Z" id="Path" fill="#656C8C"></path>
                    <path d="M1562.64591,238.184724 L1574.62663,230.979345 C1575.62595,230.3763 1576.24775,229.289263 1576.24775,228.117666 L1576.24775,219.695072 C1576.24775,218.83056 1575.30395,218.295386 1574.56001,218.740437 L1562.64591,225.907986 C1561.59108,226.542184 1560.26975,226.542184 1559.21492,225.907986 L1547.28971,218.740437 C1546.55688,218.295386 1545.61308,218.83056 1545.61308,219.695072 L1545.61308,228.117666 C1545.61308,229.289263 1546.22377,230.3763 1547.2342,230.979345 L1559.21492,238.184724 C1560.26975,238.818922 1561.59108,238.818922 1562.64591,238.184724 Z" id="Path" fill="#3D4158"></path>
                    <path d="M1547.20089,211.864396 L1559.21492,204.641215 C1560.26975,204.007017 1561.59108,204.007017 1562.64591,204.641215 L1574.65995,211.864396 C1575.37057,212.297208 1575.37057,213.340853 1574.65995,213.772553 L1562.64591,220.996846 C1561.59108,221.631044 1560.26975,221.631044 1559.21492,220.996846 L1547.20089,213.772553 C1546.47916,213.340853 1546.47916,212.297208 1547.20089,211.864396 Z" id="Path" fill="#656C8C"></path>
                    <path d="M1509.34891,269.338307 L1521.32963,262.132928 C1522.32895,261.529884 1522.95075,260.442846 1522.95075,259.271249 L1522.95075,250.848655 C1522.95075,249.984143 1522.00695,249.448969 1521.26301,249.89402 L1509.34891,257.06157 C1508.29407,257.695768 1506.97275,257.695768 1505.91792,257.06157 L1493.99271,249.89402 C1493.25988,249.448969 1492.31608,249.984143 1492.31608,250.848655 L1492.31608,259.271249 C1492.31608,260.442846 1492.92677,261.529884 1493.93719,262.132928 L1505.91792,269.338307 C1506.97275,269.972505 1508.29407,269.972505 1509.34891,269.338307 Z" id="Path" fill="#3D4158"></path>
                    <path d="M1493.90388,243.01798 L1505.91792,235.794799 C1506.97275,235.160601 1508.29407,235.160601 1509.34891,235.794799 L1521.36294,243.01798 C1522.07357,243.450792 1522.07357,244.494437 1521.36294,244.926137 L1509.34891,252.15043 C1508.29407,252.784628 1506.97275,252.784628 1505.91792,252.15043 L1493.90388,244.926137 C1493.18215,244.494437 1493.18215,243.450792 1493.90388,243.01798 Z" id="Path" fill="#656C8C"></path>
                    <path d="M1544.88025,269.338307 L1556.86097,262.132928 C1557.86029,261.529884 1558.48208,260.442846 1558.48208,259.271249 L1558.48208,250.848655 C1558.48208,249.984143 1557.53828,249.448969 1556.79435,249.89402 L1544.88025,257.06157 C1543.82541,257.695768 1542.50409,257.695768 1541.44925,257.06157 L1529.52405,249.89402 C1528.79121,249.448969 1527.84741,249.984143 1527.84741,250.848655 L1527.84741,259.271249 C1527.84741,260.442846 1528.45811,261.529884 1529.46853,262.132928 L1541.44925,269.338307 C1542.50409,269.972505 1543.82541,269.972505 1544.88025,269.338307 Z" id="Path" fill="#3D4158"></path>
                    <path d="M1529.43522,243.01798 L1541.44925,235.794799 C1542.50409,235.160601 1543.82541,235.160601 1544.88025,235.794799 L1556.89428,243.01798 C1557.6049,243.450792 1557.6049,244.494437 1556.89428,244.926137 L1544.88025,252.15043 C1543.82541,252.784628 1542.50409,252.784628 1541.44925,252.15043 L1529.43522,244.926137 C1528.71349,244.494437 1528.71349,243.450792 1529.43522,243.01798 Z" id="Path" fill="#656C8C"></path>
                    <path d="M1527.11458,300.491891 L1539.0953,293.286512 C1540.09462,292.683468 1540.71642,291.59643 1540.71642,290.424833 L1540.71642,282.002239 C1540.71642,281.137727 1539.77262,280.602553 1539.02868,281.047604 L1527.11458,288.215154 C1526.05974,288.849352 1524.73842,288.849352 1523.68358,288.215154 L1511.75838,281.047604 C1511.02554,280.602553 1510.08174,281.137727 1510.08174,282.002239 L1510.08174,290.424833 C1510.08174,291.59643 1510.69244,292.683468 1511.70286,293.286512 L1523.68358,300.491891 C1524.73842,301.126089 1526.05974,301.126089 1527.11458,300.491891 Z" id="Path" fill="#3D4158"></path>
                    <path d="M1511.66955,274.171563 L1523.68358,266.948382 C1524.73842,266.314184 1526.05974,266.314184 1527.11458,266.948382 L1539.12861,274.171563 C1539.83924,274.604375 1539.83924,275.64802 1539.12861,276.07972 L1527.11458,283.304014 C1526.05974,283.938212 1524.73842,283.938212 1523.68358,283.304014 L1511.66955,276.07972 C1510.94782,275.64802 1510.94782,274.604375 1511.66955,274.171563 Z" id="Path" fill="#656C8C"></path>
                    <path d="M1491.58324,300.491891 L1503.56396,293.286512 C1504.56328,292.683468 1505.18508,291.59643 1505.18508,290.424833 L1505.18508,282.002239 C1505.18508,281.137727 1504.24128,280.602553 1503.49734,281.047604 L1491.58324,288.215154 C1490.52841,288.849352 1489.20708,288.849352 1488.15225,288.215154 L1476.22704,281.047604 C1475.49421,280.602553 1474.55041,281.137727 1474.55041,282.002239 L1474.55041,290.424833 C1474.55041,291.59643 1475.1611,292.683468 1476.17153,293.286512 L1488.15225,300.491891 C1489.20708,301.126089 1490.52841,301.126089 1491.58324,300.491891 Z" id="Path" fill="#3D4158"></path>
                    <path d="M1476.13822,274.171563 L1488.15225,266.948382 C1489.20708,266.314184 1490.52841,266.314184 1491.58324,266.948382 L1503.59728,274.171563 C1504.3079,274.604375 1504.3079,275.64802 1503.59728,276.07972 L1491.58324,283.304014 C1490.52841,283.938212 1489.20708,283.938212 1488.15225,283.304014 L1476.13822,276.07972 C1475.41649,275.64802 1475.41649,274.604375 1476.13822,274.171563 Z" id="Path" fill="#656C8C"></path>
                    <path d="M1580.41158,269.338307 L1592.3923,262.132928 C1593.39162,261.529884 1594.01342,260.442846 1594.01342,259.271249 L1594.01342,250.848655 C1594.01342,249.984143 1593.06962,249.448969 1592.32568,249.89402 L1580.41158,257.06157 C1579.35674,257.695768 1578.03542,257.695768 1576.98059,257.06157 L1565.05538,249.89402 C1564.32255,249.448969 1563.37875,249.984143 1563.37875,250.848655 L1563.37875,259.271249 C1563.37875,260.442846 1563.98944,261.529884 1564.99986,262.132928 L1576.98059,269.338307 C1578.03542,269.972505 1579.35674,269.972505 1580.41158,269.338307 Z" id="Path" fill="#3D4158"></path>
                    <path d="M1564.96655,243.01798 L1576.98059,235.794799 C1578.03542,235.160601 1579.35674,235.160601 1580.41158,235.794799 L1592.42561,243.01798 C1593.13624,243.450792 1593.13624,244.494437 1592.42561,244.926137 L1580.41158,252.15043 C1579.35674,252.784628 1578.03542,252.784628 1576.98059,252.15043 L1564.96655,244.926137 C1564.24482,244.494437 1564.24482,243.450792 1564.96655,243.01798 Z" id="Path" fill="#656C8C"></path>
                    <path d="M1615.94292,269.338307 L1627.92364,262.132928 C1628.92296,261.529884 1629.54475,260.442846 1629.54475,259.271249 L1629.54475,250.848655 C1629.54475,249.984143 1628.60095,249.448969 1627.85702,249.89402 L1615.94292,257.06157 C1614.88808,257.695768 1613.56676,257.695768 1612.51192,257.06157 L1600.58672,249.89402 C1599.85388,249.448969 1598.91008,249.984143 1598.91008,250.848655 L1598.91008,259.271249 C1598.91008,260.442846 1599.52078,261.529884 1600.5312,262.132928 L1612.51192,269.338307 C1613.56676,269.972505 1614.88808,269.972505 1615.94292,269.338307 Z" id="Path" fill="#3D4158"></path>
                    <path d="M1600.49789,243.01798 L1612.51192,235.794799 C1613.56676,235.160601 1614.88808,235.160601 1615.94292,235.794799 L1627.95695,243.01798 C1628.66757,243.450792 1628.66757,244.494437 1627.95695,244.926137 L1615.94292,252.15043 C1614.88808,252.784628 1613.56676,252.784628 1612.51192,252.15043 L1600.49789,244.926137 C1599.77616,244.494437 1599.77616,243.450792 1600.49789,243.01798 Z" id="Path" fill="#656C8C"></path>
                    <path d="M1598.17725,300.491891 L1610.15797,293.286512 C1611.15729,292.683468 1611.77909,291.59643 1611.77909,290.424833 L1611.77909,282.002239 C1611.77909,281.137727 1610.83529,280.602553 1610.09135,281.047604 L1598.17725,288.215154 C1597.12241,288.849352 1595.80109,288.849352 1594.74625,288.215154 L1582.82105,281.047604 C1582.08822,280.602553 1581.14441,281.137727 1581.14441,282.002239 L1581.14441,290.424833 C1581.14441,291.59643 1581.75511,292.683468 1582.76553,293.286512 L1594.74625,300.491891 C1595.80109,301.126089 1597.12241,301.126089 1598.17725,300.491891 Z" id="Path" fill="#3D4158"></path>
                    <path d="M1582.73222,274.171563 L1594.74625,266.948382 C1595.80109,266.314184 1597.12241,266.314184 1598.17725,266.948382 L1610.19128,274.171563 C1610.90191,274.604375 1610.90191,275.64802 1610.19128,276.07972 L1598.17725,283.304014 C1597.12241,283.938212 1595.80109,283.938212 1594.74625,283.304014 L1582.73222,276.07972 C1582.01049,275.64802 1582.01049,274.604375 1582.73222,274.171563 Z" id="Path" fill="#656C8C"></path>
                    <path d="M1562.64591,300.491891 L1574.62663,293.286512 C1575.62595,292.683468 1576.24775,291.59643 1576.24775,290.424833 L1576.24775,282.002239 C1576.24775,281.137727 1575.30395,280.602553 1574.56001,281.047604 L1562.64591,288.215154 C1561.59108,288.849352 1560.26975,288.849352 1559.21492,288.215154 L1547.28971,281.047604 C1546.55688,280.602553 1545.61308,281.137727 1545.61308,282.002239 L1545.61308,290.424833 C1545.61308,291.59643 1546.22377,292.683468 1547.2342,293.286512 L1559.21492,300.491891 C1560.26975,301.126089 1561.59108,301.126089 1562.64591,300.491891 Z" id="Path" fill="#3D4158"></path>
                    <path d="M1547.20089,274.171563 L1559.21492,266.948382 C1560.26975,266.314184 1561.59108,266.314184 1562.64591,266.948382 L1574.65995,274.171563 C1575.37057,274.604375 1575.37057,275.64802 1574.65995,276.07972 L1562.64591,283.304014 C1561.59108,283.938212 1560.26975,283.938212 1559.21492,283.304014 L1547.20089,276.07972 C1546.47916,275.64802 1546.47916,274.604375 1547.20089,274.171563 Z" id="Path" fill="#656C8C"></path>
                </g>
            </g>
        </g>
    </g>
</svg>