<?xml version="1.0" encoding="UTF-8"?>
<svg width="1818px" height="298px" viewBox="0 0 1818 298" version="1.1" xmlns="http://www.w3.org/2000/svg" xmlns:xlink="http://www.w3.org/1999/xlink">
    <!-- Generator: Sketch 52.3 (67297) - http://www.bohemiancoding.com/sketch -->
    <title>Group 28 (1)</title>
    <desc>Created with Sketch.</desc>
    <defs>
        <rect id="path-1" x="0" y="0" width="1818" height="298"></rect>
    </defs>
    <g id="Page-1" stroke="none" stroke-width="1" fill="none" fill-rule="evenodd">
        <g id="Group-28-(1)">
            <mask id="mask-2" fill="white">
                <use xlink:href="#path-1"></use>
            </mask>
            <g id="Rectangle"></g>
            <g id="Group" mask="url(#mask-2)">
                <g transform="translate(-19.000000, -20.000000)">
                    <rect id="Rectangle" fill="#151923" x="17.6811989" y="19.4391027" width="1818.6376" height="336.539465"></rect>
                    <path d="M19.3693493,43.8280083 L33.0005685,35.960153 C34.1417636,35.3014104 34.8400447,34.1150177 34.8400447,32.8347098 L34.8400447,23.6378152 C34.8400447,22.6934393 33.7690692,22.1101326 32.9273178,22.5960008 L19.3693493,30.4216125 C18.169493,31.114167 16.6705302,31.114167 15.4706702,30.4216125 L1.91272684,22.5960129 C1.07097548,22.1101326 0,22.6934393 0,23.6378152 L0,32.8347098 C0,34.1150177 0.698281063,35.3014104 1.83947616,35.960153 L15.4706702,43.8280083 C16.6705302,44.5205264 18.169493,44.5205264 19.3693493,43.8280083 Z" id="Path" fill="#3D4158"></path>
                    <path d="M1.80499782,15.0876838 L15.4706702,7.19987914 C16.6705302,6.50736111 18.1694943,6.50736111 19.3693493,7.19987914 L33.0350469,15.0876838 C33.852676,15.5595802 33.852676,16.6994163 33.0350469,17.1713005 L19.3693493,25.0591173 C18.169493,25.7516718 16.670529,25.7516718 15.4706702,25.0591173 L1.80499782,17.1713005 C0.987368665,16.6994163 0.987368665,15.5595802 1.80499782,15.0876838 Z" id="Path" fill="#656C8C"></path>
                    <path d="M59.7835435,43.8280083 L73.4147375,35.960153 C74.5559326,35.3014104 75.2542136,34.1150177 75.2542136,32.8347098 L75.2542136,23.6378152 C75.2542136,22.6934393 74.1832381,22.1101326 73.3414868,22.5960008 L59.7835435,30.4216125 C58.5836215,31.114167 57.084761,31.114167 55.8848391,30.4216125 L42.3268958,22.5960129 C41.4851444,22.1101326 40.4141689,22.6934393 40.4141689,23.6378152 L40.4141689,32.8347098 C40.4141689,34.1150177 41.11245,35.3014104 42.2536451,35.960153 L55.8848391,43.8280083 C57.084761,44.5205264 58.5836215,44.5205264 59.7835435,43.8280083 Z" id="Path" fill="#3D4158"></path>
                    <path d="M39.576459,77.846438 L53.207653,69.9785827 C54.3488481,69.3198401 55.0471292,68.1334474 55.0471292,66.8531395 L55.0471292,57.656257 C55.0471292,56.7118811 53.9761537,56.1285865 53.1344023,56.6144426 L39.576459,64.4400179 C38.3765371,65.1325359 36.8776766,65.1325359 35.6777546,64.4400179 L22.1198113,56.6144426 C21.2780221,56.1285865 20.2070845,56.7118811 20.2070845,57.656257 L20.2070845,66.8531395 C20.2070845,68.1334474 20.9053655,69.3198401 22.0465733,69.9785827 L35.6777546,77.846438 C36.8776766,78.538956 38.3765371,78.538956 39.576459,77.846438 Z" id="Path" fill="#3D4158"></path>
                    <path d="M42.2191668,15.0876838 L55.8848391,7.19987914 C57.084761,6.50736111 58.5836215,6.50736111 59.7835435,7.19987914 L73.4492158,15.0876838 C74.266845,15.5595802 74.266845,16.6994163 73.4492158,17.1713005 L59.7835435,25.0591173 C58.5836215,25.7516718 57.0846347,25.7516718 55.8848391,25.0591173 L42.2191668,17.1713005 C41.4015376,16.6994163 41.4015376,15.5595802 42.2191668,15.0876838 Z" id="Path" fill="#656C8C"></path>
                    <path d="M22.0120191,49.1060892 L35.6777546,41.2183088 C36.8776766,40.5257908 38.3765371,40.5257908 39.576459,41.2183088 L53.2421313,49.1060892 C54.0597605,49.5779734 54.0597605,50.7178338 53.2421313,51.189718 L39.576459,59.0774984 C38.3765371,59.7701379 36.8775503,59.7701379 35.6777546,59.0774984 L22.0120191,51.189718 C21.1944784,50.7178338 21.1944784,49.5779734 22.0120191,49.1060892 Z" id="Path" fill="#656C8C"></path>
                    <path d="M100.197712,43.8280083 L113.828906,35.960153 C114.970101,35.3014104 115.668383,34.1150177 115.668383,32.8347098 L115.668383,23.6378152 C115.668383,22.6934393 114.597407,22.1101326 113.755656,22.5960008 L100.197712,30.4216125 C98.9977905,31.114167 97.49893,31.114167 96.299008,30.4216125 L82.7410647,22.5960129 C81.8993134,22.1101326 80.8283379,22.6934393 80.8283379,23.6378152 L80.8283379,32.8347098 C80.8283379,34.1150177 81.5266189,35.3014104 82.667814,35.960153 L96.299008,43.8280083 C97.49893,44.5205264 98.9977905,44.5205264 100.197712,43.8280083 Z" id="Path" fill="#3D4158"></path>
                    <path d="M82.6333357,15.0876838 L96.299008,7.19987914 C97.49893,6.50736111 98.9977905,6.50736111 100.197712,7.19987914 L113.863385,15.0876838 C114.681014,15.5595802 114.681014,16.6994163 113.863385,17.1713005 L100.197712,25.0591173 C98.9977905,25.7516718 97.4988037,25.7516718 96.299008,25.0591173 L82.6333357,17.1713005 C81.8157065,16.6994163 81.8157065,15.5595802 82.6333357,15.0876838 Z" id="Path" fill="#656C8C"></path>
                    <path d="M140.611881,43.8280083 L154.243202,35.960153 C155.383639,35.3014104 156.082046,34.1150177 156.082046,32.8347098 L156.082046,23.6378152 C156.082046,22.6934393 155.011071,22.1101326 154.169951,22.5960008 L140.611881,30.4216125 C139.411959,31.114167 137.913099,31.114167 136.713177,30.4216125 L123.155234,22.5960129 C122.313482,22.1101326 121.242507,22.6934393 121.242507,23.6378152 L121.242507,32.8347098 C121.242507,34.1150177 121.940788,35.3014104 123.081983,35.960153 L136.713177,43.8280083 C137.913099,44.5205264 139.411959,44.5205264 140.611881,43.8280083 Z" id="Path" fill="#3D4158"></path>
                    <path d="M123.047505,15.0876838 L136.713177,7.19987914 C137.913099,6.50736111 139.411959,6.50736111 140.611881,7.19987914 L154.277301,15.0876838 C155.095688,15.5595802 155.095688,16.6994163 154.277301,17.1713005 L140.611881,25.0591173 C139.411959,25.7516718 137.912973,25.7516718 136.713177,25.0591173 L123.047505,17.1713005 C122.229875,16.6994163 122.229875,15.5595802 123.047505,15.0876838 Z" id="Path" fill="#656C8C"></path>
                    <path d="M120.404797,77.846438 L134.035991,69.9785827 C135.177186,69.3198401 135.875467,68.1334474 135.875467,66.8531395 L135.875467,57.656257 C135.875467,56.7118811 134.804492,56.1285865 133.96274,56.6144426 L120.404797,64.4400179 C119.204875,65.1325359 117.706014,65.1325359 116.506093,64.4400179 L102.948149,56.6144426 C102.106398,56.1285865 101.035422,56.7118811 101.035422,57.656257 L101.035422,66.8531395 C101.035422,68.1334474 101.733703,69.3198401 102.874899,69.9785827 L116.506093,77.846438 C117.706014,78.538956 119.204875,78.538956 120.404797,77.846438 Z" id="Path" fill="#3D4158"></path>
                    <path d="M102.84042,49.1060892 L116.506093,41.2183088 C117.706014,40.5257908 119.204875,40.5257908 120.404797,41.2183088 L134.070469,49.1060892 C134.888098,49.5779734 134.888098,50.7178338 134.070469,51.189718 L120.404797,59.0774984 C119.204875,59.7701379 117.705888,59.7701379 116.506093,59.0774984 L102.84042,51.189718 C102.022791,50.7178338 102.022791,49.5779734 102.84042,49.1060892 Z" id="Path" fill="#656C8C"></path>
                    <path d="M79.9906279,77.846438 L93.6218219,69.9785827 C94.763017,69.3198401 95.4612981,68.1334474 95.4612981,66.8531395 L95.4612981,57.656257 C95.4612981,56.7118811 94.3903226,56.1285865 93.5485713,56.6144426 L79.9906279,64.4400179 C78.790706,65.1325359 77.2918455,65.1325359 76.0919236,64.4400179 L62.5339802,56.6144426 C61.6922289,56.1285865 60.6212534,56.7118811 60.6212534,57.656257 L60.6212534,66.8531395 C60.6212534,68.1334474 61.3195345,69.3198401 62.4607296,69.9785827 L76.0919236,77.846438 C77.2918455,78.538956 78.790706,78.538956 79.9906279,77.846438 Z" id="Path" fill="#3D4158"></path>
                    <path d="M62.4262512,49.1060892 L76.0919236,41.2183088 C77.2918455,40.5257908 78.790706,40.5257908 79.9906279,41.2183088 L93.6563003,49.1060892 C94.4739294,49.5779734 94.4739294,50.7178338 93.6563003,51.189718 L79.9906279,59.0774984 C78.790706,59.7701379 77.2917192,59.7701379 76.0919236,59.0774984 L62.4262512,51.189718 C61.6086221,50.7178338 61.6086221,49.5779734 62.4262512,49.1060892 Z" id="Path" fill="#656C8C"></path>
                    <path d="M19.3693493,111.864868 L33.0005685,103.997012 C34.1417636,103.33827 34.8400447,102.151877 34.8400447,100.871569 L34.8400447,91.6746867 C34.8400447,90.7303108 33.7690692,90.1470162 32.9273178,90.6328723 L19.3693493,98.4584475 C18.169493,99.1509655 16.6705302,99.1509655 15.4706702,98.4584475 L1.91272684,90.6328723 C1.07097548,90.1470162 0,90.7303108 0,91.6746867 L0,100.871569 C0,102.151877 0.698281063,103.33827 1.83947616,103.997012 L15.4706702,111.864868 C16.6705302,112.557386 18.169493,112.557386 19.3693493,111.864868 Z" id="Path" fill="#3D4158"></path>
                    <path d="M1.80499782,83.1245188 L15.4706702,75.2367385 C16.6705302,74.5442204 18.1694943,74.5442204 19.3693493,75.2367385 L33.0350469,83.1245188 C33.852676,83.5964031 33.852676,84.7362634 33.0350469,85.2081477 L19.3693493,93.0959281 C18.169493,93.7885676 16.670529,93.7885676 15.4706702,93.0959281 L1.80499782,85.2081477 C0.987368665,84.7362634 0.987368665,83.5964031 1.80499782,83.1245188 Z" id="Path" fill="#656C8C"></path>
                    <path d="M59.7835435,111.864868 L73.4147375,103.997012 C74.5559326,103.33827 75.2542136,102.151877 75.2542136,100.871569 L75.2542136,91.6746867 C75.2542136,90.7303108 74.1832381,90.1470162 73.3414868,90.6328723 L59.7835435,98.4584475 C58.5836215,99.1509655 57.084761,99.1509655 55.8848391,98.4584475 L42.3268958,90.6328723 C41.4851444,90.1470162 40.4141689,90.7303108 40.4141689,91.6746867 L40.4141689,100.871569 C40.4141689,102.151877 41.11245,103.33827 42.2536451,103.997012 L55.8848391,111.864868 C57.084761,112.557386 58.5836215,112.557386 59.7835435,111.864868 Z" id="Path" fill="#3D4158"></path>
                    <path d="M42.2191668,83.1245188 L55.8848391,75.2367385 C57.084761,74.5442204 58.5836215,74.5442204 59.7835435,75.2367385 L73.4492158,83.1245188 C74.266845,83.5964031 74.266845,84.7362634 73.4492158,85.2081477 L59.7835435,93.0959281 C58.5836215,93.7885676 57.0846347,93.7885676 55.8848391,93.0959281 L42.2191668,85.2081477 C41.4015376,84.7362634 41.4015376,83.5964031 42.2191668,83.1245188 Z" id="Path" fill="#656C8C"></path>
                    <path d="M39.576459,145.883176 L53.207653,138.015442 C54.3488481,137.356699 55.0471292,136.170307 55.0471292,134.889999 L55.0471292,125.693116 C55.0471292,124.74874 53.9761537,124.165446 53.1344023,124.651302 L39.576459,132.476877 C38.3765371,133.169395 36.8776766,133.169395 35.6777546,132.476877 L22.1198113,124.651302 C21.2780221,124.165446 20.2070845,124.74874 20.2070845,125.693116 L20.2070845,134.889999 C20.2070845,136.170307 20.9053655,137.356699 22.0465733,138.015442 L35.6777546,145.883176 C36.8776766,146.575694 38.3765371,146.575694 39.576459,145.883176 Z" id="Path" fill="#3D4158"></path>
                    <path d="M22.0120191,117.142949 L35.6777546,109.255168 C36.8776766,108.56265 38.3765371,108.56265 39.576459,109.255168 L53.2421313,117.142949 C54.0597605,117.614833 54.0597605,118.754693 53.2421313,119.226577 L39.576459,127.114358 C38.3765371,127.806997 36.8775503,127.806997 35.6777546,127.114358 L22.0120191,119.226577 C21.1944784,118.754693 21.1944784,117.614833 22.0120191,117.142949 Z" id="Path" fill="#656C8C"></path>
                    <path d="M100.197712,111.864868 L113.828906,103.997012 C114.970101,103.33827 115.668383,102.151877 115.668383,100.871569 L115.668383,91.6746867 C115.668383,90.7303108 114.597407,90.1470162 113.755656,90.6328723 L100.197712,98.4584475 C98.9977905,99.1509655 97.49893,99.1509655 96.299008,98.4584475 L82.7410647,90.6328723 C81.8993134,90.1470162 80.8283379,90.7303108 80.8283379,91.6746867 L80.8283379,100.871569 C80.8283379,102.151877 81.5266189,103.33827 82.667814,103.997012 L96.299008,111.864868 C97.49893,112.557386 98.9977905,112.557386 100.197712,111.864868 Z" id="Path" fill="#3D4158"></path>
                    <path d="M82.6333357,83.1245188 L96.299008,75.2367385 C97.49893,74.5442204 98.9977905,74.5442204 100.197712,75.2367385 L113.863385,83.1245188 C114.681014,83.5964031 114.681014,84.7362634 113.863385,85.2081477 L100.197712,93.0959281 C98.9977905,93.7885676 97.4988037,93.7885676 96.299008,93.0959281 L82.6333357,85.2081477 C81.8157065,84.7362634 81.8157065,83.5964031 82.6333357,83.1245188 Z" id="Path" fill="#656C8C"></path>
                    <path d="M140.611881,111.864868 L154.243202,103.997012 C155.383639,103.33827 156.082046,102.151877 156.082046,100.871569 L156.082046,91.6746867 C156.082046,90.7303108 155.011071,90.1470162 154.169951,90.6328723 L140.611881,98.4584475 C139.411959,99.1509655 137.913099,99.1509655 136.713177,98.4584475 L123.155234,90.6328723 C122.313482,90.1470162 121.242507,90.7303108 121.242507,91.6746867 L121.242507,100.871569 C121.242507,102.151877 121.940788,103.33827 123.081983,103.997012 L136.713177,111.864868 C137.913099,112.557386 139.411959,112.557386 140.611881,111.864868 Z" id="Path" fill="#3D4158"></path>
                    <path d="M123.047505,83.1245188 L136.713177,75.2367385 C137.913099,74.5442204 139.411959,74.5442204 140.611881,75.2367385 L154.277301,83.1245188 C155.095688,83.5964031 155.095688,84.7362634 154.277301,85.2081477 L140.611881,93.0959281 C139.411959,93.7885676 137.912973,93.7885676 136.713177,93.0959281 L123.047505,85.2081477 C122.229875,84.7362634 122.229875,83.5964031 123.047505,83.1245188 Z" id="Path" fill="#656C8C"></path>
                    <path d="M181.026429,111.864868 L194.657371,103.997012 C195.797808,103.33827 196.496215,102.151877 196.496215,100.871569 L196.496215,91.6746867 C196.496215,90.7303108 195.42524,90.1470162 194.58412,90.6328723 L181.026429,98.4584475 C179.826634,99.1509655 178.32752,99.1509655 177.127725,98.4584475 L163.568771,90.6328723 C162.727651,90.1470162 161.656676,90.7303108 161.656676,91.6746867 L161.656676,100.871569 C161.656676,102.151877 162.355083,103.33827 163.496783,103.997012 L177.127725,111.864868 C178.32752,112.557386 179.826634,112.557386 181.026429,111.864868 Z" id="Path" fill="#3D4158"></path>
                    <path d="M163.461421,83.1245188 L177.127725,75.2367385 C178.32752,74.5442204 179.826634,74.5442204 181.026429,75.2367385 L194.69147,83.1245188 C195.509857,83.5964031 195.509857,84.7362634 194.69147,85.2081477 L181.026429,93.0959281 C179.826634,93.7885676 178.32752,93.7885676 177.127725,93.0959281 L163.461421,85.2081477 C162.644297,84.7362634 162.644297,83.5964031 163.461421,83.1245188 Z" id="Path" fill="#656C8C"></path>
                    <path d="M221.440598,111.864868 L235.07154,103.997012 C236.211977,103.33827 236.910384,102.151877 236.910384,100.871569 L236.910384,91.6746867 C236.910384,90.7303108 235.839409,90.1470162 234.998289,90.6328723 L221.440598,98.4584475 C220.240802,99.1509655 218.741689,99.1509655 217.541894,98.4584475 L203.98294,90.6328723 C203.14182,90.1470162 202.070845,90.7303108 202.070845,91.6746867 L202.070845,100.871569 C202.070845,102.151877 202.769252,103.33827 203.910952,103.997012 L217.541894,111.864868 C218.741689,112.557386 220.240802,112.557386 221.440598,111.864868 Z" id="Path" fill="#3D4158"></path>
                    <path d="M203.87559,83.1245188 L217.541894,75.2367385 C218.741689,74.5442204 220.240802,74.5442204 221.440598,75.2367385 L235.105639,83.1245188 C235.924026,83.5964031 235.924026,84.7362634 235.105639,85.2081477 L221.440598,93.0959281 C220.240802,93.7885676 218.741689,93.7885676 217.541894,93.0959281 L203.87559,85.2081477 C203.058466,84.7362634 203.058466,83.5964031 203.87559,83.1245188 Z" id="Path" fill="#656C8C"></path>
                    <path d="M241.647683,77.846438 L255.278624,69.9785827 C256.419061,69.3198401 257.117469,68.1334474 257.117469,66.8531395 L257.117469,57.656257 C257.117469,56.7118811 256.046493,56.1285865 255.205373,56.6144426 L241.647683,64.4400179 C240.447887,65.1325359 238.948774,65.1325359 237.748978,64.4400179 L224.190025,56.6144426 C223.348905,56.1285865 222.277929,56.7118811 222.277929,57.656257 L222.277929,66.8531395 C222.277929,68.1334474 222.976337,69.3198401 224.118037,69.9785827 L237.748978,77.846438 C238.948774,78.538956 240.447887,78.538956 241.647683,77.846438 Z" id="Path" fill="#3D4158"></path>
                    <path d="M224.082674,49.1060892 L237.748978,41.2183088 C238.948774,40.5257908 240.447887,40.5257908 241.647683,41.2183088 L255.312723,49.1060892 C256.13111,49.5779734 256.13111,50.7178338 255.312723,51.189718 L241.647683,59.0774984 C240.447887,59.7701379 238.948774,59.7701379 237.748978,59.0774984 L224.082674,51.189718 C223.26555,50.7178338 223.26555,49.5779734 224.082674,49.1060892 Z" id="Path" fill="#656C8C"></path>
                    <path d="M261.854767,111.864868 L275.485708,103.997012 C276.626146,103.33827 277.324553,102.151877 277.324553,100.871569 L277.324553,91.6746867 C277.324553,90.7303108 276.253578,90.1470162 275.412458,90.6328723 L261.854767,98.4584475 C260.654971,99.1509655 259.155858,99.1509655 257.956063,98.4584475 L244.397109,90.6328723 C243.555989,90.1470162 242.485014,90.7303108 242.485014,91.6746867 L242.485014,100.871569 C242.485014,102.151877 243.183421,103.33827 244.325121,103.997012 L257.956063,111.864868 C259.155858,112.557386 260.654971,112.557386 261.854767,111.864868 Z" id="Path" fill="#3D4158"></path>
                    <path d="M244.289759,83.1245188 L257.956063,75.2367385 C259.155858,74.5442204 260.654971,74.5442204 261.854767,75.2367385 L275.519808,83.1245188 C276.338195,83.5964031 276.338195,84.7362634 275.519808,85.2081477 L261.854767,93.0959281 C260.654971,93.7885676 259.155858,93.7885676 257.956063,93.0959281 L244.289759,85.2081477 C243.472635,84.7362634 243.472635,83.5964031 244.289759,83.1245188 Z" id="Path" fill="#656C8C"></path>
                    <path d="M201.233514,145.883176 L214.864455,138.015442 C216.004892,137.356699 216.7033,136.170307 216.7033,134.889999 L216.7033,125.693116 C216.7033,124.74874 215.632324,124.165446 214.791204,124.651302 L201.233514,132.476877 C200.033718,133.169395 198.534605,133.169395 197.334809,132.476877 L183.775856,124.651302 C182.934736,124.165446 181.86376,124.74874 181.86376,125.693116 L181.86376,134.889999 C181.86376,136.170307 182.562168,137.356699 183.703868,138.015442 L197.334809,145.883176 C198.534605,146.575694 200.033718,146.575694 201.233514,145.883176 Z" id="Path" fill="#3D4158"></path>
                    <path d="M183.668505,117.142949 L197.334809,109.255168 C198.534605,108.56265 200.033718,108.56265 201.233514,109.255168 L214.898554,117.142949 C215.716941,117.614833 215.716941,118.754693 214.898554,119.226577 L201.233514,127.114358 C200.033718,127.806997 198.534605,127.806997 197.334809,127.114358 L183.668505,119.226577 C182.851381,118.754693 182.851381,117.614833 183.668505,117.142949 Z" id="Path" fill="#656C8C"></path>
                    <path d="M220.177655,179.901605 L233.808597,172.033629 C234.949034,171.375129 235.647441,170.188129 235.647441,168.908793 L235.647441,159.711667 C235.647441,158.767656 234.576466,158.183268 233.735346,158.669246 L220.177655,166.495914 C218.97786,167.188432 217.478747,167.188432 216.278951,166.495914 L202.719997,158.669246 C201.878877,158.183268 200.807902,158.767656 200.807902,159.711667 L200.807902,168.908793 C200.807902,170.188129 201.506309,171.375129 202.64801,172.033629 L216.278951,179.901605 C217.478747,180.594124 218.97786,180.594124 220.177655,179.901605 Z" id="Path" fill="#3D4158"></path>
                    <path d="M202.612647,151.160892 L216.278951,143.273476 C217.478747,142.580958 218.97786,142.580958 220.177655,143.273476 L233.842696,151.160892 C234.661083,151.633505 234.661083,152.773123 233.842696,153.244521 L220.177655,161.133152 C218.97786,161.82567 217.478747,161.82567 216.278951,161.133152 L202.612647,153.244521 C201.795523,152.773123 201.795523,151.633505 202.612647,151.160892 Z" id="Path" fill="#656C8C"></path>
                    <path d="M181.026429,247.938465 L194.657371,240.070488 C195.797808,239.411988 196.496215,238.224988 196.496215,236.945652 L196.496215,227.748527 C196.496215,226.804515 195.42524,226.220127 194.58412,226.706105 L181.026429,234.532774 C179.826634,235.225292 178.32752,235.225292 177.127725,234.532774 L163.568771,226.706105 C162.727651,226.220127 161.656676,226.804515 161.656676,227.748527 L161.656676,236.945652 C161.656676,238.224988 162.355083,239.411988 163.496783,240.070488 L177.127725,247.938465 C178.32752,248.630983 179.826634,248.630983 181.026429,247.938465 Z" id="Path" fill="#3D4158"></path>
                    <path d="M163.461421,219.197752 L177.127725,211.310336 C178.32752,210.617818 179.826634,210.617818 181.026429,211.310336 L194.69147,219.197752 C195.509857,219.670365 195.509857,220.809982 194.69147,221.28138 L181.026429,229.170011 C179.826634,229.862529 178.32752,229.862529 177.127725,229.170011 L163.461421,221.28138 C162.644297,220.809982 162.644297,219.670365 163.461421,219.197752 Z" id="Path" fill="#656C8C"></path>
                    <path d="M143.254589,321.25304 L156.92064,313.365625 C158.120436,312.673107 159.619549,312.673107 160.819345,313.365625 L174.484386,321.25304 C175.302772,321.725654 175.302772,322.865271 174.484386,323.336669 L160.819345,331.2253 C159.619549,331.917818 158.120436,331.917818 156.92064,331.2253 L143.254589,323.336669 C142.43696,322.865271 142.43696,321.725654 143.254589,321.25304 Z" id="Path" fill="#656C8C"></path>
                    <path d="M183.668505,321.25304 L197.334809,313.365625 C198.534605,312.673107 200.033718,312.673107 201.233514,313.365625 L214.898554,321.25304 C215.716941,321.725654 215.716941,322.865271 214.898554,323.336669 L201.233514,331.2253 C200.033718,331.917818 198.534605,331.917818 197.334809,331.2253 L183.668505,323.336669 C182.851381,322.865271 182.851381,321.725654 183.668505,321.25304 Z" id="Path" fill="#656C8C"></path>
                    <path d="M221.440598,315.975324 L235.07154,308.107347 C236.211977,307.448848 236.910384,306.261847 236.910384,304.982512 L236.910384,295.785386 C236.910384,294.841375 235.839409,294.256987 234.998289,294.742964 L221.440598,302.569633 C220.240802,303.262151 218.741689,303.262151 217.541894,302.569633 L203.98294,294.742964 C203.14182,294.256987 202.070845,294.841375 202.070845,295.785386 L202.070845,304.982512 C202.070845,306.261847 202.769252,307.448848 203.910952,308.107347 L217.541894,315.975324 C218.741689,316.667842 220.240802,316.667842 221.440598,315.975324 Z" id="Path" fill="#3D4158"></path>
                    <path d="M203.87559,287.234611 L217.541894,279.347195 C218.741689,278.654677 220.240802,278.654677 221.440598,279.347195 L235.105639,287.234611 C235.924026,287.707224 235.924026,288.846841 235.105639,289.31824 L221.440598,297.20687 C220.240802,297.899389 218.741689,297.899389 217.541894,297.20687 L203.87559,289.31824 C203.058466,288.846841 203.058466,287.707224 203.87559,287.234611 Z" id="Path" fill="#656C8C"></path>
                    <path d="M160.819345,145.883176 L174.450286,138.015442 C175.590723,137.356699 176.289131,136.170307 176.289131,134.889999 L176.289131,125.693116 C176.289131,124.74874 175.218155,124.165446 174.377035,124.651302 L160.819345,132.476877 C159.619549,133.169395 158.120436,133.169395 156.92064,132.476877 L143.362318,124.651302 C142.520567,124.165446 141.449591,124.74874 141.449591,125.693116 L141.449591,134.889999 C141.449591,136.170307 142.147872,137.356699 143.289067,138.015442 L156.92064,145.883176 C158.120436,146.575694 159.619549,146.575694 160.819345,145.883176 Z" id="Path" fill="#3D4158"></path>
                    <path d="M143.254589,117.142949 L156.92064,109.255168 C158.120436,108.56265 159.619549,108.56265 160.819345,109.255168 L174.484386,117.142949 C175.302772,117.614833 175.302772,118.754693 174.484386,119.226577 L160.819345,127.114358 C159.619549,127.806997 158.120436,127.806997 156.92064,127.114358 L143.254589,119.226577 C142.43696,118.754693 142.43696,117.614833 143.254589,117.142949 Z" id="Path" fill="#656C8C"></path>
                    <path d="M120.404797,145.883176 L134.035991,138.015442 C135.177186,137.356699 135.875467,136.170307 135.875467,134.889999 L135.875467,125.693116 C135.875467,124.74874 134.804492,124.165446 133.96274,124.651302 L120.404797,132.476877 C119.204875,133.169395 117.706014,133.169395 116.506093,132.476877 L102.948149,124.651302 C102.106398,124.165446 101.035422,124.74874 101.035422,125.693116 L101.035422,134.889999 C101.035422,136.170307 101.733703,137.356699 102.874899,138.015442 L116.506093,145.883176 C117.706014,146.575694 119.204875,146.575694 120.404797,145.883176 Z" id="Path" fill="#3D4158"></path>
                    <path d="M102.84042,117.142949 L116.506093,109.255168 C117.706014,108.56265 119.204875,108.56265 120.404797,109.255168 L134.070469,117.142949 C134.888098,117.614833 134.888098,118.754693 134.070469,119.226577 L120.404797,127.114358 C119.204875,127.806997 117.705888,127.806997 116.506093,127.114358 L102.84042,119.226577 C102.022791,118.754693 102.022791,117.614833 102.84042,117.142949 Z" id="Path" fill="#656C8C"></path>
                    <path d="M79.9906279,145.883176 L93.6218219,138.015442 C94.763017,137.356699 95.4612981,136.170307 95.4612981,134.889999 L95.4612981,125.693116 C95.4612981,124.74874 94.3903226,124.165446 93.5485713,124.651302 L79.9906279,132.476877 C78.790706,133.169395 77.2918455,133.169395 76.0919236,132.476877 L62.5339802,124.651302 C61.6922289,124.165446 60.6212534,124.74874 60.6212534,125.693116 L60.6212534,134.889999 C60.6212534,136.170307 61.3195345,137.356699 62.4607296,138.015442 L76.0919236,145.883176 C77.2918455,146.575694 78.790706,146.575694 79.9906279,145.883176 Z" id="Path" fill="#3D4158"></path>
                    <path d="M62.4262512,117.142949 L76.0919236,109.255168 C77.2918455,108.56265 78.790706,108.56265 79.9906279,109.255168 L93.6563003,117.142949 C94.4739294,117.614833 94.4739294,118.754693 93.6563003,119.226577 L79.9906279,127.114358 C78.790706,127.806997 77.2917192,127.806997 76.0919236,127.114358 L62.4262512,119.226577 C61.6086221,118.754693 61.6086221,117.614833 62.4262512,117.142949 Z" id="Path" fill="#656C8C"></path>
                    <path d="M19.3693493,179.901605 L33.0005685,172.033629 C34.1417636,171.375129 34.8400447,170.188129 34.8400447,168.908793 L34.8400447,159.711667 C34.8400447,158.767656 33.7690692,158.183268 32.9273178,158.669246 L19.3693493,166.495914 C18.169493,167.188432 16.6705302,167.188432 15.4706702,166.495914 L1.91272684,158.669246 C1.07097548,158.183268 0,158.767656 0,159.711667 L0,168.908793 C0,170.188129 0.698281063,171.375129 1.83947616,172.033629 L15.4706702,179.901605 C16.6705302,180.594124 18.169493,180.594124 19.3693493,179.901605 Z" id="Path" fill="#3D4158"></path>
                    <path d="M1.80499782,151.160892 L15.4706702,143.273476 C16.6705302,142.580958 18.1694943,142.580958 19.3693493,143.273476 L33.0350469,151.160892 C33.852676,151.633505 33.852676,152.773123 33.0350469,153.244521 L19.3693493,161.133152 C18.169493,161.82567 16.670529,161.82567 15.4706702,161.133152 L1.80499782,153.244521 C0.987368665,152.773123 0.987368665,151.633505 1.80499782,151.160892 Z" id="Path" fill="#656C8C"></path>
                    <path d="M59.7835435,179.901605 L73.4147375,172.033629 C74.5559326,171.375129 75.2542136,170.188129 75.2542136,168.908793 L75.2542136,159.711667 C75.2542136,158.767656 74.1832381,158.183268 73.3414868,158.669246 L59.7835435,166.495914 C58.5836215,167.188432 57.084761,167.188432 55.8848391,166.495914 L42.3268958,158.669246 C41.4851444,158.183268 40.4141689,158.767656 40.4141689,159.711667 L40.4141689,168.908793 C40.4141689,170.188129 41.11245,171.375129 42.2536451,172.033629 L55.8848391,179.901605 C57.084761,180.594124 58.5836215,180.594124 59.7835435,179.901605 Z" id="Path" fill="#3D4158"></path>
                    <path d="M42.2191668,151.160892 L55.8848391,143.273476 C57.084761,142.580958 58.5836215,142.580958 59.7835435,143.273476 L73.4492158,151.160892 C74.266845,151.633505 74.266845,152.773123 73.4492158,153.244521 L59.7835435,161.133152 C58.5836215,161.82567 57.0846347,161.82567 55.8848391,161.133152 L42.2191668,153.244521 C41.4015376,152.773123 41.4015376,151.633505 42.2191668,151.160892 Z" id="Path" fill="#656C8C"></path>
                    <path d="M39.576459,213.920035 L53.207653,206.052058 C54.3488481,205.393559 55.0471292,204.206559 55.0471292,202.927223 L55.0471292,193.730097 C55.0471292,192.786086 53.9761537,192.201698 53.1344023,192.687675 L39.576459,200.514344 C38.3765371,201.206862 36.8776766,201.206862 35.6777546,200.514344 L22.1198113,192.687675 C21.2780221,192.201698 20.2070845,192.786086 20.2070845,193.730097 L20.2070845,202.927223 C20.2070845,204.206559 20.9053655,205.393559 22.0465733,206.052058 L35.6777546,213.920035 C36.8776766,214.612553 38.3765371,214.612553 39.576459,213.920035 Z" id="Path" fill="#3D4158"></path>
                    <path d="M22.0120191,185.179322 L35.6777546,177.291906 C36.8776766,176.599388 38.3765371,176.599388 39.576459,177.291906 L53.2421313,185.179322 C54.0597605,185.651935 54.0597605,186.791552 53.2421313,187.262951 L39.576459,195.151582 C38.3765371,195.8441 36.8775503,195.8441 35.6777546,195.151582 L22.0120191,187.262951 C21.1944784,186.791552 21.1944784,185.651935 22.0120191,185.179322 Z" id="Path" fill="#656C8C"></path>
                    <path d="M100.197712,179.901605 L113.828906,172.033629 C114.970101,171.375129 115.668383,170.188129 115.668383,168.908793 L115.668383,159.711667 C115.668383,158.767656 114.597407,158.183268 113.755656,158.669246 L100.197712,166.495914 C98.9977905,167.188432 97.49893,167.188432 96.299008,166.495914 L82.7410647,158.669246 C81.8993134,158.183268 80.8283379,158.767656 80.8283379,159.711667 L80.8283379,168.908793 C80.8283379,170.188129 81.5266189,171.375129 82.667814,172.033629 L96.299008,179.901605 C97.49893,180.594124 98.9977905,180.594124 100.197712,179.901605 Z" id="Path" fill="#3D4158"></path>
                    <path d="M82.6333357,151.160892 L96.299008,143.273476 C97.49893,142.580958 98.9977905,142.580958 100.197712,143.273476 L113.863385,151.160892 C114.681014,151.633505 114.681014,152.773123 113.863385,153.244521 L100.197712,161.133152 C98.9977905,161.82567 97.4988037,161.82567 96.299008,161.133152 L82.6333357,153.244521 C81.8157065,152.773123 81.8157065,151.633505 82.6333357,151.160892 Z" id="Path" fill="#656C8C"></path>
                    <path d="M140.611881,179.901605 L154.243202,172.033629 C155.383639,171.375129 156.082046,170.188129 156.082046,168.908793 L156.082046,159.711667 C156.082046,158.767656 155.011071,158.183268 154.169951,158.669246 L140.611881,166.495914 C139.411959,167.188432 137.913099,167.188432 136.713177,166.495914 L123.155234,158.669246 C122.313482,158.183268 121.242507,158.767656 121.242507,159.711667 L121.242507,168.908793 C121.242507,170.188129 121.940788,171.375129 123.081983,172.033629 L136.713177,179.901605 C137.913099,180.594124 139.411959,180.594124 140.611881,179.901605 Z" id="Path" fill="#3D4158"></path>
                    <path d="M123.047505,151.160892 L136.713177,143.273476 C137.913099,142.580958 139.411959,142.580958 140.611881,143.273476 L154.277301,151.160892 C155.095688,151.633505 155.095688,152.773123 154.277301,153.244521 L140.611881,161.133152 C139.411959,161.82567 137.912973,161.82567 136.713177,161.133152 L123.047505,153.244521 C122.229875,152.773123 122.229875,151.633505 123.047505,151.160892 Z" id="Path" fill="#656C8C"></path>
                    <path d="M120.404797,213.920035 L134.035991,206.052058 C135.177186,205.393559 135.875467,204.206559 135.875467,202.927223 L135.875467,193.730097 C135.875467,192.786086 134.804492,192.201698 133.96274,192.687675 L120.404797,200.514344 C119.204875,201.206862 117.706014,201.206862 116.506093,200.514344 L102.948149,192.687675 C102.106398,192.201698 101.035422,192.786086 101.035422,193.730097 L101.035422,202.927223 C101.035422,204.206559 101.733703,205.393559 102.874899,206.052058 L116.506093,213.920035 C117.706014,214.612553 119.204875,214.612553 120.404797,213.920035 Z" id="Path" fill="#3D4158"></path>
                    <path d="M102.84042,185.179322 L116.506093,177.291906 C117.706014,176.599388 119.204875,176.599388 120.404797,177.291906 L134.070469,185.179322 C134.888098,185.651935 134.888098,186.791552 134.070469,187.262951 L120.404797,195.151582 C119.204875,195.8441 117.705888,195.8441 116.506093,195.151582 L102.84042,187.262951 C102.022791,186.791552 102.022791,185.651935 102.84042,185.179322 Z" id="Path" fill="#656C8C"></path>
                    <path d="M79.9906279,213.920035 L93.6218219,206.052058 C94.763017,205.393559 95.4612981,204.206559 95.4612981,202.927223 L95.4612981,193.730097 C95.4612981,192.786086 94.3903226,192.201698 93.5485713,192.687675 L79.9906279,200.514344 C78.790706,201.206862 77.2918455,201.206862 76.0919236,200.514344 L62.5339802,192.687675 C61.6922289,192.201698 60.6212534,192.786086 60.6212534,193.730097 L60.6212534,202.927223 C60.6212534,204.206559 61.3195345,205.393559 62.4607296,206.052058 L76.0919236,213.920035 C77.2918455,214.612553 78.790706,214.612553 79.9906279,213.920035 Z" id="Path" fill="#3D4158"></path>
                    <path d="M62.4262512,185.179322 L76.0919236,177.291906 C77.2918455,176.599388 78.790706,176.599388 79.9906279,177.291906 L93.6563003,185.179322 C94.4739294,185.651935 94.4739294,186.791552 93.6563003,187.262951 L79.9906279,195.151582 C78.790706,195.8441 77.2917192,195.8441 76.0919236,195.151582 L62.4262512,187.262951 C61.6086221,186.791552 61.6086221,185.651935 62.4262512,185.179322 Z" id="Path" fill="#656C8C"></path>
                    <path d="M19.3693493,247.938465 L33.0005685,240.070488 C34.1417636,239.411988 34.8400447,238.224988 34.8400447,236.945652 L34.8400447,227.748527 C34.8400447,226.804515 33.7690692,226.220127 32.9273178,226.706105 L19.3693493,234.532774 C18.169493,235.225292 16.6705302,235.225292 15.4706702,234.532774 L1.91272684,226.706105 C1.07097548,226.220127 0,226.804515 0,227.748527 L0,236.945652 C0,238.224988 0.698281063,239.411988 1.83947616,240.070488 L15.4706702,247.938465 C16.6705302,248.630983 18.169493,248.630983 19.3693493,247.938465 Z" id="Path" fill="#3D4158"></path>
                    <path d="M1.80499782,219.197752 L15.4706702,211.310336 C16.6705302,210.617818 18.1694943,210.617818 19.3693493,211.310336 L33.0350469,219.197752 C33.852676,219.670365 33.852676,220.809982 33.0350469,221.28138 L19.3693493,229.170011 C18.169493,229.862529 16.670529,229.862529 15.4706702,229.170011 L1.80499782,221.28138 C0.987368665,220.809982 0.987368665,219.670365 1.80499782,219.197752 Z" id="Path" fill="#656C8C"></path>
                    <path d="M59.7835435,247.938465 L73.4147375,240.070488 C74.5559326,239.411988 75.2542136,238.224988 75.2542136,236.945652 L75.2542136,227.748527 C75.2542136,226.804515 74.1832381,226.220127 73.3414868,226.706105 L59.7835435,234.532774 C58.5836215,235.225292 57.084761,235.225292 55.8848391,234.532774 L42.3268958,226.706105 C41.4851444,226.220127 40.4141689,226.804515 40.4141689,227.748527 L40.4141689,236.945652 C40.4141689,238.224988 41.11245,239.411988 42.2536451,240.070488 L55.8848391,247.938465 C57.084761,248.630983 58.5836215,248.630983 59.7835435,247.938465 Z" id="Path" fill="#3D4158"></path>
                    <path d="M42.2191668,219.197752 L55.8848391,211.310336 C57.084761,210.617818 58.5836215,210.617818 59.7835435,211.310336 L73.4492158,219.197752 C74.266845,219.670365 74.266845,220.809982 73.4492158,221.28138 L59.7835435,229.170011 C58.5836215,229.862529 57.0846347,229.862529 55.8848391,229.170011 L42.2191668,221.28138 C41.4015376,220.809982 41.4015376,219.670365 42.2191668,219.197752 Z" id="Path" fill="#656C8C"></path>
                    <path d="M39.576459,281.956894 L53.207653,274.088918 C54.3488481,273.430418 55.0471292,272.243418 55.0471292,270.964082 L55.0471292,261.766956 C55.0471292,260.822945 53.9761537,260.238557 53.1344023,260.724535 L39.576459,268.551203 C38.3765371,269.243721 36.8776766,269.243721 35.6777546,268.551203 L22.1198113,260.724535 C21.2780221,260.238557 20.2070845,260.822945 20.2070845,261.766956 L20.2070845,270.964082 C20.2070845,272.243418 20.9053655,273.430418 22.0465733,274.088918 L35.6777546,281.956894 C36.8776766,282.649412 38.3765371,282.649412 39.576459,281.956894 Z" id="Path" fill="#3D4158"></path>
                    <path d="M22.0120191,253.216181 L35.6777546,245.328765 C36.8776766,244.636247 38.3765371,244.636247 39.576459,245.328765 L53.2421313,253.216181 C54.0597605,253.688794 54.0597605,254.828412 53.2421313,255.29981 L39.576459,263.188441 C38.3765371,263.880959 36.8775503,263.880959 35.6777546,263.188441 L22.0120191,255.29981 C21.1944784,254.828412 21.1944784,253.688794 22.0120191,253.216181 Z" id="Path" fill="#656C8C"></path>
                    <path d="M100.197712,247.938465 L113.828906,240.070488 C114.970101,239.411988 115.668383,238.224988 115.668383,236.945652 L115.668383,227.748527 C115.668383,226.804515 114.597407,226.220127 113.755656,226.706105 L100.197712,234.532774 C98.9977905,235.225292 97.49893,235.225292 96.299008,234.532774 L82.7410647,226.706105 C81.8993134,226.220127 80.8283379,226.804515 80.8283379,227.748527 L80.8283379,236.945652 C80.8283379,238.224988 81.5266189,239.411988 82.667814,240.070488 L96.299008,247.938465 C97.49893,248.630983 98.9977905,248.630983 100.197712,247.938465 Z" id="Path" fill="#3D4158"></path>
                    <path d="M82.6333357,219.197752 L96.299008,211.310336 C97.49893,210.617818 98.9977905,210.617818 100.197712,211.310336 L113.863385,219.197752 C114.681014,219.670365 114.681014,220.809982 113.863385,221.28138 L100.197712,229.170011 C98.9977905,229.862529 97.4988037,229.862529 96.299008,229.170011 L82.6333357,221.28138 C81.8157065,220.809982 81.8157065,219.670365 82.6333357,219.197752 Z" id="Path" fill="#656C8C"></path>
                    <path d="M140.611881,247.938465 L154.243202,240.070488 C155.383639,239.411988 156.082046,238.224988 156.082046,236.945652 L156.082046,227.748527 C156.082046,226.804515 155.011071,226.220127 154.169951,226.706105 L140.611881,234.532774 C139.411959,235.225292 137.913099,235.225292 136.713177,234.532774 L123.155234,226.706105 C122.313482,226.220127 121.242507,226.804515 121.242507,227.748527 L121.242507,236.945652 C121.242507,238.224988 121.940788,239.411988 123.081983,240.070488 L136.713177,247.938465 C137.913099,248.630983 139.411959,248.630983 140.611881,247.938465 Z" id="Path" fill="#3D4158"></path>
                    <path d="M123.047505,219.197752 L136.713177,211.310336 C137.913099,210.617818 139.411959,210.617818 140.611881,211.310336 L154.277301,219.197752 C155.095688,219.670365 155.095688,220.809982 154.277301,221.28138 L140.611881,229.170011 C139.411959,229.862529 137.912973,229.862529 136.713177,229.170011 L123.047505,221.28138 C122.229875,220.809982 122.229875,219.670365 123.047505,219.197752 Z" id="Path" fill="#656C8C"></path>
                    <path d="M120.404797,281.956894 L134.035991,274.088918 C135.177186,273.430418 135.875467,272.243418 135.875467,270.964082 L135.875467,261.766956 C135.875467,260.822945 134.804492,260.238557 133.96274,260.724535 L120.404797,268.551203 C119.204875,269.243721 117.706014,269.243721 116.506093,268.551203 L102.948149,260.724535 C102.106398,260.238557 101.035422,260.822945 101.035422,261.766956 L101.035422,270.964082 C101.035422,272.243418 101.733703,273.430418 102.874899,274.088918 L116.506093,281.956894 C117.706014,282.649412 119.204875,282.649412 120.404797,281.956894 Z" id="Path" fill="#3D4158"></path>
                    <path d="M102.84042,253.216181 L116.506093,245.328765 C117.706014,244.636247 119.204875,244.636247 120.404797,245.328765 L134.070469,253.216181 C134.888098,253.688794 134.888098,254.828412 134.070469,255.29981 L120.404797,263.188441 C119.204875,263.880959 117.705888,263.880959 116.506093,263.188441 L102.84042,255.29981 C102.022791,254.828412 102.022791,253.688794 102.84042,253.216181 Z" id="Path" fill="#656C8C"></path>
                    <path d="M79.9906279,281.956894 L93.6218219,274.088918 C94.763017,273.430418 95.4612981,272.243418 95.4612981,270.964082 L95.4612981,261.766956 C95.4612981,260.822945 94.3903226,260.238557 93.5485713,260.724535 L79.9906279,268.551203 C78.790706,269.243721 77.2918455,269.243721 76.0919236,268.551203 L62.5339802,260.724535 C61.6922289,260.238557 60.6212534,260.822945 60.6212534,261.766956 L60.6212534,270.964082 C60.6212534,272.243418 61.3195345,273.430418 62.4607296,274.088918 L76.0919236,281.956894 C77.2918455,282.649412 78.790706,282.649412 79.9906279,281.956894 Z" id="Path" fill="#3D4158"></path>
                    <path d="M62.4262512,253.216181 L76.0919236,245.328765 C77.2918455,244.636247 78.790706,244.636247 79.9906279,245.328765 L93.6563003,253.216181 C94.4739294,253.688794 94.4739294,254.828412 93.6563003,255.29981 L79.9906279,263.188441 C78.790706,263.880959 77.2917192,263.880959 76.0919236,263.188441 L62.4262512,255.29981 C61.6086221,254.828412 61.6086221,253.688794 62.4262512,253.216181 Z" id="Path" fill="#656C8C"></path>
                    <path d="M19.3693493,315.975324 L33.0005685,308.107347 C34.1417636,307.448848 34.8400447,306.261847 34.8400447,304.982512 L34.8400447,295.785386 C34.8400447,294.841375 33.7690692,294.256987 32.9273178,294.742964 L19.3693493,302.569633 C18.169493,303.262151 16.6705302,303.262151 15.4706702,302.569633 L1.91272684,294.742964 C1.07097548,294.256987 0,294.841375 0,295.785386 L0,304.982512 C0,306.261847 0.698281063,307.448848 1.83947616,308.107347 L15.4706702,315.975324 C16.6705302,316.667842 18.169493,316.667842 19.3693493,315.975324 Z" id="Path" fill="#3D4158"></path>
                    <path d="M1.80499782,287.234611 L15.4706702,279.347195 C16.6705302,278.654677 18.1694943,278.654677 19.3693493,279.347195 L33.0350469,287.234611 C33.852676,287.707224 33.852676,288.846841 33.0350469,289.31824 L19.3693493,297.20687 C18.169493,297.899389 16.670529,297.899389 15.4706702,297.20687 L1.80499782,289.31824 C0.987368665,288.846841 0.987368665,287.707224 1.80499782,287.234611 Z" id="Path" fill="#656C8C"></path>
                    <path d="M59.7835435,315.975324 L73.4147375,308.107347 C74.5559326,307.448848 75.2542136,306.261847 75.2542136,304.982512 L75.2542136,295.785386 C75.2542136,294.841375 74.1832381,294.256987 73.3414868,294.742964 L59.7835435,302.569633 C58.5836215,303.262151 57.084761,303.262151 55.8848391,302.569633 L42.3268958,294.742964 C41.4851444,294.256987 40.4141689,294.841375 40.4141689,295.785386 L40.4141689,304.982512 C40.4141689,306.261847 41.11245,307.448848 42.2536451,308.107347 L55.8848391,315.975324 C57.084761,316.667842 58.5836215,316.667842 59.7835435,315.975324 Z" id="Path" fill="#3D4158"></path>
                    <path d="M42.2191668,287.234611 L55.8848391,279.347195 C57.084761,278.654677 58.5836215,278.654677 59.7835435,279.347195 L73.4492158,287.234611 C74.266845,287.707224 74.266845,288.846841 73.4492158,289.31824 L59.7835435,297.20687 C58.5836215,297.899389 57.0846347,297.899389 55.8848391,297.20687 L42.2191668,289.31824 C41.4015376,288.846841 41.4015376,287.707224 42.2191668,287.234611 Z" id="Path" fill="#656C8C"></path>
                    <path d="M22.0120191,321.25304 L35.6777546,313.365625 C36.8776766,312.673107 38.3765371,312.673107 39.576459,313.365625 L53.2421313,321.25304 C54.0597605,321.725654 54.0597605,322.865271 53.2421313,323.336669 L39.576459,331.2253 C38.3765371,331.917818 36.8775503,331.917818 35.6777546,331.2253 L22.0120191,323.336669 C21.1944784,322.865271 21.1944784,321.725654 22.0120191,321.25304 Z" id="Path" fill="#656C8C"></path>
                    <path d="M100.197712,315.975324 L113.828906,308.107347 C114.970101,307.448848 115.668383,306.261847 115.668383,304.982512 L115.668383,295.785386 C115.668383,294.841375 114.597407,294.256987 113.755656,294.742964 L100.197712,302.569633 C98.9977905,303.262151 97.49893,303.262151 96.299008,302.569633 L82.7410647,294.742964 C81.8993134,294.256987 80.8283379,294.841375 80.8283379,295.785386 L80.8283379,304.982512 C80.8283379,306.261847 81.5266189,307.448848 82.667814,308.107347 L96.299008,315.975324 C97.49893,316.667842 98.9977905,316.667842 100.197712,315.975324 Z" id="Path" fill="#3D4158"></path>
                    <path d="M82.6333357,287.234611 L96.299008,279.347195 C97.49893,278.654677 98.9977905,278.654677 100.197712,279.347195 L113.863385,287.234611 C114.681014,287.707224 114.681014,288.846841 113.863385,289.31824 L100.197712,297.20687 C98.9977905,297.899389 97.4988037,297.899389 96.299008,297.20687 L82.6333357,289.31824 C81.8157065,288.846841 81.8157065,287.707224 82.6333357,287.234611 Z" id="Path" fill="#656C8C"></path>
                    <path d="M140.611881,315.975324 L154.243202,308.107347 C155.383639,307.448848 156.082046,306.261847 156.082046,304.982512 L156.082046,295.785386 C156.082046,294.841375 155.011071,294.256987 154.169951,294.742964 L140.611881,302.569633 C139.411959,303.262151 137.913099,303.262151 136.713177,302.569633 L123.155234,294.742964 C122.313482,294.256987 121.242507,294.841375 121.242507,295.785386 L121.242507,304.982512 C121.242507,306.261847 121.940788,307.448848 123.081983,308.107347 L136.713177,315.975324 C137.913099,316.667842 139.411959,316.667842 140.611881,315.975324 Z" id="Path" fill="#3D4158"></path>
                    <path d="M123.047505,287.234611 L136.713177,279.347195 C137.913099,278.654677 139.411959,278.654677 140.611881,279.347195 L154.277301,287.234611 C155.095688,287.707224 155.095688,288.846841 154.277301,289.31824 L140.611881,297.20687 C139.411959,297.899389 137.912973,297.899389 136.713177,297.20687 L123.047505,289.31824 C122.229875,288.846841 122.229875,287.707224 123.047505,287.234611 Z" id="Path" fill="#656C8C"></path>
                    <path d="M102.84042,321.25304 L116.506093,313.365625 C117.706014,312.673107 119.204875,312.673107 120.404797,313.365625 L134.070469,321.25304 C134.888098,321.725654 134.888098,322.865271 134.070469,323.336669 L120.404797,331.2253 C119.204875,331.917818 117.705888,331.917818 116.506093,331.2253 L102.84042,323.336669 C102.022791,322.865271 102.022791,321.725654 102.84042,321.25304 Z" id="Path" fill="#656C8C"></path>
                    <path d="M62.4262512,321.25304 L76.0919236,313.365625 C77.2918455,312.673107 78.790706,312.673107 79.9906279,313.365625 L93.6563003,321.25304 C94.4739294,321.725654 94.4739294,322.865271 93.6563003,323.336669 L79.9906279,331.2253 C78.790706,331.917818 77.2917192,331.917818 76.0919236,331.2253 L62.4262512,323.336669 C61.6086221,322.865271 61.6086221,321.725654 62.4262512,321.25304 Z" id="Path" fill="#656C8C"></path>
                    <path d="M1716.76864,21.9589935 L1730.39579,14.0911139 C1731.53244,13.4324078 1732.23969,12.2459908 1732.23969,10.965695 L1732.23969,1.76883685 C1732.23969,0.824460942 1731.16619,0.241166367 1730.32001,0.72702244 L1716.76864,8.552622 C1715.56884,9.24517648 1714.06594,9.24517648 1712.86614,8.552622 L1699.30214,0.72702244 C1698.4686,0.241166367 1697.3951,0.824460942 1697.3951,1.76883685 L1697.3951,10.965695 C1697.3951,12.2459908 1698.08971,13.4324078 1699.23899,14.0911139 L1712.86614,21.9589935 C1714.06594,22.651548 1715.56884,22.6515359 1716.76864,21.9589935 Z" id="Path" fill="#3D4158"></path>
                    <path d="M1757.18281,21.9589935 L1770.80996,14.0911139 C1771.94661,13.4324078 1772.65386,12.2459908 1772.65386,10.965695 L1772.65386,1.76883685 C1772.65386,0.824460942 1771.58035,0.241166367 1770.73418,0.72702244 L1757.18281,8.552622 C1755.98301,9.24517648 1754.48011,9.24517648 1753.28031,8.552622 L1739.71631,0.72702244 C1738.88277,0.241166367 1737.80926,0.824460942 1737.80926,1.76883685 L1737.80926,10.965695 C1737.80926,12.2459908 1738.50388,13.4324078 1739.65316,14.0911139 L1753.28031,21.9589935 C1754.48011,22.651548 1755.98301,22.6515359 1757.18281,21.9589935 Z" id="Path" fill="#3D4158"></path>
                    <path d="M1736.97572,55.9774475 L1750.60287,48.1095922 C1751.73952,47.4508496 1752.44677,46.2644569 1752.44677,44.984149 L1752.44677,35.7872665 C1752.44677,34.8428906 1751.37327,34.259596 1750.5271,34.7454521 L1736.97572,42.5710274 C1735.77593,43.2635454 1734.27302,43.2635454 1733.07323,42.5710274 L1719.50922,34.7454521 C1718.67568,34.259596 1717.60218,34.8428906 1717.60218,35.7872665 L1717.60218,44.984149 C1717.60218,46.2644569 1718.2968,47.4508496 1719.44608,48.1095922 L1733.07323,55.9774475 C1734.27302,56.6699655 1735.77593,56.6699655 1736.97572,55.9774475 Z" id="Path" fill="#3D4158"></path>
                    <path d="M1719.40819,27.237123 L1733.07323,19.3493097 C1734.27302,18.6567565 1735.77593,18.6567578 1736.97572,19.3493107 L1750.64076,27.237123 C1751.44905,27.7090194 1751.44905,28.8488554 1750.64076,29.3207397 L1736.97572,37.2085079 C1735.77593,37.9011474 1734.27302,37.9011474 1733.07323,37.2085079 L1719.40819,29.3207397 C1718.58728,28.8488554 1718.58728,27.7090194 1719.40819,27.237123 Z" id="Path" fill="#656C8C"></path>
                    <path d="M1696.56155,55.9774475 L1710.18871,48.1095922 C1711.32535,47.4508496 1712.0326,46.2644569 1712.0326,44.984149 L1712.0326,35.7872665 C1712.0326,34.8428906 1710.9591,34.259596 1710.11293,34.7454521 L1696.56155,42.5710274 C1695.36176,43.2635454 1693.85886,43.2635454 1692.65906,42.5710274 L1679.09505,34.7454521 C1678.26151,34.259596 1677.18801,34.8428906 1677.18801,35.7872665 L1677.18801,44.984149 C1677.18801,46.2644569 1677.88263,47.4508496 1679.03191,48.1095922 L1692.65906,55.9774475 C1693.85886,56.6699655 1695.36176,56.6699655 1696.56155,55.9774475 Z" id="Path" fill="#3D4158"></path>
                    <path d="M1678.99402,27.237123 L1692.65906,19.3493097 C1693.85886,18.6567565 1695.36176,18.6567578 1696.56155,19.3493107 L1710.22659,27.237123 C1711.03488,27.7090194 1711.03488,28.8488554 1710.22659,29.3207397 L1696.56155,37.2085079 C1695.36176,37.9011474 1693.85886,37.9011474 1692.65906,37.2085079 L1678.99402,29.3207397 C1678.17311,28.8488554 1678.17311,27.7090194 1678.99402,27.237123 Z" id="Path" fill="#656C8C"></path>
                    <path d="M1797.59698,21.9589935 L1811.22413,14.0911139 C1812.36078,13.4324078 1813.06802,12.2459908 1813.06802,10.965695 L1813.06802,1.76883685 C1813.06802,0.824460942 1811.99452,0.241166367 1811.14835,0.72702244 L1797.59698,8.552622 C1796.39718,9.24517648 1794.89428,9.24517648 1793.69448,8.552622 L1780.13048,0.72702244 C1779.29693,0.241166367 1778.22343,0.824460942 1778.22343,1.76883685 L1778.22343,10.965695 C1778.22343,12.2459908 1778.91805,13.4324078 1780.06733,14.0911139 L1793.69448,21.9589935 C1794.89428,22.651548 1796.39718,22.6515359 1797.59698,21.9589935 Z" id="Path" fill="#3D4158"></path>
                    <path d="M1838.01114,21.9589935 L1851.6383,14.0911139 C1852.77495,13.4324078 1853.48219,12.2459908 1853.48219,10.965695 L1853.48219,1.76883685 C1853.48219,0.824460942 1852.40869,0.241166367 1851.56252,0.72702244 L1838.01114,8.552622 C1836.81135,9.24517648 1835.30845,9.24517648 1834.10865,8.552622 L1820.54465,0.72702244 C1819.7111,0.241166367 1818.6376,0.824460942 1818.6376,1.76883685 L1818.6376,10.965695 C1818.6376,12.2459908 1819.33222,13.4324078 1820.4815,14.0911139 L1834.10865,21.9589935 C1835.30845,22.651548 1836.81135,22.6515359 1838.01114,21.9589935 Z" id="Path" fill="#3D4158"></path>
                    <path d="M1817.80406,55.9774475 L1831.43121,48.1095922 C1832.56786,47.4508496 1833.27511,46.2644569 1833.27511,44.984149 L1833.27511,35.7872665 C1833.27511,34.8428906 1832.20161,34.259596 1831.35544,34.7454521 L1817.80406,42.5710274 C1816.60426,43.2635454 1815.10136,43.2635454 1813.90157,42.5710274 L1800.33756,34.7454521 C1799.50402,34.259596 1798.43052,34.8428906 1798.43052,35.7872665 L1798.43052,44.984149 C1798.43052,46.2644569 1799.12514,47.4508496 1800.27441,48.1095922 L1813.90157,55.9774475 C1815.10136,56.6699655 1816.60426,56.6699655 1817.80406,55.9774475 Z" id="Path" fill="#3D4158"></path>
                    <path d="M1800.23653,27.237123 L1813.90157,19.3493097 C1815.10136,18.6567565 1816.60426,18.6567578 1817.80406,19.3493107 L1831.4691,27.237123 C1832.27738,27.7090194 1832.27738,28.8488554 1831.4691,29.3207397 L1817.80406,37.2085079 C1816.60426,37.9011474 1815.10136,37.9011474 1813.90157,37.2085079 L1800.23653,29.3207397 C1799.41561,28.8488554 1799.41561,27.7090194 1800.23653,27.237123 Z" id="Path" fill="#656C8C"></path>
                    <path d="M1777.38989,55.9774475 L1791.01704,48.1095922 C1792.15369,47.4508496 1792.86094,46.2644569 1792.86094,44.984149 L1792.86094,35.7872665 C1792.86094,34.8428906 1791.78744,34.259596 1790.94127,34.7454521 L1777.38989,42.5710274 C1776.1901,43.2635454 1774.68719,43.2635454 1773.4874,42.5710274 L1759.92339,34.7454521 C1759.08985,34.259596 1758.01635,34.8428906 1758.01635,35.7872665 L1758.01635,44.984149 C1758.01635,46.2644569 1758.71097,47.4508496 1759.86025,48.1095922 L1773.4874,55.9774475 C1774.68719,56.6699655 1776.1901,56.6699655 1777.38989,55.9774475 Z" id="Path" fill="#3D4158"></path>
                    <path d="M1759.82236,27.237123 L1773.4874,19.3493097 C1774.68719,18.6567565 1776.1901,18.6567578 1777.38989,19.3493107 L1791.05493,27.237123 C1791.86322,27.7090194 1791.86322,28.8488554 1791.05493,29.3207397 L1777.38989,37.2085079 C1776.1901,37.9011474 1774.68719,37.9011474 1773.4874,37.2085079 L1759.82236,29.3207397 C1759.00144,28.8488554 1759.00144,27.7090194 1759.82236,27.237123 Z" id="Path" fill="#656C8C"></path>
                    <path d="M1716.76864,89.9958772 L1730.39579,82.1280218 C1731.53244,81.4692793 1732.23969,80.2828865 1732.23969,79.0025786 L1732.23969,69.8056962 C1732.23969,68.8613203 1731.16619,68.2780257 1730.32001,68.7638818 L1716.76864,76.589457 C1715.56884,77.281975 1714.06594,77.281975 1712.86614,76.589457 L1699.30214,68.7638818 C1698.4686,68.2780257 1697.3951,68.8613203 1697.3951,69.8056962 L1697.3951,79.0025786 C1697.3951,80.2828865 1698.08971,81.4692793 1699.23899,82.1280218 L1712.86614,89.9958772 C1714.06594,90.6883952 1715.56884,90.6883952 1716.76864,89.9958772 Z" id="Path" fill="#3D4158"></path>
                    <path d="M1699.2011,61.2555284 L1712.86614,53.367748 C1714.06594,52.6752299 1715.56884,52.6752299 1716.76864,53.367748 L1730.43368,61.2555284 C1731.24196,61.7274126 1731.24196,62.867273 1730.43368,63.3391572 L1716.76864,71.2269376 C1715.56884,71.9195771 1714.06594,71.9195771 1712.86614,71.2269376 L1699.2011,63.3391572 C1698.38019,62.867273 1698.38019,61.7274126 1699.2011,61.2555284 Z" id="Path" fill="#656C8C"></path>
                    <path d="M1757.18281,89.9958772 L1770.80996,82.1280218 C1771.94661,81.4692793 1772.65386,80.2828865 1772.65386,79.0025786 L1772.65386,69.8056962 C1772.65386,68.8613203 1771.58035,68.2780257 1770.73418,68.7638818 L1757.18281,76.589457 C1755.98301,77.281975 1754.48011,77.281975 1753.28031,76.589457 L1739.71631,68.7638818 C1738.88277,68.2780257 1737.80926,68.8613203 1737.80926,69.8056962 L1737.80926,79.0025786 C1737.80926,80.2828865 1738.50388,81.4692793 1739.65316,82.1280218 L1753.28031,89.9958772 C1754.48011,90.6883952 1755.98301,90.6883952 1757.18281,89.9958772 Z" id="Path" fill="#3D4158"></path>
                    <path d="M1739.61527,61.2555284 L1753.28031,53.367748 C1754.48011,52.6752299 1755.98301,52.6752299 1757.18281,53.367748 L1770.84785,61.2555284 C1771.65613,61.7274126 1771.65613,62.867273 1770.84785,63.3391572 L1757.18281,71.2269376 C1755.98301,71.9195771 1754.48011,71.9195771 1753.28031,71.2269376 L1739.61527,63.3391572 C1738.79436,62.867273 1738.79436,61.7274126 1739.61527,61.2555284 Z" id="Path" fill="#656C8C"></path>
                    <path d="M1736.97572,124.014307 L1750.60287,116.146452 C1751.73952,115.487709 1752.44677,114.301316 1752.44677,113.021008 L1752.44677,103.824126 C1752.44677,102.87975 1751.37327,102.296455 1750.5271,102.782311 L1736.97572,110.607887 C1735.77593,111.300405 1734.27302,111.300405 1733.07323,110.607887 L1719.50922,102.782311 C1718.67568,102.296455 1717.60218,102.87975 1717.60218,103.824126 L1717.60218,113.021008 C1717.60218,114.301316 1718.2968,115.487709 1719.44608,116.146452 L1733.07323,124.014307 C1734.27302,124.706825 1735.77593,124.706825 1736.97572,124.014307 Z" id="Path" fill="#3D4158"></path>
                    <path d="M1719.40819,95.273958 L1733.07323,87.3861776 C1734.27302,86.6936596 1735.77593,86.6936596 1736.97572,87.3861776 L1750.64076,95.273958 C1751.44905,95.7458422 1751.44905,96.8857026 1750.64076,97.3575868 L1736.97572,105.245367 C1735.77593,105.938007 1734.27302,105.938007 1733.07323,105.245367 L1719.40819,97.3575868 C1718.58728,96.8857026 1718.58728,95.7458422 1719.40819,95.273958 Z" id="Path" fill="#656C8C"></path>
                    <path d="M1696.56155,124.014307 L1710.18871,116.146452 C1711.32535,115.487709 1712.0326,114.301316 1712.0326,113.021008 L1712.0326,103.824126 C1712.0326,102.87975 1710.9591,102.296455 1710.11293,102.782311 L1696.56155,110.607887 C1695.36176,111.300405 1693.85886,111.300405 1692.65906,110.607887 L1679.09505,102.782311 C1678.26151,102.296455 1677.18801,102.87975 1677.18801,103.824126 L1677.18801,113.021008 C1677.18801,114.301316 1677.88263,115.487709 1679.03191,116.146452 L1692.65906,124.014307 C1693.85886,124.706825 1695.36176,124.706825 1696.56155,124.014307 Z" id="Path" fill="#3D4158"></path>
                    <path d="M1678.99402,95.273958 L1692.65906,87.3861776 C1693.85886,86.6936596 1695.36176,86.6936596 1696.56155,87.3861776 L1710.22659,95.273958 C1711.03488,95.7458422 1711.03488,96.8857026 1710.22659,97.3575868 L1696.56155,105.245367 C1695.36176,105.938007 1693.85886,105.938007 1692.65906,105.245367 L1678.99402,97.3575868 C1678.17311,96.8857026 1678.17311,95.7458422 1678.99402,95.273958 Z" id="Path" fill="#656C8C"></path>
                    <path d="M1797.59698,89.9958772 L1811.22413,82.1280218 C1812.36078,81.4692793 1813.06802,80.2828865 1813.06802,79.0025786 L1813.06802,69.8056962 C1813.06802,68.8613203 1811.99452,68.2780257 1811.14835,68.7638818 L1797.59698,76.589457 C1796.39718,77.281975 1794.89428,77.281975 1793.69448,76.589457 L1780.13048,68.7638818 C1779.29693,68.2780257 1778.22343,68.8613203 1778.22343,69.8056962 L1778.22343,79.0025786 C1778.22343,80.2828865 1778.91805,81.4692793 1780.06733,82.1280218 L1793.69448,89.9958772 C1794.89428,90.6883952 1796.39718,90.6883952 1797.59698,89.9958772 Z" id="Path" fill="#3D4158"></path>
                    <path d="M1780.02944,61.2555284 L1793.69448,53.367748 C1794.89428,52.6752299 1796.39718,52.6752299 1797.59698,53.367748 L1811.26202,61.2555284 C1812.0703,61.7274126 1812.0703,62.867273 1811.26202,63.3391572 L1797.59698,71.2269376 C1796.39718,71.9195771 1794.89428,71.9195771 1793.69448,71.2269376 L1780.02944,63.3391572 C1779.20853,62.867273 1779.20853,61.7274126 1780.02944,61.2555284 Z" id="Path" fill="#656C8C"></path>
                    <path d="M1838.01114,89.9958772 L1851.6383,82.1280218 C1852.77495,81.4692793 1853.48219,80.2828865 1853.48219,79.0025786 L1853.48219,69.8056962 C1853.48219,68.8613203 1852.40869,68.2780257 1851.56252,68.7638818 L1838.01114,76.589457 C1836.81135,77.281975 1835.30845,77.281975 1834.10865,76.589457 L1820.54465,68.7638818 C1819.7111,68.2780257 1818.6376,68.8613203 1818.6376,69.8056962 L1818.6376,79.0025786 C1818.6376,80.2828865 1819.33222,81.4692793 1820.4815,82.1280218 L1834.10865,89.9958772 C1835.30845,90.6883952 1836.81135,90.6883952 1838.01114,89.9958772 Z" id="Path" fill="#3D4158"></path>
                    <path d="M1820.44361,61.2555284 L1834.10865,53.367748 C1835.30845,52.6752299 1836.81135,52.6752299 1838.01114,53.367748 L1851.67619,61.2555284 C1852.48447,61.7274126 1852.48447,62.867273 1851.67619,63.3391572 L1838.01114,71.2269376 C1836.81135,71.9195771 1835.30845,71.9195771 1834.10865,71.2269376 L1820.44361,63.3391572 C1819.6227,62.867273 1819.6227,61.7274126 1820.44361,61.2555284 Z" id="Path" fill="#656C8C"></path>
                    <path d="M1817.80406,124.014307 L1831.43121,116.146452 C1832.56786,115.487709 1833.27511,114.301316 1833.27511,113.021008 L1833.27511,103.824126 C1833.27511,102.87975 1832.20161,102.296455 1831.35544,102.782311 L1817.80406,110.607887 C1816.60426,111.300405 1815.10136,111.300405 1813.90157,110.607887 L1800.33756,102.782311 C1799.50402,102.296455 1798.43052,102.87975 1798.43052,103.824126 L1798.43052,113.021008 C1798.43052,114.301316 1799.12514,115.487709 1800.27441,116.146452 L1813.90157,124.014307 C1815.10136,124.706825 1816.60426,124.706825 1817.80406,124.014307 Z" id="Path" fill="#3D4158"></path>
                    <path d="M1800.23653,95.273958 L1813.90157,87.3861776 C1815.10136,86.6936596 1816.60426,86.6936596 1817.80406,87.3861776 L1831.4691,95.273958 C1832.27738,95.7458422 1832.27738,96.8857026 1831.4691,97.3575868 L1817.80406,105.245367 C1816.60426,105.938007 1815.10136,105.938007 1813.90157,105.245367 L1800.23653,97.3575868 C1799.41561,96.8857026 1799.41561,95.7458422 1800.23653,95.273958 Z" id="Path" fill="#656C8C"></path>
                    <path d="M1777.38989,124.014307 L1791.01704,116.146452 C1792.15369,115.487709 1792.86094,114.301316 1792.86094,113.021008 L1792.86094,103.824126 C1792.86094,102.87975 1791.78744,102.296455 1790.94127,102.782311 L1777.38989,110.607887 C1776.1901,111.300405 1774.68719,111.300405 1773.4874,110.607887 L1759.92339,102.782311 C1759.08985,102.296455 1758.01635,102.87975 1758.01635,103.824126 L1758.01635,113.021008 C1758.01635,114.301316 1758.71097,115.487709 1759.86025,116.146452 L1773.4874,124.014307 C1774.68719,124.706825 1776.1901,124.706825 1777.38989,124.014307 Z" id="Path" fill="#3D4158"></path>
                    <path d="M1759.82236,95.273958 L1773.4874,87.3861776 C1774.68719,86.6936596 1776.1901,86.6936596 1777.38989,87.3861776 L1791.05493,95.273958 C1791.86322,95.7458422 1791.86322,96.8857026 1791.05493,97.3575868 L1777.38989,105.245367 C1776.1901,105.938007 1774.68719,105.938007 1773.4874,105.245367 L1759.82236,97.3575868 C1759.00144,96.8857026 1759.00144,95.7458422 1759.82236,95.273958 Z" id="Path" fill="#656C8C"></path>
                    <path d="M1716.76864,158.032615 L1730.39579,150.164638 C1731.53244,149.506139 1732.23969,148.319138 1732.23969,147.039802 L1732.23969,137.842555 C1732.23969,136.89818 1731.16619,136.314885 1730.32001,136.800741 L1716.76864,144.626924 C1715.56884,145.319442 1714.06594,145.319442 1712.86614,144.626924 L1699.30214,136.800741 C1698.4686,136.314885 1697.3951,136.89818 1697.3951,137.842555 L1697.3951,147.039802 C1697.3951,148.319138 1698.08971,149.506139 1699.23899,150.164638 L1712.86614,158.032615 C1714.06594,158.725133 1715.56884,158.725133 1716.76864,158.032615 Z" id="Path" fill="#3D4158"></path>
                    <path d="M1699.2011,129.292388 L1712.86614,121.404607 C1714.06594,120.712089 1715.56884,120.712089 1716.76864,121.404607 L1730.43368,129.292388 C1731.24196,129.764272 1731.24196,130.904132 1730.43368,131.376016 L1716.76864,139.263797 C1715.56884,139.956436 1714.06594,139.956436 1712.86614,139.263797 L1699.2011,131.376016 C1698.38019,130.904132 1698.38019,129.764272 1699.2011,129.292388 Z" id="Path" fill="#656C8C"></path>
                    <path d="M1757.18281,158.032615 L1770.80996,150.164638 C1771.94661,149.506139 1772.65386,148.319138 1772.65386,147.039802 L1772.65386,137.842555 C1772.65386,136.89818 1771.58035,136.314885 1770.73418,136.800741 L1757.18281,144.626924 C1755.98301,145.319442 1754.48011,145.319442 1753.28031,144.626924 L1739.71631,136.800741 C1738.88277,136.314885 1737.80926,136.89818 1737.80926,137.842555 L1737.80926,147.039802 C1737.80926,148.319138 1738.50388,149.506139 1739.65316,150.164638 L1753.28031,158.032615 C1754.48011,158.725133 1755.98301,158.725133 1757.18281,158.032615 Z" id="Path" fill="#3D4158"></path>
                    <path d="M1739.61527,129.292388 L1753.28031,121.404607 C1754.48011,120.712089 1755.98301,120.712089 1757.18281,121.404607 L1770.84785,129.292388 C1771.65613,129.764272 1771.65613,130.904132 1770.84785,131.376016 L1757.18281,139.263797 C1755.98301,139.956436 1754.48011,139.956436 1753.28031,139.263797 L1739.61527,131.376016 C1738.79436,130.904132 1738.79436,129.764272 1739.61527,129.292388 Z" id="Path" fill="#656C8C"></path>
                    <path d="M1736.97572,192.051045 L1750.60287,184.183068 C1751.73952,183.524568 1752.44677,182.337568 1752.44677,181.058232 L1752.44677,171.861107 C1752.44677,170.917095 1751.37327,170.332707 1750.5271,170.818685 L1736.97572,178.645353 C1735.77593,179.337871 1734.27302,179.337871 1733.07323,178.645353 L1719.50922,170.818685 C1718.67568,170.332707 1717.60218,170.917095 1717.60218,171.861107 L1717.60218,181.058232 C1717.60218,182.337568 1718.2968,183.524568 1719.44608,184.183068 L1733.07323,192.051045 C1734.27302,192.743563 1735.77593,192.743563 1736.97572,192.051045 Z" id="Path" fill="#3D4158"></path>
                    <path d="M1719.40819,163.310331 L1733.07323,155.422915 C1734.27302,154.730397 1735.77593,154.730397 1736.97572,155.422915 L1750.64076,163.310331 C1751.44905,163.782945 1751.44905,164.922562 1750.64076,165.39396 L1736.97572,173.282591 C1735.77593,173.975109 1734.27302,173.975109 1733.07323,173.282591 L1719.40819,165.39396 C1718.58728,164.922562 1718.58728,163.782945 1719.40819,163.310331 Z" id="Path" fill="#656C8C"></path>
                    <path d="M1696.56155,192.051045 L1710.18871,184.183068 C1711.32535,183.524568 1712.0326,182.337568 1712.0326,181.058232 L1712.0326,171.861107 C1712.0326,170.917095 1710.9591,170.332707 1710.11293,170.818685 L1696.56155,178.645353 C1695.36176,179.337871 1693.85886,179.337871 1692.65906,178.645353 L1679.09505,170.818685 C1678.26151,170.332707 1677.18801,170.917095 1677.18801,171.861107 L1677.18801,181.058232 C1677.18801,182.337568 1677.88263,183.524568 1679.03191,184.183068 L1692.65906,192.051045 C1693.85886,192.743563 1695.36176,192.743563 1696.56155,192.051045 Z" id="Path" fill="#3D4158"></path>
                    <path d="M1678.99402,163.310331 L1692.65906,155.422915 C1693.85886,154.730397 1695.36176,154.730397 1696.56155,155.422915 L1710.22659,163.310331 C1711.03488,163.782945 1711.03488,164.922562 1710.22659,165.39396 L1696.56155,173.282591 C1695.36176,173.975109 1693.85886,173.975109 1692.65906,173.282591 L1678.99402,165.39396 C1678.17311,164.922562 1678.17311,163.782945 1678.99402,163.310331 Z" id="Path" fill="#656C8C"></path>
                    <path d="M1797.59698,158.032615 L1811.22413,150.164638 C1812.36078,149.506139 1813.06802,148.319138 1813.06802,147.039802 L1813.06802,137.842555 C1813.06802,136.89818 1811.99452,136.314885 1811.14835,136.800741 L1797.59698,144.626924 C1796.39718,145.319442 1794.89428,145.319442 1793.69448,144.626924 L1780.13048,136.800741 C1779.29693,136.314885 1778.22343,136.89818 1778.22343,137.842555 L1778.22343,147.039802 C1778.22343,148.319138 1778.91805,149.506139 1780.06733,150.164638 L1793.69448,158.032615 C1794.89428,158.725133 1796.39718,158.725133 1797.59698,158.032615 Z" id="Path" fill="#3D4158"></path>
                    <path d="M1780.02944,129.292388 L1793.69448,121.404607 C1794.89428,120.712089 1796.39718,120.712089 1797.59698,121.404607 L1811.26202,129.292388 C1812.0703,129.764272 1812.0703,130.904132 1811.26202,131.376016 L1797.59698,139.263797 C1796.39718,139.956436 1794.89428,139.956436 1793.69448,139.263797 L1780.02944,131.376016 C1779.20853,130.904132 1779.20853,129.764272 1780.02944,129.292388 Z" id="Path" fill="#656C8C"></path>
                    <path d="M1838.01114,158.032615 L1851.6383,150.164638 C1852.77495,149.506139 1853.48219,148.319138 1853.48219,147.039802 L1853.48219,137.842555 C1853.48219,136.89818 1852.40869,136.314885 1851.56252,136.800741 L1838.01114,144.626924 C1836.81135,145.319442 1835.30845,145.319442 1834.10865,144.626924 L1820.54465,136.800741 C1819.7111,136.314885 1818.6376,136.89818 1818.6376,137.842555 L1818.6376,147.039802 C1818.6376,148.319138 1819.33222,149.506139 1820.4815,150.164638 L1834.10865,158.032615 C1835.30845,158.725133 1836.81135,158.725133 1838.01114,158.032615 Z" id="Path" fill="#3D4158"></path>
                    <path d="M1820.44361,129.292388 L1834.10865,121.404607 C1835.30845,120.712089 1836.81135,120.712089 1838.01114,121.404607 L1851.67619,129.292388 C1852.48447,129.764272 1852.48447,130.904132 1851.67619,131.376016 L1838.01114,139.263797 C1836.81135,139.956436 1835.30845,139.956436 1834.10865,139.263797 L1820.44361,131.376016 C1819.6227,130.904132 1819.6227,129.764272 1820.44361,129.292388 Z" id="Path" fill="#656C8C"></path>
                    <path d="M1817.80406,192.051045 L1831.43121,184.183068 C1832.56786,183.524568 1833.27511,182.337568 1833.27511,181.058232 L1833.27511,171.861107 C1833.27511,170.917095 1832.20161,170.332707 1831.35544,170.818685 L1817.80406,178.645353 C1816.60426,179.337871 1815.10136,179.337871 1813.90157,178.645353 L1800.33756,170.818685 C1799.50402,170.332707 1798.43052,170.917095 1798.43052,171.861107 L1798.43052,181.058232 C1798.43052,182.337568 1799.12514,183.524568 1800.27441,184.183068 L1813.90157,192.051045 C1815.10136,192.743563 1816.60426,192.743563 1817.80406,192.051045 Z" id="Path" fill="#3D4158"></path>
                    <path d="M1800.23653,163.310331 L1813.90157,155.422915 C1815.10136,154.730397 1816.60426,154.730397 1817.80406,155.422915 L1831.4691,163.310331 C1832.27738,163.782945 1832.27738,164.922562 1831.4691,165.39396 L1817.80406,173.282591 C1816.60426,173.975109 1815.10136,173.975109 1813.90157,173.282591 L1800.23653,165.39396 C1799.41561,164.922562 1799.41561,163.782945 1800.23653,163.310331 Z" id="Path" fill="#656C8C"></path>
                    <path d="M1777.38989,192.051045 L1791.01704,184.183068 C1792.15369,183.524568 1792.86094,182.337568 1792.86094,181.058232 L1792.86094,171.861107 C1792.86094,170.917095 1791.78744,170.332707 1790.94127,170.818685 L1777.38989,178.645353 C1776.1901,179.337871 1774.68719,179.337871 1773.4874,178.645353 L1759.92339,170.818685 C1759.08985,170.332707 1758.01635,170.917095 1758.01635,171.861107 L1758.01635,181.058232 C1758.01635,182.337568 1758.71097,183.524568 1759.86025,184.183068 L1773.4874,192.051045 C1774.68719,192.743563 1776.1901,192.743563 1777.38989,192.051045 Z" id="Path" fill="#3D4158"></path>
                    <path d="M1759.82236,163.310331 L1773.4874,155.422915 C1774.68719,154.730397 1776.1901,154.730397 1777.38989,155.422915 L1791.05493,163.310331 C1791.86322,163.782945 1791.86322,164.922562 1791.05493,165.39396 L1777.38989,173.282591 C1776.1901,173.975109 1774.68719,173.975109 1773.4874,173.282591 L1759.82236,165.39396 C1759.00144,164.922562 1759.00144,163.782945 1759.82236,163.310331 Z" id="Path" fill="#656C8C"></path>
                    <path d="M1716.76864,226.069474 L1730.39579,218.201497 C1731.53244,217.542998 1732.23969,216.355998 1732.23969,215.076662 L1732.23969,205.879536 C1732.23969,204.935525 1731.16619,204.351137 1730.32001,204.837114 L1716.76864,212.663783 C1715.56884,213.356301 1714.06594,213.356301 1712.86614,212.663783 L1699.30214,204.837114 C1698.4686,204.351137 1697.3951,204.935525 1697.3951,205.879536 L1697.3951,215.076662 C1697.3951,216.355998 1698.08971,217.542998 1699.23899,218.201497 L1712.86614,226.069474 C1714.06594,226.761992 1715.56884,226.761992 1716.76864,226.069474 Z" id="Path" fill="#3D4158"></path>
                    <path d="M1699.2011,197.328761 L1712.86614,189.441345 C1714.06594,188.748827 1715.56884,188.748827 1716.76864,189.441345 L1730.43368,197.328761 C1731.24196,197.801374 1731.24196,198.940992 1730.43368,199.41239 L1716.76864,207.301021 C1715.56884,207.993539 1714.06594,207.993539 1712.86614,207.301021 L1699.2011,199.41239 C1698.38019,198.940992 1698.38019,197.801374 1699.2011,197.328761 Z" id="Path" fill="#656C8C"></path>
                    <path d="M1757.18281,226.069474 L1770.80996,218.201497 C1771.94661,217.542998 1772.65386,216.355998 1772.65386,215.076662 L1772.65386,205.879536 C1772.65386,204.935525 1771.58035,204.351137 1770.73418,204.837114 L1757.18281,212.663783 C1755.98301,213.356301 1754.48011,213.356301 1753.28031,212.663783 L1739.71631,204.837114 C1738.88277,204.351137 1737.80926,204.935525 1737.80926,205.879536 L1737.80926,215.076662 C1737.80926,216.355998 1738.50388,217.542998 1739.65316,218.201497 L1753.28031,226.069474 C1754.48011,226.761992 1755.98301,226.761992 1757.18281,226.069474 Z" id="Path" fill="#3D4158"></path>
                    <path d="M1739.61527,197.328761 L1753.28031,189.441345 C1754.48011,188.748827 1755.98301,188.748827 1757.18281,189.441345 L1770.84785,197.328761 C1771.65613,197.801374 1771.65613,198.940992 1770.84785,199.41239 L1757.18281,207.301021 C1755.98301,207.993539 1754.48011,207.993539 1753.28031,207.301021 L1739.61527,199.41239 C1738.79436,198.940992 1738.79436,197.801374 1739.61527,197.328761 Z" id="Path" fill="#656C8C"></path>
                    <path d="M1736.97572,260.087904 L1750.60287,252.219927 C1751.73952,251.561428 1752.44677,250.374427 1752.44677,249.095091 L1752.44677,239.897966 C1752.44677,238.953955 1751.37327,238.369567 1750.5271,238.855544 L1736.97572,246.682213 C1735.77593,247.374731 1734.27302,247.374731 1733.07323,246.682213 L1719.50922,238.855544 C1718.67568,238.369567 1717.60218,238.953955 1717.60218,239.897966 L1717.60218,249.095091 C1717.60218,250.374427 1718.2968,251.561428 1719.44608,252.219927 L1733.07323,260.087904 C1734.27302,260.780422 1735.77593,260.780422 1736.97572,260.087904 Z" id="Path" fill="#3D4158"></path>
                    <path d="M1719.40819,231.347191 L1733.07323,223.459775 C1734.27302,222.767257 1735.77593,222.767257 1736.97572,223.459775 L1750.64076,231.347191 C1751.44905,231.819804 1751.44905,232.959421 1750.64076,233.430819 L1736.97572,241.31945 C1735.77593,242.011968 1734.27302,242.011968 1733.07323,241.31945 L1719.40819,233.430819 C1718.58728,232.959421 1718.58728,231.819804 1719.40819,231.347191 Z" id="Path" fill="#656C8C"></path>
                    <path d="M1696.56155,260.087904 L1710.18871,252.219927 C1711.32535,251.561428 1712.0326,250.374427 1712.0326,249.095091 L1712.0326,239.897966 C1712.0326,238.953955 1710.9591,238.369567 1710.11293,238.855544 L1696.56155,246.682213 C1695.36176,247.374731 1693.85886,247.374731 1692.65906,246.682213 L1679.09505,238.855544 C1678.26151,238.369567 1677.18801,238.953955 1677.18801,239.897966 L1677.18801,249.095091 C1677.18801,250.374427 1677.88263,251.561428 1679.03191,252.219927 L1692.65906,260.087904 C1693.85886,260.780422 1695.36176,260.780422 1696.56155,260.087904 Z" id="Path" fill="#3D4158"></path>
                    <path d="M1678.99402,231.347191 L1692.65906,223.459775 C1693.85886,222.767257 1695.36176,222.767257 1696.56155,223.459775 L1710.22659,231.347191 C1711.03488,231.819804 1711.03488,232.959421 1710.22659,233.430819 L1696.56155,241.31945 C1695.36176,242.011968 1693.85886,242.011968 1692.65906,241.31945 L1678.99402,233.430819 C1678.17311,232.959421 1678.17311,231.819804 1678.99402,231.347191 Z" id="Path" fill="#656C8C"></path>
                    <path d="M1797.59698,226.069474 L1811.22413,218.201497 C1812.36078,217.542998 1813.06802,216.355998 1813.06802,215.076662 L1813.06802,205.879536 C1813.06802,204.935525 1811.99452,204.351137 1811.14835,204.837114 L1797.59698,212.663783 C1796.39718,213.356301 1794.89428,213.356301 1793.69448,212.663783 L1780.13048,204.837114 C1779.29693,204.351137 1778.22343,204.935525 1778.22343,205.879536 L1778.22343,215.076662 C1778.22343,216.355998 1778.91805,217.542998 1780.06733,218.201497 L1793.69448,226.069474 C1794.89428,226.761992 1796.39718,226.761992 1797.59698,226.069474 Z" id="Path" fill="#3D4158"></path>
                    <path d="M1780.02944,197.328761 L1793.69448,189.441345 C1794.89428,188.748827 1796.39718,188.748827 1797.59698,189.441345 L1811.26202,197.328761 C1812.0703,197.801374 1812.0703,198.940992 1811.26202,199.41239 L1797.59698,207.301021 C1796.39718,207.993539 1794.89428,207.993539 1793.69448,207.301021 L1780.02944,199.41239 C1779.20853,198.940992 1779.20853,197.801374 1780.02944,197.328761 Z" id="Path" fill="#656C8C"></path>
                    <path d="M1838.01114,226.069474 L1851.6383,218.201497 C1852.77495,217.542998 1853.48219,216.355998 1853.48219,215.076662 L1853.48219,205.879536 C1853.48219,204.935525 1852.40869,204.351137 1851.56252,204.837114 L1838.01114,212.663783 C1836.81135,213.356301 1835.30845,213.356301 1834.10865,212.663783 L1820.54465,204.837114 C1819.7111,204.351137 1818.6376,204.935525 1818.6376,205.879536 L1818.6376,215.076662 C1818.6376,216.355998 1819.33222,217.542998 1820.4815,218.201497 L1834.10865,226.069474 C1835.30845,226.761992 1836.81135,226.761992 1838.01114,226.069474 Z" id="Path" fill="#3D4158"></path>
                    <path d="M1820.44361,197.328761 L1834.10865,189.441345 C1835.30845,188.748827 1836.81135,188.748827 1838.01114,189.441345 L1851.67619,197.328761 C1852.48447,197.801374 1852.48447,198.940992 1851.67619,199.41239 L1838.01114,207.301021 C1836.81135,207.993539 1835.30845,207.993539 1834.10865,207.301021 L1820.44361,199.41239 C1819.6227,198.940992 1819.6227,197.801374 1820.44361,197.328761 Z" id="Path" fill="#656C8C"></path>
                    <path d="M1817.80406,260.087904 L1831.43121,252.219927 C1832.56786,251.561428 1833.27511,250.374427 1833.27511,249.095091 L1833.27511,239.897966 C1833.27511,238.953955 1832.20161,238.369567 1831.35544,238.855544 L1817.80406,246.682213 C1816.60426,247.374731 1815.10136,247.374731 1813.90157,246.682213 L1800.33756,238.855544 C1799.50402,238.369567 1798.43052,238.953955 1798.43052,239.897966 L1798.43052,249.095091 C1798.43052,250.374427 1799.12514,251.561428 1800.27441,252.219927 L1813.90157,260.087904 C1815.10136,260.780422 1816.60426,260.780422 1817.80406,260.087904 Z" id="Path" fill="#3D4158"></path>
                    <path d="M1800.23653,231.347191 L1813.90157,223.459775 C1815.10136,222.767257 1816.60426,222.767257 1817.80406,223.459775 L1831.4691,231.347191 C1832.27738,231.819804 1832.27738,232.959421 1831.4691,233.430819 L1817.80406,241.31945 C1816.60426,242.011968 1815.10136,242.011968 1813.90157,241.31945 L1800.23653,233.430819 C1799.41561,232.959421 1799.41561,231.819804 1800.23653,231.347191 Z" id="Path" fill="#656C8C"></path>
                    <path d="M1777.38989,260.087904 L1791.01704,252.219927 C1792.15369,251.561428 1792.86094,250.374427 1792.86094,249.095091 L1792.86094,239.897966 C1792.86094,238.953955 1791.78744,238.369567 1790.94127,238.855544 L1777.38989,246.682213 C1776.1901,247.374731 1774.68719,247.374731 1773.4874,246.682213 L1759.92339,238.855544 C1759.08985,238.369567 1758.01635,238.953955 1758.01635,239.897966 L1758.01635,249.095091 C1758.01635,250.374427 1758.71097,251.561428 1759.86025,252.219927 L1773.4874,260.087904 C1774.68719,260.780422 1776.1901,260.780422 1777.38989,260.087904 Z" id="Path" fill="#3D4158"></path>
                    <path d="M1759.82236,231.347191 L1773.4874,223.459775 C1774.68719,222.767257 1776.1901,222.767257 1777.38989,223.459775 L1791.05493,231.347191 C1791.86322,231.819804 1791.86322,232.959421 1791.05493,233.430819 L1777.38989,241.31945 C1776.1901,242.011968 1774.68719,242.011968 1773.4874,241.31945 L1759.82236,233.430819 C1759.00144,232.959421 1759.00144,231.819804 1759.82236,231.347191 Z" id="Path" fill="#656C8C"></path>
                    <path d="M1716.76864,294.106334 L1730.39579,286.238357 C1731.53244,285.579857 1732.23969,284.392857 1732.23969,283.113521 L1732.23969,273.916396 C1732.23969,272.972384 1731.16619,272.387996 1730.32001,272.873974 L1716.76864,280.700642 C1715.56884,281.39316 1714.06594,281.39316 1712.86614,280.700642 L1699.30214,272.873974 C1698.4686,272.387996 1697.3951,272.972384 1697.3951,273.916396 L1697.3951,283.113521 C1697.3951,284.392857 1698.08971,285.579857 1699.23899,286.238357 L1712.86614,294.106334 C1714.06594,294.798852 1715.56884,294.798852 1716.76864,294.106334 Z" id="Path" fill="#3D4158"></path>
                    <path d="M1699.2011,265.36562 L1712.86614,257.478204 C1714.06594,256.785686 1715.56884,256.785686 1716.76864,257.478204 L1730.43368,265.36562 C1731.24196,265.838234 1731.24196,266.977851 1730.43368,267.449249 L1716.76864,275.33788 C1715.56884,276.030398 1714.06594,276.030398 1712.86614,275.33788 L1699.2011,267.449249 C1698.38019,266.977851 1698.38019,265.838234 1699.2011,265.36562 Z" id="Path" fill="#656C8C"></path>
                    <path d="M1757.18281,294.106334 L1770.80996,286.238357 C1771.94661,285.579857 1772.65386,284.392857 1772.65386,283.113521 L1772.65386,273.916396 C1772.65386,272.972384 1771.58035,272.387996 1770.73418,272.873974 L1757.18281,280.700642 C1755.98301,281.39316 1754.48011,281.39316 1753.28031,280.700642 L1739.71631,272.873974 C1738.88277,272.387996 1737.80926,272.972384 1737.80926,273.916396 L1737.80926,283.113521 C1737.80926,284.392857 1738.50388,285.579857 1739.65316,286.238357 L1753.28031,294.106334 C1754.48011,294.798852 1755.98301,294.798852 1757.18281,294.106334 Z" id="Path" fill="#3D4158"></path>
                    <path d="M1739.61527,265.36562 L1753.28031,257.478204 C1754.48011,256.785686 1755.98301,256.785686 1757.18281,257.478204 L1770.84785,265.36562 C1771.65613,265.838234 1771.65613,266.977851 1770.84785,267.449249 L1757.18281,275.33788 C1755.98301,276.030398 1754.48011,276.030398 1753.28031,275.33788 L1739.61527,267.449249 C1738.79436,266.977851 1738.79436,265.838234 1739.61527,265.36562 Z" id="Path" fill="#656C8C"></path>
                    <path d="M1736.97572,328.124763 L1750.60287,320.256786 C1751.73952,319.598287 1752.44677,318.411287 1752.44677,317.131951 L1752.44677,307.934825 C1752.44677,306.990814 1751.37327,306.406426 1750.5271,306.892403 L1736.97572,314.719072 C1735.77593,315.41159 1734.27302,315.41159 1733.07323,314.719072 L1719.50922,306.892403 C1718.67568,306.406426 1717.60218,306.990814 1717.60218,307.934825 L1717.60218,317.131951 C1717.60218,318.411287 1718.2968,319.598287 1719.44608,320.256786 L1733.07323,328.124763 C1734.27302,328.817281 1735.77593,328.817281 1736.97572,328.124763 Z" id="Path" fill="#3D4158"></path>
                    <path d="M1719.40819,299.38405 L1733.07323,291.496634 C1734.27302,290.804116 1735.77593,290.804116 1736.97572,291.496634 L1750.64076,299.38405 C1751.44905,299.856663 1751.44905,300.996281 1750.64076,301.467679 L1736.97572,309.35631 C1735.77593,310.048828 1734.27302,310.048828 1733.07323,309.35631 L1719.40819,301.467679 C1718.58728,300.996281 1718.58728,299.856663 1719.40819,299.38405 Z" id="Path" fill="#656C8C"></path>
                    <path d="M1696.56155,328.124763 L1710.18871,320.256786 C1711.32535,319.598287 1712.0326,318.411287 1712.0326,317.131951 L1712.0326,307.934825 C1712.0326,306.990814 1710.9591,306.406426 1710.11293,306.892403 L1696.56155,314.719072 C1695.36176,315.41159 1693.85886,315.41159 1692.65906,314.719072 L1679.09505,306.892403 C1678.26151,306.406426 1677.18801,306.990814 1677.18801,307.934825 L1677.18801,317.131951 C1677.18801,318.411287 1677.88263,319.598287 1679.03191,320.256786 L1692.65906,328.124763 C1693.85886,328.817281 1695.36176,328.817281 1696.56155,328.124763 Z" id="Path" fill="#3D4158"></path>
                    <path d="M1678.99402,299.38405 L1692.65906,291.496634 C1693.85886,290.804116 1695.36176,290.804116 1696.56155,291.496634 L1710.22659,299.38405 C1711.03488,299.856663 1711.03488,300.996281 1710.22659,301.467679 L1696.56155,309.35631 C1695.36176,310.048828 1693.85886,310.048828 1692.65906,309.35631 L1678.99402,301.467679 C1678.17311,300.996281 1678.17311,299.856663 1678.99402,299.38405 Z" id="Path" fill="#656C8C"></path>
                    <path d="M1797.59698,294.106334 L1811.22413,286.238357 C1812.36078,285.579857 1813.06802,284.392857 1813.06802,283.113521 L1813.06802,273.916396 C1813.06802,272.972384 1811.99452,272.387996 1811.14835,272.873974 L1797.59698,280.700642 C1796.39718,281.39316 1794.89428,281.39316 1793.69448,280.700642 L1780.13048,272.873974 C1779.29693,272.387996 1778.22343,272.972384 1778.22343,273.916396 L1778.22343,283.113521 C1778.22343,284.392857 1778.91805,285.579857 1780.06733,286.238357 L1793.69448,294.106334 C1794.89428,294.798852 1796.39718,294.798852 1797.59698,294.106334 Z" id="Path" fill="#3D4158"></path>
                    <path d="M1780.02944,265.36562 L1793.69448,257.478204 C1794.89428,256.785686 1796.39718,256.785686 1797.59698,257.478204 L1811.26202,265.36562 C1812.0703,265.838234 1812.0703,266.977851 1811.26202,267.449249 L1797.59698,275.33788 C1796.39718,276.030398 1794.89428,276.030398 1793.69448,275.33788 L1780.02944,267.449249 C1779.20853,266.977851 1779.20853,265.838234 1780.02944,265.36562 Z" id="Path" fill="#656C8C"></path>
                    <path d="M1838.01114,294.106334 L1851.6383,286.238357 C1852.77495,285.579857 1853.48219,284.392857 1853.48219,283.113521 L1853.48219,273.916396 C1853.48219,272.972384 1852.40869,272.387996 1851.56252,272.873974 L1838.01114,280.700642 C1836.81135,281.39316 1835.30845,281.39316 1834.10865,280.700642 L1820.54465,272.873974 C1819.7111,272.387996 1818.6376,272.972384 1818.6376,273.916396 L1818.6376,283.113521 C1818.6376,284.392857 1819.33222,285.579857 1820.4815,286.238357 L1834.10865,294.106334 C1835.30845,294.798852 1836.81135,294.798852 1838.01114,294.106334 Z" id="Path" fill="#3D4158"></path>
                    <path d="M1820.44361,265.36562 L1834.10865,257.478204 C1835.30845,256.785686 1836.81135,256.785686 1838.01114,257.478204 L1851.67619,265.36562 C1852.48447,265.838234 1852.48447,266.977851 1851.67619,267.449249 L1838.01114,275.33788 C1836.81135,276.030398 1835.30845,276.030398 1834.10865,275.33788 L1820.44361,267.449249 C1819.6227,266.977851 1819.6227,265.838234 1820.44361,265.36562 Z" id="Path" fill="#656C8C"></path>
                    <path d="M1817.80406,328.124763 L1831.43121,320.256786 C1832.56786,319.598287 1833.27511,318.411287 1833.27511,317.131951 L1833.27511,307.934825 C1833.27511,306.990814 1832.20161,306.406426 1831.35544,306.892403 L1817.80406,314.719072 C1816.60426,315.41159 1815.10136,315.41159 1813.90157,314.719072 L1800.33756,306.892403 C1799.50402,306.406426 1798.43052,306.990814 1798.43052,307.934825 L1798.43052,317.131951 C1798.43052,318.411287 1799.12514,319.598287 1800.27441,320.256786 L1813.90157,328.124763 C1815.10136,328.817281 1816.60426,328.817281 1817.80406,328.124763 Z" id="Path" fill="#3D4158"></path>
                    <path d="M1800.23653,299.38405 L1813.90157,291.496634 C1815.10136,290.804116 1816.60426,290.804116 1817.80406,291.496634 L1831.4691,299.38405 C1832.27738,299.856663 1832.27738,300.996281 1831.4691,301.467679 L1817.80406,309.35631 C1816.60426,310.048828 1815.10136,310.048828 1813.90157,309.35631 L1800.23653,301.467679 C1799.41561,300.996281 1799.41561,299.856663 1800.23653,299.38405 Z" id="Path" fill="#656C8C"></path>
                    <path d="M1777.38989,328.124763 L1791.01704,320.256786 C1792.15369,319.598287 1792.86094,318.411287 1792.86094,317.131951 L1792.86094,307.934825 C1792.86094,306.990814 1791.78744,306.406426 1790.94127,306.892403 L1777.38989,314.719072 C1776.1901,315.41159 1774.68719,315.41159 1773.4874,314.719072 L1759.92339,306.892403 C1759.08985,306.406426 1758.01635,306.990814 1758.01635,307.934825 L1758.01635,317.131951 C1758.01635,318.411287 1758.71097,319.598287 1759.86025,320.256786 L1773.4874,328.124763 C1774.68719,328.817281 1776.1901,328.817281 1777.38989,328.124763 Z" id="Path" fill="#3D4158"></path>
                    <path d="M1759.82236,299.38405 L1773.4874,291.496634 C1774.68719,290.804116 1776.1901,290.804116 1777.38989,291.496634 L1791.05493,299.38405 C1791.86322,299.856663 1791.86322,300.996281 1791.05493,301.467679 L1777.38989,309.35631 C1776.1901,310.048828 1774.68719,310.048828 1773.4874,309.35631 L1759.82236,301.467679 C1759.00144,300.996281 1759.00144,299.856663 1759.82236,299.38405 Z" id="Path" fill="#656C8C"></path>
                </g>
            </g>
        </g>
    </g>
</svg>