<svg width="64" height="64" viewBox="0 0 64 64" fill="none" xmlns="http://www.w3.org/2000/svg">
<path d="M32 64C49.6731 64 64 49.6731 64 32C64 14.3269 49.6731 0 32 0C14.3269 0 0 14.3269 0 32C0 49.6731 14.3269 64 32 64Z" fill="#808BA8"/>
<path d="M11.4714 0L2.43456 5.29504L11.4714 10.5901L20.6778 5.29504L11.4714 0ZM12.9574 28.2691V38.8589L25.2314 31.857V21.265L12.9574 28.2691ZM22.1626 8.62496V19.217L12.9562 24.512V13.92L22.1626 8.62496ZM0 19.217L9.2064 24.512V13.92L0 8.62496V19.217ZM0 33.5642L9.2064 38.8592V28.2691L0 22.9741V33.5638V33.5642Z" transform="translate(20.3687 11.759)" fill="white"/>
</svg>
