<svg width="64" height="64" viewBox="0 0 64 64" fill="none" xmlns="http://www.w3.org/2000/svg">
<path fill-rule="evenodd" clip-rule="evenodd" d="M32 64C49.6733 64 64 49.6731 64 32C64 14.3269 49.6733 0 32 0C14.3267 0 0 14.3269 0 32C0 49.6731 14.3267 64 32 64ZM25.5601 32L37.4233 43.8461L44.9106 36.3707C46.2329 35.0501 48.3784 35.0504 49.7007 36.3707C51.0229 37.691 51.0234 39.8323 49.7007 41.1525L39.8184 51.0189C38.502 52.333 36.333 52.3211 35.0288 51.0189L20.7734 36.7848V45.2469C20.7734 47.1047 19.2476 48.6286 17.3862 48.6286C15.5161 48.6286 14 47.1144 14 45.2473V18.7534C14 16.8864 15.5161 15.3721 17.3862 15.3721C19.2568 15.3721 20.7734 16.8868 20.7734 18.7534V27.2155L35.0288 12.9811C36.333 11.679 38.502 11.667 39.8184 12.9811L49.7007 22.8475C51.0234 24.1677 51.0229 26.3091 49.7007 27.6293C48.3784 28.9494 46.2329 28.9499 44.9106 27.6293L37.4233 20.154L25.5601 32ZM37.4287 28.6152C39.3003 28.6152 40.8184 30.131 40.8184 31.9996C40.8184 33.8688 39.3003 35.3846 37.4287 35.3846C35.5566 35.3846 34.0381 33.8688 34.0381 31.9996C34.0381 30.131 35.5566 28.6152 37.4287 28.6152Z" fill="#EDF0F5"/>
</svg>
