<svg width="64" height="64" viewBox="0 0 64 64" fill="none" xmlns="http://www.w3.org/2000/svg">
<circle cx="32" cy="32" r="32" fill="#EDF0F5"/>
<path d="M15.9092 29.2666H29.5666C31.1393 29.2666 31.1773 29.2666 31.1773 27.6559V1.6467C31.1773 0.0206454 31.2459 -0.025157 32.8491 0.00536238C34.4523 0.0359283 35.9027 0.0511647 37.4295 0.00536238C38.2768 0.00536238 38.6205 0.234374 38.6205 1.11995V30.8545C38.6205 32.0194 38.0088 32.0091 37.343 31.9978C37.2148 31.9957 37.0843 31.9934 36.9561 31.9996C36.0936 31.9996 35.6738 31.7248 35.6738 30.6942C35.9441 25.1379 35.852 19.5785 35.7599 14.0181L35.7592 13.9732C35.7037 10.595 35.6477 7.21632 35.6738 3.83766C35.6738 3.23459 35.6127 2.746 34.834 2.76124C34.0553 2.77652 33.9715 3.24983 33.9715 3.8453V30.7171C33.9715 31.6714 33.75 32.0072 32.7421 31.992C29.5513 31.9309 26.3527 31.8698 23.1615 31.992C20.644 32.1014 18.6482 30.9053 16.6178 29.6888C16.3826 29.5477 16.1467 29.4063 15.9092 29.2666Z" transform="translate(7 16)" fill="#151923"/>
<path d="M7.65715 25.4954H19.6655C19.9473 25.4954 20.1888 25.5042 20.3957 25.5117C21.596 25.5552 21.634 25.5566 21.6273 23.564C21.6273 18.3067 21.6094 13.0417 21.574 7.76921C21.574 6.03627 21.6657 5.96754 23.4135 6.00575H27.7651C28.5971 6.00575 28.956 6.26528 28.956 7.14321V27.1749C28.956 27.9383 28.7879 28.4421 27.9101 28.2666C27.7278 28.232 27.5314 28.2334 27.3379 28.2349C26.721 28.2395 26.1369 28.2439 26.1544 27.0757C26.2051 23.3339 26.1883 19.5922 26.1719 15.8527L26.1715 15.7931C26.163 13.9143 26.1544 12.0361 26.1544 10.1587C26.1544 10.0987 26.1563 10.0377 26.1585 9.97634L26.1592 9.94881C26.1745 9.52619 26.1898 9.09086 25.6735 8.86851C24.8643 8.51733 24.2917 8.94484 24.2839 9.97541V26.9917C24.2839 27.9078 24.1083 28.32 23.0549 28.2971C21.0954 28.2513 19.1321 28.2666 17.1702 28.2819L17.1501 28.282C16.1761 28.2895 15.2028 28.2971 14.2299 28.2971C12.6107 28.2971 11.2486 27.5982 9.8866 26.8992L9.88362 26.8976C9.12096 26.5062 8.3583 26.115 7.55017 25.8466L7.65715 25.4954Z" transform="translate(7 16)" fill="#151923"/>
<path d="M9.76396 22.0067H0C0.323925 22.1784 0.644867 22.3547 0.965064 22.5305C2.89407 23.59 4.79028 24.6317 7.06894 24.5335C8.44813 24.4877 9.83031 24.503 11.214 24.5182C11.9062 24.5259 12.5984 24.5335 13.291 24.5335C14.2147 24.5564 14.52 24.2053 14.52 23.2968V16.075C14.52 15.3498 14.52 14.7543 15.5353 14.739C16.5507 14.7238 16.5507 15.365 16.5507 16.0674V23.4113C16.5429 24.3885 17.0696 24.5259 17.9094 24.5335C18.7492 24.5412 19.1231 24.3121 19.1231 23.4189C19.0925 19.9785 19.0925 16.5356 19.1231 13.0901C19.1231 12.2503 18.7414 12.0595 17.978 12.0595C16.3599 12.1129 14.7414 12.1206 13.1229 12.0595C12.2525 12.029 11.9625 12.3343 11.9625 13.2046V19.8004C11.955 21.8158 11.7642 22.0067 9.76396 22.0067Z" transform="translate(7 16)" fill="#151923"/>
</svg>
