<svg width="64" height="64" viewBox="0 0 64 64" fill="none" xmlns="http://www.w3.org/2000/svg">
<path d="M32.3833 23.2305H23.1646L35.9946 36.0618C37.0068 35.4434 37.8428 34.5753 38.4229 33.5408C39.0029 32.5064 39.3076 31.3403 39.3071 30.1543C39.3071 29.2451 39.1284 28.3447 38.7803 27.5046C38.4321 26.6646 37.9224 25.9014 37.2793 25.2584C36.6362 24.6155 35.873 24.1055 35.0332 23.7575C34.1929 23.4095 33.2925 23.2305 32.3833 23.2305Z" fill="#EDF0F5"/>
<path fill-rule="evenodd" clip-rule="evenodd" d="M32 0C49.6733 0 64 14.3269 64 32C64 49.6731 49.6733 64 32 64C14.3267 64 0 49.6731 0 32C0 14.3269 14.3267 0 32 0ZM42.7349 42.8008L49.9331 50H19V48.4614H46.2261L41.4756 43.711C38.8618 45.4119 35.8096 46.3153 32.6914 46.3112H19V44.7725H32.3833C35.166 44.7758 37.8916 43.9807 40.2358 42.4814L38.6699 40.9079C36.7637 42.0256 34.5933 42.6135 32.3833 42.6107H19V41.076H32.3833C34.1831 41.0787 35.9556 40.6343 37.541 39.783L35.6987 37.9406C34.6504 38.3873 33.5229 38.6169 32.3833 38.6155H19V37.0768H32.3833C33.103 37.077 33.8179 36.9649 34.5024 36.7445L19.4536 21.697H32.3833C34.6279 21.697 36.7803 22.5886 38.3672 24.1756C39.9546 25.7626 40.8457 27.9151 40.8457 30.1595C40.8467 31.5466 40.5063 32.9125 39.8545 34.137C39.2021 35.3613 38.2593 36.4065 37.1079 37.1802L38.873 38.9529C40.2495 37.9377 41.3682 36.613 42.1382 35.0857C42.9087 33.5583 43.3086 31.8713 43.3066 30.1608C43.3066 28.7263 43.0239 27.306 42.4751 25.9807C41.9263 24.6555 41.1216 23.4514 40.1069 22.4371C39.0928 21.4228 37.8887 20.6182 36.5635 20.0693C35.2383 19.5203 33.8179 19.2378 32.3833 19.2378H19V17.6992H32.3833C35.6885 17.6992 38.8579 19.0121 41.1953 21.3491C43.5322 23.6861 44.8452 26.8557 44.8452 30.1608C44.8467 32.0718 44.4077 33.9574 43.562 35.6713C42.7168 37.3851 41.4878 38.881 39.9707 40.0429L41.5039 41.5764C43.2202 40.2076 44.605 38.4691 45.5557 36.4905C46.5063 34.5119 46.998 32.3442 46.9941 30.1491C46.9941 26.2742 45.4546 22.5579 42.7148 19.8179C39.9746 17.0779 36.2583 15.5386 32.3833 15.5386H19V14H32.6914C36.9756 14 41.0845 15.702 44.1138 18.7315C47.1436 21.761 48.8457 25.8699 48.8457 30.1543C48.8472 32.5867 48.2983 34.9879 47.2402 37.178C46.1816 39.3682 44.6416 41.2905 42.7349 42.8008Z" fill="#EDF0F5"/>
</svg>
