<svg fill="none" height="31" viewBox="0 0 32 31" width="32" xmlns="http://www.w3.org/2000/svg"><ellipse cx="16" cy="15.5" fill="#151923" rx="16" ry="15.5"/><path d="m1 10-.894427 1.7889c-.0694279.1388-.105573.2919-.105573.4472v1.7639c0 .5523.447715 1 1 1h6c.55228 0 1-.4477 1-1v-3.4458c0-.3447-.17762-.66521-.47-.84795l-7.059999-4.4125c-.292381-.18274-.470001-.50321-.470001-.848v-3.44575c0-.552285.447715-1 1-1h6c.55228 0 1 .447715 1 1v1.76393c0 .15525-.03615.30836-.10557.44722l-.89443 1.78885" stroke="#fff" stroke-linecap="round" stroke-width="2" transform="translate(12 8)"/></svg>