<svg fill="none" height="592" viewBox="0 0 512 592" width="512" xmlns="http://www.w3.org/2000/svg"><g fill="#151923" fill-opacity=".02" transform="translate(0 -216.524)"><path d="m0 512.475 512.475-512.475 247.972 247.972-16.531 16.531-198.378-198.3771-66.126 66.1261-16.531-16.532 66.126-66.1256-16.532-16.5315-115.72 115.7201 33.063 33.063-49.594 49.594-16.532-16.531 33.063-33.063-16.531-16.531-115.721 115.72 49.595 49.594 49.594-49.594-16.531-16.532-33.063 33.063-16.532-16.531 49.595-49.595 33.063 33.063 82.657-82.657-33.063-33.063 16.531-16.531 33.063 33.063 66.126-66.1262 181.846 181.8462-16.531 16.531-66.126-66.125-66.126 66.125-33.063-33.063-16.531 16.532 115.72 115.72 16.532-16.531-66.126-66.126 16.531-16.532 82.658 82.658-49.595 49.594-148.783-148.783 49.594-49.595 33.063 33.063 49.595-49.594-82.658-82.657-148.783 148.783 33.063 33.063-115.72 115.72-66.126-66.126-16.532 16.532 82.658 82.657 132.252-132.252 16.531 16.532-66.126 66.126 115.72 115.72 66.126-66.126 16.532 16.531-33.063 33.063 82.657 82.658 16.532-16.532-33.063-33.063 16.531-16.531 99.189 99.189 49.594-49.595-16.531-16.531-33.063 33.063-16.531-16.532 33.062-33.063-66.125-66.126 16.531-16.531 33.063 33.063 33.063-33.063 16.531 16.531-33.063 33.063 49.595 49.595 82.657-82.658-66.126-66.125 16.532-16.532 82.657 82.657-165.315 165.315 33.063 33.063-82.657 82.657-49.594-49.594 16.531-16.531 33.063 33.062 49.594-49.594-82.657-82.657-99.189 99.189-49.594-49.595 16.531-16.531 33.063 33.063 49.595-49.595-82.658-82.657-115.72 115.72 33.063 33.063-49.594 49.594-16.532-16.531 33.063-33.063-33.063-33.063 33.063-33.063-33.063-33.063 16.532-16.531 33.063 33.063 49.594-49.595-115.72-115.72-49.595 49.594 33.063 33.063-16.531 16.532-132.252-132.252-49.594 49.594 33.062 33.063-16.531 16.532-49.594-49.595 115.72-115.72 66.126 66.126 82.657-82.657-16.531-16.532-66.126 66.126-66.126-66.126-148.7833 148.783 82.6573 82.658 49.594-49.595-33.063-33.063 16.532-16.531 132.252 132.252 49.594-49.595-33.063-33.063 16.532-16.531 82.657 82.657-16.531 16.532-33.063-33.063-49.595 49.594 33.063 33.063-33.063 33.063 33.063 33.063-33.063 33.063 49.595 49.594 82.657-82.657-33.063-33.063 82.657-82.657 49.595 49.594-16.532 16.532-33.063-33.063-49.594 49.594 82.657 82.657 99.189-99.188 49.595 49.594-16.532 16.532-33.063-33.063-49.594 49.594 66.126 66.126-115.721 115.72-49.594-49.594 33.063-33.063-66.126-66.126 16.531-16.532 66.126 66.126 33.063-33.063 16.532 16.532-66.126 66.126 16.531 16.531 82.658-82.657-49.595-49.595-33.063 33.063-66.126-66.125-132.251 132.251-115.721-115.72 49.595-49.594 16.531 16.531-33.063 33.063 82.658 82.657 16.531-16.531-66.126-66.126 33.063-33.063-33.063-33.063 33.063-33.063-115.72-115.72-66.126 66.126-66.126-66.126-33.0628 33.063-16.5312-16.532 33.0627-33.063-16.5315-16.531-49.5942 49.594 148.783 148.784 66.126-66.126 16.531 16.531-66.125 66.126 16.531 16.531 82.657-82.657-49.594-49.594-66.126 66.126-82.6573-82.658 16.5313-16.531 66.126 66.126 66.126-66.126 82.657 82.657-99.189 99.189 132.252 132.252-16.531 16.531z"/><path d="m760.447 281.035 16.531-16.531 247.972 247.972-512.475 512.474-148.783-148.782 16.531-16.532 33.063 33.063 33.063-33.063 49.594 49.595-16.531 16.531-33.063-33.063-16.532 16.532 82.658 82.657 49.594-49.594-16.531-16.532-33.063 33.063-16.532-16.531 33.063-33.063-66.126-66.126 33.063-33.063-16.531-16.532-66.126 66.126-16.531-16.531 82.657-82.657 49.594 49.594-33.063 33.063 82.658 82.657 247.972-247.972-33.063-33.063 148.783-148.783 16.531 16.532-132.251 132.251 16.531 16.532 148.783-148.783-148.783-148.783-49.594 49.594 66.125 66.126-49.594 49.594-16.531-16.531 33.063-33.063-49.595-49.595-33.063 33.063-33.063-33.063-49.594 49.595 66.126 66.126-16.532 16.531-66.125-66.126-33.063 33.063-16.532-16.531 33.063-33.063-49.594-49.595-66.126 66.126-82.658-82.657 66.126-66.126-66.126-66.126 115.721-115.72 49.594 49.594-16.531 16.532-33.063-33.063-82.658 82.657 99.189 99.189-49.594 49.594-16.532-16.531 33.063-33.063-16.531-16.531-49.595 49.594 49.595 49.594 66.126-66.126 66.126 66.126 82.657-82.657-99.189-99.189 16.532-16.531 66.125 66.126 33.063-33.063 49.595 49.594-16.532 16.532-33.063-33.063-16.531 16.531 33.063 33.063-33.063 33.063 16.531 16.531 82.658-82.657z"/></g></svg>