<svg width="1440" height="245" viewBox="0 0 1440 245" fill="none" xmlns="http://www.w3.org/2000/svg">
<mask id="mask0" mask-type="alpha" maskUnits="userSpaceOnUse" x="0" y="0" width="1440" height="245">
<rect width="1440" height="245" fill="#151923"/>
</mask>
<g mask="url(#mask0)">
<rect width="1440" height="277" fill="#151923"/>
<path d="M1.33668 20.0741L12.1299 13.5982C13.0335 13.056 13.5864 12.0795 13.5864 11.0257V3.45589C13.5864 2.67859 12.7384 2.19848 12.0719 2.59839L1.33668 9.03952C0.386632 9.60955 -0.800249 9.60955 -1.7503 9.03952L-12.4855 2.5984C-13.152 2.19848 -14 2.67859 -14 3.45589V11.0257C-14 12.0795 -13.4471 13.056 -12.5435 13.5982L-1.7503 20.0741C-0.800249 20.6441 0.386632 20.6441 1.33668 20.0741Z" fill="#3D4158"/>
<path d="M-12.5708 -3.58158L-1.7503 -10.0739C-0.800249 -10.6439 0.386633 -10.6439 1.33668 -10.0739L12.1572 -3.58158C12.8046 -3.19317 12.8046 -2.25499 12.1572 -1.86659L1.33668 4.62574C0.386632 5.19577 -0.80025 5.19577 -1.7503 4.62574L-12.5708 -1.86659C-13.2182 -2.25499 -13.2182 -3.19317 -12.5708 -3.58158Z" fill="#656C8C"/>
<path d="M33.3367 20.0741L44.1299 13.5982C45.0335 13.056 45.5864 12.0795 45.5864 11.0257V3.45589C45.5864 2.67859 44.7384 2.19848 44.0719 2.59839L33.3367 9.03952C32.3866 9.60955 31.1998 9.60955 30.2497 9.03952L19.5145 2.5984C18.848 2.19848 18 2.67859 18 3.45589V11.0257C18 12.0795 18.5529 13.056 19.4565 13.5982L30.2497 20.0741C31.1998 20.6441 32.3866 20.6441 33.3367 20.0741Z" fill="#3D4158"/>
<path d="M17.3367 48.0741L28.1299 41.5982C29.0335 41.056 29.5864 40.0795 29.5864 39.0257V31.4559C29.5864 30.6786 28.7384 30.1985 28.0719 30.5984L17.3367 37.0395C16.3866 37.6095 15.1998 37.6095 14.2497 37.0395L3.5145 30.5984C2.84797 30.1985 2 30.6786 2 31.4559V39.0257C2 40.0795 2.5529 41.056 3.45651 41.5982L14.2497 48.0741C15.1998 48.6441 16.3866 48.6441 17.3367 48.0741Z" fill="#3D4158"/>
<path d="M19.4292 -3.58158L30.2497 -10.0739C31.1998 -10.6439 32.3866 -10.6439 33.3367 -10.0739L44.1572 -3.58158C44.8046 -3.19317 44.8046 -2.25499 44.1572 -1.86659L33.3367 4.62574C32.3866 5.19577 31.1997 5.19577 30.2497 4.62574L19.4292 -1.86659C18.7818 -2.25499 18.7818 -3.19317 19.4292 -3.58158Z" fill="#656C8C"/>
<path d="M3.42915 24.4184L14.2497 17.9261C15.1998 17.3561 16.3866 17.3561 17.3367 17.9261L28.1572 24.4184C28.8046 24.8068 28.8046 25.745 28.1572 26.1334L17.3367 32.6257C16.3866 33.1958 15.1997 33.1958 14.2497 32.6257L3.42915 26.1334C2.78182 25.745 2.78182 24.8068 3.42915 24.4184Z" fill="#656C8C"/>
<path d="M65.3367 20.0741L76.1299 13.5982C77.0335 13.056 77.5864 12.0795 77.5864 11.0257V3.45589C77.5864 2.67859 76.7384 2.19848 76.0719 2.59839L65.3367 9.03952C64.3866 9.60955 63.1998 9.60955 62.2497 9.03952L51.5145 2.5984C50.848 2.19848 50 2.67859 50 3.45589V11.0257C50 12.0795 50.5529 13.056 51.4565 13.5982L62.2497 20.0741C63.1998 20.6441 64.3866 20.6441 65.3367 20.0741Z" fill="#3D4158"/>
<path d="M51.4292 -3.58158L62.2497 -10.0739C63.1998 -10.6439 64.3866 -10.6439 65.3367 -10.0739L76.1572 -3.58158C76.8046 -3.19317 76.8046 -2.25499 76.1572 -1.86659L65.3367 4.62574C64.3866 5.19577 63.1997 5.19577 62.2497 4.62574L51.4292 -1.86659C50.7818 -2.25499 50.7818 -3.19317 51.4292 -3.58158Z" fill="#656C8C"/>
<path d="M97.3367 20.0741L108.13 13.5982C109.033 13.056 109.586 12.0795 109.586 11.0257V3.45589C109.586 2.67859 108.738 2.19848 108.072 2.59839L97.3367 9.03952C96.3866 9.60955 95.1998 9.60955 94.2497 9.03952L83.5145 2.5984C82.848 2.19848 82 2.67859 82 3.45589V11.0257C82 12.0795 82.5529 13.056 83.4565 13.5982L94.2497 20.0741C95.1998 20.6441 96.3866 20.6441 97.3367 20.0741Z" fill="#3D4158"/>
<path d="M83.4292 -3.58158L94.2497 -10.0739C95.1998 -10.6439 96.3866 -10.6439 97.3367 -10.0739L108.157 -3.58158C108.805 -3.19317 108.805 -2.25499 108.157 -1.86659L97.3367 4.62574C96.3866 5.19577 95.1997 5.19577 94.2497 4.62574L83.4292 -1.86659C82.7818 -2.25499 82.7818 -3.19317 83.4292 -3.58158Z" fill="#656C8C"/>
<path d="M81.3367 48.0741L92.1299 41.5982C93.0335 41.056 93.5864 40.0795 93.5864 39.0257V31.4559C93.5864 30.6786 92.7384 30.1985 92.0719 30.5984L81.3367 37.0395C80.3866 37.6095 79.1998 37.6095 78.2497 37.0395L67.5145 30.5984C66.848 30.1985 66 30.6786 66 31.4559V39.0257C66 40.0795 66.5529 41.056 67.4565 41.5982L78.2497 48.0741C79.1998 48.6441 80.3866 48.6441 81.3367 48.0741Z" fill="#3D4158"/>
<path d="M67.4292 24.4184L78.2497 17.9261C79.1998 17.3561 80.3866 17.3561 81.3367 17.9261L92.1572 24.4184C92.8046 24.8068 92.8046 25.745 92.1572 26.1334L81.3367 32.6257C80.3866 33.1958 79.1997 33.1958 78.2497 32.6257L67.4292 26.1334C66.7818 25.745 66.7818 24.8068 67.4292 24.4184Z" fill="#656C8C"/>
<path d="M49.3367 48.0741L60.1299 41.5982C61.0335 41.056 61.5864 40.0795 61.5864 39.0257V31.4559C61.5864 30.6786 60.7384 30.1985 60.0719 30.5984L49.3367 37.0395C48.3866 37.6095 47.1998 37.6095 46.2497 37.0395L35.5145 30.5984C34.848 30.1985 34 30.6786 34 31.4559V39.0257C34 40.0795 34.5529 41.056 35.4565 41.5982L46.2497 48.0741C47.1998 48.6441 48.3866 48.6441 49.3367 48.0741Z" fill="#3D4158"/>
<path d="M35.4292 24.4184L46.2497 17.9261C47.1998 17.3561 48.3866 17.3561 49.3367 17.9261L60.1572 24.4184C60.8046 24.8068 60.8046 25.745 60.1572 26.1334L49.3367 32.6257C48.3866 33.1958 47.1997 33.1958 46.2497 32.6257L35.4292 26.1334C34.7818 25.745 34.7818 24.8068 35.4292 24.4184Z" fill="#656C8C"/>
<path d="M1.33668 76.0741L12.1299 69.5982C13.0335 69.056 13.5864 68.0795 13.5864 67.0257V59.4559C13.5864 58.6786 12.7384 58.1985 12.0719 58.5984L1.33668 65.0395C0.386632 65.6095 -0.800249 65.6095 -1.7503 65.0395L-12.4855 58.5984C-13.152 58.1985 -14 58.6786 -14 59.4559V67.0257C-14 68.0795 -13.4471 69.056 -12.5435 69.5982L-1.7503 76.0741C-0.800249 76.6441 0.386632 76.6441 1.33668 76.0741Z" fill="#3D4158"/>
<path d="M-12.5708 52.4184L-1.7503 45.9261C-0.800249 45.3561 0.386633 45.3561 1.33668 45.9261L12.1572 52.4184C12.8046 52.8068 12.8046 53.745 12.1572 54.1334L1.33668 60.6257C0.386632 61.1958 -0.80025 61.1958 -1.7503 60.6257L-12.5708 54.1334C-13.2182 53.745 -13.2182 52.8068 -12.5708 52.4184Z" fill="#656C8C"/>
<path d="M33.3367 76.0741L44.1299 69.5982C45.0335 69.056 45.5864 68.0795 45.5864 67.0257V59.4559C45.5864 58.6786 44.7384 58.1985 44.0719 58.5984L33.3367 65.0395C32.3866 65.6095 31.1998 65.6095 30.2497 65.0395L19.5145 58.5984C18.848 58.1985 18 58.6786 18 59.4559V67.0257C18 68.0795 18.5529 69.056 19.4565 69.5982L30.2497 76.0741C31.1998 76.6441 32.3866 76.6441 33.3367 76.0741Z" fill="#3D4158"/>
<path d="M19.4292 52.4184L30.2497 45.9261C31.1998 45.3561 32.3866 45.3561 33.3367 45.9261L44.1572 52.4184C44.8046 52.8068 44.8046 53.745 44.1572 54.1334L33.3367 60.6257C32.3866 61.1958 31.1997 61.1958 30.2497 60.6257L19.4292 54.1334C18.7818 53.745 18.7818 52.8068 19.4292 52.4184Z" fill="#656C8C"/>
<path d="M17.3367 104.074L28.1299 97.5982C29.0335 97.056 29.5864 96.0795 29.5864 95.0257V87.4559C29.5864 86.6786 28.7384 86.1985 28.0719 86.5984L17.3367 93.0395C16.3866 93.6095 15.1998 93.6095 14.2497 93.0395L3.5145 86.5984C2.84797 86.1985 2 86.6786 2 87.4559V95.0257C2 96.0795 2.5529 97.056 3.45651 97.5982L14.2497 104.074C15.1998 104.644 16.3866 104.644 17.3367 104.074Z" fill="#3D4158"/>
<path d="M3.42915 80.4184L14.2497 73.9261C15.1998 73.3561 16.3866 73.3561 17.3367 73.9261L28.1572 80.4184C28.8046 80.8068 28.8046 81.745 28.1572 82.1334L17.3367 88.6257C16.3866 89.1958 15.1997 89.1958 14.2497 88.6257L3.42915 82.1334C2.78182 81.745 2.78182 80.8068 3.42915 80.4184Z" fill="#656C8C"/>
<path d="M65.3367 76.0741L76.1299 69.5982C77.0335 69.056 77.5864 68.0795 77.5864 67.0257V59.4559C77.5864 58.6786 76.7384 58.1985 76.0719 58.5984L65.3367 65.0395C64.3866 65.6095 63.1998 65.6095 62.2497 65.0395L51.5145 58.5984C50.848 58.1985 50 58.6786 50 59.4559V67.0257C50 68.0795 50.5529 69.056 51.4565 69.5982L62.2497 76.0741C63.1998 76.6441 64.3866 76.6441 65.3367 76.0741Z" fill="#3D4158"/>
<path d="M51.4292 52.4184L62.2497 45.9261C63.1998 45.3561 64.3866 45.3561 65.3367 45.9261L76.1572 52.4184C76.8046 52.8068 76.8046 53.745 76.1572 54.1334L65.3367 60.6257C64.3866 61.1958 63.1997 61.1958 62.2497 60.6257L51.4292 54.1334C50.7818 53.745 50.7818 52.8068 51.4292 52.4184Z" fill="#656C8C"/>
<path d="M97.3367 76.0741L108.13 69.5982C109.033 69.056 109.586 68.0795 109.586 67.0257V59.4559C109.586 58.6786 108.738 58.1985 108.072 58.5984L97.3367 65.0395C96.3866 65.6095 95.1998 65.6095 94.2497 65.0395L83.5145 58.5984C82.848 58.1985 82 58.6786 82 59.4559V67.0257C82 68.0795 82.5529 69.056 83.4565 69.5982L94.2497 76.0741C95.1998 76.6441 96.3866 76.6441 97.3367 76.0741Z" fill="#3D4158"/>
<path d="M83.4292 52.4184L94.2497 45.9261C95.1998 45.3561 96.3866 45.3561 97.3367 45.9261L108.157 52.4184C108.805 52.8068 108.805 53.745 108.157 54.1334L97.3367 60.6257C96.3866 61.1958 95.1997 61.1958 94.2497 60.6257L83.4292 54.1334C82.7818 53.745 82.7818 52.8068 83.4292 52.4184Z" fill="#656C8C"/>
<path d="M129.337 76.0741L140.13 69.5982C141.033 69.056 141.586 68.0795 141.586 67.0257V59.4559C141.586 58.6786 140.738 58.1985 140.072 58.5984L129.337 65.0395C128.387 65.6095 127.2 65.6095 126.25 65.0395L115.514 58.5984C114.848 58.1985 114 58.6786 114 59.4559V67.0257C114 68.0795 114.553 69.056 115.457 69.5982L126.25 76.0741C127.2 76.6441 128.387 76.6441 129.337 76.0741Z" fill="#3D4158"/>
<path d="M115.429 52.4184L126.25 45.9261C127.2 45.3561 128.387 45.3561 129.337 45.9261L140.157 52.4184C140.805 52.8068 140.805 53.745 140.157 54.1334L129.337 60.6257C128.387 61.1958 127.2 61.1958 126.25 60.6257L115.429 54.1334C114.782 53.745 114.782 52.8068 115.429 52.4184Z" fill="#656C8C"/>
<path d="M161.337 76.0741L172.13 69.5982C173.033 69.056 173.586 68.0795 173.586 67.0257V59.4559C173.586 58.6786 172.738 58.1985 172.072 58.5984L161.337 65.0395C160.387 65.6095 159.2 65.6095 158.25 65.0395L147.514 58.5984C146.848 58.1985 146 58.6786 146 59.4559V67.0257C146 68.0795 146.553 69.056 147.457 69.5982L158.25 76.0741C159.2 76.6441 160.387 76.6441 161.337 76.0741Z" fill="#3D4158"/>
<path d="M147.429 52.4184L158.25 45.9261C159.2 45.3561 160.387 45.3561 161.337 45.9261L172.157 52.4184C172.805 52.8068 172.805 53.745 172.157 54.1334L161.337 60.6257C160.387 61.1958 159.2 61.1958 158.25 60.6257L147.429 54.1334C146.782 53.745 146.782 52.8068 147.429 52.4184Z" fill="#656C8C"/>
<path d="M177.337 48.0741L188.13 41.5982C189.033 41.056 189.586 40.0795 189.586 39.0257V31.4559C189.586 30.6786 188.738 30.1985 188.072 30.5984L177.337 37.0395C176.387 37.6095 175.2 37.6095 174.25 37.0395L163.514 30.5984C162.848 30.1985 162 30.6786 162 31.4559V39.0257C162 40.0795 162.553 41.056 163.457 41.5982L174.25 48.0741C175.2 48.6441 176.387 48.6441 177.337 48.0741Z" fill="#3D4158"/>
<path d="M163.429 24.4184L174.25 17.9261C175.2 17.3561 176.387 17.3561 177.337 17.9261L188.157 24.4184C188.805 24.8068 188.805 25.745 188.157 26.1334L177.337 32.6257C176.387 33.1958 175.2 33.1958 174.25 32.6257L163.429 26.1334C162.782 25.745 162.782 24.8068 163.429 24.4184Z" fill="#656C8C"/>
<path d="M193.337 76.0741L204.13 69.5982C205.033 69.056 205.586 68.0795 205.586 67.0257V59.4559C205.586 58.6786 204.738 58.1985 204.072 58.5984L193.337 65.0395C192.387 65.6095 191.2 65.6095 190.25 65.0395L179.514 58.5984C178.848 58.1985 178 58.6786 178 59.4559V67.0257C178 68.0795 178.553 69.056 179.457 69.5982L190.25 76.0741C191.2 76.6441 192.387 76.6441 193.337 76.0741Z" fill="#3D4158"/>
<path d="M179.429 52.4184L190.25 45.9261C191.2 45.3561 192.387 45.3561 193.337 45.9261L204.157 52.4184C204.805 52.8068 204.805 53.745 204.157 54.1334L193.337 60.6257C192.387 61.1958 191.2 61.1958 190.25 60.6257L179.429 54.1334C178.782 53.745 178.782 52.8068 179.429 52.4184Z" fill="#656C8C"/>
<path d="M145.337 104.074L156.13 97.5982C157.033 97.056 157.586 96.0795 157.586 95.0257V87.4559C157.586 86.6786 156.738 86.1985 156.072 86.5984L145.337 93.0395C144.387 93.6095 143.2 93.6095 142.25 93.0395L131.514 86.5984C130.848 86.1985 130 86.6786 130 87.4559V95.0257C130 96.0795 130.553 97.056 131.457 97.5982L142.25 104.074C143.2 104.644 144.387 104.644 145.337 104.074Z" fill="#3D4158"/>
<path d="M131.429 80.4184L142.25 73.9261C143.2 73.3561 144.387 73.3561 145.337 73.9261L156.157 80.4184C156.805 80.8068 156.805 81.745 156.157 82.1334L145.337 88.6257C144.387 89.1958 143.2 89.1958 142.25 88.6257L131.429 82.1334C130.782 81.745 130.782 80.8068 131.429 80.4184Z" fill="#656C8C"/>
<path d="M160.337 132.074L171.13 125.598C172.033 125.056 172.586 124.079 172.586 123.026V115.456C172.586 114.679 171.738 114.198 171.072 114.598L160.337 121.04C159.387 121.61 158.2 121.61 157.25 121.04L146.514 114.598C145.848 114.198 145 114.679 145 115.456V123.026C145 124.079 145.553 125.056 146.457 125.598L157.25 132.074C158.2 132.644 159.387 132.644 160.337 132.074Z" fill="#3D4158"/>
<path d="M146.429 108.418L157.25 101.926C158.2 101.356 159.387 101.356 160.337 101.926L171.157 108.418C171.805 108.807 171.805 109.745 171.157 110.133L160.337 116.626C159.387 117.196 158.2 117.196 157.25 116.626L146.429 110.133C145.782 109.745 145.782 108.807 146.429 108.418Z" fill="#656C8C"/>
<path d="M129.337 188.074L140.13 181.598C141.033 181.056 141.586 180.079 141.586 179.026V171.456C141.586 170.679 140.738 170.198 140.072 170.598L129.337 177.04C128.387 177.61 127.2 177.61 126.25 177.04L115.514 170.598C114.848 170.198 114 170.679 114 171.456V179.026C114 180.079 114.553 181.056 115.457 181.598L126.25 188.074C127.2 188.644 128.387 188.644 129.337 188.074Z" fill="#3D4158"/>
<path d="M115.429 164.418L126.25 157.926C127.2 157.356 128.387 157.356 129.337 157.926L140.157 164.418C140.805 164.807 140.805 165.745 140.157 166.133L129.337 172.626C128.387 173.196 127.2 173.196 126.25 172.626L115.429 166.133C114.782 165.745 114.782 164.807 115.429 164.418Z" fill="#656C8C"/>
<path d="M99.4292 248.418L110.25 241.926C111.2 241.356 112.387 241.356 113.337 241.926L124.157 248.418C124.805 248.807 124.805 249.745 124.157 250.133L113.337 256.626C112.387 257.196 111.2 257.196 110.25 256.626L99.4292 250.133C98.7818 249.745 98.7818 248.807 99.4292 248.418Z" fill="#656C8C"/>
<path d="M131.429 248.418L142.25 241.926C143.2 241.356 144.387 241.356 145.337 241.926L156.157 248.418C156.805 248.807 156.805 249.745 156.157 250.133L145.337 256.626C144.387 257.196 143.2 257.196 142.25 256.626L131.429 250.133C130.782 249.745 130.782 248.807 131.429 248.418Z" fill="#656C8C"/>
<path d="M161.337 244.074L172.13 237.598C173.033 237.056 173.586 236.079 173.586 235.026V227.456C173.586 226.679 172.738 226.198 172.072 226.598L161.337 233.04C160.387 233.61 159.2 233.61 158.25 233.04L147.514 226.598C146.848 226.198 146 226.679 146 227.456V235.026C146 236.079 146.553 237.056 147.457 237.598L158.25 244.074C159.2 244.644 160.387 244.644 161.337 244.074Z" fill="#3D4158"/>
<path d="M147.429 220.418L158.25 213.926C159.2 213.356 160.387 213.356 161.337 213.926L172.157 220.418C172.805 220.807 172.805 221.745 172.157 222.133L161.337 228.626C160.387 229.196 159.2 229.196 158.25 228.626L147.429 222.133C146.782 221.745 146.782 220.807 147.429 220.418Z" fill="#656C8C"/>
<path d="M113.337 104.074L124.13 97.5982C125.033 97.056 125.586 96.0795 125.586 95.0257V87.4559C125.586 86.6786 124.738 86.1985 124.072 86.5984L113.337 93.0395C112.387 93.6095 111.2 93.6095 110.25 93.0395L99.5145 86.5984C98.848 86.1985 98 86.6786 98 87.4559V95.0257C98 96.0795 98.5529 97.056 99.4565 97.5982L110.25 104.074C111.2 104.644 112.387 104.644 113.337 104.074Z" fill="#3D4158"/>
<path d="M99.4292 80.4184L110.25 73.9261C111.2 73.3561 112.387 73.3561 113.337 73.9261L124.157 80.4184C124.805 80.8068 124.805 81.745 124.157 82.1334L113.337 88.6257C112.387 89.1958 111.2 89.1958 110.25 88.6257L99.4292 82.1334C98.7818 81.745 98.7818 80.8068 99.4292 80.4184Z" fill="#656C8C"/>
<path d="M81.3367 104.074L92.1299 97.5982C93.0335 97.056 93.5864 96.0795 93.5864 95.0257V87.4559C93.5864 86.6786 92.7384 86.1985 92.0719 86.5984L81.3367 93.0395C80.3866 93.6095 79.1998 93.6095 78.2497 93.0395L67.5145 86.5984C66.848 86.1985 66 86.6786 66 87.4559V95.0257C66 96.0795 66.5529 97.056 67.4565 97.5982L78.2497 104.074C79.1998 104.644 80.3866 104.644 81.3367 104.074Z" fill="#3D4158"/>
<path d="M67.4292 80.4184L78.2497 73.9261C79.1998 73.3561 80.3866 73.3561 81.3367 73.9261L92.1572 80.4184C92.8046 80.8068 92.8046 81.745 92.1572 82.1334L81.3367 88.6257C80.3866 89.1958 79.1997 89.1958 78.2497 88.6257L67.4292 82.1334C66.7818 81.745 66.7818 80.8068 67.4292 80.4184Z" fill="#656C8C"/>
<path d="M49.3367 104.074L60.1299 97.5982C61.0335 97.056 61.5864 96.0795 61.5864 95.0257V87.4559C61.5864 86.6786 60.7384 86.1985 60.0719 86.5984L49.3367 93.0395C48.3866 93.6095 47.1998 93.6095 46.2497 93.0395L35.5145 86.5984C34.848 86.1985 34 86.6786 34 87.4559V95.0257C34 96.0795 34.5529 97.056 35.4565 97.5982L46.2497 104.074C47.1998 104.644 48.3866 104.644 49.3367 104.074Z" fill="#3D4158"/>
<path d="M35.4292 80.4184L46.2497 73.9261C47.1998 73.3561 48.3866 73.3561 49.3367 73.9261L60.1572 80.4184C60.8046 80.8068 60.8046 81.745 60.1572 82.1334L49.3367 88.6257C48.3866 89.1958 47.1997 89.1958 46.2497 88.6257L35.4292 82.1334C34.7818 81.745 34.7818 80.8068 35.4292 80.4184Z" fill="#656C8C"/>
<path d="M1.33668 132.074L12.1299 125.598C13.0335 125.056 13.5864 124.079 13.5864 123.026V115.456C13.5864 114.679 12.7384 114.198 12.0719 114.598L1.33668 121.04C0.386632 121.61 -0.800249 121.61 -1.7503 121.04L-12.4855 114.598C-13.152 114.198 -14 114.679 -14 115.456V123.026C-14 124.079 -13.4471 125.056 -12.5435 125.598L-1.7503 132.074C-0.800249 132.644 0.386632 132.644 1.33668 132.074Z" fill="#3D4158"/>
<path d="M-12.5708 108.418L-1.7503 101.926C-0.800249 101.356 0.386633 101.356 1.33668 101.926L12.1572 108.418C12.8046 108.807 12.8046 109.745 12.1572 110.133L1.33668 116.626C0.386632 117.196 -0.80025 117.196 -1.7503 116.626L-12.5708 110.133C-13.2182 109.745 -13.2182 108.807 -12.5708 108.418Z" fill="#656C8C"/>
<path d="M33.3367 132.074L44.1299 125.598C45.0335 125.056 45.5864 124.079 45.5864 123.026V115.456C45.5864 114.679 44.7384 114.198 44.0719 114.598L33.3367 121.04C32.3866 121.61 31.1998 121.61 30.2497 121.04L19.5145 114.598C18.848 114.198 18 114.679 18 115.456V123.026C18 124.079 18.5529 125.056 19.4565 125.598L30.2497 132.074C31.1998 132.644 32.3866 132.644 33.3367 132.074Z" fill="#3D4158"/>
<path d="M19.4292 108.418L30.2497 101.926C31.1998 101.356 32.3866 101.356 33.3367 101.926L44.1572 108.418C44.8046 108.807 44.8046 109.745 44.1572 110.133L33.3367 116.626C32.3866 117.196 31.1997 117.196 30.2497 116.626L19.4292 110.133C18.7818 109.745 18.7818 108.807 19.4292 108.418Z" fill="#656C8C"/>
<path d="M17.3367 160.074L28.1299 153.598C29.0335 153.056 29.5864 152.079 29.5864 151.026V143.456C29.5864 142.679 28.7384 142.198 28.0719 142.598L17.3367 149.04C16.3866 149.61 15.1998 149.61 14.2497 149.04L3.5145 142.598C2.84797 142.198 2 142.679 2 143.456V151.026C2 152.079 2.5529 153.056 3.45651 153.598L14.2497 160.074C15.1998 160.644 16.3866 160.644 17.3367 160.074Z" fill="#3D4158"/>
<path d="M3.42915 136.418L14.2497 129.926C15.1998 129.356 16.3866 129.356 17.3367 129.926L28.1572 136.418C28.8046 136.807 28.8046 137.745 28.1572 138.133L17.3367 144.626C16.3866 145.196 15.1997 145.196 14.2497 144.626L3.42915 138.133C2.78182 137.745 2.78182 136.807 3.42915 136.418Z" fill="#656C8C"/>
<path d="M65.3367 132.074L76.1299 125.598C77.0335 125.056 77.5864 124.079 77.5864 123.026V115.456C77.5864 114.679 76.7384 114.198 76.0719 114.598L65.3367 121.04C64.3866 121.61 63.1998 121.61 62.2497 121.04L51.5145 114.598C50.848 114.198 50 114.679 50 115.456V123.026C50 124.079 50.5529 125.056 51.4565 125.598L62.2497 132.074C63.1998 132.644 64.3866 132.644 65.3367 132.074Z" fill="#3D4158"/>
<path d="M51.4292 108.418L62.2497 101.926C63.1998 101.356 64.3866 101.356 65.3367 101.926L76.1572 108.418C76.8046 108.807 76.8046 109.745 76.1572 110.133L65.3367 116.626C64.3866 117.196 63.1997 117.196 62.2497 116.626L51.4292 110.133C50.7818 109.745 50.7818 108.807 51.4292 108.418Z" fill="#656C8C"/>
<path d="M97.3367 132.074L108.13 125.598C109.033 125.056 109.586 124.079 109.586 123.026V115.456C109.586 114.679 108.738 114.198 108.072 114.598L97.3367 121.04C96.3866 121.61 95.1998 121.61 94.2497 121.04L83.5145 114.598C82.848 114.198 82 114.679 82 115.456V123.026C82 124.079 82.5529 125.056 83.4565 125.598L94.2497 132.074C95.1998 132.644 96.3866 132.644 97.3367 132.074Z" fill="#3D4158"/>
<path d="M83.4292 108.418L94.2497 101.926C95.1998 101.356 96.3866 101.356 97.3367 101.926L108.157 108.418C108.805 108.807 108.805 109.745 108.157 110.133L97.3367 116.626C96.3866 117.196 95.1997 117.196 94.2497 116.626L83.4292 110.133C82.7818 109.745 82.7818 108.807 83.4292 108.418Z" fill="#656C8C"/>
<path d="M81.3367 160.074L92.1299 153.598C93.0335 153.056 93.5864 152.079 93.5864 151.026V143.456C93.5864 142.679 92.7384 142.198 92.0719 142.598L81.3367 149.04C80.3866 149.61 79.1998 149.61 78.2497 149.04L67.5145 142.598C66.848 142.198 66 142.679 66 143.456V151.026C66 152.079 66.5529 153.056 67.4565 153.598L78.2497 160.074C79.1998 160.644 80.3866 160.644 81.3367 160.074Z" fill="#3D4158"/>
<path d="M67.4292 136.418L78.2497 129.926C79.1998 129.356 80.3866 129.356 81.3367 129.926L92.1572 136.418C92.8046 136.807 92.8046 137.745 92.1572 138.133L81.3367 144.626C80.3866 145.196 79.1997 145.196 78.2497 144.626L67.4292 138.133C66.7818 137.745 66.7818 136.807 67.4292 136.418Z" fill="#656C8C"/>
<path d="M49.3367 160.074L60.1299 153.598C61.0335 153.056 61.5864 152.079 61.5864 151.026V143.456C61.5864 142.679 60.7384 142.198 60.0719 142.598L49.3367 149.04C48.3866 149.61 47.1998 149.61 46.2497 149.04L35.5145 142.598C34.848 142.198 34 142.679 34 143.456V151.026C34 152.079 34.5529 153.056 35.4565 153.598L46.2497 160.074C47.1998 160.644 48.3866 160.644 49.3367 160.074Z" fill="#3D4158"/>
<path d="M35.4292 136.418L46.2497 129.926C47.1998 129.356 48.3866 129.356 49.3367 129.926L60.1572 136.418C60.8046 136.807 60.8046 137.745 60.1572 138.133L49.3367 144.626C48.3866 145.196 47.1997 145.196 46.2497 144.626L35.4292 138.133C34.7818 137.745 34.7818 136.807 35.4292 136.418Z" fill="#656C8C"/>
<path d="M1.33668 188.074L12.1299 181.598C13.0335 181.056 13.5864 180.079 13.5864 179.026V171.456C13.5864 170.679 12.7384 170.198 12.0719 170.598L1.33668 177.04C0.386632 177.61 -0.800249 177.61 -1.7503 177.04L-12.4855 170.598C-13.152 170.198 -14 170.679 -14 171.456V179.026C-14 180.079 -13.4471 181.056 -12.5435 181.598L-1.7503 188.074C-0.800249 188.644 0.386632 188.644 1.33668 188.074Z" fill="#3D4158"/>
<path d="M-12.5708 164.418L-1.7503 157.926C-0.800249 157.356 0.386633 157.356 1.33668 157.926L12.1572 164.418C12.8046 164.807 12.8046 165.745 12.1572 166.133L1.33668 172.626C0.386632 173.196 -0.80025 173.196 -1.7503 172.626L-12.5708 166.133C-13.2182 165.745 -13.2182 164.807 -12.5708 164.418Z" fill="#656C8C"/>
<path d="M33.3367 188.074L44.1299 181.598C45.0335 181.056 45.5864 180.079 45.5864 179.026V171.456C45.5864 170.679 44.7384 170.198 44.0719 170.598L33.3367 177.04C32.3866 177.61 31.1998 177.61 30.2497 177.04L19.5145 170.598C18.848 170.198 18 170.679 18 171.456V179.026C18 180.079 18.5529 181.056 19.4565 181.598L30.2497 188.074C31.1998 188.644 32.3866 188.644 33.3367 188.074Z" fill="#3D4158"/>
<path d="M19.4292 164.418L30.2497 157.926C31.1998 157.356 32.3866 157.356 33.3367 157.926L44.1572 164.418C44.8046 164.807 44.8046 165.745 44.1572 166.133L33.3367 172.626C32.3866 173.196 31.1997 173.196 30.2497 172.626L19.4292 166.133C18.7818 165.745 18.7818 164.807 19.4292 164.418Z" fill="#656C8C"/>
<path d="M17.3367 216.074L28.1299 209.598C29.0335 209.056 29.5864 208.079 29.5864 207.026V199.456C29.5864 198.679 28.7384 198.198 28.0719 198.598L17.3367 205.04C16.3866 205.61 15.1998 205.61 14.2497 205.04L3.5145 198.598C2.84797 198.198 2 198.679 2 199.456V207.026C2 208.079 2.5529 209.056 3.45651 209.598L14.2497 216.074C15.1998 216.644 16.3866 216.644 17.3367 216.074Z" fill="#3D4158"/>
<path d="M3.42915 192.418L14.2497 185.926C15.1998 185.356 16.3866 185.356 17.3367 185.926L28.1572 192.418C28.8046 192.807 28.8046 193.745 28.1572 194.133L17.3367 200.626C16.3866 201.196 15.1997 201.196 14.2497 200.626L3.42915 194.133C2.78182 193.745 2.78182 192.807 3.42915 192.418Z" fill="#656C8C"/>
<path d="M65.3367 188.074L76.1299 181.598C77.0335 181.056 77.5864 180.079 77.5864 179.026V171.456C77.5864 170.679 76.7384 170.198 76.0719 170.598L65.3367 177.04C64.3866 177.61 63.1998 177.61 62.2497 177.04L51.5145 170.598C50.848 170.198 50 170.679 50 171.456V179.026C50 180.079 50.5529 181.056 51.4565 181.598L62.2497 188.074C63.1998 188.644 64.3866 188.644 65.3367 188.074Z" fill="#3D4158"/>
<path d="M51.4292 164.418L62.2497 157.926C63.1998 157.356 64.3866 157.356 65.3367 157.926L76.1572 164.418C76.8046 164.807 76.8046 165.745 76.1572 166.133L65.3367 172.626C64.3866 173.196 63.1997 173.196 62.2497 172.626L51.4292 166.133C50.7818 165.745 50.7818 164.807 51.4292 164.418Z" fill="#656C8C"/>
<path d="M97.3367 188.074L108.13 181.598C109.033 181.056 109.586 180.079 109.586 179.026V171.456C109.586 170.679 108.738 170.198 108.072 170.598L97.3367 177.04C96.3866 177.61 95.1998 177.61 94.2497 177.04L83.5145 170.598C82.848 170.198 82 170.679 82 171.456V179.026C82 180.079 82.5529 181.056 83.4565 181.598L94.2497 188.074C95.1998 188.644 96.3866 188.644 97.3367 188.074Z" fill="#3D4158"/>
<path d="M83.4292 164.418L94.2497 157.926C95.1998 157.356 96.3866 157.356 97.3367 157.926L108.157 164.418C108.805 164.807 108.805 165.745 108.157 166.133L97.3367 172.626C96.3866 173.196 95.1997 173.196 94.2497 172.626L83.4292 166.133C82.7818 165.745 82.7818 164.807 83.4292 164.418Z" fill="#656C8C"/>
<path d="M81.3367 216.074L92.1299 209.598C93.0335 209.056 93.5864 208.079 93.5864 207.026V199.456C93.5864 198.679 92.7384 198.198 92.0719 198.598L81.3367 205.04C80.3866 205.61 79.1998 205.61 78.2497 205.04L67.5145 198.598C66.848 198.198 66 198.679 66 199.456V207.026C66 208.079 66.5529 209.056 67.4565 209.598L78.2497 216.074C79.1998 216.644 80.3866 216.644 81.3367 216.074Z" fill="#3D4158"/>
<path d="M67.4292 192.418L78.2497 185.926C79.1998 185.356 80.3866 185.356 81.3367 185.926L92.1572 192.418C92.8046 192.807 92.8046 193.745 92.1572 194.133L81.3367 200.626C80.3866 201.196 79.1997 201.196 78.2497 200.626L67.4292 194.133C66.7818 193.745 66.7818 192.807 67.4292 192.418Z" fill="#656C8C"/>
<path d="M49.3367 216.074L60.1299 209.598C61.0335 209.056 61.5864 208.079 61.5864 207.026V199.456C61.5864 198.679 60.7384 198.198 60.0719 198.598L49.3367 205.04C48.3866 205.61 47.1998 205.61 46.2497 205.04L35.5145 198.598C34.848 198.198 34 198.679 34 199.456V207.026C34 208.079 34.5529 209.056 35.4565 209.598L46.2497 216.074C47.1998 216.644 48.3866 216.644 49.3367 216.074Z" fill="#3D4158"/>
<path d="M35.4292 192.418L46.2497 185.926C47.1998 185.356 48.3866 185.356 49.3367 185.926L60.1572 192.418C60.8046 192.807 60.8046 193.745 60.1572 194.133L49.3367 200.626C48.3866 201.196 47.1997 201.196 46.2497 200.626L35.4292 194.133C34.7818 193.745 34.7818 192.807 35.4292 192.418Z" fill="#656C8C"/>
<path d="M1.33668 244.074L12.1299 237.598C13.0335 237.056 13.5864 236.079 13.5864 235.026V227.456C13.5864 226.679 12.7384 226.198 12.0719 226.598L1.33668 233.04C0.386632 233.61 -0.800249 233.61 -1.7503 233.04L-12.4855 226.598C-13.152 226.198 -14 226.679 -14 227.456V235.026C-14 236.079 -13.4471 237.056 -12.5435 237.598L-1.7503 244.074C-0.800249 244.644 0.386632 244.644 1.33668 244.074Z" fill="#3D4158"/>
<path d="M-12.5708 220.418L-1.7503 213.926C-0.800249 213.356 0.386633 213.356 1.33668 213.926L12.1572 220.418C12.8046 220.807 12.8046 221.745 12.1572 222.133L1.33668 228.626C0.386632 229.196 -0.80025 229.196 -1.7503 228.626L-12.5708 222.133C-13.2182 221.745 -13.2182 220.807 -12.5708 220.418Z" fill="#656C8C"/>
<path d="M33.3367 244.074L44.1299 237.598C45.0335 237.056 45.5864 236.079 45.5864 235.026V227.456C45.5864 226.679 44.7384 226.198 44.0719 226.598L33.3367 233.04C32.3866 233.61 31.1998 233.61 30.2497 233.04L19.5145 226.598C18.848 226.198 18 226.679 18 227.456V235.026C18 236.079 18.5529 237.056 19.4565 237.598L30.2497 244.074C31.1998 244.644 32.3866 244.644 33.3367 244.074Z" fill="#3D4158"/>
<path d="M19.4292 220.418L30.2497 213.926C31.1998 213.356 32.3866 213.356 33.3367 213.926L44.1572 220.418C44.8046 220.807 44.8046 221.745 44.1572 222.133L33.3367 228.626C32.3866 229.196 31.1997 229.196 30.2497 228.626L19.4292 222.133C18.7818 221.745 18.7818 220.807 19.4292 220.418Z" fill="#656C8C"/>
<path d="M3.42915 248.418L14.2497 241.926C15.1998 241.356 16.3866 241.356 17.3367 241.926L28.1572 248.418C28.8046 248.807 28.8046 249.745 28.1572 250.133L17.3367 256.626C16.3866 257.196 15.1997 257.196 14.2497 256.626L3.42915 250.133C2.78182 249.745 2.78182 248.807 3.42915 248.418Z" fill="#656C8C"/>
<path d="M65.3367 244.074L76.1299 237.598C77.0335 237.056 77.5864 236.079 77.5864 235.026V227.456C77.5864 226.679 76.7384 226.198 76.0719 226.598L65.3367 233.04C64.3866 233.61 63.1998 233.61 62.2497 233.04L51.5145 226.598C50.848 226.198 50 226.679 50 227.456V235.026C50 236.079 50.5529 237.056 51.4565 237.598L62.2497 244.074C63.1998 244.644 64.3866 244.644 65.3367 244.074Z" fill="#3D4158"/>
<path d="M51.4292 220.418L62.2497 213.926C63.1998 213.356 64.3866 213.356 65.3367 213.926L76.1572 220.418C76.8046 220.807 76.8046 221.745 76.1572 222.133L65.3367 228.626C64.3866 229.196 63.1997 229.196 62.2497 228.626L51.4292 222.133C50.7818 221.745 50.7818 220.807 51.4292 220.418Z" fill="#656C8C"/>
<path d="M97.3367 244.074L108.13 237.598C109.033 237.056 109.586 236.079 109.586 235.026V227.456C109.586 226.679 108.738 226.198 108.072 226.598L97.3367 233.04C96.3866 233.61 95.1998 233.61 94.2497 233.04L83.5145 226.598C82.848 226.198 82 226.679 82 227.456V235.026C82 236.079 82.5529 237.056 83.4565 237.598L94.2497 244.074C95.1998 244.644 96.3866 244.644 97.3367 244.074Z" fill="#3D4158"/>
<path d="M83.4292 220.418L94.2497 213.926C95.1998 213.356 96.3866 213.356 97.3367 213.926L108.157 220.418C108.805 220.807 108.805 221.745 108.157 222.133L97.3367 228.626C96.3866 229.196 95.1997 229.196 94.2497 228.626L83.4292 222.133C82.7818 221.745 82.7818 220.807 83.4292 220.418Z" fill="#656C8C"/>
<path d="M67.4292 248.418L78.2497 241.926C79.1998 241.356 80.3866 241.356 81.3367 241.926L92.1572 248.418C92.8046 248.807 92.8046 249.745 92.1572 250.133L81.3367 256.626C80.3866 257.196 79.1997 257.196 78.2497 256.626L67.4292 250.133C66.7818 249.745 66.7818 248.807 67.4292 248.418Z" fill="#656C8C"/>
<path d="M35.4292 248.418L46.2497 241.926C47.1998 241.356 48.3866 241.356 49.3367 241.926L60.1572 248.418C60.8046 248.807 60.8046 249.745 60.1572 250.133L49.3367 256.626C48.3866 257.196 47.1997 257.196 46.2497 256.626L35.4292 250.133C34.7818 249.745 34.7818 248.807 35.4292 248.418Z" fill="#656C8C"/>
<path d="M1345.34 2.07408L1356.13 -4.40184C1357.03 -4.94401 1357.59 -5.92053 1357.59 -6.97432V-14.5441C1357.59 -15.3214 1356.74 -15.8015 1356.07 -15.4016L1345.34 -8.96048C1344.39 -8.39045 1343.2 -8.39045 1342.25 -8.96048L1331.51 -15.4016C1330.85 -15.8015 1330 -15.3214 1330 -14.5441V-6.97432C1330 -5.92053 1330.55 -4.94401 1331.46 -4.40184L1342.25 2.07408C1343.2 2.64411 1344.39 2.6441 1345.34 2.07408Z" fill="#3D4158"/>
<path d="M1377.34 2.07408L1388.13 -4.40184C1389.03 -4.94401 1389.59 -5.92053 1389.59 -6.97432V-14.5441C1389.59 -15.3214 1388.74 -15.8015 1388.07 -15.4016L1377.34 -8.96048C1376.39 -8.39045 1375.2 -8.39045 1374.25 -8.96048L1363.51 -15.4016C1362.85 -15.8015 1362 -15.3214 1362 -14.5441V-6.97432C1362 -5.92053 1362.55 -4.94401 1363.46 -4.40184L1374.25 2.07408C1375.2 2.64411 1376.39 2.6441 1377.34 2.07408Z" fill="#3D4158"/>
<path d="M1361.34 30.0741L1372.13 23.5982C1373.03 23.056 1373.59 22.0795 1373.59 21.0257V13.4559C1373.59 12.6786 1372.74 12.1985 1372.07 12.5984L1361.34 19.0395C1360.39 19.6095 1359.2 19.6095 1358.25 19.0395L1347.51 12.5984C1346.85 12.1985 1346 12.6786 1346 13.4559V21.0257C1346 22.0795 1346.55 23.056 1347.46 23.5982L1358.25 30.0741C1359.2 30.6441 1360.39 30.6441 1361.34 30.0741Z" fill="#3D4158"/>
<path d="M1347.43 6.41842L1358.25 -0.0739071C1359.2 -0.643936 1360.39 -0.643935 1361.34 -0.0739063L1372.16 6.41842C1372.8 6.80683 1372.8 7.74501 1372.16 8.13341L1361.34 14.6257C1360.39 15.1958 1359.2 15.1958 1358.25 14.6257L1347.43 8.13341C1346.78 7.74501 1346.78 6.80683 1347.43 6.41842Z" fill="#656C8C"/>
<path d="M1329.34 30.0741L1340.13 23.5982C1341.03 23.056 1341.59 22.0795 1341.59 21.0257V13.4559C1341.59 12.6786 1340.74 12.1985 1340.07 12.5984L1329.34 19.0395C1328.39 19.6095 1327.2 19.6095 1326.25 19.0395L1315.51 12.5984C1314.85 12.1985 1314 12.6786 1314 13.4559V21.0257C1314 22.0795 1314.55 23.056 1315.46 23.5982L1326.25 30.0741C1327.2 30.6441 1328.39 30.6441 1329.34 30.0741Z" fill="#3D4158"/>
<path d="M1315.43 6.41842L1326.25 -0.0739071C1327.2 -0.643936 1328.39 -0.643935 1329.34 -0.0739063L1340.16 6.41842C1340.8 6.80683 1340.8 7.74501 1340.16 8.13341L1329.34 14.6257C1328.39 15.1958 1327.2 15.1958 1326.25 14.6257L1315.43 8.13341C1314.78 7.74501 1314.78 6.80683 1315.43 6.41842Z" fill="#656C8C"/>
<path d="M1409.34 2.07408L1420.13 -4.40184C1421.03 -4.94401 1421.59 -5.92053 1421.59 -6.97432V-14.5441C1421.59 -15.3214 1420.74 -15.8015 1420.07 -15.4016L1409.34 -8.96048C1408.39 -8.39045 1407.2 -8.39045 1406.25 -8.96048L1395.51 -15.4016C1394.85 -15.8015 1394 -15.3214 1394 -14.5441V-6.97432C1394 -5.92053 1394.55 -4.94401 1395.46 -4.40184L1406.25 2.07408C1407.2 2.64411 1408.39 2.6441 1409.34 2.07408Z" fill="#3D4158"/>
<path d="M1441.34 2.07408L1452.13 -4.40184C1453.03 -4.94401 1453.59 -5.92053 1453.59 -6.97432V-14.5441C1453.59 -15.3214 1452.74 -15.8015 1452.07 -15.4016L1441.34 -8.96048C1440.39 -8.39045 1439.2 -8.39045 1438.25 -8.96048L1427.51 -15.4016C1426.85 -15.8015 1426 -15.3214 1426 -14.5441V-6.97432C1426 -5.92053 1426.55 -4.94401 1427.46 -4.40184L1438.25 2.07408C1439.2 2.64411 1440.39 2.6441 1441.34 2.07408Z" fill="#3D4158"/>
<path d="M1425.34 30.0741L1436.13 23.5982C1437.03 23.056 1437.59 22.0795 1437.59 21.0257V13.4559C1437.59 12.6786 1436.74 12.1985 1436.07 12.5984L1425.34 19.0395C1424.39 19.6095 1423.2 19.6095 1422.25 19.0395L1411.51 12.5984C1410.85 12.1985 1410 12.6786 1410 13.4559V21.0257C1410 22.0795 1410.55 23.056 1411.46 23.5982L1422.25 30.0741C1423.2 30.6441 1424.39 30.6441 1425.34 30.0741Z" fill="#3D4158"/>
<path d="M1411.43 6.41842L1422.25 -0.0739071C1423.2 -0.643936 1424.39 -0.643935 1425.34 -0.0739063L1436.16 6.41842C1436.8 6.80683 1436.8 7.74501 1436.16 8.13341L1425.34 14.6257C1424.39 15.1958 1423.2 15.1958 1422.25 14.6257L1411.43 8.13341C1410.78 7.74501 1410.78 6.80683 1411.43 6.41842Z" fill="#656C8C"/>
<path d="M1393.34 30.0741L1404.13 23.5982C1405.03 23.056 1405.59 22.0795 1405.59 21.0257V13.4559C1405.59 12.6786 1404.74 12.1985 1404.07 12.5984L1393.34 19.0395C1392.39 19.6095 1391.2 19.6095 1390.25 19.0395L1379.51 12.5984C1378.85 12.1985 1378 12.6786 1378 13.4559V21.0257C1378 22.0795 1378.55 23.056 1379.46 23.5982L1390.25 30.0741C1391.2 30.6441 1392.39 30.6441 1393.34 30.0741Z" fill="#3D4158"/>
<path d="M1379.43 6.41842L1390.25 -0.0739071C1391.2 -0.643936 1392.39 -0.643935 1393.34 -0.0739063L1404.16 6.41842C1404.8 6.80683 1404.8 7.74501 1404.16 8.13341L1393.34 14.6257C1392.39 15.1958 1391.2 15.1958 1390.25 14.6257L1379.43 8.13341C1378.78 7.74501 1378.78 6.80683 1379.43 6.41842Z" fill="#656C8C"/>
<path d="M1345.34 58.0741L1356.13 51.5982C1357.03 51.056 1357.59 50.0795 1357.59 49.0257V41.4559C1357.59 40.6786 1356.74 40.1985 1356.07 40.5984L1345.34 47.0395C1344.39 47.6095 1343.2 47.6095 1342.25 47.0395L1331.51 40.5984C1330.85 40.1985 1330 40.6786 1330 41.4559V49.0257C1330 50.0795 1330.55 51.056 1331.46 51.5982L1342.25 58.0741C1343.2 58.6441 1344.39 58.6441 1345.34 58.0741Z" fill="#3D4158"/>
<path d="M1331.43 34.4184L1342.25 27.9261C1343.2 27.3561 1344.39 27.3561 1345.34 27.9261L1356.16 34.4184C1356.8 34.8068 1356.8 35.745 1356.16 36.1334L1345.34 42.6257C1344.39 43.1958 1343.2 43.1958 1342.25 42.6257L1331.43 36.1334C1330.78 35.745 1330.78 34.8068 1331.43 34.4184Z" fill="#656C8C"/>
<path d="M1377.34 58.0741L1388.13 51.5982C1389.03 51.056 1389.59 50.0795 1389.59 49.0257V41.4559C1389.59 40.6786 1388.74 40.1985 1388.07 40.5984L1377.34 47.0395C1376.39 47.6095 1375.2 47.6095 1374.25 47.0395L1363.51 40.5984C1362.85 40.1985 1362 40.6786 1362 41.4559V49.0257C1362 50.0795 1362.55 51.056 1363.46 51.5982L1374.25 58.0741C1375.2 58.6441 1376.39 58.6441 1377.34 58.0741Z" fill="#3D4158"/>
<path d="M1363.43 34.4184L1374.25 27.9261C1375.2 27.3561 1376.39 27.3561 1377.34 27.9261L1388.16 34.4184C1388.8 34.8068 1388.8 35.745 1388.16 36.1334L1377.34 42.6257C1376.39 43.1958 1375.2 43.1958 1374.25 42.6257L1363.43 36.1334C1362.78 35.745 1362.78 34.8068 1363.43 34.4184Z" fill="#656C8C"/>
<path d="M1361.34 86.0741L1372.13 79.5982C1373.03 79.056 1373.59 78.0795 1373.59 77.0257V69.4559C1373.59 68.6786 1372.74 68.1985 1372.07 68.5984L1361.34 75.0395C1360.39 75.6095 1359.2 75.6095 1358.25 75.0395L1347.51 68.5984C1346.85 68.1985 1346 68.6786 1346 69.4559V77.0257C1346 78.0795 1346.55 79.056 1347.46 79.5982L1358.25 86.0741C1359.2 86.6441 1360.39 86.6441 1361.34 86.0741Z" fill="#3D4158"/>
<path d="M1347.43 62.4184L1358.25 55.9261C1359.2 55.3561 1360.39 55.3561 1361.34 55.9261L1372.16 62.4184C1372.8 62.8068 1372.8 63.745 1372.16 64.1334L1361.34 70.6257C1360.39 71.1958 1359.2 71.1958 1358.25 70.6257L1347.43 64.1334C1346.78 63.745 1346.78 62.8068 1347.43 62.4184Z" fill="#656C8C"/>
<path d="M1329.34 86.0741L1340.13 79.5982C1341.03 79.056 1341.59 78.0795 1341.59 77.0257V69.4559C1341.59 68.6786 1340.74 68.1985 1340.07 68.5984L1329.34 75.0395C1328.39 75.6095 1327.2 75.6095 1326.25 75.0395L1315.51 68.5984C1314.85 68.1985 1314 68.6786 1314 69.4559V77.0257C1314 78.0795 1314.55 79.056 1315.46 79.5982L1326.25 86.0741C1327.2 86.6441 1328.39 86.6441 1329.34 86.0741Z" fill="#3D4158"/>
<path d="M1315.43 62.4184L1326.25 55.9261C1327.2 55.3561 1328.39 55.3561 1329.34 55.9261L1340.16 62.4184C1340.8 62.8068 1340.8 63.745 1340.16 64.1334L1329.34 70.6257C1328.39 71.1958 1327.2 71.1958 1326.25 70.6257L1315.43 64.1334C1314.78 63.745 1314.78 62.8068 1315.43 62.4184Z" fill="#656C8C"/>
<path d="M1409.34 58.0741L1420.13 51.5982C1421.03 51.056 1421.59 50.0795 1421.59 49.0257V41.4559C1421.59 40.6786 1420.74 40.1985 1420.07 40.5984L1409.34 47.0395C1408.39 47.6095 1407.2 47.6095 1406.25 47.0395L1395.51 40.5984C1394.85 40.1985 1394 40.6786 1394 41.4559V49.0257C1394 50.0795 1394.55 51.056 1395.46 51.5982L1406.25 58.0741C1407.2 58.6441 1408.39 58.6441 1409.34 58.0741Z" fill="#3D4158"/>
<path d="M1395.43 34.4184L1406.25 27.9261C1407.2 27.3561 1408.39 27.3561 1409.34 27.9261L1420.16 34.4184C1420.8 34.8068 1420.8 35.745 1420.16 36.1334L1409.34 42.6257C1408.39 43.1958 1407.2 43.1958 1406.25 42.6257L1395.43 36.1334C1394.78 35.745 1394.78 34.8068 1395.43 34.4184Z" fill="#656C8C"/>
<path d="M1441.34 58.0741L1452.13 51.5982C1453.03 51.056 1453.59 50.0795 1453.59 49.0257V41.4559C1453.59 40.6786 1452.74 40.1985 1452.07 40.5984L1441.34 47.0395C1440.39 47.6095 1439.2 47.6095 1438.25 47.0395L1427.51 40.5984C1426.85 40.1985 1426 40.6786 1426 41.4559V49.0257C1426 50.0795 1426.55 51.056 1427.46 51.5982L1438.25 58.0741C1439.2 58.6441 1440.39 58.6441 1441.34 58.0741Z" fill="#3D4158"/>
<path d="M1427.43 34.4184L1438.25 27.9261C1439.2 27.3561 1440.39 27.3561 1441.34 27.9261L1452.16 34.4184C1452.8 34.8068 1452.8 35.745 1452.16 36.1334L1441.34 42.6257C1440.39 43.1958 1439.2 43.1958 1438.25 42.6257L1427.43 36.1334C1426.78 35.745 1426.78 34.8068 1427.43 34.4184Z" fill="#656C8C"/>
<path d="M1425.34 86.0741L1436.13 79.5982C1437.03 79.056 1437.59 78.0795 1437.59 77.0257V69.4559C1437.59 68.6786 1436.74 68.1985 1436.07 68.5984L1425.34 75.0395C1424.39 75.6095 1423.2 75.6095 1422.25 75.0395L1411.51 68.5984C1410.85 68.1985 1410 68.6786 1410 69.4559V77.0257C1410 78.0795 1410.55 79.056 1411.46 79.5982L1422.25 86.0741C1423.2 86.6441 1424.39 86.6441 1425.34 86.0741Z" fill="#3D4158"/>
<path d="M1411.43 62.4184L1422.25 55.9261C1423.2 55.3561 1424.39 55.3561 1425.34 55.9261L1436.16 62.4184C1436.8 62.8068 1436.8 63.745 1436.16 64.1334L1425.34 70.6257C1424.39 71.1958 1423.2 71.1958 1422.25 70.6257L1411.43 64.1334C1410.78 63.745 1410.78 62.8068 1411.43 62.4184Z" fill="#656C8C"/>
<path d="M1393.34 86.0741L1404.13 79.5982C1405.03 79.056 1405.59 78.0795 1405.59 77.0257V69.4559C1405.59 68.6786 1404.74 68.1985 1404.07 68.5984L1393.34 75.0395C1392.39 75.6095 1391.2 75.6095 1390.25 75.0395L1379.51 68.5984C1378.85 68.1985 1378 68.6786 1378 69.4559V77.0257C1378 78.0795 1378.55 79.056 1379.46 79.5982L1390.25 86.0741C1391.2 86.6441 1392.39 86.6441 1393.34 86.0741Z" fill="#3D4158"/>
<path d="M1379.43 62.4184L1390.25 55.9261C1391.2 55.3561 1392.39 55.3561 1393.34 55.9261L1404.16 62.4184C1404.8 62.8068 1404.8 63.745 1404.16 64.1334L1393.34 70.6257C1392.39 71.1958 1391.2 71.1958 1390.25 70.6257L1379.43 64.1334C1378.78 63.745 1378.78 62.8068 1379.43 62.4184Z" fill="#656C8C"/>
<path d="M1345.34 114.074L1356.13 107.598C1357.03 107.056 1357.59 106.079 1357.59 105.026V97.4559C1357.59 96.6786 1356.74 96.1985 1356.07 96.5984L1345.34 103.04C1344.39 103.61 1343.2 103.61 1342.25 103.04L1331.51 96.5984C1330.85 96.1985 1330 96.6786 1330 97.4559V105.026C1330 106.079 1330.55 107.056 1331.46 107.598L1342.25 114.074C1343.2 114.644 1344.39 114.644 1345.34 114.074Z" fill="#3D4158"/>
<path d="M1331.43 90.4184L1342.25 83.9261C1343.2 83.3561 1344.39 83.3561 1345.34 83.9261L1356.16 90.4184C1356.8 90.8068 1356.8 91.745 1356.16 92.1334L1345.34 98.6257C1344.39 99.1958 1343.2 99.1958 1342.25 98.6257L1331.43 92.1334C1330.78 91.745 1330.78 90.8068 1331.43 90.4184Z" fill="#656C8C"/>
<path d="M1377.34 114.074L1388.13 107.598C1389.03 107.056 1389.59 106.079 1389.59 105.026V97.4559C1389.59 96.6786 1388.74 96.1985 1388.07 96.5984L1377.34 103.04C1376.39 103.61 1375.2 103.61 1374.25 103.04L1363.51 96.5984C1362.85 96.1985 1362 96.6786 1362 97.4559V105.026C1362 106.079 1362.55 107.056 1363.46 107.598L1374.25 114.074C1375.2 114.644 1376.39 114.644 1377.34 114.074Z" fill="#3D4158"/>
<path d="M1363.43 90.4184L1374.25 83.9261C1375.2 83.3561 1376.39 83.3561 1377.34 83.9261L1388.16 90.4184C1388.8 90.8068 1388.8 91.745 1388.16 92.1334L1377.34 98.6257C1376.39 99.1958 1375.2 99.1958 1374.25 98.6257L1363.43 92.1334C1362.78 91.745 1362.78 90.8068 1363.43 90.4184Z" fill="#656C8C"/>
<path d="M1361.34 142.074L1372.13 135.598C1373.03 135.056 1373.59 134.079 1373.59 133.026V125.456C1373.59 124.679 1372.74 124.198 1372.07 124.598L1361.34 131.04C1360.39 131.61 1359.2 131.61 1358.25 131.04L1347.51 124.598C1346.85 124.198 1346 124.679 1346 125.456V133.026C1346 134.079 1346.55 135.056 1347.46 135.598L1358.25 142.074C1359.2 142.644 1360.39 142.644 1361.34 142.074Z" fill="#3D4158"/>
<path d="M1347.43 118.418L1358.25 111.926C1359.2 111.356 1360.39 111.356 1361.34 111.926L1372.16 118.418C1372.8 118.807 1372.8 119.745 1372.16 120.133L1361.34 126.626C1360.39 127.196 1359.2 127.196 1358.25 126.626L1347.43 120.133C1346.78 119.745 1346.78 118.807 1347.43 118.418Z" fill="#656C8C"/>
<path d="M1329.34 142.074L1340.13 135.598C1341.03 135.056 1341.59 134.079 1341.59 133.026V125.456C1341.59 124.679 1340.74 124.198 1340.07 124.598L1329.34 131.04C1328.39 131.61 1327.2 131.61 1326.25 131.04L1315.51 124.598C1314.85 124.198 1314 124.679 1314 125.456V133.026C1314 134.079 1314.55 135.056 1315.46 135.598L1326.25 142.074C1327.2 142.644 1328.39 142.644 1329.34 142.074Z" fill="#3D4158"/>
<path d="M1315.43 118.418L1326.25 111.926C1327.2 111.356 1328.39 111.356 1329.34 111.926L1340.16 118.418C1340.8 118.807 1340.8 119.745 1340.16 120.133L1329.34 126.626C1328.39 127.196 1327.2 127.196 1326.25 126.626L1315.43 120.133C1314.78 119.745 1314.78 118.807 1315.43 118.418Z" fill="#656C8C"/>
<path d="M1409.34 114.074L1420.13 107.598C1421.03 107.056 1421.59 106.079 1421.59 105.026V97.4559C1421.59 96.6786 1420.74 96.1985 1420.07 96.5984L1409.34 103.04C1408.39 103.61 1407.2 103.61 1406.25 103.04L1395.51 96.5984C1394.85 96.1985 1394 96.6786 1394 97.4559V105.026C1394 106.079 1394.55 107.056 1395.46 107.598L1406.25 114.074C1407.2 114.644 1408.39 114.644 1409.34 114.074Z" fill="#3D4158"/>
<path d="M1395.43 90.4184L1406.25 83.9261C1407.2 83.3561 1408.39 83.3561 1409.34 83.9261L1420.16 90.4184C1420.8 90.8068 1420.8 91.745 1420.16 92.1334L1409.34 98.6257C1408.39 99.1958 1407.2 99.1958 1406.25 98.6257L1395.43 92.1334C1394.78 91.745 1394.78 90.8068 1395.43 90.4184Z" fill="#656C8C"/>
<path d="M1441.34 114.074L1452.13 107.598C1453.03 107.056 1453.59 106.079 1453.59 105.026V97.4559C1453.59 96.6786 1452.74 96.1985 1452.07 96.5984L1441.34 103.04C1440.39 103.61 1439.2 103.61 1438.25 103.04L1427.51 96.5984C1426.85 96.1985 1426 96.6786 1426 97.4559V105.026C1426 106.079 1426.55 107.056 1427.46 107.598L1438.25 114.074C1439.2 114.644 1440.39 114.644 1441.34 114.074Z" fill="#3D4158"/>
<path d="M1427.43 90.4184L1438.25 83.9261C1439.2 83.3561 1440.39 83.3561 1441.34 83.9261L1452.16 90.4184C1452.8 90.8068 1452.8 91.745 1452.16 92.1334L1441.34 98.6257C1440.39 99.1958 1439.2 99.1958 1438.25 98.6257L1427.43 92.1334C1426.78 91.745 1426.78 90.8068 1427.43 90.4184Z" fill="#656C8C"/>
<path d="M1425.34 142.074L1436.13 135.598C1437.03 135.056 1437.59 134.079 1437.59 133.026V125.456C1437.59 124.679 1436.74 124.198 1436.07 124.598L1425.34 131.04C1424.39 131.61 1423.2 131.61 1422.25 131.04L1411.51 124.598C1410.85 124.198 1410 124.679 1410 125.456V133.026C1410 134.079 1410.55 135.056 1411.46 135.598L1422.25 142.074C1423.2 142.644 1424.39 142.644 1425.34 142.074Z" fill="#3D4158"/>
<path d="M1411.43 118.418L1422.25 111.926C1423.2 111.356 1424.39 111.356 1425.34 111.926L1436.16 118.418C1436.8 118.807 1436.8 119.745 1436.16 120.133L1425.34 126.626C1424.39 127.196 1423.2 127.196 1422.25 126.626L1411.43 120.133C1410.78 119.745 1410.78 118.807 1411.43 118.418Z" fill="#656C8C"/>
<path d="M1393.34 142.074L1404.13 135.598C1405.03 135.056 1405.59 134.079 1405.59 133.026V125.456C1405.59 124.679 1404.74 124.198 1404.07 124.598L1393.34 131.04C1392.39 131.61 1391.2 131.61 1390.25 131.04L1379.51 124.598C1378.85 124.198 1378 124.679 1378 125.456V133.026C1378 134.079 1378.55 135.056 1379.46 135.598L1390.25 142.074C1391.2 142.644 1392.39 142.644 1393.34 142.074Z" fill="#3D4158"/>
<path d="M1379.43 118.418L1390.25 111.926C1391.2 111.356 1392.39 111.356 1393.34 111.926L1404.16 118.418C1404.8 118.807 1404.8 119.745 1404.16 120.133L1393.34 126.626C1392.39 127.196 1391.2 127.196 1390.25 126.626L1379.43 120.133C1378.78 119.745 1378.78 118.807 1379.43 118.418Z" fill="#656C8C"/>
<path d="M1345.34 170.074L1356.13 163.598C1357.03 163.056 1357.59 162.079 1357.59 161.026V153.456C1357.59 152.679 1356.74 152.198 1356.07 152.598L1345.34 159.04C1344.39 159.61 1343.2 159.61 1342.25 159.04L1331.51 152.598C1330.85 152.198 1330 152.679 1330 153.456V161.026C1330 162.079 1330.55 163.056 1331.46 163.598L1342.25 170.074C1343.2 170.644 1344.39 170.644 1345.34 170.074Z" fill="#3D4158"/>
<path d="M1331.43 146.418L1342.25 139.926C1343.2 139.356 1344.39 139.356 1345.34 139.926L1356.16 146.418C1356.8 146.807 1356.8 147.745 1356.16 148.133L1345.34 154.626C1344.39 155.196 1343.2 155.196 1342.25 154.626L1331.43 148.133C1330.78 147.745 1330.78 146.807 1331.43 146.418Z" fill="#656C8C"/>
<path d="M1377.34 170.074L1388.13 163.598C1389.03 163.056 1389.59 162.079 1389.59 161.026V153.456C1389.59 152.679 1388.74 152.198 1388.07 152.598L1377.34 159.04C1376.39 159.61 1375.2 159.61 1374.25 159.04L1363.51 152.598C1362.85 152.198 1362 152.679 1362 153.456V161.026C1362 162.079 1362.55 163.056 1363.46 163.598L1374.25 170.074C1375.2 170.644 1376.39 170.644 1377.34 170.074Z" fill="#3D4158"/>
<path d="M1363.43 146.418L1374.25 139.926C1375.2 139.356 1376.39 139.356 1377.34 139.926L1388.16 146.418C1388.8 146.807 1388.8 147.745 1388.16 148.133L1377.34 154.626C1376.39 155.196 1375.2 155.196 1374.25 154.626L1363.43 148.133C1362.78 147.745 1362.78 146.807 1363.43 146.418Z" fill="#656C8C"/>
<path d="M1361.34 198.074L1372.13 191.598C1373.03 191.056 1373.59 190.079 1373.59 189.026V181.456C1373.59 180.679 1372.74 180.198 1372.07 180.598L1361.34 187.04C1360.39 187.61 1359.2 187.61 1358.25 187.04L1347.51 180.598C1346.85 180.198 1346 180.679 1346 181.456V189.026C1346 190.079 1346.55 191.056 1347.46 191.598L1358.25 198.074C1359.2 198.644 1360.39 198.644 1361.34 198.074Z" fill="#3D4158"/>
<path d="M1347.43 174.418L1358.25 167.926C1359.2 167.356 1360.39 167.356 1361.34 167.926L1372.16 174.418C1372.8 174.807 1372.8 175.745 1372.16 176.133L1361.34 182.626C1360.39 183.196 1359.2 183.196 1358.25 182.626L1347.43 176.133C1346.78 175.745 1346.78 174.807 1347.43 174.418Z" fill="#656C8C"/>
<path d="M1329.34 198.074L1340.13 191.598C1341.03 191.056 1341.59 190.079 1341.59 189.026V181.456C1341.59 180.679 1340.74 180.198 1340.07 180.598L1329.34 187.04C1328.39 187.61 1327.2 187.61 1326.25 187.04L1315.51 180.598C1314.85 180.198 1314 180.679 1314 181.456V189.026C1314 190.079 1314.55 191.056 1315.46 191.598L1326.25 198.074C1327.2 198.644 1328.39 198.644 1329.34 198.074Z" fill="#3D4158"/>
<path d="M1315.43 174.418L1326.25 167.926C1327.2 167.356 1328.39 167.356 1329.34 167.926L1340.16 174.418C1340.8 174.807 1340.8 175.745 1340.16 176.133L1329.34 182.626C1328.39 183.196 1327.2 183.196 1326.25 182.626L1315.43 176.133C1314.78 175.745 1314.78 174.807 1315.43 174.418Z" fill="#656C8C"/>
<path d="M1409.34 170.074L1420.13 163.598C1421.03 163.056 1421.59 162.079 1421.59 161.026V153.456C1421.59 152.679 1420.74 152.198 1420.07 152.598L1409.34 159.04C1408.39 159.61 1407.2 159.61 1406.25 159.04L1395.51 152.598C1394.85 152.198 1394 152.679 1394 153.456V161.026C1394 162.079 1394.55 163.056 1395.46 163.598L1406.25 170.074C1407.2 170.644 1408.39 170.644 1409.34 170.074Z" fill="#3D4158"/>
<path d="M1395.43 146.418L1406.25 139.926C1407.2 139.356 1408.39 139.356 1409.34 139.926L1420.16 146.418C1420.8 146.807 1420.8 147.745 1420.16 148.133L1409.34 154.626C1408.39 155.196 1407.2 155.196 1406.25 154.626L1395.43 148.133C1394.78 147.745 1394.78 146.807 1395.43 146.418Z" fill="#656C8C"/>
<path d="M1441.34 170.074L1452.13 163.598C1453.03 163.056 1453.59 162.079 1453.59 161.026V153.456C1453.59 152.679 1452.74 152.198 1452.07 152.598L1441.34 159.04C1440.39 159.61 1439.2 159.61 1438.25 159.04L1427.51 152.598C1426.85 152.198 1426 152.679 1426 153.456V161.026C1426 162.079 1426.55 163.056 1427.46 163.598L1438.25 170.074C1439.2 170.644 1440.39 170.644 1441.34 170.074Z" fill="#3D4158"/>
<path d="M1427.43 146.418L1438.25 139.926C1439.2 139.356 1440.39 139.356 1441.34 139.926L1452.16 146.418C1452.8 146.807 1452.8 147.745 1452.16 148.133L1441.34 154.626C1440.39 155.196 1439.2 155.196 1438.25 154.626L1427.43 148.133C1426.78 147.745 1426.78 146.807 1427.43 146.418Z" fill="#656C8C"/>
<path d="M1425.34 198.074L1436.13 191.598C1437.03 191.056 1437.59 190.079 1437.59 189.026V181.456C1437.59 180.679 1436.74 180.198 1436.07 180.598L1425.34 187.04C1424.39 187.61 1423.2 187.61 1422.25 187.04L1411.51 180.598C1410.85 180.198 1410 180.679 1410 181.456V189.026C1410 190.079 1410.55 191.056 1411.46 191.598L1422.25 198.074C1423.2 198.644 1424.39 198.644 1425.34 198.074Z" fill="#3D4158"/>
<path d="M1411.43 174.418L1422.25 167.926C1423.2 167.356 1424.39 167.356 1425.34 167.926L1436.16 174.418C1436.8 174.807 1436.8 175.745 1436.16 176.133L1425.34 182.626C1424.39 183.196 1423.2 183.196 1422.25 182.626L1411.43 176.133C1410.78 175.745 1410.78 174.807 1411.43 174.418Z" fill="#656C8C"/>
<path d="M1393.34 198.074L1404.13 191.598C1405.03 191.056 1405.59 190.079 1405.59 189.026V181.456C1405.59 180.679 1404.74 180.198 1404.07 180.598L1393.34 187.04C1392.39 187.61 1391.2 187.61 1390.25 187.04L1379.51 180.598C1378.85 180.198 1378 180.679 1378 181.456V189.026C1378 190.079 1378.55 191.056 1379.46 191.598L1390.25 198.074C1391.2 198.644 1392.39 198.644 1393.34 198.074Z" fill="#3D4158"/>
<path d="M1379.43 174.418L1390.25 167.926C1391.2 167.356 1392.39 167.356 1393.34 167.926L1404.16 174.418C1404.8 174.807 1404.8 175.745 1404.16 176.133L1393.34 182.626C1392.39 183.196 1391.2 183.196 1390.25 182.626L1379.43 176.133C1378.78 175.745 1378.78 174.807 1379.43 174.418Z" fill="#656C8C"/>
<path d="M1345.34 226.074L1356.13 219.598C1357.03 219.056 1357.59 218.079 1357.59 217.026V209.456C1357.59 208.679 1356.74 208.198 1356.07 208.598L1345.34 215.04C1344.39 215.61 1343.2 215.61 1342.25 215.04L1331.51 208.598C1330.85 208.198 1330 208.679 1330 209.456V217.026C1330 218.079 1330.55 219.056 1331.46 219.598L1342.25 226.074C1343.2 226.644 1344.39 226.644 1345.34 226.074Z" fill="#3D4158"/>
<path d="M1331.43 202.418L1342.25 195.926C1343.2 195.356 1344.39 195.356 1345.34 195.926L1356.16 202.418C1356.8 202.807 1356.8 203.745 1356.16 204.133L1345.34 210.626C1344.39 211.196 1343.2 211.196 1342.25 210.626L1331.43 204.133C1330.78 203.745 1330.78 202.807 1331.43 202.418Z" fill="#656C8C"/>
<path d="M1377.34 226.074L1388.13 219.598C1389.03 219.056 1389.59 218.079 1389.59 217.026V209.456C1389.59 208.679 1388.74 208.198 1388.07 208.598L1377.34 215.04C1376.39 215.61 1375.2 215.61 1374.25 215.04L1363.51 208.598C1362.85 208.198 1362 208.679 1362 209.456V217.026C1362 218.079 1362.55 219.056 1363.46 219.598L1374.25 226.074C1375.2 226.644 1376.39 226.644 1377.34 226.074Z" fill="#3D4158"/>
<path d="M1363.43 202.418L1374.25 195.926C1375.2 195.356 1376.39 195.356 1377.34 195.926L1388.16 202.418C1388.8 202.807 1388.8 203.745 1388.16 204.133L1377.34 210.626C1376.39 211.196 1375.2 211.196 1374.25 210.626L1363.43 204.133C1362.78 203.745 1362.78 202.807 1363.43 202.418Z" fill="#656C8C"/>
<path d="M1361.34 254.074L1372.13 247.598C1373.03 247.056 1373.59 246.079 1373.59 245.026V237.456C1373.59 236.679 1372.74 236.198 1372.07 236.598L1361.34 243.04C1360.39 243.61 1359.2 243.61 1358.25 243.04L1347.51 236.598C1346.85 236.198 1346 236.679 1346 237.456V245.026C1346 246.079 1346.55 247.056 1347.46 247.598L1358.25 254.074C1359.2 254.644 1360.39 254.644 1361.34 254.074Z" fill="#3D4158"/>
<path d="M1347.43 230.418L1358.25 223.926C1359.2 223.356 1360.39 223.356 1361.34 223.926L1372.16 230.418C1372.8 230.807 1372.8 231.745 1372.16 232.133L1361.34 238.626C1360.39 239.196 1359.2 239.196 1358.25 238.626L1347.43 232.133C1346.78 231.745 1346.78 230.807 1347.43 230.418Z" fill="#656C8C"/>
<path d="M1329.34 254.074L1340.13 247.598C1341.03 247.056 1341.59 246.079 1341.59 245.026V237.456C1341.59 236.679 1340.74 236.198 1340.07 236.598L1329.34 243.04C1328.39 243.61 1327.2 243.61 1326.25 243.04L1315.51 236.598C1314.85 236.198 1314 236.679 1314 237.456V245.026C1314 246.079 1314.55 247.056 1315.46 247.598L1326.25 254.074C1327.2 254.644 1328.39 254.644 1329.34 254.074Z" fill="#3D4158"/>
<path d="M1315.43 230.418L1326.25 223.926C1327.2 223.356 1328.39 223.356 1329.34 223.926L1340.16 230.418C1340.8 230.807 1340.8 231.745 1340.16 232.133L1329.34 238.626C1328.39 239.196 1327.2 239.196 1326.25 238.626L1315.43 232.133C1314.78 231.745 1314.78 230.807 1315.43 230.418Z" fill="#656C8C"/>
<path d="M1409.34 226.074L1420.13 219.598C1421.03 219.056 1421.59 218.079 1421.59 217.026V209.456C1421.59 208.679 1420.74 208.198 1420.07 208.598L1409.34 215.04C1408.39 215.61 1407.2 215.61 1406.25 215.04L1395.51 208.598C1394.85 208.198 1394 208.679 1394 209.456V217.026C1394 218.079 1394.55 219.056 1395.46 219.598L1406.25 226.074C1407.2 226.644 1408.39 226.644 1409.34 226.074Z" fill="#3D4158"/>
<path d="M1395.43 202.418L1406.25 195.926C1407.2 195.356 1408.39 195.356 1409.34 195.926L1420.16 202.418C1420.8 202.807 1420.8 203.745 1420.16 204.133L1409.34 210.626C1408.39 211.196 1407.2 211.196 1406.25 210.626L1395.43 204.133C1394.78 203.745 1394.78 202.807 1395.43 202.418Z" fill="#656C8C"/>
<path d="M1441.34 226.074L1452.13 219.598C1453.03 219.056 1453.59 218.079 1453.59 217.026V209.456C1453.59 208.679 1452.74 208.198 1452.07 208.598L1441.34 215.04C1440.39 215.61 1439.2 215.61 1438.25 215.04L1427.51 208.598C1426.85 208.198 1426 208.679 1426 209.456V217.026C1426 218.079 1426.55 219.056 1427.46 219.598L1438.25 226.074C1439.2 226.644 1440.39 226.644 1441.34 226.074Z" fill="#3D4158"/>
<path d="M1427.43 202.418L1438.25 195.926C1439.2 195.356 1440.39 195.356 1441.34 195.926L1452.16 202.418C1452.8 202.807 1452.8 203.745 1452.16 204.133L1441.34 210.626C1440.39 211.196 1439.2 211.196 1438.25 210.626L1427.43 204.133C1426.78 203.745 1426.78 202.807 1427.43 202.418Z" fill="#656C8C"/>
<path d="M1425.34 254.074L1436.13 247.598C1437.03 247.056 1437.59 246.079 1437.59 245.026V237.456C1437.59 236.679 1436.74 236.198 1436.07 236.598L1425.34 243.04C1424.39 243.61 1423.2 243.61 1422.25 243.04L1411.51 236.598C1410.85 236.198 1410 236.679 1410 237.456V245.026C1410 246.079 1410.55 247.056 1411.46 247.598L1422.25 254.074C1423.2 254.644 1424.39 254.644 1425.34 254.074Z" fill="#3D4158"/>
<path d="M1411.43 230.418L1422.25 223.926C1423.2 223.356 1424.39 223.356 1425.34 223.926L1436.16 230.418C1436.8 230.807 1436.8 231.745 1436.16 232.133L1425.34 238.626C1424.39 239.196 1423.2 239.196 1422.25 238.626L1411.43 232.133C1410.78 231.745 1410.78 230.807 1411.43 230.418Z" fill="#656C8C"/>
<path d="M1393.34 254.074L1404.13 247.598C1405.03 247.056 1405.59 246.079 1405.59 245.026V237.456C1405.59 236.679 1404.74 236.198 1404.07 236.598L1393.34 243.04C1392.39 243.61 1391.2 243.61 1390.25 243.04L1379.51 236.598C1378.85 236.198 1378 236.679 1378 237.456V245.026C1378 246.079 1378.55 247.056 1379.46 247.598L1390.25 254.074C1391.2 254.644 1392.39 254.644 1393.34 254.074Z" fill="#3D4158"/>
<path d="M1379.43 230.418L1390.25 223.926C1391.2 223.356 1392.39 223.356 1393.34 223.926L1404.16 230.418C1404.8 230.807 1404.8 231.745 1404.16 232.133L1393.34 238.626C1392.39 239.196 1391.2 239.196 1390.25 238.626L1379.43 232.133C1378.78 231.745 1378.78 230.807 1379.43 230.418Z" fill="#656C8C"/>
</g>
</svg>
