<svg width="20" height="20" viewBox="0 0 20 20" fill="none" xmlns="http://www.w3.org/2000/svg">
<mask id="mask0" mask-type="alpha" maskUnits="userSpaceOnUse" x="2" y="3" width="16" height="14">
<path fill-rule="evenodd" clip-rule="evenodd" d="M6.37859 0.531364C6.76249 -0.140451 7.73118 -0.140451 8.11508 0.531363L14.3919 11.5158C14.7728 12.1825 14.2915 13.0119 13.5237 13.0119H0.970016C0.202194 13.0119 -0.279175 12.1825 0.101772 11.5158L6.37859 0.531364ZM6.34634 4.00697C6.29306 3.47422 6.71142 3.01194 7.24683 3.01194C7.78225 3.01194 8.20061 3.47422 8.14733 4.00697L7.79659 7.51442C7.76834 7.79685 7.53068 8.01194 7.24683 8.01194C6.96299 8.01194 6.72533 7.79685 6.69708 7.51442L6.34634 4.00697ZM7.24683 9.01194C6.69455 9.01194 6.24683 9.45965 6.24683 10.0119C6.24683 10.5642 6.69455 11.0119 7.24683 11.0119C7.79912 11.0119 8.24683 10.5642 8.24683 10.0119C8.24683 9.45965 7.79912 9.01194 7.24683 9.01194Z" transform="translate(2.75317 2.98806)" fill="#C4C4C4"/>
</mask>
<g mask="url(#mask0)">
<rect width="20" height="20" fill="#808BA8"/>
</g>
</svg>
