<svg width="20" height="20" viewBox="0 0 20 20" fill="none" xmlns="http://www.w3.org/2000/svg">
<mask id="mask0" mask-type="alpha" maskUnits="userSpaceOnUse" x="2" y="2" width="16" height="16">
<path fill-rule="evenodd" clip-rule="evenodd" d="M8 16C12.4183 16 16 12.4183 16 8C16 3.58172 12.4183 0 8 0C3.58173 0 0 3.58172 0 8C0 12.4183 3.58173 16 8 16ZM7 5C7 4.44772 7.44771 4 8 4C8.55229 4 9 4.44772 9 5C9 5.55228 8.55229 6 8 6C7.44771 6 7 5.55228 7 5ZM7 8C7 7.44771 7.44771 7 8 7C8.55229 7 9 7.44771 9 8V11C9 11.5523 8.55229 12 8 12C7.44771 12 7 11.5523 7 11V8Z" transform="translate(2 2)" fill="#C4C4C4"/>
</mask>
<g mask="url(#mask0)">
<rect width="20" height="20" fill="white"/>
</g>
</svg>
