<svg width="64" height="64" viewBox="0 0 64 64" fill="none" xmlns="http://www.w3.org/2000/svg">
<rect width="64" height="64" rx="8" fill="#151923"/>
<path fill-rule="evenodd" clip-rule="evenodd" d="M27.2116 0L19.2749 30.6131L0 10.2044L27.2116 0ZM3.52122 11.0199L18.2463 26.6112L24.3096 3.22427L3.52122 11.0199Z" transform="translate(17.2393 18.3879)" fill="#808BA8"/>
<path d="M12 6C12 9.31371 9.31371 12 6 12C2.68629 12 0 9.31371 0 6C0 2.68629 2.68629 0 6 0C9.31371 0 12 2.68629 12 6Z" transform="translate(37 14)" fill="#EDF0F5"/>
<path fill-rule="evenodd" clip-rule="evenodd" d="M20 10C20 15.5228 15.5228 20 10 20C4.47715 20 0 15.5228 0 10C0 4.47715 4.47715 0 10 0C15.5228 0 20 4.47715 20 10ZM10 16C13.3137 16 16 13.3137 16 10C16 6.68629 13.3137 4 10 4C6.68629 4 4 6.68629 4 10C4 13.3137 6.68629 16 10 16Z" transform="translate(33 10)" fill="#151923"/>
<path d="M8 4C8 6.20914 6.20914 8 4 8C1.79086 8 0 6.20914 0 4C0 1.79086 1.79086 0 4 0C6.20914 0 8 1.79086 8 4Z" transform="translate(32 43)" fill="#808BA8"/>
<path fill-rule="evenodd" clip-rule="evenodd" d="M16 8C16 12.4183 12.4183 16 8 16C3.58172 16 0 12.4183 0 8C0 3.58172 3.58172 0 8 0C12.4183 0 16 3.58172 16 8ZM8 12C10.2091 12 12 10.2091 12 8C12 5.79086 10.2091 4 8 4C5.79086 4 4 5.79086 4 8C4 10.2091 5.79086 12 8 12Z" transform="translate(28 39)" fill="#151923"/>
<path d="M6 3C6 4.65685 4.65685 6 3 6C1.34315 6 0 4.65685 0 3C0 1.34315 1.34315 0 3 0C4.65685 0 6 1.34315 6 3Z" transform="translate(16 26)" fill="#EDF0F5"/>
<path fill-rule="evenodd" clip-rule="evenodd" d="M14 7C14 10.866 10.866 14 7 14C3.13401 14 0 10.866 0 7C0 3.13401 3.13401 0 7 0C10.866 0 14 3.13401 14 7ZM7 10C8.65685 10 10 8.65685 10 7C10 5.34315 8.65685 4 7 4C5.34315 4 4 5.34315 4 7C4 8.65685 5.34315 10 7 10Z" transform="translate(12 22)" fill="#151923"/>
</svg>
