<svg fill="none" height="64" viewBox="0 0 64 64" width="64" xmlns="http://www.w3.org/2000/svg"><rect fill="#151923" height="64" rx="8" width="64"/><path d="m15.3367 18.3844 10.7932-6.4759c.9036-.5422 1.4565-1.5187 1.4565-2.57251v-7.5698c0-.777293-.848-1.257407-1.5145-.857492l-10.7352 6.441122c-.9501.57003-2.1369.57003-3.087 0l-10.7352-6.441122c-.666528-.399915-1.5145.080199-1.5145.857492v7.5698c0 1.05381.552897 2.03031 1.45651 2.57251l10.79319 6.4759c.9501.57 2.1369.57 3.087 0z" fill="#edf0f5" transform="translate(18 28.6897)"/><path d="m1.42915 7.41842 10.82055-6.492327c.9501-.570029 2.1369-.570029 3.087 0l10.8205 6.492327c.6474.38841.6474 1.32659 0 1.71499l-10.8205 6.49229c-.9501.5701-2.137.5701-3.087 0l-10.82055-6.49229c-.647334-.3884-.647334-1.32658 0-1.71499z" fill="#808ba8" transform="translate(18 16)"/></svg>