<svg fill="none" height="64" viewBox="0 0 64 64" width="64" xmlns="http://www.w3.org/2000/svg"><rect fill="#151923" height="64" rx="8" width="64"/><path clip-rule="evenodd" d="m4 0c-2.20898 0-4 1.79077-4 4v8c0 2.2092 1.79102 4 4 4h24v-12c0-2.20923-1.791-4-4-4zm10 10c1.1045 0 2-.89551 2-2s-.8955-2-2-2-2 .89551-2 2 .8955 2 2 2zm8-2c0 1.10449-.8955 2-2 2s-2-.89551-2-2 .8955-2 2-2 2 .89551 2 2zm-14 2c1.10449 0 2-.89551 2-2s-.89551-2-2-2-2 .89551-2 2 .89551 2 2 2z" fill="#808ba8" fill-rule="evenodd" transform="translate(24 32)"/><path d="m24 0h-24v12c0 2.2092 1.79102 4 4 4h5.07031c1.38279-2.3914 3.96879-4 6.92969-4h12v-8c0-2.20923-1.791-4-4-4z" fill="#edf0f5" transform="translate(12 16)"/></svg>