<svg fill="none" height="64" viewBox="0 0 64 64" width="64" xmlns="http://www.w3.org/2000/svg"><rect fill="#151923" height="64" rx="8" width="64"/><path clip-rule="evenodd" d="m27.2116 0-7.9367 30.6131-19.2749-20.4087zm-23.69038 11.0199 14.72508 15.5913 6.0633-23.38693z" fill="#808ba8" fill-rule="evenodd" transform="translate(17.2393 18.3879)"/><path d="m12 6c0 3.31371-2.68629 6-6 6s-6-2.68629-6-6 2.68629-6 6-6 6 2.68629 6 6z" fill="#edf0f5" transform="translate(37 14)"/><path clip-rule="evenodd" d="m20 10c0 5.5228-4.4772 10-10 10-5.52285 0-10-4.4772-10-10 0-5.52285 4.47715-10 10-10 5.5228 0 10 4.47715 10 10zm-10 6c3.3137 0 6-2.6863 6-6 0-3.31371-2.6863-6-6-6-3.31371 0-6 2.68629-6 6 0 3.3137 2.68629 6 6 6z" fill="#151923" fill-rule="evenodd" transform="translate(33 10)"/><path d="m8 4c0 2.20914-1.79086 4-4 4s-4-1.79086-4-4 1.79086-4 4-4 4 1.79086 4 4z" fill="#808ba8" transform="translate(32 43)"/><path clip-rule="evenodd" d="m16 8c0 4.4183-3.5817 8-8 8-4.41828 0-8-3.5817-8-8 0-4.41828 3.58172-8 8-8 4.4183 0 8 3.58172 8 8zm-8 4c2.2091 0 4-1.7909 4-4 0-2.20914-1.7909-4-4-4-2.20914 0-4 1.79086-4 4 0 2.2091 1.79086 4 4 4z" fill="#151923" fill-rule="evenodd" transform="translate(28 39)"/><path d="m6 3c0 1.65685-1.34315 3-3 3s-3-1.34315-3-3 1.34315-3 3-3 3 1.34315 3 3z" fill="#edf0f5" transform="translate(16 26)"/><path clip-rule="evenodd" d="m14 7c0 3.866-3.134 7-7 7-3.86599 0-7-3.134-7-7 0-3.86599 3.13401-7 7-7 3.866 0 7 3.13401 7 7zm-7 3c1.65685 0 3-1.34315 3-3s-1.34315-3-3-3-3 1.34315-3 3 1.34315 3 3 3z" fill="#151923" fill-rule="evenodd" transform="translate(12 22)"/></svg>