<svg fill="none" height="64" viewBox="0 0 64 64" width="64" xmlns="http://www.w3.org/2000/svg"><rect fill="#151923" height="64" rx="8" width="64"/><g clip-rule="evenodd" fill-rule="evenodd"><path d="m40 20c0 11.0457-8.9543 20-20 20-11.04569 0-20-8.9543-20-20 0-11.04569 8.95431-20 20-20 11.0457 0 20 8.95431 20 20zm-20 16c8.8366 0 16-7.1634 16-16s-7.1634-16-16-16-16 7.1634-16 16 7.1634 16 16 16z" fill="#808ba8" transform="translate(12 12)"/><path d="m16.8284 2.82843-10.41419 10.41417-6.41421-6.41417 2.82843-2.82843 3.58578 3.58579 7.58579-7.58579z" fill="#edf0f5" transform="translate(23.5859 25.5859)"/></g></svg>