<svg width="64" height="64" viewBox="0 0 64 64" fill="none" xmlns="http://www.w3.org/2000/svg">
<rect width="64" height="64" rx="8" fill="#151923"/>
<path d="M15.3367 18.3844L26.1299 11.9085C27.0335 11.3663 27.5864 10.3898 27.5864 9.33599V1.76619C27.5864 0.988897 26.7384 0.508783 26.0719 0.908698L15.3367 7.34982C14.3866 7.91985 13.1998 7.91985 12.2497 7.34982L1.5145 0.908698C0.847972 0.508783 0 0.988897 0 1.76619V9.33599C0 10.3898 0.552897 11.3663 1.45651 11.9085L12.2497 18.3844C13.1998 18.9544 14.3866 18.9544 15.3367 18.3844Z" transform="translate(18 28.6897)" fill="#EDF0F5"/>
<path d="M1.42915 7.41842L12.2497 0.926093C13.1998 0.356064 14.3866 0.356064 15.3367 0.926093L26.1572 7.41842C26.8046 7.80683 26.8046 8.74501 26.1572 9.13341L15.3367 15.6257C14.3866 16.1958 13.1997 16.1958 12.2497 15.6257L1.42915 9.13341C0.781816 8.74501 0.781816 7.80683 1.42915 7.41842Z" transform="translate(18 16)" fill="#808BA8"/>
</svg>
