<svg fill="none" height="32" viewBox="0 0 100 32" width="100" xmlns="http://www.w3.org/2000/svg"><g fill="#00ce7c" transform="translate(.400024 .839996)"><path d="m6.72 23.64c-.44.36-.56.84-.4 1.24.12.4.48.72.96.72h13.68v2.28h-18.68v-3.08l7.32-7.12c1-1 2.28-1.52 3.72-2.12 1.8-.76 3.16-1.52 4.4-3 .12-.16.44-.48.88-1 .44-.48.96-1.04 1.48-1.64 1.08-1.2 2.2-2.44 2.8-3.08.24-.24.36-.52.36-.8v-4.72c0-.76-.4-1.16-1.2-1.16h-20.16c-.8 0-1.2.4-1.2 1.16v4.56c0 .76.4 1.12 1.2 1.12h11.68l-1.68 1.8c-.48.48-.28 1.08.12 1.48s1.04.56 1.52.08l3.4-3.76c.32-.36.36-.84.2-1.2s-.56-.68-1.04-.68h-13.2v-2.28h18.08v3.2l-2.76 3.04c-.6.6-1.12 1.2-1.6 1.72-.96 1.08-1.28 1.44-1.72 1.8-.48.36-.88.6-1.44.84l-1.08.48c-1.72.64-3.12 1.28-4.44 2.6l-7.6 7.4c-.2.2-.32.48-.32.84v4.68c0 .76.4 1.12 1.2 1.12h20.84c.8 0 1.2-.36 1.2-1.12v-4.56c0-.76-.4-1.16-1.2-1.16h-11.72l2.24-2.28c.52-.48.4-1.12.04-1.56s-1-.64-1.48-.16z"/><path d="m34.9347 18.48c0-.76-.56-1.08-1.12-1.08s-1.16.4-1.16 1.08v9.4h-2.28v-9.28c0-1.64 1.12-2.64 2.2-3.8 1.12-1.24 2.36-2.44 2.36-4.16v-9.36c0-.76-.4-1.12-1.2-1.12h-4.44c-.8 0-1.2.36-1.2 1.12v8.92c0 .76.6 1.08 1.16 1.08s1.12-.32 1.12-1.08v-7.76h2.28v7.84c0 1.24-.84 2.08-1.84 3.08-1.4 1.4-2.72 2.76-2.72 4.96v10.72c0 .76.4 1.12 1.2 1.12h4.44c.8 0 1.2-.36 1.2-1.12z"/><path d="m62.4866 22.68c.32.44.8.56 1.24.48s.76-.4.76-1.16v-19.56h2.28v25.44h-3.24l-15.16-20.52c-.32-.48-.88-.68-1.32-.56s-.8.52-.8 1.32v1.84c0 .44-.28.92-.84 1.44s-1.16 1.08-1.76 1.68c-1.08 1-1.92 2.32-1.92 3.64v12.32c0 .76.4 1.12 1.2 1.12h4.4c.8 0 1.2-.36 1.2-1.12v-12c0-.76-.56-1.12-1.12-1.12s-1.16.36-1.16 1.12v10.84h-2.24v-10.8c-.04-1.4.88-2 2.12-3.24.84-.8 1.32-1.28 1.64-1.64.28-.36.36-.64.48-1.12l13.76 18.6c.24.32.52.48.88.48h4.96c.8 0 1.2-.36 1.2-1.12v-27.76c0-.76-.4-1.12-1.2-1.12h-4.44c-.8 0-1.2.36-1.2 1.12l.04 17.28-13.16-17.960002c-.24-.279998-.56-.439998-.92-.439998h-5.24c-.8 0-1.2.36-1.2 1.12v8.12c0 .76.64 1.12 1.2 1.12s1.08-.36 1.08-1.12v-6.96h3.6z"/><path d="m76.4281 19.92c-.44-1-.28-1.84.08-2.64s1.04-1.48 1.84-2.24c.56-.52 1-.96 1.28-1.36.6-.76.92-1.44 1.24-2.12.16-.36.36-.72.6-1.12 1.6-2.4 4.16-3.6 7-3.6 2.56 0 4.52 1.04 5.64 2.12.2.2.48.32.76.32s.56-.12.76-.32l3-3.32c.28-.36.44-.64.44-.88s-.12-.48-.4-.76c-2.68-2.56-6-4-10.2-4-3.52 0-6.68 1.2-9.12 2.96-2.44 1.8-4.28 4.28-5.24 6.84-.2.68.2 1.24.72 1.44s1.2.08 1.4-.6c.84-2.28 2.44-4.4 4.52-5.92s4.68-2.44 7.72-2.44c1.96 0 3.64.4 4.92.92s2.28 1.16 2.92 1.64l-1.56 1.72c-1.96-1.32-4.08-2-6.28-2-3.72 0-7.08 1.8-9.12 5.04-.2.36-.4.72-.52 1.04l-.52 1c-.4.68-1 1.44-2.08 2.4-1.24 1.12-2.4 2.72-2.4 4.6 0 .36.08.84.2 1.36 1 3 3.08 5.56 5.68 7.36 2.56 1.8 5.72 2.88 8.8 2.88 4 0 7.36-1.68 10.28-4.44.28-.28.4-.52.4-.8s-.12-.56-.4-.84l-3.12-3.24c-.48-.52-1.12-.64-1.64-.04-1.56 1.48-3.04 2.52-5.56 2.52-1.88 0-3.52-.6-4.84-1.56s-2.36-2.28-3-3.72c-.28-.68-.96-.8-1.48-.56s-.92.84-.6 1.52c.84 1.88 2.16 3.56 3.88 4.72s3.8 1.88 6.08 1.88c2.36 0 4.28-.92 6.2-2.36l1.68 1.64c-2.4 1.96-4.88 3-7.88 3-2.68 0-5.24-.92-7.36-2.4-2.12-1.44-3.88-3.44-4.72-5.64z"/></g></svg>