<svg width="384" height="459" viewBox="0 0 384 459" fill="none" xmlns="http://www.w3.org/2000/svg">
<g filter="url(#filter0_d)">
<rect x="24" y="16" width="336" height="421" rx="6" fill="white"/>
<rect x="24.5" y="16.5" width="335" height="420" rx="5.5" stroke="#EBEDF5"/>
</g>
<rect x="24" y="202" width="336" height="1" fill="#EDF0F5"/>
<rect x="24" y="242" width="336" height="1" fill="#EDF0F5"/>
<rect x="24" y="283" width="336" height="1" fill="#EDF0F5"/>
<rect x="24" y="324" width="336" height="1" fill="#EDF0F5"/>
<rect x="24" y="365" width="336" height="1" fill="#EDF0F5"/>
<rect x="24" y="162" width="336" height="1" fill="#EDF0F5"/>
<path d="M121.364 183.424C122.057 183.424 122.569 183.28 122.9 182.992C123.231 182.693 123.396 182.315 123.396 181.856V181.744C123.396 181.232 123.236 180.843 122.916 180.576C122.596 180.299 122.164 180.16 121.62 180.16C121.087 180.16 120.633 180.283 120.26 180.528C119.887 180.763 119.572 181.093 119.316 181.52L118.116 180.48C118.287 180.235 118.479 180 118.692 179.776C118.905 179.552 119.156 179.36 119.444 179.2C119.732 179.029 120.057 178.896 120.42 178.8C120.783 178.693 121.199 178.64 121.668 178.64C122.191 178.64 122.676 178.704 123.124 178.832C123.572 178.96 123.956 179.152 124.276 179.408C124.596 179.653 124.847 179.957 125.028 180.32C125.209 180.672 125.3 181.072 125.3 181.52C125.3 181.872 125.241 182.192 125.124 182.48C125.017 182.768 124.863 183.024 124.66 183.248C124.468 183.461 124.239 183.637 123.972 183.776C123.716 183.915 123.444 184.016 123.156 184.08V184.16C123.476 184.224 123.775 184.331 124.052 184.48C124.34 184.619 124.591 184.805 124.804 185.04C125.017 185.264 125.183 185.536 125.3 185.856C125.428 186.165 125.492 186.523 125.492 186.928C125.492 187.419 125.396 187.867 125.204 188.272C125.012 188.667 124.74 189.008 124.388 189.296C124.047 189.584 123.631 189.808 123.14 189.968C122.649 190.117 122.105 190.192 121.508 190.192C120.985 190.192 120.527 190.133 120.132 190.016C119.737 189.909 119.385 189.765 119.076 189.584C118.777 189.392 118.511 189.179 118.276 188.944C118.052 188.699 117.855 188.448 117.684 188.192L119.012 187.152C119.151 187.376 119.295 187.584 119.444 187.776C119.604 187.957 119.78 188.117 119.972 188.256C120.175 188.384 120.399 188.485 120.644 188.56C120.9 188.635 121.188 188.672 121.508 188.672C122.191 188.672 122.713 188.512 123.076 188.192C123.439 187.861 123.62 187.408 123.62 186.832V186.72C123.62 186.144 123.428 185.707 123.044 185.408C122.66 185.109 122.116 184.96 121.412 184.96H120.228V183.424H121.364ZM131.795 190V181.68H133.539V183.28H133.619C133.736 182.853 133.982 182.48 134.355 182.16C134.728 181.84 135.246 181.68 135.907 181.68H136.371V183.36H135.683C134.99 183.36 134.456 183.472 134.083 183.696C133.72 183.92 133.539 184.251 133.539 184.688V190H131.795ZM141.106 190.192C140.508 190.192 139.975 190.091 139.506 189.888C139.036 189.685 138.636 189.397 138.306 189.024C137.975 188.64 137.719 188.181 137.538 187.648C137.367 187.104 137.282 186.501 137.282 185.84C137.282 185.179 137.367 184.581 137.538 184.048C137.719 183.504 137.975 183.045 138.306 182.672C138.636 182.288 139.036 181.995 139.506 181.792C139.975 181.589 140.508 181.488 141.106 181.488C141.714 181.488 142.247 181.595 142.706 181.808C143.175 182.021 143.564 182.32 143.874 182.704C144.183 183.077 144.412 183.515 144.562 184.016C144.722 184.517 144.802 185.056 144.802 185.632V186.288H139.09V186.56C139.09 187.2 139.276 187.728 139.65 188.144C140.034 188.549 140.578 188.752 141.282 188.752C141.794 188.752 142.226 188.64 142.578 188.416C142.93 188.192 143.228 187.888 143.474 187.504L144.498 188.512C144.188 189.024 143.74 189.435 143.154 189.744C142.567 190.043 141.884 190.192 141.106 190.192ZM141.106 182.848C140.807 182.848 140.53 182.901 140.274 183.008C140.028 183.115 139.815 183.264 139.634 183.456C139.463 183.648 139.33 183.877 139.234 184.144C139.138 184.411 139.09 184.704 139.09 185.024V185.136H142.962V184.976C142.962 184.336 142.796 183.824 142.466 183.44C142.135 183.045 141.682 182.848 141.106 182.848ZM147.164 183.104H145.9V181.68H147.164V180.304C147.164 179.632 147.34 179.109 147.692 178.736C148.044 178.352 148.572 178.16 149.276 178.16H150.652V179.584H148.908V181.68H150.652V183.104H148.908V190H147.164V183.104ZM155.371 190.192C154.774 190.192 154.241 190.091 153.771 189.888C153.302 189.685 152.902 189.397 152.571 189.024C152.241 188.64 151.985 188.181 151.803 187.648C151.633 187.104 151.547 186.501 151.547 185.84C151.547 185.179 151.633 184.581 151.803 184.048C151.985 183.504 152.241 183.045 152.571 182.672C152.902 182.288 153.302 181.995 153.771 181.792C154.241 181.589 154.774 181.488 155.371 181.488C155.979 181.488 156.513 181.595 156.971 181.808C157.441 182.021 157.83 182.32 158.139 182.704C158.449 183.077 158.678 183.515 158.827 184.016C158.987 184.517 159.067 185.056 159.067 185.632V186.288H153.355V186.56C153.355 187.2 153.542 187.728 153.915 188.144C154.299 188.549 154.843 188.752 155.547 188.752C156.059 188.752 156.491 188.64 156.843 188.416C157.195 188.192 157.494 187.888 157.739 187.504L158.763 188.512C158.454 189.024 158.006 189.435 157.419 189.744C156.833 190.043 156.15 190.192 155.371 190.192ZM155.371 182.848C155.073 182.848 154.795 182.901 154.539 183.008C154.294 183.115 154.081 183.264 153.899 183.456C153.729 183.648 153.595 183.877 153.499 184.144C153.403 184.411 153.355 184.704 153.355 185.024V185.136H157.227V184.976C157.227 184.336 157.062 183.824 156.731 183.44C156.401 183.045 155.947 182.848 155.371 182.848ZM160.998 190V181.68H162.742V183.28H162.822C162.939 182.853 163.185 182.48 163.558 182.16C163.931 181.84 164.449 181.68 165.11 181.68H165.574V183.36H164.886C164.193 183.36 163.659 183.472 163.286 183.696C162.923 183.92 162.742 184.251 162.742 184.688V190H160.998ZM170.309 190.192C169.712 190.192 169.178 190.091 168.709 189.888C168.24 189.685 167.84 189.397 167.509 189.024C167.178 188.64 166.922 188.181 166.741 187.648C166.57 187.104 166.485 186.501 166.485 185.84C166.485 185.179 166.57 184.581 166.741 184.048C166.922 183.504 167.178 183.045 167.509 182.672C167.84 182.288 168.24 181.995 168.709 181.792C169.178 181.589 169.712 181.488 170.309 181.488C170.917 181.488 171.45 181.595 171.909 181.808C172.378 182.021 172.768 182.32 173.077 182.704C173.386 183.077 173.616 183.515 173.765 184.016C173.925 184.517 174.005 185.056 174.005 185.632V186.288H168.293V186.56C168.293 187.2 168.48 187.728 168.853 188.144C169.237 188.549 169.781 188.752 170.485 188.752C170.997 188.752 171.429 188.64 171.781 188.416C172.133 188.192 172.432 187.888 172.677 187.504L173.701 188.512C173.392 189.024 172.944 189.435 172.357 189.744C171.77 190.043 171.088 190.192 170.309 190.192ZM170.309 182.848C170.01 182.848 169.733 182.901 169.477 183.008C169.232 183.115 169.018 183.264 168.837 183.456C168.666 183.648 168.533 183.877 168.437 184.144C168.341 184.411 168.293 184.704 168.293 185.024V185.136H172.165V184.976C172.165 184.336 172 183.824 171.669 183.44C171.338 183.045 170.885 182.848 170.309 182.848ZM175.936 190V181.68H177.68V183.056H177.76C177.941 182.608 178.213 182.235 178.576 181.936C178.949 181.637 179.456 181.488 180.096 181.488C180.949 181.488 181.61 181.771 182.08 182.336C182.56 182.891 182.8 183.685 182.8 184.72V190H181.056V184.944C181.056 183.643 180.533 182.992 179.488 182.992C179.264 182.992 179.04 183.024 178.816 183.088C178.602 183.141 178.41 183.227 178.24 183.344C178.069 183.461 177.93 183.611 177.824 183.792C177.728 183.973 177.68 184.187 177.68 184.432V190H175.936ZM188.433 190.192C187.835 190.192 187.302 190.091 186.833 189.888C186.363 189.685 185.969 189.397 185.649 189.024C185.329 188.64 185.083 188.181 184.913 187.648C184.742 187.104 184.657 186.501 184.657 185.84C184.657 185.179 184.742 184.581 184.913 184.048C185.083 183.504 185.329 183.045 185.649 182.672C185.969 182.288 186.363 181.995 186.833 181.792C187.302 181.589 187.835 181.488 188.433 181.488C189.265 181.488 189.947 181.675 190.481 182.048C191.014 182.421 191.403 182.917 191.649 183.536L190.209 184.208C190.091 183.824 189.883 183.52 189.585 183.296C189.297 183.061 188.913 182.944 188.433 182.944C187.793 182.944 187.307 183.147 186.977 183.552C186.657 183.947 186.497 184.464 186.497 185.104V186.592C186.497 187.232 186.657 187.755 186.977 188.16C187.307 188.555 187.793 188.752 188.433 188.752C188.945 188.752 189.35 188.629 189.649 188.384C189.958 188.128 190.203 187.792 190.385 187.376L191.713 188.08C191.435 188.763 191.019 189.285 190.465 189.648C189.91 190.011 189.233 190.192 188.433 190.192ZM196.543 190.192C195.946 190.192 195.413 190.091 194.943 189.888C194.474 189.685 194.074 189.397 193.743 189.024C193.413 188.64 193.157 188.181 192.975 187.648C192.805 187.104 192.719 186.501 192.719 185.84C192.719 185.179 192.805 184.581 192.975 184.048C193.157 183.504 193.413 183.045 193.743 182.672C194.074 182.288 194.474 181.995 194.943 181.792C195.413 181.589 195.946 181.488 196.543 181.488C197.151 181.488 197.685 181.595 198.143 181.808C198.613 182.021 199.002 182.32 199.311 182.704C199.621 183.077 199.85 183.515 199.999 184.016C200.159 184.517 200.239 185.056 200.239 185.632V186.288H194.527V186.56C194.527 187.2 194.714 187.728 195.087 188.144C195.471 188.549 196.015 188.752 196.719 188.752C197.231 188.752 197.663 188.64 198.015 188.416C198.367 188.192 198.666 187.888 198.911 187.504L199.935 188.512C199.626 189.024 199.178 189.435 198.591 189.744C198.005 190.043 197.322 190.192 196.543 190.192ZM196.543 182.848C196.245 182.848 195.967 182.901 195.711 183.008C195.466 183.115 195.253 183.264 195.071 183.456C194.901 183.648 194.767 183.877 194.671 184.144C194.575 184.411 194.527 184.704 194.527 185.024V185.136H198.399V184.976C198.399 184.336 198.234 183.824 197.903 183.44C197.573 183.045 197.119 182.848 196.543 182.848ZM205.951 190V181.68H207.695V183.28H207.775C207.892 182.853 208.138 182.48 208.511 182.16C208.884 181.84 209.402 181.68 210.063 181.68H210.527V183.36H209.839C209.146 183.36 208.612 183.472 208.239 183.696C207.876 183.92 207.695 184.251 207.695 184.688V190H205.951ZM215.262 190.192C214.665 190.192 214.131 190.091 213.662 189.888C213.193 189.685 212.793 189.397 212.462 189.024C212.131 188.64 211.875 188.181 211.694 187.648C211.523 187.104 211.438 186.501 211.438 185.84C211.438 185.179 211.523 184.581 211.694 184.048C211.875 183.504 212.131 183.045 212.462 182.672C212.793 182.288 213.193 181.995 213.662 181.792C214.131 181.589 214.665 181.488 215.262 181.488C215.87 181.488 216.403 181.595 216.862 181.808C217.331 182.021 217.721 182.32 218.03 182.704C218.339 183.077 218.569 183.515 218.718 184.016C218.878 184.517 218.958 185.056 218.958 185.632V186.288H213.246V186.56C213.246 187.2 213.433 187.728 213.806 188.144C214.19 188.549 214.734 188.752 215.438 188.752C215.95 188.752 216.382 188.64 216.734 188.416C217.086 188.192 217.385 187.888 217.63 187.504L218.654 188.512C218.345 189.024 217.897 189.435 217.31 189.744C216.723 190.043 216.041 190.192 215.262 190.192ZM215.262 182.848C214.963 182.848 214.686 182.901 214.43 183.008C214.185 183.115 213.971 183.264 213.79 183.456C213.619 183.648 213.486 183.877 213.39 184.144C213.294 184.411 213.246 184.704 213.246 185.024V185.136H217.118V184.976C217.118 184.336 216.953 183.824 216.622 183.44C216.291 183.045 215.838 182.848 215.262 182.848ZM226.121 188.624H226.041C225.859 189.115 225.561 189.499 225.145 189.776C224.739 190.053 224.259 190.192 223.705 190.192C222.649 190.192 221.833 189.813 221.257 189.056C220.681 188.288 220.393 187.216 220.393 185.84C220.393 184.464 220.681 183.397 221.257 182.64C221.833 181.872 222.649 181.488 223.705 181.488C224.259 181.488 224.739 181.627 225.145 181.904C225.561 182.171 225.859 182.555 226.041 183.056H226.121V181.68H227.865V193.2H226.121V188.624ZM224.233 188.688C224.766 188.688 225.214 188.56 225.577 188.304C225.939 188.037 226.121 187.691 226.121 187.264V184.416C226.121 183.989 225.939 183.648 225.577 183.392C225.214 183.125 224.766 182.992 224.233 182.992C223.625 182.992 223.139 183.189 222.777 183.584C222.414 183.968 222.233 184.48 222.233 185.12V186.56C222.233 187.2 222.414 187.717 222.777 188.112C223.139 188.496 223.625 188.688 224.233 188.688ZM235.397 188.624H235.333C235.259 188.827 235.157 189.024 235.029 189.216C234.912 189.408 234.757 189.579 234.565 189.728C234.384 189.867 234.16 189.979 233.893 190.064C233.637 190.149 233.339 190.192 232.997 190.192C232.133 190.192 231.461 189.915 230.981 189.36C230.512 188.805 230.277 188.011 230.277 186.976V181.68H232.021V186.752C232.021 188.043 232.555 188.688 233.621 188.688C233.845 188.688 234.064 188.661 234.277 188.608C234.491 188.544 234.677 188.453 234.837 188.336C235.008 188.219 235.141 188.069 235.237 187.888C235.344 187.707 235.397 187.493 235.397 187.248V181.68H237.141V190H235.397V188.624ZM242.903 190.192C242.305 190.192 241.772 190.091 241.303 189.888C240.833 189.685 240.433 189.397 240.103 189.024C239.772 188.64 239.516 188.181 239.335 187.648C239.164 187.104 239.079 186.501 239.079 185.84C239.079 185.179 239.164 184.581 239.335 184.048C239.516 183.504 239.772 183.045 240.103 182.672C240.433 182.288 240.833 181.995 241.303 181.792C241.772 181.589 242.305 181.488 242.903 181.488C243.511 181.488 244.044 181.595 244.503 181.808C244.972 182.021 245.361 182.32 245.671 182.704C245.98 183.077 246.209 183.515 246.359 184.016C246.519 184.517 246.599 185.056 246.599 185.632V186.288H240.887V186.56C240.887 187.2 241.073 187.728 241.447 188.144C241.831 188.549 242.375 188.752 243.079 188.752C243.591 188.752 244.023 188.64 244.375 188.416C244.727 188.192 245.025 187.888 245.271 187.504L246.295 188.512C245.985 189.024 245.537 189.435 244.951 189.744C244.364 190.043 243.681 190.192 242.903 190.192ZM242.903 182.848C242.604 182.848 242.327 182.901 242.071 183.008C241.825 183.115 241.612 183.264 241.431 183.456C241.26 183.648 241.127 183.877 241.031 184.144C240.935 184.411 240.887 184.704 240.887 185.024V185.136H244.759V184.976C244.759 184.336 244.593 183.824 244.263 183.44C243.932 183.045 243.479 182.848 242.903 182.848ZM251.169 190.192C250.38 190.192 249.719 190.053 249.185 189.776C248.652 189.499 248.188 189.115 247.793 188.624L248.913 187.6C249.223 187.973 249.564 188.267 249.937 188.48C250.321 188.683 250.764 188.784 251.265 188.784C251.777 188.784 252.156 188.688 252.401 188.496C252.657 188.293 252.785 188.016 252.785 187.664C252.785 187.397 252.695 187.173 252.513 186.992C252.343 186.8 252.039 186.677 251.601 186.624L250.833 186.528C249.98 186.421 249.308 186.176 248.817 185.792C248.337 185.397 248.097 184.816 248.097 184.048C248.097 183.643 248.172 183.285 248.321 182.976C248.471 182.656 248.679 182.389 248.945 182.176C249.223 181.952 249.548 181.781 249.921 181.664C250.305 181.547 250.727 181.488 251.185 181.488C251.932 181.488 252.54 181.605 253.009 181.84C253.489 182.075 253.916 182.4 254.289 182.816L253.217 183.84C253.004 183.584 252.721 183.365 252.369 183.184C252.028 182.992 251.633 182.896 251.185 182.896C250.705 182.896 250.348 182.992 250.113 183.184C249.889 183.376 249.777 183.627 249.777 183.936C249.777 184.256 249.879 184.496 250.081 184.656C250.284 184.816 250.609 184.933 251.057 185.008L251.825 185.104C252.743 185.243 253.409 185.515 253.825 185.92C254.252 186.315 254.465 186.848 254.465 187.52C254.465 187.925 254.385 188.293 254.225 188.624C254.076 188.944 253.857 189.221 253.569 189.456C253.281 189.691 252.935 189.872 252.529 190C252.124 190.128 251.671 190.192 251.169 190.192ZM258.63 190C258.022 190 257.563 189.845 257.254 189.536C256.945 189.216 256.79 188.768 256.79 188.192V183.104H255.494V181.68H256.198C256.486 181.68 256.683 181.616 256.79 181.488C256.907 181.36 256.966 181.152 256.966 180.864V179.408H258.534V181.68H260.278V183.104H258.534V188.576H260.15V190H258.63ZM264.81 190.192C264.021 190.192 263.359 190.053 262.826 189.776C262.293 189.499 261.829 189.115 261.434 188.624L262.554 187.6C262.863 187.973 263.205 188.267 263.578 188.48C263.962 188.683 264.405 188.784 264.906 188.784C265.418 188.784 265.797 188.688 266.042 188.496C266.298 188.293 266.426 188.016 266.426 187.664C266.426 187.397 266.335 187.173 266.154 186.992C265.983 186.8 265.679 186.677 265.242 186.624L264.474 186.528C263.621 186.421 262.949 186.176 262.458 185.792C261.978 185.397 261.738 184.816 261.738 184.048C261.738 183.643 261.813 183.285 261.962 182.976C262.111 182.656 262.319 182.389 262.586 182.176C262.863 181.952 263.189 181.781 263.562 181.664C263.946 181.547 264.367 181.488 264.826 181.488C265.573 181.488 266.181 181.605 266.65 181.84C267.13 182.075 267.557 182.4 267.93 182.816L266.858 183.84C266.645 183.584 266.362 183.365 266.01 183.184C265.669 182.992 265.274 182.896 264.826 182.896C264.346 182.896 263.989 182.992 263.754 183.184C263.53 183.376 263.418 183.627 263.418 183.936C263.418 184.256 263.519 184.496 263.722 184.656C263.925 184.816 264.25 184.933 264.698 185.008L265.466 185.104C266.383 185.243 267.05 185.515 267.466 185.92C267.893 186.315 268.106 186.848 268.106 187.52C268.106 187.925 268.026 188.293 267.866 188.624C267.717 188.944 267.498 189.221 267.21 189.456C266.922 189.691 266.575 189.872 266.17 190C265.765 190.128 265.311 190.192 264.81 190.192Z" fill="#8D93B4"/>
<path d="M94.088 217.832V224.712C94.088 225.661 94.2693 226.376 94.632 226.856C94.9947 227.336 95.6133 227.576 96.488 227.576C97.3627 227.576 97.9813 227.336 98.344 226.856C98.7067 226.376 98.888 225.661 98.888 224.712V217.832H100.664V224.424C100.664 225.245 100.589 225.955 100.44 226.552C100.291 227.149 100.051 227.645 99.72 228.04C99.3893 228.424 98.9573 228.712 98.424 228.904C97.9013 229.096 97.256 229.192 96.488 229.192C95.72 229.192 95.0693 229.096 94.536 228.904C94.0133 228.712 93.5867 228.424 93.256 228.04C92.9253 227.645 92.6853 227.149 92.536 226.552C92.3867 225.955 92.312 225.245 92.312 224.424V217.832H94.088ZM103.217 229V220.68H104.961V222.056H105.041C105.222 221.608 105.494 221.235 105.857 220.936C106.23 220.637 106.737 220.488 107.377 220.488C108.23 220.488 108.891 220.771 109.361 221.336C109.841 221.891 110.081 222.685 110.081 223.72V229H108.337V223.944C108.337 222.643 107.814 221.992 106.769 221.992C106.545 221.992 106.321 222.024 106.097 222.088C105.883 222.141 105.691 222.227 105.521 222.344C105.35 222.461 105.211 222.611 105.105 222.792C105.009 222.973 104.961 223.187 104.961 223.432V229H103.217ZM114.274 229C113.677 229 113.229 228.851 112.93 228.552C112.642 228.243 112.498 227.816 112.498 227.272V217.16H114.242V227.576H115.394V229H114.274ZM117.941 219.192C117.578 219.192 117.311 219.107 117.141 218.936C116.981 218.765 116.901 218.547 116.901 218.28V218.008C116.901 217.741 116.981 217.523 117.141 217.352C117.311 217.181 117.578 217.096 117.941 217.096C118.303 217.096 118.565 217.181 118.725 217.352C118.885 217.523 118.965 217.741 118.965 218.008V218.28C118.965 218.547 118.885 218.765 118.725 218.936C118.565 219.107 118.303 219.192 117.941 219.192ZM117.061 220.68H118.805V229H117.061V220.68ZM121.295 229V220.68H123.039V222.056H123.119C123.204 221.843 123.306 221.64 123.423 221.448C123.551 221.256 123.7 221.091 123.871 220.952C124.052 220.803 124.26 220.691 124.495 220.616C124.74 220.531 125.023 220.488 125.343 220.488C125.908 220.488 126.41 220.627 126.847 220.904C127.284 221.181 127.604 221.608 127.807 222.184H127.855C128.004 221.715 128.292 221.315 128.719 220.984C129.146 220.653 129.695 220.488 130.367 220.488C131.199 220.488 131.844 220.771 132.303 221.336C132.762 221.891 132.991 222.685 132.991 223.72V229H131.247V223.928C131.247 223.288 131.124 222.808 130.879 222.488C130.634 222.157 130.244 221.992 129.711 221.992C129.487 221.992 129.274 222.024 129.071 222.088C128.868 222.141 128.687 222.227 128.527 222.344C128.378 222.461 128.255 222.611 128.159 222.792C128.063 222.973 128.015 223.181 128.015 223.416V229H126.271V223.928C126.271 222.637 125.764 221.992 124.751 221.992C124.538 221.992 124.324 222.024 124.111 222.088C123.908 222.141 123.727 222.227 123.567 222.344C123.407 222.461 123.279 222.611 123.183 222.792C123.087 222.973 123.039 223.181 123.039 223.416V229H121.295ZM136.284 219.192C135.922 219.192 135.655 219.107 135.484 218.936C135.324 218.765 135.244 218.547 135.244 218.28V218.008C135.244 217.741 135.324 217.523 135.484 217.352C135.655 217.181 135.922 217.096 136.284 217.096C136.647 217.096 136.908 217.181 137.068 217.352C137.228 217.523 137.308 217.741 137.308 218.008V218.28C137.308 218.547 137.228 218.765 137.068 218.936C136.908 219.107 136.647 219.192 136.284 219.192ZM135.404 220.68H137.148V229H135.404V220.68ZM141.943 229C141.335 229 140.876 228.845 140.567 228.536C140.257 228.216 140.103 227.768 140.103 227.192V222.104H138.807V220.68H139.511C139.799 220.68 139.996 220.616 140.103 220.488C140.22 220.36 140.279 220.152 140.279 219.864V218.408H141.847V220.68H143.591V222.104H141.847V227.576H143.463V229H141.943ZM148.684 229.192C148.087 229.192 147.553 229.091 147.084 228.888C146.615 228.685 146.215 228.397 145.884 228.024C145.553 227.64 145.297 227.181 145.116 226.648C144.945 226.104 144.86 225.501 144.86 224.84C144.86 224.179 144.945 223.581 145.116 223.048C145.297 222.504 145.553 222.045 145.884 221.672C146.215 221.288 146.615 220.995 147.084 220.792C147.553 220.589 148.087 220.488 148.684 220.488C149.292 220.488 149.825 220.595 150.284 220.808C150.753 221.021 151.143 221.32 151.452 221.704C151.761 222.077 151.991 222.515 152.14 223.016C152.3 223.517 152.38 224.056 152.38 224.632V225.288H146.668V225.56C146.668 226.2 146.855 226.728 147.228 227.144C147.612 227.549 148.156 227.752 148.86 227.752C149.372 227.752 149.804 227.64 150.156 227.416C150.508 227.192 150.807 226.888 151.052 226.504L152.076 227.512C151.767 228.024 151.319 228.435 150.732 228.744C150.145 229.043 149.463 229.192 148.684 229.192ZM148.684 221.848C148.385 221.848 148.108 221.901 147.852 222.008C147.607 222.115 147.393 222.264 147.212 222.456C147.041 222.648 146.908 222.877 146.812 223.144C146.716 223.411 146.668 223.704 146.668 224.024V224.136H150.54V223.976C150.54 223.336 150.375 222.824 150.044 222.44C149.713 222.045 149.26 221.848 148.684 221.848ZM159.543 227.624H159.463C159.281 228.115 158.983 228.499 158.567 228.776C158.161 229.053 157.681 229.192 157.127 229.192C156.071 229.192 155.255 228.813 154.679 228.056C154.103 227.288 153.815 226.216 153.815 224.84C153.815 223.464 154.103 222.397 154.679 221.64C155.255 220.872 156.071 220.488 157.127 220.488C157.681 220.488 158.161 220.627 158.567 220.904C158.983 221.171 159.281 221.555 159.463 222.056H159.543V217.16H161.286V229H159.543V227.624ZM157.655 227.688C158.188 227.688 158.636 227.56 158.999 227.304C159.361 227.037 159.543 226.691 159.543 226.264V223.416C159.543 222.989 159.361 222.648 158.999 222.392C158.636 222.125 158.188 221.992 157.655 221.992C157.047 221.992 156.561 222.189 156.199 222.584C155.836 222.968 155.655 223.48 155.655 224.12V225.56C155.655 226.2 155.836 226.717 156.199 227.112C156.561 227.496 157.047 227.688 157.655 227.688ZM168.441 219.192C168.078 219.192 167.811 219.107 167.641 218.936C167.481 218.765 167.401 218.547 167.401 218.28V218.008C167.401 217.741 167.481 217.523 167.641 217.352C167.811 217.181 168.078 217.096 168.441 217.096C168.803 217.096 169.065 217.181 169.225 217.352C169.385 217.523 169.465 217.741 169.465 218.008V218.28C169.465 218.547 169.385 218.765 169.225 218.936C169.065 219.107 168.803 219.192 168.441 219.192ZM167.561 220.68H169.305V229H167.561V220.68ZM171.795 229V220.68H173.539V222.056H173.619C173.8 221.608 174.072 221.235 174.435 220.936C174.808 220.637 175.315 220.488 175.955 220.488C176.808 220.488 177.47 220.771 177.939 221.336C178.419 221.891 178.659 222.685 178.659 223.72V229H176.915V223.944C176.915 222.643 176.392 221.992 175.347 221.992C175.123 221.992 174.899 222.024 174.675 222.088C174.462 222.141 174.27 222.227 174.099 222.344C173.928 222.461 173.79 222.611 173.683 222.792C173.587 222.973 173.539 223.187 173.539 223.432V229H171.795ZM183.38 229C182.772 229 182.313 228.845 182.004 228.536C181.695 228.216 181.54 227.768 181.54 227.192V222.104H180.244V220.68H180.948C181.236 220.68 181.433 220.616 181.54 220.488C181.657 220.36 181.716 220.152 181.716 219.864V218.408H183.284V220.68H185.028V222.104H183.284V227.576H184.9V229H183.38ZM190.121 229.192C189.524 229.192 188.991 229.091 188.521 228.888C188.052 228.685 187.652 228.397 187.321 228.024C186.991 227.64 186.735 227.181 186.553 226.648C186.383 226.104 186.297 225.501 186.297 224.84C186.297 224.179 186.383 223.581 186.553 223.048C186.735 222.504 186.991 222.045 187.321 221.672C187.652 221.288 188.052 220.995 188.521 220.792C188.991 220.589 189.524 220.488 190.121 220.488C190.729 220.488 191.263 220.595 191.721 220.808C192.191 221.021 192.58 221.32 192.889 221.704C193.199 222.077 193.428 222.515 193.577 223.016C193.737 223.517 193.817 224.056 193.817 224.632V225.288H188.105V225.56C188.105 226.2 188.292 226.728 188.665 227.144C189.049 227.549 189.593 227.752 190.297 227.752C190.809 227.752 191.241 227.64 191.593 227.416C191.945 227.192 192.244 226.888 192.489 226.504L193.513 227.512C193.204 228.024 192.756 228.435 192.169 228.744C191.583 229.043 190.9 229.192 190.121 229.192ZM190.121 221.848C189.823 221.848 189.545 221.901 189.289 222.008C189.044 222.115 188.831 222.264 188.649 222.456C188.479 222.648 188.345 222.877 188.249 223.144C188.153 223.411 188.105 223.704 188.105 224.024V224.136H191.977V223.976C191.977 223.336 191.812 222.824 191.481 222.44C191.151 222.045 190.697 221.848 190.121 221.848ZM195.748 229V220.68H197.492V222.28H197.572C197.689 221.853 197.935 221.48 198.308 221.16C198.681 220.84 199.199 220.68 199.86 220.68H200.324V222.36H199.636C198.943 222.36 198.409 222.472 198.036 222.696C197.673 222.92 197.492 223.251 197.492 223.688V229H195.748ZM203.822 229L200.99 220.68H202.718L203.982 224.472L204.83 227.384H204.926L205.774 224.472L207.07 220.68H208.734L205.87 229H203.822ZM211.081 219.192C210.718 219.192 210.452 219.107 210.281 218.936C210.121 218.765 210.041 218.547 210.041 218.28V218.008C210.041 217.741 210.121 217.523 210.281 217.352C210.452 217.181 210.718 217.096 211.081 217.096C211.444 217.096 211.705 217.181 211.865 217.352C212.025 217.523 212.105 217.741 212.105 218.008V218.28C212.105 218.547 212.025 218.765 211.865 218.936C211.705 219.107 211.444 219.192 211.081 219.192ZM210.201 220.68H211.945V229H210.201V220.68ZM217.7 229.192C217.102 229.192 216.569 229.091 216.1 228.888C215.63 228.685 215.23 228.397 214.9 228.024C214.569 227.64 214.313 227.181 214.132 226.648C213.961 226.104 213.876 225.501 213.876 224.84C213.876 224.179 213.961 223.581 214.132 223.048C214.313 222.504 214.569 222.045 214.9 221.672C215.23 221.288 215.63 220.995 216.1 220.792C216.569 220.589 217.102 220.488 217.7 220.488C218.308 220.488 218.841 220.595 219.3 220.808C219.769 221.021 220.158 221.32 220.468 221.704C220.777 222.077 221.006 222.515 221.156 223.016C221.316 223.517 221.396 224.056 221.396 224.632V225.288H215.684V225.56C215.684 226.2 215.87 226.728 216.244 227.144C216.628 227.549 217.172 227.752 217.876 227.752C218.388 227.752 218.82 227.64 219.172 227.416C219.524 227.192 219.822 226.888 220.068 226.504L221.092 227.512C220.782 228.024 220.334 228.435 219.748 228.744C219.161 229.043 218.478 229.192 217.7 229.192ZM217.7 221.848C217.401 221.848 217.124 221.901 216.868 222.008C216.622 222.115 216.409 222.264 216.228 222.456C216.057 222.648 215.924 222.877 215.828 223.144C215.732 223.411 215.684 223.704 215.684 224.024V224.136H219.556V223.976C219.556 223.336 219.39 222.824 219.06 222.44C218.729 222.045 218.276 221.848 217.7 221.848ZM222.416 220.68H224.112L224.96 224.168L225.712 227.32H225.76L226.624 224.168L227.632 220.68H229.2L230.224 224.168L231.104 227.32H231.152L231.888 224.168L232.752 220.68H234.368L232.128 229H230.16L229.072 225.208L228.4 222.872H228.368L227.712 225.208L226.608 229H224.688L222.416 220.68ZM239.811 220.68H241.555V222.056H241.635C241.816 221.555 242.109 221.171 242.515 220.904C242.931 220.627 243.416 220.488 243.971 220.488C245.027 220.488 245.843 220.872 246.419 221.64C246.995 222.397 247.283 223.464 247.283 224.84C247.283 226.216 246.995 227.288 246.419 228.056C245.843 228.813 245.027 229.192 243.971 229.192C243.416 229.192 242.931 229.053 242.515 228.776C242.109 228.499 241.816 228.115 241.635 227.624H241.555V232.2H239.811V220.68ZM243.443 227.688C244.051 227.688 244.536 227.496 244.899 227.112C245.261 226.717 245.443 226.2 245.443 225.56V224.12C245.443 223.48 245.261 222.968 244.899 222.584C244.536 222.189 244.051 221.992 243.443 221.992C242.909 221.992 242.461 222.125 242.099 222.392C241.736 222.648 241.555 222.989 241.555 223.416V226.264C241.555 226.691 241.736 227.037 242.099 227.304C242.461 227.56 242.909 227.688 243.443 227.688ZM249.279 229V220.68H251.023V222.28H251.103C251.221 221.853 251.466 221.48 251.839 221.16C252.213 220.84 252.73 220.68 253.391 220.68H253.855V222.36H253.167C252.474 222.36 251.941 222.472 251.567 222.696C251.205 222.92 251.023 223.251 251.023 223.688V229H249.279ZM258.59 229.192C258.014 229.192 257.486 229.091 257.006 228.888C256.537 228.685 256.137 228.397 255.806 228.024C255.475 227.64 255.219 227.181 255.038 226.648C254.857 226.104 254.766 225.501 254.766 224.84C254.766 224.179 254.857 223.581 255.038 223.048C255.219 222.504 255.475 222.045 255.806 221.672C256.137 221.288 256.537 220.995 257.006 220.792C257.486 220.589 258.014 220.488 258.59 220.488C259.166 220.488 259.689 220.589 260.158 220.792C260.638 220.995 261.043 221.288 261.374 221.672C261.705 222.045 261.961 222.504 262.142 223.048C262.323 223.581 262.414 224.179 262.414 224.84C262.414 225.501 262.323 226.104 262.142 226.648C261.961 227.181 261.705 227.64 261.374 228.024C261.043 228.397 260.638 228.685 260.158 228.888C259.689 229.091 259.166 229.192 258.59 229.192ZM258.59 227.752C259.187 227.752 259.667 227.571 260.03 227.208C260.393 226.835 260.574 226.28 260.574 225.544V224.136C260.574 223.4 260.393 222.851 260.03 222.488C259.667 222.115 259.187 221.928 258.59 221.928C257.993 221.928 257.513 222.115 257.15 222.488C256.787 222.851 256.606 223.4 256.606 224.136V225.544C256.606 226.28 256.787 226.835 257.15 227.208C257.513 227.571 257.993 227.752 258.59 227.752ZM267.621 229.192C267.045 229.192 266.517 229.091 266.037 228.888C265.568 228.685 265.168 228.397 264.837 228.024C264.507 227.64 264.251 227.181 264.069 226.648C263.888 226.104 263.797 225.501 263.797 224.84C263.797 224.179 263.888 223.581 264.069 223.048C264.251 222.504 264.507 222.045 264.837 221.672C265.168 221.288 265.568 220.995 266.037 220.792C266.517 220.589 267.045 220.488 267.621 220.488C268.197 220.488 268.72 220.589 269.189 220.792C269.669 220.995 270.075 221.288 270.405 221.672C270.736 222.045 270.992 222.504 271.173 223.048C271.355 223.581 271.445 224.179 271.445 224.84C271.445 225.501 271.355 226.104 271.173 226.648C270.992 227.181 270.736 227.64 270.405 228.024C270.075 228.397 269.669 228.685 269.189 228.888C268.72 229.091 268.197 229.192 267.621 229.192ZM267.621 227.752C268.219 227.752 268.699 227.571 269.061 227.208C269.424 226.835 269.605 226.28 269.605 225.544V224.136C269.605 223.4 269.424 222.851 269.061 222.488C268.699 222.115 268.219 221.928 267.621 221.928C267.024 221.928 266.544 222.115 266.181 222.488C265.819 222.851 265.637 223.4 265.637 224.136V225.544C265.637 226.28 265.819 226.835 266.181 227.208C266.544 227.571 267.024 227.752 267.621 227.752ZM273.727 222.104H272.463V220.68H273.727V219.304C273.727 218.632 273.903 218.109 274.255 217.736C274.607 217.352 275.135 217.16 275.839 217.16H277.215V218.584H275.471V220.68H277.215V222.104H275.471V229H273.727V222.104ZM281.372 229.192C280.583 229.192 279.922 229.053 279.388 228.776C278.855 228.499 278.391 228.115 277.996 227.624L279.116 226.6C279.426 226.973 279.767 227.267 280.14 227.48C280.524 227.683 280.967 227.784 281.468 227.784C281.98 227.784 282.359 227.688 282.604 227.496C282.86 227.293 282.988 227.016 282.988 226.664C282.988 226.397 282.898 226.173 282.716 225.992C282.546 225.8 282.242 225.677 281.804 225.624L281.036 225.528C280.183 225.421 279.511 225.176 279.02 224.792C278.54 224.397 278.3 223.816 278.3 223.048C278.3 222.643 278.375 222.285 278.524 221.976C278.674 221.656 278.882 221.389 279.148 221.176C279.426 220.952 279.751 220.781 280.124 220.664C280.508 220.547 280.93 220.488 281.388 220.488C282.135 220.488 282.743 220.605 283.212 220.84C283.692 221.075 284.119 221.4 284.492 221.816L283.42 222.84C283.207 222.584 282.924 222.365 282.572 222.184C282.231 221.992 281.836 221.896 281.388 221.896C280.908 221.896 280.551 221.992 280.316 222.184C280.092 222.376 279.98 222.627 279.98 222.936C279.98 223.256 280.082 223.496 280.284 223.656C280.487 223.816 280.812 223.933 281.26 224.008L282.028 224.104C282.946 224.243 283.612 224.515 284.028 224.92C284.455 225.315 284.668 225.848 284.668 226.52C284.668 226.925 284.588 227.293 284.428 227.624C284.279 227.944 284.06 228.221 283.772 228.456C283.484 228.691 283.138 228.872 282.732 229C282.327 229.128 281.874 229.192 281.372 229.192Z" fill="#8D93B4"/>
<path d="M180.631 49H182.255V44.954H186.287V43.414H182.255V41.104H187.141V39.564H180.631V49ZM188.147 49H189.659V45.71C189.659 45.332 189.687 45.003 189.757 44.737C189.82 44.471 189.918 44.254 190.044 44.086C190.17 43.918 190.317 43.799 190.499 43.722C190.674 43.652 190.877 43.61 191.101 43.61H191.843V42.112C191.787 42.098 191.731 42.084 191.668 42.07C191.612 42.063 191.542 42.056 191.458 42.042C191.374 42.035 191.276 42.028 191.171 42.028C190.863 42.028 190.576 42.091 190.324 42.217C190.072 42.343 189.848 42.546 189.659 42.826L189.645 42.126H188.147V49ZM192.253 45.556C192.253 46.123 192.323 46.627 192.463 47.061C192.603 47.495 192.799 47.866 193.065 48.167C193.331 48.468 193.653 48.699 194.031 48.853C194.409 49.007 194.829 49.084 195.305 49.084C195.662 49.084 195.998 49.035 196.306 48.937C196.614 48.839 196.887 48.692 197.132 48.496C197.377 48.307 197.587 48.076 197.762 47.796C197.93 47.516 198.063 47.201 198.161 46.844H196.593C196.537 47.005 196.46 47.138 196.376 47.243C196.285 47.355 196.187 47.439 196.075 47.509C195.963 47.579 195.837 47.628 195.711 47.656C195.585 47.684 195.452 47.698 195.319 47.698C195.137 47.698 194.962 47.677 194.794 47.621C194.626 47.565 194.472 47.481 194.339 47.355C194.206 47.236 194.094 47.075 194.003 46.879C193.912 46.683 193.856 46.438 193.835 46.144H198.287C198.287 46.102 198.294 46.039 198.308 45.969C198.308 45.913 198.315 45.843 198.322 45.759C198.322 45.675 198.329 45.57 198.329 45.458C198.329 44.968 198.266 44.52 198.14 44.1C198.014 43.68 197.825 43.316 197.573 43.008C197.321 42.7 197.006 42.462 196.628 42.287C196.25 42.119 195.816 42.028 195.319 42.028C194.857 42.028 194.444 42.112 194.066 42.266C193.688 42.42 193.366 42.651 193.1 42.952C192.834 43.253 192.624 43.624 192.477 44.058C192.323 44.492 192.253 44.996 192.253 45.556ZM193.849 44.884C193.898 44.415 194.059 44.051 194.325 43.792C194.591 43.533 194.927 43.4 195.333 43.4C195.543 43.4 195.739 43.442 195.914 43.512C196.082 43.582 196.229 43.687 196.355 43.82C196.474 43.953 196.565 44.107 196.635 44.289C196.698 44.471 196.733 44.674 196.747 44.884H193.849ZM199.253 45.556C199.253 46.123 199.323 46.627 199.463 47.061C199.603 47.495 199.799 47.866 200.065 48.167C200.331 48.468 200.653 48.699 201.031 48.853C201.409 49.007 201.829 49.084 202.305 49.084C202.662 49.084 202.998 49.035 203.306 48.937C203.614 48.839 203.887 48.692 204.132 48.496C204.377 48.307 204.587 48.076 204.762 47.796C204.93 47.516 205.063 47.201 205.161 46.844H203.593C203.537 47.005 203.46 47.138 203.376 47.243C203.285 47.355 203.187 47.439 203.075 47.509C202.963 47.579 202.837 47.628 202.711 47.656C202.585 47.684 202.452 47.698 202.319 47.698C202.137 47.698 201.962 47.677 201.794 47.621C201.626 47.565 201.472 47.481 201.339 47.355C201.206 47.236 201.094 47.075 201.003 46.879C200.912 46.683 200.856 46.438 200.835 46.144H205.287C205.287 46.102 205.294 46.039 205.308 45.969C205.308 45.913 205.315 45.843 205.322 45.759C205.322 45.675 205.329 45.57 205.329 45.458C205.329 44.968 205.266 44.52 205.14 44.1C205.014 43.68 204.825 43.316 204.573 43.008C204.321 42.7 204.006 42.462 203.628 42.287C203.25 42.119 202.816 42.028 202.319 42.028C201.857 42.028 201.444 42.112 201.066 42.266C200.688 42.42 200.366 42.651 200.1 42.952C199.834 43.253 199.624 43.624 199.477 44.058C199.323 44.492 199.253 44.996 199.253 45.556ZM200.849 44.884C200.898 44.415 201.059 44.051 201.325 43.792C201.591 43.533 201.927 43.4 202.333 43.4C202.543 43.4 202.739 43.442 202.914 43.512C203.082 43.582 203.229 43.687 203.355 43.82C203.474 43.953 203.565 44.107 203.635 44.289C203.698 44.471 203.733 44.674 203.747 44.884H200.849Z" fill="#151923"/>
<path d="M176.084 90V86.32C176.959 85.936 177.588 85.3707 177.972 84.624C178.356 83.856 178.548 83.024 178.548 82.128C178.548 81.8933 178.538 81.6693 178.516 81.456C178.495 81.2213 178.463 80.9973 178.42 80.784H175.252V77.872H177.428C177.236 77.2533 177.055 76.6347 176.884 76.016C176.714 75.376 176.628 74.6827 176.628 73.936C176.628 72.9547 176.799 72.0587 177.14 71.248C177.503 70.416 178.015 69.712 178.676 69.136C179.338 68.5387 180.138 68.08 181.076 67.76C182.015 67.44 183.082 67.28 184.276 67.28C185.94 67.28 187.348 67.6 188.5 68.24C189.674 68.88 190.644 69.808 191.412 71.024L188.756 72.912C188.202 72.1013 187.562 71.4827 186.836 71.056C186.132 70.6293 185.279 70.416 184.276 70.416C183.018 70.416 182.036 70.7573 181.332 71.44C180.65 72.1013 180.308 73.0933 180.308 74.416C180.308 75.0773 180.383 75.6853 180.532 76.24C180.682 76.7733 180.842 77.3173 181.012 77.872H187.668V80.784H181.972C182.036 81.1467 182.068 81.52 182.068 81.904C182.068 83.0773 181.812 84.08 181.3 84.912C180.81 85.7227 180.255 86.3093 179.636 86.672V86.864H190.868V90H176.084ZM202.128 90.384C200.741 90.384 199.536 90.128 198.512 89.616C197.488 89.0827 196.645 88.3253 195.984 87.344C195.323 86.3627 194.832 85.1573 194.512 83.728C194.192 82.2987 194.032 80.6667 194.032 78.832C194.032 77.0187 194.192 75.3973 194.512 73.968C194.832 72.5173 195.323 71.3013 195.984 70.32C196.645 69.3387 197.488 68.592 198.512 68.08C199.536 67.5467 200.741 67.28 202.128 67.28C204.901 67.28 206.939 68.2933 208.24 70.32C209.563 72.3467 210.224 75.184 210.224 78.832C210.224 82.48 209.563 85.3173 208.24 87.344C206.939 89.3707 204.901 90.384 202.128 90.384ZM202.128 87.312C202.896 87.312 203.547 87.1627 204.08 86.864C204.635 86.544 205.083 86.096 205.424 85.52C205.765 84.944 206.011 84.2613 206.16 83.472C206.309 82.6613 206.384 81.7653 206.384 80.784V76.88C206.384 75.8987 206.309 75.0133 206.16 74.224C206.011 73.4133 205.765 72.72 205.424 72.144C205.083 71.568 204.635 71.1307 204.08 70.832C203.547 70.512 202.896 70.352 202.128 70.352C201.36 70.352 200.699 70.512 200.144 70.832C199.611 71.1307 199.173 71.568 198.832 72.144C198.491 72.72 198.245 73.4133 198.096 74.224C197.947 75.0133 197.872 75.8987 197.872 76.88V80.784C197.872 81.7653 197.947 82.6613 198.096 83.472C198.245 84.2613 198.491 84.944 198.832 85.52C199.173 86.096 199.611 86.544 200.144 86.864C200.699 87.1627 201.36 87.312 202.128 87.312Z" fill="#151923"/>
<path d="M159.927 113V103.228H164.127C165.032 103.228 165.732 103.494 166.227 104.026C166.721 104.558 166.969 105.272 166.969 106.168C166.969 107.064 166.721 107.778 166.227 108.31C165.732 108.842 165.032 109.108 164.127 109.108H161.509V113H159.927ZM161.509 107.722H164.029C164.43 107.722 164.743 107.619 164.967 107.414C165.191 107.199 165.303 106.896 165.303 106.504V105.832C165.303 105.44 165.191 105.141 164.967 104.936C164.743 104.721 164.43 104.614 164.029 104.614H161.509V107.722ZM171.175 113.168C170.652 113.168 170.185 113.079 169.775 112.902C169.364 112.725 169.014 112.473 168.725 112.146C168.435 111.81 168.211 111.409 168.053 110.942C167.903 110.466 167.829 109.939 167.829 109.36C167.829 108.781 167.903 108.259 168.053 107.792C168.211 107.316 168.435 106.915 168.725 106.588C169.014 106.252 169.364 105.995 169.775 105.818C170.185 105.641 170.652 105.552 171.175 105.552C171.707 105.552 172.173 105.645 172.575 105.832C172.985 106.019 173.326 106.28 173.597 106.616C173.867 106.943 174.068 107.325 174.199 107.764C174.339 108.203 174.409 108.674 174.409 109.178V109.752H169.411V109.99C169.411 110.55 169.574 111.012 169.901 111.376C170.237 111.731 170.713 111.908 171.329 111.908C171.777 111.908 172.155 111.81 172.463 111.614C172.771 111.418 173.032 111.152 173.247 110.816L174.143 111.698C173.872 112.146 173.48 112.505 172.967 112.776C172.453 113.037 171.856 113.168 171.175 113.168ZM171.175 106.742C170.913 106.742 170.671 106.789 170.447 106.882C170.232 106.975 170.045 107.106 169.887 107.274C169.737 107.442 169.621 107.643 169.537 107.876C169.453 108.109 169.411 108.366 169.411 108.646V108.744H172.799V108.604C172.799 108.044 172.654 107.596 172.365 107.26C172.075 106.915 171.679 106.742 171.175 106.742ZM176.098 113V105.72H177.624V107.12H177.694C177.797 106.747 178.011 106.42 178.338 106.14C178.665 105.86 179.117 105.72 179.696 105.72H180.102V107.19H179.5C178.893 107.19 178.427 107.288 178.1 107.484C177.783 107.68 177.624 107.969 177.624 108.352V113H176.098ZM184.766 113V105.72H186.292V106.924H186.362C186.436 106.737 186.525 106.56 186.628 106.392C186.74 106.224 186.87 106.079 187.02 105.958C187.178 105.827 187.36 105.729 187.566 105.664C187.78 105.589 188.028 105.552 188.308 105.552C188.802 105.552 189.241 105.673 189.624 105.916C190.006 106.159 190.286 106.532 190.464 107.036H190.506C190.636 106.625 190.888 106.275 191.262 105.986C191.635 105.697 192.116 105.552 192.704 105.552C193.432 105.552 193.996 105.799 194.398 106.294C194.799 106.779 195 107.475 195 108.38V113H193.474V108.562C193.474 108.002 193.366 107.582 193.152 107.302C192.937 107.013 192.596 106.868 192.13 106.868C191.934 106.868 191.747 106.896 191.57 106.952C191.392 106.999 191.234 107.073 191.094 107.176C190.963 107.279 190.856 107.409 190.772 107.568C190.688 107.727 190.646 107.909 190.646 108.114V113H189.12V108.562C189.12 107.433 188.676 106.868 187.79 106.868C187.603 106.868 187.416 106.896 187.23 106.952C187.052 106.999 186.894 107.073 186.754 107.176C186.614 107.279 186.502 107.409 186.418 107.568C186.334 107.727 186.292 107.909 186.292 108.114V113H184.766ZM199.968 113.168C199.464 113.168 199.002 113.079 198.582 112.902C198.171 112.725 197.821 112.473 197.532 112.146C197.242 111.81 197.018 111.409 196.86 110.942C196.701 110.466 196.622 109.939 196.622 109.36C196.622 108.781 196.701 108.259 196.86 107.792C197.018 107.316 197.242 106.915 197.532 106.588C197.821 106.252 198.171 105.995 198.582 105.818C199.002 105.641 199.464 105.552 199.968 105.552C200.472 105.552 200.929 105.641 201.34 105.818C201.76 105.995 202.114 106.252 202.404 106.588C202.693 106.915 202.917 107.316 203.076 107.792C203.234 108.259 203.314 108.781 203.314 109.36C203.314 109.939 203.234 110.466 203.076 110.942C202.917 111.409 202.693 111.81 202.404 112.146C202.114 112.473 201.76 112.725 201.34 112.902C200.929 113.079 200.472 113.168 199.968 113.168ZM199.968 111.908C200.49 111.908 200.91 111.749 201.228 111.432C201.545 111.105 201.704 110.62 201.704 109.976V108.744C201.704 108.1 201.545 107.619 201.228 107.302C200.91 106.975 200.49 106.812 199.968 106.812C199.445 106.812 199.025 106.975 198.708 107.302C198.39 107.619 198.232 108.1 198.232 108.744V109.976C198.232 110.62 198.39 111.105 198.708 111.432C199.025 111.749 199.445 111.908 199.968 111.908ZM205.014 113V105.72H206.54V106.924H206.61C206.769 106.532 207.007 106.205 207.324 105.944C207.651 105.683 208.094 105.552 208.654 105.552C209.401 105.552 209.979 105.799 210.39 106.294C210.81 106.779 211.02 107.475 211.02 108.38V113H209.494V108.576C209.494 107.437 209.037 106.868 208.122 106.868C207.926 106.868 207.73 106.896 207.534 106.952C207.347 106.999 207.179 107.073 207.03 107.176C206.881 107.279 206.759 107.409 206.666 107.568C206.582 107.727 206.54 107.913 206.54 108.128V113H205.014ZM215.151 113C214.619 113 214.218 112.865 213.947 112.594C213.676 112.314 213.541 111.922 213.541 111.418V106.966H212.407V105.72H213.023C213.275 105.72 213.448 105.664 213.541 105.552C213.644 105.44 213.695 105.258 213.695 105.006V103.732H215.067V105.72H216.593V106.966H215.067V111.754H216.481V113H215.151ZM218.248 102.64H219.774V106.924H219.844C220.003 106.532 220.241 106.205 220.558 105.944C220.885 105.683 221.328 105.552 221.888 105.552C222.635 105.552 223.214 105.799 223.624 106.294C224.044 106.779 224.254 107.475 224.254 108.38V113H222.728V108.562C222.728 107.433 222.271 106.868 221.356 106.868C221.16 106.868 220.964 106.896 220.768 106.952C220.582 106.999 220.414 107.073 220.264 107.176C220.115 107.279 219.994 107.409 219.9 107.568C219.816 107.727 219.774 107.909 219.774 108.114V113H218.248V102.64Z" fill="#808BA8"/>
<path d="M151.293 137.78C152.159 137.78 152.799 137.6 153.213 137.24C153.626 136.867 153.833 136.393 153.833 135.82V135.68C153.833 135.04 153.633 134.553 153.233 134.22C152.833 133.873 152.293 133.7 151.613 133.7C150.946 133.7 150.379 133.853 149.913 134.16C149.446 134.453 149.053 134.867 148.733 135.4L147.233 134.1C147.446 133.793 147.686 133.5 147.953 133.22C148.219 132.94 148.533 132.7 148.893 132.5C149.253 132.287 149.659 132.12 150.113 132C150.566 131.867 151.086 131.8 151.673 131.8C152.326 131.8 152.933 131.88 153.493 132.04C154.053 132.2 154.533 132.44 154.933 132.76C155.333 133.067 155.646 133.447 155.873 133.9C156.099 134.34 156.213 134.84 156.213 135.4C156.213 135.84 156.139 136.24 155.993 136.6C155.859 136.96 155.666 137.28 155.413 137.56C155.173 137.827 154.886 138.047 154.553 138.22C154.233 138.393 153.893 138.52 153.533 138.6V138.7C153.933 138.78 154.306 138.913 154.653 139.1C155.013 139.273 155.326 139.507 155.593 139.8C155.859 140.08 156.066 140.42 156.213 140.82C156.373 141.207 156.453 141.653 156.453 142.16C156.453 142.773 156.333 143.333 156.093 143.84C155.853 144.333 155.513 144.76 155.073 145.12C154.646 145.48 154.126 145.76 153.513 145.96C152.899 146.147 152.219 146.24 151.473 146.24C150.819 146.24 150.246 146.167 149.753 146.02C149.259 145.887 148.819 145.707 148.433 145.48C148.059 145.24 147.726 144.973 147.433 144.68C147.153 144.373 146.906 144.06 146.693 143.74L148.353 142.44C148.526 142.72 148.706 142.98 148.893 143.22C149.093 143.447 149.313 143.647 149.553 143.82C149.806 143.98 150.086 144.107 150.393 144.2C150.713 144.293 151.073 144.34 151.473 144.34C152.326 144.34 152.979 144.14 153.433 143.74C153.886 143.327 154.113 142.76 154.113 142.04V141.9C154.113 141.18 153.873 140.633 153.393 140.26C152.913 139.887 152.233 139.7 151.353 139.7H149.873V137.78H151.293ZM164.045 146.24C163.178 146.24 162.425 146.08 161.785 145.76C161.145 145.427 160.618 144.953 160.205 144.34C159.792 143.727 159.485 142.973 159.285 142.08C159.085 141.187 158.985 140.167 158.985 139.02C158.985 137.887 159.085 136.873 159.285 135.98C159.485 135.073 159.792 134.313 160.205 133.7C160.618 133.087 161.145 132.62 161.785 132.3C162.425 131.967 163.178 131.8 164.045 131.8C165.778 131.8 167.052 132.433 167.865 133.7C168.692 134.967 169.105 136.74 169.105 139.02C169.105 141.3 168.692 143.073 167.865 144.34C167.052 145.607 165.778 146.24 164.045 146.24ZM164.045 144.32C164.525 144.32 164.932 144.227 165.265 144.04C165.612 143.84 165.892 143.56 166.105 143.2C166.318 142.84 166.472 142.413 166.565 141.92C166.658 141.413 166.705 140.853 166.705 140.24V137.8C166.705 137.187 166.658 136.633 166.565 136.14C166.472 135.633 166.318 135.2 166.105 134.84C165.892 134.48 165.612 134.207 165.265 134.02C164.932 133.82 164.525 133.72 164.045 133.72C163.565 133.72 163.152 133.82 162.805 134.02C162.472 134.207 162.198 134.48 161.985 134.84C161.772 135.2 161.618 135.633 161.525 136.14C161.432 136.633 161.385 137.187 161.385 137.8V140.24C161.385 140.853 161.432 141.413 161.525 141.92C161.618 142.413 161.772 142.84 161.985 143.2C162.198 143.56 162.472 143.84 162.805 144.04C163.152 144.227 163.565 144.32 164.045 144.32ZM180.344 146.24C179.597 146.24 178.93 146.113 178.344 145.86C177.757 145.607 177.264 145.247 176.864 144.78C176.464 144.3 176.157 143.727 175.944 143.06C175.73 142.38 175.624 141.627 175.624 140.8C175.624 139.973 175.73 139.227 175.944 138.56C176.157 137.88 176.464 137.307 176.864 136.84C177.264 136.36 177.757 135.993 178.344 135.74C178.93 135.487 179.597 135.36 180.344 135.36C181.384 135.36 182.237 135.593 182.904 136.06C183.57 136.527 184.057 137.147 184.364 137.92L182.564 138.76C182.417 138.28 182.157 137.9 181.784 137.62C181.424 137.327 180.944 137.18 180.344 137.18C179.544 137.18 178.937 137.433 178.524 137.94C178.124 138.433 177.924 139.08 177.924 139.88V141.74C177.924 142.54 178.124 143.193 178.524 143.7C178.937 144.193 179.544 144.44 180.344 144.44C180.984 144.44 181.49 144.287 181.864 143.98C182.25 143.66 182.557 143.24 182.784 142.72L184.444 143.6C184.097 144.453 183.577 145.107 182.884 145.56C182.19 146.013 181.344 146.24 180.344 146.24ZM186.519 146V135.6H188.699V137.6H188.799C188.946 137.067 189.252 136.6 189.719 136.2C190.186 135.8 190.832 135.6 191.659 135.6H192.239V137.7H191.379C190.512 137.7 189.846 137.84 189.379 138.12C188.926 138.4 188.699 138.813 188.699 139.36V146H186.519ZM198.158 146.24C197.411 146.24 196.744 146.113 196.158 145.86C195.571 145.607 195.071 145.247 194.658 144.78C194.244 144.3 193.924 143.727 193.698 143.06C193.484 142.38 193.378 141.627 193.378 140.8C193.378 139.973 193.484 139.227 193.698 138.56C193.924 137.88 194.244 137.307 194.658 136.84C195.071 136.36 195.571 135.993 196.158 135.74C196.744 135.487 197.411 135.36 198.158 135.36C198.918 135.36 199.584 135.493 200.158 135.76C200.744 136.027 201.231 136.4 201.618 136.88C202.004 137.347 202.291 137.893 202.478 138.52C202.678 139.147 202.778 139.82 202.778 140.54V141.36H195.638V141.7C195.638 142.5 195.871 143.16 196.338 143.68C196.818 144.187 197.498 144.44 198.378 144.44C199.018 144.44 199.558 144.3 199.998 144.02C200.438 143.74 200.811 143.36 201.118 142.88L202.398 144.14C202.011 144.78 201.451 145.293 200.718 145.68C199.984 146.053 199.131 146.24 198.158 146.24ZM198.158 137.06C197.784 137.06 197.438 137.127 197.118 137.26C196.811 137.393 196.544 137.58 196.318 137.82C196.104 138.06 195.938 138.347 195.818 138.68C195.698 139.013 195.638 139.38 195.638 139.78V139.92H200.478V139.72C200.478 138.92 200.271 138.28 199.858 137.8C199.444 137.307 198.878 137.06 198.158 137.06ZM211.731 144.28H211.631C211.404 144.893 211.031 145.373 210.511 145.72C210.004 146.067 209.404 146.24 208.711 146.24C207.391 146.24 206.371 145.767 205.651 144.82C204.931 143.86 204.571 142.52 204.571 140.8C204.571 139.08 204.931 137.747 205.651 136.8C206.371 135.84 207.391 135.36 208.711 135.36C209.404 135.36 210.004 135.533 210.511 135.88C211.031 136.213 211.404 136.693 211.631 137.32H211.731V131.2H213.911V146H211.731V144.28ZM209.371 144.36C210.038 144.36 210.598 144.2 211.051 143.88C211.504 143.547 211.731 143.113 211.731 142.58V139.02C211.731 138.487 211.504 138.06 211.051 137.74C210.598 137.407 210.038 137.24 209.371 137.24C208.611 137.24 208.004 137.487 207.551 137.98C207.098 138.46 206.871 139.1 206.871 139.9V141.7C206.871 142.5 207.098 143.147 207.551 143.64C208.004 144.12 208.611 144.36 209.371 144.36ZM218.127 133.74C217.673 133.74 217.34 133.633 217.127 133.42C216.927 133.207 216.827 132.933 216.827 132.6V132.26C216.827 131.927 216.927 131.653 217.127 131.44C217.34 131.227 217.673 131.12 218.127 131.12C218.58 131.12 218.907 131.227 219.107 131.44C219.307 131.653 219.407 131.927 219.407 132.26V132.6C219.407 132.933 219.307 133.207 219.107 133.42C218.907 133.633 218.58 133.74 218.127 133.74ZM217.027 135.6H219.207V146H217.027V135.6ZM225.2 146C224.44 146 223.866 145.807 223.48 145.42C223.093 145.02 222.9 144.46 222.9 143.74V137.38H221.28V135.6H222.16C222.52 135.6 222.766 135.52 222.9 135.36C223.046 135.2 223.12 134.94 223.12 134.58V132.76H225.08V135.6H227.26V137.38H225.08V144.22H227.1V146H225.2ZM232.924 146.24C231.938 146.24 231.111 146.067 230.444 145.72C229.778 145.373 229.198 144.893 228.704 144.28L230.104 143C230.491 143.467 230.918 143.833 231.384 144.1C231.864 144.353 232.418 144.48 233.044 144.48C233.684 144.48 234.158 144.36 234.464 144.12C234.784 143.867 234.944 143.52 234.944 143.08C234.944 142.747 234.831 142.467 234.604 142.24C234.391 142 234.011 141.847 233.464 141.78L232.504 141.66C231.438 141.527 230.598 141.22 229.984 140.74C229.384 140.247 229.084 139.52 229.084 138.56C229.084 138.053 229.178 137.607 229.364 137.22C229.551 136.82 229.811 136.487 230.144 136.22C230.491 135.94 230.898 135.727 231.364 135.58C231.844 135.433 232.371 135.36 232.944 135.36C233.878 135.36 234.638 135.507 235.224 135.8C235.824 136.093 236.358 136.5 236.824 137.02L235.484 138.3C235.218 137.98 234.864 137.707 234.424 137.48C233.998 137.24 233.504 137.12 232.944 137.12C232.344 137.12 231.898 137.24 231.604 137.48C231.324 137.72 231.184 138.033 231.184 138.42C231.184 138.82 231.311 139.12 231.564 139.32C231.818 139.52 232.224 139.667 232.784 139.76L233.744 139.88C234.891 140.053 235.724 140.393 236.244 140.9C236.778 141.393 237.044 142.06 237.044 142.9C237.044 143.407 236.944 143.867 236.744 144.28C236.558 144.68 236.284 145.027 235.924 145.32C235.564 145.613 235.131 145.84 234.624 146C234.118 146.16 233.551 146.24 232.924 146.24Z" fill="#151923"/>
<rect x="32" y="387" width="320" height="40" rx="4" fill="#808BA8"/>
<path d="M143.401 412.192C142.014 412.192 140.942 411.712 140.185 410.752C139.427 409.781 139.049 408.347 139.049 406.448C139.049 404.56 139.427 403.12 140.185 402.128C140.942 401.136 142.014 400.64 143.401 400.64C144.297 400.64 145.049 400.853 145.657 401.28C146.275 401.707 146.755 402.288 147.097 403.024L146.313 403.488C146.067 402.88 145.694 402.4 145.193 402.048C144.702 401.685 144.105 401.504 143.401 401.504C142.355 401.504 141.539 401.877 140.953 402.624C140.366 403.371 140.073 404.437 140.073 405.824V407.088C140.073 408.464 140.366 409.515 140.953 410.24C141.539 410.965 142.355 411.328 143.401 411.328C144.147 411.328 144.771 411.141 145.273 410.768C145.774 410.384 146.147 409.872 146.393 409.232L147.177 409.696C146.846 410.464 146.361 411.072 145.721 411.52C145.081 411.968 144.307 412.192 143.401 412.192ZM149.404 412V403.808H150.316V405.28H150.38C150.54 404.896 150.812 404.555 151.196 404.256C151.58 403.957 152.124 403.808 152.828 403.808H153.372V404.704H152.652C151.969 404.704 151.409 404.853 150.972 405.152C150.534 405.451 150.316 405.867 150.316 406.4V412H149.404ZM158.004 412.192C157.46 412.192 156.964 412.096 156.516 411.904C156.078 411.712 155.7 411.435 155.38 411.072C155.07 410.699 154.83 410.245 154.66 409.712C154.5 409.179 154.42 408.576 154.42 407.904C154.42 407.232 154.5 406.635 154.66 406.112C154.83 405.579 155.07 405.131 155.38 404.768C155.7 404.395 156.078 404.112 156.516 403.92C156.953 403.717 157.444 403.616 157.988 403.616C158.51 403.616 158.985 403.717 159.412 403.92C159.838 404.112 160.201 404.384 160.5 404.736C160.798 405.088 161.028 405.515 161.188 406.016C161.358 406.507 161.444 407.051 161.444 407.648V408.08H155.38V408.48C155.38 408.907 155.438 409.301 155.556 409.664C155.684 410.016 155.86 410.32 156.084 410.576C156.318 410.832 156.601 411.035 156.932 411.184C157.262 411.323 157.636 411.392 158.052 411.392C159.246 411.392 160.073 410.843 160.532 409.744L161.204 410.192C160.948 410.8 160.542 411.285 159.988 411.648C159.444 412.011 158.782 412.192 158.004 412.192ZM157.988 404.384C157.593 404.384 157.236 404.459 156.916 404.608C156.596 404.747 156.318 404.944 156.084 405.2C155.86 405.456 155.684 405.765 155.556 406.128C155.438 406.48 155.38 406.869 155.38 407.296V407.376H160.452V407.248C160.452 406.821 160.393 406.432 160.276 406.08C160.158 405.717 159.988 405.413 159.764 405.168C159.55 404.923 159.289 404.731 158.98 404.592C158.681 404.453 158.35 404.384 157.988 404.384ZM169.395 412C169.043 412 168.787 411.909 168.627 411.728C168.467 411.547 168.376 411.301 168.355 410.992V410.704H168.275C168.094 411.163 167.795 411.525 167.379 411.792C166.963 412.059 166.435 412.192 165.795 412.192C164.931 412.192 164.264 411.984 163.795 411.568C163.326 411.141 163.091 410.544 163.091 409.776C163.091 409.051 163.347 408.475 163.859 408.048C164.382 407.621 165.235 407.408 166.419 407.408H168.307V406.448C168.307 405.093 167.608 404.416 166.211 404.416C165.667 404.416 165.214 404.533 164.851 404.768C164.488 404.992 164.195 405.317 163.971 405.744L163.395 405.264C163.619 404.784 163.96 404.389 164.419 404.08C164.888 403.771 165.496 403.616 166.243 403.616C167.203 403.616 167.939 403.856 168.451 404.336C168.963 404.816 169.219 405.488 169.219 406.352V411.2H170.323V412H169.395ZM165.923 411.408C166.254 411.408 166.563 411.365 166.851 411.28C167.139 411.195 167.39 411.077 167.603 410.928C167.827 410.768 167.998 410.581 168.115 410.368C168.243 410.144 168.307 409.893 168.307 409.616V408.096H166.387C165.566 408.096 164.968 408.229 164.595 408.496C164.232 408.752 164.051 409.109 164.051 409.568V409.952C164.051 410.432 164.222 410.795 164.563 411.04C164.904 411.285 165.358 411.408 165.923 411.408ZM173.64 412C173.309 412 173.058 411.909 172.888 411.728C172.717 411.547 172.632 411.301 172.632 410.992V404.608H171.208V403.808H172.136C172.36 403.808 172.509 403.765 172.584 403.68C172.669 403.584 172.712 403.419 172.712 403.184V401.52H173.544V403.808H175.4V404.608H173.544V411.2H175.272V412H173.64ZM180.457 412.192C179.913 412.192 179.417 412.096 178.969 411.904C178.531 411.712 178.153 411.435 177.833 411.072C177.523 410.699 177.283 410.245 177.113 409.712C176.953 409.179 176.873 408.576 176.873 407.904C176.873 407.232 176.953 406.635 177.113 406.112C177.283 405.579 177.523 405.131 177.833 404.768C178.153 404.395 178.531 404.112 178.969 403.92C179.406 403.717 179.897 403.616 180.441 403.616C180.963 403.616 181.438 403.717 181.865 403.92C182.291 404.112 182.654 404.384 182.953 404.736C183.251 405.088 183.481 405.515 183.641 406.016C183.811 406.507 183.897 407.051 183.897 407.648V408.08H177.833V408.48C177.833 408.907 177.891 409.301 178.009 409.664C178.137 410.016 178.313 410.32 178.537 410.576C178.771 410.832 179.054 411.035 179.385 411.184C179.715 411.323 180.089 411.392 180.505 411.392C181.699 411.392 182.526 410.843 182.985 409.744L183.657 410.192C183.401 410.8 182.995 411.285 182.441 411.648C181.897 412.011 181.235 412.192 180.457 412.192ZM180.441 404.384C180.046 404.384 179.689 404.459 179.369 404.608C179.049 404.747 178.771 404.944 178.537 405.2C178.313 405.456 178.137 405.765 178.009 406.128C177.891 406.48 177.833 406.869 177.833 407.296V407.376H182.905V407.248C182.905 406.821 182.846 406.432 182.729 406.08C182.611 405.717 182.441 405.413 182.217 405.168C182.003 404.923 181.742 404.731 181.433 404.592C181.134 404.453 180.803 404.384 180.441 404.384ZM195.629 412C195.277 412 195.021 411.909 194.861 411.728C194.701 411.547 194.611 411.301 194.589 410.992V410.704H194.509C194.328 411.163 194.029 411.525 193.613 411.792C193.197 412.059 192.669 412.192 192.029 412.192C191.165 412.192 190.499 411.984 190.029 411.568C189.56 411.141 189.325 410.544 189.325 409.776C189.325 409.051 189.581 408.475 190.093 408.048C190.616 407.621 191.469 407.408 192.653 407.408H194.541V406.448C194.541 405.093 193.843 404.416 192.445 404.416C191.901 404.416 191.448 404.533 191.085 404.768C190.723 404.992 190.429 405.317 190.205 405.744L189.629 405.264C189.853 404.784 190.195 404.389 190.653 404.08C191.123 403.771 191.731 403.616 192.477 403.616C193.437 403.616 194.173 403.856 194.685 404.336C195.197 404.816 195.453 405.488 195.453 406.352V411.2H196.557V412H195.629ZM192.157 411.408C192.488 411.408 192.797 411.365 193.085 411.28C193.373 411.195 193.624 411.077 193.837 410.928C194.061 410.768 194.232 410.581 194.349 410.368C194.477 410.144 194.541 409.893 194.541 409.616V408.096H192.621C191.8 408.096 191.203 408.229 190.829 408.496C190.467 408.752 190.285 409.109 190.285 409.568V409.952C190.285 410.432 190.456 410.795 190.797 411.04C191.139 411.285 191.592 411.408 192.157 411.408ZM201.315 412.192C200.184 412.192 199.31 411.819 198.691 411.072C198.083 410.325 197.779 409.269 197.779 407.904C197.779 406.539 198.083 405.483 198.691 404.736C199.31 403.989 200.184 403.616 201.315 403.616C202.072 403.616 202.686 403.781 203.155 404.112C203.624 404.443 203.982 404.88 204.227 405.424L203.459 405.808C203.267 405.36 202.995 405.019 202.643 404.784C202.302 404.549 201.859 404.432 201.315 404.432C200.483 404.432 199.848 404.699 199.411 405.232C198.974 405.765 198.755 406.464 198.755 407.328V408.48C198.755 409.344 198.974 410.043 199.411 410.576C199.848 411.109 200.483 411.376 201.315 411.376C201.88 411.376 202.355 411.253 202.739 411.008C203.123 410.763 203.432 410.411 203.667 409.952L204.339 410.4C204.072 410.944 203.688 411.381 203.187 411.712C202.696 412.032 202.072 412.192 201.315 412.192ZM209.127 412.192C207.997 412.192 207.122 411.819 206.503 411.072C205.895 410.325 205.591 409.269 205.591 407.904C205.591 406.539 205.895 405.483 206.503 404.736C207.122 403.989 207.997 403.616 209.127 403.616C209.885 403.616 210.498 403.781 210.967 404.112C211.437 404.443 211.794 404.88 212.039 405.424L211.271 405.808C211.079 405.36 210.807 405.019 210.455 404.784C210.114 404.549 209.671 404.432 209.127 404.432C208.295 404.432 207.661 404.699 207.223 405.232C206.786 405.765 206.567 406.464 206.567 407.328V408.48C206.567 409.344 206.786 410.043 207.223 410.576C207.661 411.109 208.295 411.376 209.127 411.376C209.693 411.376 210.167 411.253 210.551 411.008C210.935 410.763 211.245 410.411 211.479 409.952L212.151 410.4C211.885 410.944 211.501 411.381 210.999 411.712C210.509 412.032 209.885 412.192 209.127 412.192ZM216.972 412.192C216.428 412.192 215.937 412.096 215.5 411.904C215.063 411.712 214.689 411.435 214.38 411.072C214.071 410.699 213.831 410.245 213.66 409.712C213.489 409.179 213.404 408.576 213.404 407.904C213.404 407.232 213.489 406.635 213.66 406.112C213.831 405.579 214.071 405.131 214.38 404.768C214.689 404.395 215.063 404.112 215.5 403.92C215.937 403.717 216.428 403.616 216.972 403.616C217.516 403.616 218.007 403.717 218.444 403.92C218.881 404.112 219.255 404.395 219.564 404.768C219.873 405.131 220.113 405.579 220.284 406.112C220.455 406.635 220.54 407.232 220.54 407.904C220.54 408.576 220.455 409.179 220.284 409.712C220.113 410.245 219.873 410.699 219.564 411.072C219.255 411.435 218.881 411.712 218.444 411.904C218.007 412.096 217.516 412.192 216.972 412.192ZM216.972 411.376C217.772 411.376 218.401 411.125 218.86 410.624C219.329 410.123 219.564 409.387 219.564 408.416V407.392C219.564 406.432 219.329 405.701 218.86 405.2C218.401 404.688 217.772 404.432 216.972 404.432C216.172 404.432 215.537 404.683 215.068 405.184C214.609 405.685 214.38 406.421 214.38 407.392V408.416C214.38 409.376 214.609 410.112 215.068 410.624C215.537 411.125 216.172 411.376 216.972 411.376ZM227.977 410.704H227.913C227.838 410.896 227.737 411.083 227.609 411.264C227.481 411.445 227.321 411.605 227.129 411.744C226.937 411.872 226.707 411.979 226.441 412.064C226.185 412.149 225.881 412.192 225.529 412.192C224.654 412.192 223.971 411.925 223.481 411.392C222.99 410.848 222.745 410.075 222.745 409.072V403.808H223.657V408.896C223.657 409.739 223.838 410.363 224.201 410.768C224.563 411.173 225.086 411.376 225.769 411.376C226.057 411.376 226.329 411.339 226.585 411.264C226.851 411.189 227.086 411.077 227.289 410.928C227.502 410.779 227.667 410.592 227.785 410.368C227.913 410.133 227.977 409.861 227.977 409.552V403.808H228.889V412H227.977V410.704ZM231.872 412V403.808H232.784V405.104H232.832C233.014 404.677 233.296 404.325 233.68 404.048C234.064 403.76 234.587 403.616 235.248 403.616C236.123 403.616 236.8 403.888 237.28 404.432C237.771 404.965 238.016 405.733 238.016 406.736V412H237.104V406.896C237.104 406.064 236.923 405.445 236.56 405.04C236.208 404.635 235.691 404.432 235.008 404.432C234.72 404.432 234.443 404.469 234.176 404.544C233.91 404.619 233.67 404.731 233.456 404.88C233.254 405.029 233.088 405.221 232.96 405.456C232.843 405.68 232.784 405.941 232.784 406.24V412H231.872ZM242.296 412C241.965 412 241.715 411.909 241.544 411.728C241.373 411.547 241.288 411.301 241.288 410.992V404.608H239.864V403.808H240.792C241.016 403.808 241.165 403.765 241.24 403.68C241.325 403.584 241.368 403.419 241.368 403.184V401.52H242.2V403.808H244.056V404.608H242.2V411.2H243.928V412H242.296Z" fill="white"/>
<defs>
<filter id="filter0_d" x="0" y="0" width="384" height="469" filterUnits="userSpaceOnUse" color-interpolation-filters="sRGB">
<feFlood flood-opacity="0" result="BackgroundImageFix"/>
<feColorMatrix in="SourceAlpha" type="matrix" values="0 0 0 0 0 0 0 0 0 0 0 0 0 0 0 0 0 0 127 0"/>
<feOffset dy="8"/>
<feGaussianBlur stdDeviation="12"/>
<feColorMatrix type="matrix" values="0 0 0 0 0.501961 0 0 0 0 0.545098 0 0 0 0 0.658824 0 0 0 0.2 0"/>
<feBlend mode="normal" in2="BackgroundImageFix" result="effect1_dropShadow"/>
<feBlend mode="normal" in="SourceGraphic" in2="effect1_dropShadow" result="shape"/>
</filter>
</defs>
</svg>
